<svg xmlns="http://www.w3.org/2000/svg" width="21.971" height="26.593" viewBox="0 0 21.971 26.593">
  <path id="icon" d="M1013.379,3699.013a6.087,6.087,0,0,1,3.974-2.014,5.806,5.806,0,0,1-1.4,4.247,5.028,5.028,0,0,1-4,1.882A5.518,5.518,0,0,1,1013.379,3699.013Zm7.719,21.277c-1.126,1.621-2.29,3.232-4.129,3.265-1.809.035-2.389-1.055-4.454-1.055s-2.714,1.021-4.422,1.09c-1.775.065-3.124-1.751-4.259-3.365-2.318-3.3-4.089-9.331-1.709-13.4a6.617,6.617,0,0,1,5.579-3.334c1.743-.031,3.39,1.157,4.454,1.157s3.065-1.427,5.166-1.218a6.335,6.335,0,0,1,4.933,2.634,6.019,6.019,0,0,0-2.912,5.064,5.882,5.882,0,0,0,3.62,5.377A14.56,14.56,0,0,1,1021.1,3720.29Z" transform="translate(-1000.996 -3696.999)" fill="#fff"/>
</svg>
