<svg xmlns="http://www.w3.org/2000/svg" width="85" height="90" viewBox="0 0 85 90">
  <g id="Vector_Smart_Object2" data-name="Vector Smart Object2" transform="translate(-558.021 -105.581)">
    <g id="Group_69" data-name="Group 69">
      <g id="Group_34" data-name="Group 34">
        <ellipse id="Ellipse_4" data-name="Ellipse 4" cx="16.081" cy="15.951" rx="16.081" ry="15.951" transform="translate(610.86 121.265)" fill="#f7eded"/>
      </g>
      <g id="Group_35" data-name="Group 35">
        <ellipse id="Ellipse_5" data-name="Ellipse 5" cx="13.783" cy="13.672" rx="13.783" ry="13.672" transform="translate(600.972 168.237)" fill="#f7eded"/>
      </g>
      <g id="Group_36" data-name="Group 36">
        <ellipse id="Ellipse_6" data-name="Ellipse 6" cx="22.972" cy="22.787" rx="22.972" ry="22.787" transform="translate(558.021 105.581)" fill="#f7eded"/>
      </g>
      <g id="Group_37" data-name="Group 37">
        <path id="Path_29" data-name="Path 29" d="M606.265,182.479h-9.189a3.433,3.433,0,0,1-3.446-3.418h0a3.433,3.433,0,0,1,3.446-3.418h9.189a3.433,3.433,0,0,1,3.446,3.418h0A3.433,3.433,0,0,1,606.265,182.479Z" fill="#fff"/>
      </g>
      <g id="Group_38" data-name="Group 38">
        <path id="Path_30" data-name="Path 30" d="M622.346,179.915H609.711a.855.855,0,1,1,0-1.709h12.635a10.593,10.593,0,0,0,10.625-10.539V155.212a.861.861,0,0,1,1.723,0v12.455A12.311,12.311,0,0,1,622.346,179.915Z" fill="#061a3a"/>
      </g>
      <g id="Group_39" data-name="Group 39">
        <path id="Path_31" data-name="Path 31" d="M609.711,179.061h-9.188a3.433,3.433,0,0,0-3.446,3.418h9.188A3.433,3.433,0,0,0,609.711,179.061Z" fill="#fe5948"/>
      </g>
      <g id="Group_40" data-name="Group 40">
        <path id="Path_32" data-name="Path 32" d="M606.265,183.333h-9.189a4.273,4.273,0,1,1,0-8.545h9.189a4.273,4.273,0,1,1,0,8.545Zm-9.189-6.836a2.564,2.564,0,1,0,0,5.127h9.189a2.564,2.564,0,1,0,0-5.127Z" fill="#061a3a"/>
      </g>
      <g id="Group_41" data-name="Group 41">
        <path id="Path_33" data-name="Path 33" d="M633.832,150.575v-7.09c0-13.7-14.4-24.812-32.161-24.812h0c-17.762,0-32.161,11.109-32.161,24.812V141.46a32.032,32.032,0,0,1,32.161-31.9h0a32.032,32.032,0,0,1,32.161,31.9Z" fill="#fff"/>
      </g>
      <g id="Group_42" data-name="Group 42">
        <path id="Path_34" data-name="Path 34" d="M632.579,132.646a31.85,31.85,0,0,0-9.4-14.9,32.169,32.169,0,0,0-16.911-4.769h0a32.189,32.189,0,0,0-24.1,10.782,38.521,38.521,0,0,1,19.5-5.085h0c9.822,0,18.61,3.4,24.509,8.755,4.769,4.328,7.652,9.931,7.652,16.057V141.46A31.627,31.627,0,0,0,632.579,132.646Z" fill="#fe5948"/>
      </g>
      <g id="Group_43" data-name="Group 43">
        <path id="Path_35" data-name="Path 35" d="M633.832,151.429a.858.858,0,0,1-.861-.855v-7.09c0-13.209-14.041-23.957-31.3-23.957s-31.3,10.749-31.3,23.957v7.09a.861.861,0,0,1-1.723,0V141.46a33.024,33.024,0,0,1,66.046,0v9.115A.858.858,0,0,1,633.832,151.429Zm-32.161-33.611c13.37,0,24.91,6.206,30.1,15.11a31.375,31.375,0,0,0-60.2,0C576.762,124.024,588.3,117.818,601.671,117.818Z" fill="#061a3a"/>
      </g>
      <g id="Group_44" data-name="Group 44">
        <rect id="Rectangle_1" data-name="Rectangle 1" width="6.892" height="27.344" rx="2.288" transform="translate(576.399 139.181)" fill="#fff"/>
      </g>
      <g id="Group_45" data-name="Group 45">
        <rect id="Rectangle_2" data-name="Rectangle 2" width="6.892" height="27.344" rx="2.288" transform="translate(620.051 139.181)" fill="#fff"/>
      </g>
      <g id="Group_46" data-name="Group 46">
        <path id="Path_36" data-name="Path 36" d="M609.711,165.386H598.57l-7.236,5.7V142.6a2.288,2.288,0,0,1,2.3-2.279h16.081a2.287,2.287,0,0,1,2.3,2.279v20.508A2.288,2.288,0,0,1,609.711,165.386Z" fill="#fff"/>
      </g>
      <g id="Group_47" data-name="Group 47">
        <path id="Path_37" data-name="Path 37" d="M576.4,164.245a11.394,11.394,0,1,1,0-22.787Z" fill="#fff"/>
      </g>
      <g id="Group_48" data-name="Group 48">
        <path id="Path_38" data-name="Path 38" d="M626.94,141.458a11.394,11.394,0,1,1,0,22.787Z" fill="#fff"/>
      </g>
      <g id="Group_49" data-name="Group 49">
        <path id="Path_39" data-name="Path 39" d="M609.711,165.386a2.288,2.288,0,0,0,2.3-2.279v-18.23H598.226a1.144,1.144,0,0,0-1.149,1.139v20.544l1.492-1.175Z" fill="#fe5948"/>
      </g>
      <g id="Group_50" data-name="Group 50">
        <path id="Path_40" data-name="Path 40" d="M583.291,164.247V143.738h-1.147a2.289,2.289,0,0,0-2.3,2.279v20.508h1.147A2.287,2.287,0,0,0,583.291,164.247Z" fill="#fe5948"/>
      </g>
      <g id="Group_51" data-name="Group 51">
        <path id="Path_41" data-name="Path 41" d="M626.943,164.247V143.738H625.8a2.289,2.289,0,0,0-2.3,2.279v20.508h1.147A2.287,2.287,0,0,0,626.943,164.247Z" fill="#fe5948"/>
      </g>
      <g id="Group_52" data-name="Group 52">
        <path id="Path_42" data-name="Path 42" d="M626.94,157.408v6.836a11.439,11.439,0,0,0,11.486-11.394,11.286,11.286,0,0,0-.527-3.418A11.48,11.48,0,0,1,626.94,157.408Z" fill="#fe5948"/>
      </g>
      <g id="Group_53" data-name="Group 53">
        <path id="Path_43" data-name="Path 43" d="M576.4,146.538a11.411,11.411,0,0,0-8.04,10.871,11.261,11.261,0,0,0,.865,4.331,11.487,11.487,0,0,0,7.175,2.505Z" fill="#fe5948"/>
      </g>
      <g id="Group_54" data-name="Group 54">
        <path id="Path_44" data-name="Path 44" d="M591.333,171.938a.858.858,0,0,1-.861-.855V142.6a3.15,3.15,0,0,1,3.159-3.133h16.081a3.149,3.149,0,0,1,3.159,3.133v20.508a3.149,3.149,0,0,1-3.159,3.133H598.87l-7,5.512A.872.872,0,0,1,591.333,171.938Zm2.3-30.763a1.432,1.432,0,0,0-1.436,1.424v26.714l5.84-4.6a.868.868,0,0,1,.535-.185h11.142a1.43,1.43,0,0,0,1.436-1.424V142.6a1.431,1.431,0,0,0-1.436-1.424Z" fill="#061a3a"/>
      </g>
      <g id="Group_55" data-name="Group 55">
        <path id="Path_45" data-name="Path 45" d="M580.993,167.38h-2.3a3.15,3.15,0,0,1-3.159-3.133V141.46a3.149,3.149,0,0,1,3.159-3.133h2.3a3.149,3.149,0,0,1,3.159,3.133v22.787A3.149,3.149,0,0,1,580.993,167.38Zm-2.3-27.344a1.432,1.432,0,0,0-1.436,1.424v22.787a1.431,1.431,0,0,0,1.436,1.424h2.3a1.431,1.431,0,0,0,1.436-1.424V141.46a1.431,1.431,0,0,0-1.436-1.424Z" fill="#061a3a"/>
      </g>
      <g id="Group_56" data-name="Group 56">
        <path id="Path_46" data-name="Path 46" d="M624.646,167.38h-2.3a3.15,3.15,0,0,1-3.159-3.133V141.46a3.149,3.149,0,0,1,3.159-3.133h2.3a3.149,3.149,0,0,1,3.159,3.133v22.787A3.149,3.149,0,0,1,624.646,167.38Zm-2.3-27.344a1.432,1.432,0,0,0-1.436,1.424v22.787a1.431,1.431,0,0,0,1.436,1.424h2.3a1.431,1.431,0,0,0,1.436-1.424V141.46a1.431,1.431,0,0,0-1.436-1.424Z" fill="#061a3a"/>
      </g>
      <g id="Group_57" data-name="Group 57">
        <path id="Path_47" data-name="Path 47" d="M626.94,165.1a.858.858,0,0,1-.861-.855V141.458a.858.858,0,0,1,.861-.855,12.248,12.248,0,1,1,0,24.5Zm.862-22.754v21.01a10.533,10.533,0,0,0,0-21.01Z" fill="#061a3a"/>
      </g>
      <g id="Group_58" data-name="Group 58">
        <path id="Path_48" data-name="Path 48" d="M576.4,165.1a12.248,12.248,0,1,1,0-24.5.858.858,0,0,1,.861.855v22.787A.858.858,0,0,1,576.4,165.1Zm-.862-22.754a10.533,10.533,0,0,0,0,21.01Z" fill="#061a3a"/>
      </g>
      <g id="Group_59" data-name="Group 59">
        <path id="Path_49" data-name="Path 49" d="M590.572,132.06h-4.595a.855.855,0,1,1,0-1.709h4.595a.855.855,0,1,1,0,1.709Z" fill="#061a3a"/>
      </g>
      <g id="Group_60" data-name="Group 60">
        <path id="Path_50" data-name="Path 50" d="M588.275,134.339a.858.858,0,0,1-.862-.855v-4.557a.862.862,0,0,1,1.723,0v4.557A.858.858,0,0,1,588.275,134.339Z" fill="#061a3a"/>
      </g>
      <g id="Group_61" data-name="Group 61">
        <path id="Path_51" data-name="Path 51" d="M576.97,175.356h-4.594a.855.855,0,1,1,0-1.709h4.594a.855.855,0,1,1,0,1.709Z" fill="#061a3a"/>
      </g>
      <g id="Group_62" data-name="Group 62">
        <path id="Path_52" data-name="Path 52" d="M574.673,177.634a.858.858,0,0,1-.861-.855v-4.557a.861.861,0,0,1,1.723,0v4.557A.858.858,0,0,1,574.673,177.634Z" fill="#061a3a"/>
      </g>
      <g id="Group_63" data-name="Group 63">
        <path id="Path_53" data-name="Path 53" d="M633.832,114.846h-4.594a.855.855,0,1,1,0-1.709h4.594a.855.855,0,1,1,0,1.709Z" fill="#061a3a"/>
      </g>
      <g id="Group_64" data-name="Group 64">
        <path id="Path_54" data-name="Path 54" d="M631.535,117.124a.858.858,0,0,1-.861-.855v-4.557a.861.861,0,0,1,1.723,0v4.557A.858.858,0,0,1,631.535,117.124Z" fill="#061a3a"/>
      </g>
      <g id="Group_65" data-name="Group 65">
        <path id="Path_55" data-name="Path 55" d="M600.91,126.361h-4.594a.855.855,0,1,1,0-1.709h4.594a.855.855,0,1,1,0,1.709Z" fill="#061a3a"/>
      </g>
      <g id="Group_66" data-name="Group 66">
        <path id="Path_56" data-name="Path 56" d="M598.613,128.64a.858.858,0,0,1-.861-.855v-4.557a.861.861,0,0,1,1.723,0v4.557A.858.858,0,0,1,598.613,128.64Z" fill="#061a3a"/>
      </g>
      <g id="Group_67" data-name="Group 67">
        <path id="Path_57" data-name="Path 57" d="M618.282,134.833h-4.594a.855.855,0,1,1,0-1.709h4.594a.855.855,0,1,1,0,1.709Z" fill="#061a3a"/>
      </g>
      <g id="Group_68" data-name="Group 68">
        <path id="Path_58" data-name="Path 58" d="M615.985,137.112a.858.858,0,0,1-.862-.855V131.7a.862.862,0,0,1,1.723,0v4.557A.858.858,0,0,1,615.985,137.112Z" fill="#061a3a"/>
      </g>
    </g>
  </g>
</svg>
