<svg xmlns="http://www.w3.org/2000/svg" width="69.018" height="69.126" viewBox="0 0 69.018 69.126">
  <g id="Group_112" data-name="Group 112" transform="translate(0 0)">
    <g id="Group_73" data-name="Group 73" transform="translate(18.325 0.792)">
      <path id="Path_59" data-name="Path 59" d="M934.512,302.523a33.807,33.807,0,0,0-32.656-42.214,33.528,33.528,0,0,0-16.184,4.14v38.074Z" transform="translate(-885.672 -260.308)" fill="#fff"/>
    </g>
    <g id="Group_74" data-name="Group 74" transform="translate(18.325 0.792)">
      <path id="Path_60" data-name="Path 60" d="M901.856,260.308a33.528,33.528,0,0,0-16.184,4.14v6.6a30.424,30.424,0,0,1,41.018,28.564c0,.98-.051,1.949-.141,2.906h7.964a33.807,33.807,0,0,0-32.656-42.214Z" transform="translate(-885.672 -260.308)" fill="#01b4d9"/>
    </g>
    <g id="Group_75" data-name="Group 75" transform="translate(17.535)">
      <path id="Path_61" data-name="Path 61" d="M934.424,303.226h-48.84a.791.791,0,0,1-.79-.792V264.36a.79.79,0,0,1,.411-.693,34.562,34.562,0,0,1,49.985,38.965A.789.789,0,0,1,934.424,303.226Zm-48.05-1.583h47.432a32.942,32.942,0,0,0-47.432-36.81Z" transform="translate(-884.794 -259.428)" fill="#061a3a"/>
    </g>
    <g id="Group_76" data-name="Group 76" transform="translate(0.79 24.007)">
      <path id="Path_62" data-name="Path 62" d="M866.178,296.673a33.839,33.839,0,0,0,1.063,8.443h16.472v-19H867.878A33.754,33.754,0,0,0,866.178,296.673Z" transform="translate(-866.178 -286.118)" fill="#fff"/>
    </g>
    <g id="Group_77" data-name="Group 77" transform="translate(1.214 24.007)">
      <path id="Path_63" data-name="Path 63" d="M878.492,305.116h5.269v-19H867.925a34.138,34.138,0,0,0-1.276,5.278h9.735a2.109,2.109,0,0,1,2.107,2.111Z" transform="translate(-866.649 -286.118)" fill="#01b4d9"/>
    </g>
    <g id="Group_78" data-name="Group 78" transform="translate(0 23.216)">
      <path id="Path_64" data-name="Path 64" d="M883.625,305.819H867.153a.792.792,0,0,1-.766-.594,34.612,34.612,0,0,1,.652-19.443.789.789,0,0,1,.75-.545h15.835a.791.791,0,0,1,.79.792v19A.791.791,0,0,1,883.625,305.819Zm-15.853-1.583h15.063V286.821H868.367a33.012,33.012,0,0,0-.6,17.416Z" transform="translate(-865.3 -285.238)" fill="#061a3a"/>
    </g>
    <g id="Group_79" data-name="Group 79" transform="translate(2.49 4.932)">
      <path id="Path_65" data-name="Path 65" d="M868.068,283.987H883.9V264.911A33.855,33.855,0,0,0,868.068,283.987Z" transform="translate(-868.068 -264.911)" fill="#fff"/>
    </g>
    <g id="Group_80" data-name="Group 80" transform="translate(2.49 4.932)">
      <path id="Path_66" data-name="Path 66" d="M883.9,271.515v-6.6a33.855,33.855,0,0,0-15.835,19.076h.6A30.519,30.519,0,0,1,883.9,271.515Z" transform="translate(-868.068 -264.911)" fill="#01b4d9"/>
    </g>
    <g id="Group_81" data-name="Group 81" transform="translate(1.699 4.14)">
      <path id="Path_67" data-name="Path 67" d="M883.815,284.69H867.98a.792.792,0,0,1-.751-1.038,34.471,34.471,0,0,1,16.207-19.522.789.789,0,0,1,1.17.693V283.9A.791.791,0,0,1,883.815,284.69Zm-14.723-1.583h13.933V266.19A32.861,32.861,0,0,0,869.091,283.107Z" transform="translate(-867.189 -264.031)" fill="#061a3a"/>
    </g>
    <g id="Group_82" data-name="Group 82" transform="translate(1.853 43.006)">
      <path id="Path_68" data-name="Path 68" d="M867.36,307.239a33.825,33.825,0,0,0,16.472,21.188V307.239Z" transform="translate(-867.36 -307.239)" fill="#fff"/>
    </g>
    <g id="Group_83" data-name="Group 83" transform="translate(1.853 43.006)">
      <path id="Path_69" data-name="Path 69" d="M883.832,307.239H867.36a33.4,33.4,0,0,0,1.844,5.278h7.252a2.109,2.109,0,0,1,2.107,2.111v10.211a33.715,33.715,0,0,0,5.269,3.589Z" transform="translate(-867.36 -307.239)" fill="#01b4d9"/>
    </g>
    <g id="Group_84" data-name="Group 84" transform="translate(1.062 42.214)">
      <path id="Path_70" data-name="Path 70" d="M883.744,329.13a.77.77,0,0,1-.379-.1,34.68,34.68,0,0,1-16.858-21.684.791.791,0,0,1,.766-.989h16.472a.791.791,0,0,1,.79.792v21.188a.789.789,0,0,1-.79.792Zm-15.436-21.188a33.119,33.119,0,0,0,14.646,19.028V307.942Z" transform="translate(-866.481 -306.359)" fill="#061a3a"/>
    </g>
    <g id="Group_85" data-name="Group 85" transform="translate(18.325 43.006)">
      <path id="Path_71" data-name="Path 71" d="M903.587,307.239H885.672v21.188a33.516,33.516,0,0,0,16.184,4.14c.581,0,1.157-.018,1.731-.049v-25.28Z" transform="translate(-885.672 -307.239)" fill="#fff"/>
    </g>
    <g id="Group_86" data-name="Group 86" transform="translate(18.325 43.006)">
      <path id="Path_72" data-name="Path 72" d="M898.318,314.627v17.741a34.086,34.086,0,0,0,3.538.2c.581,0,1.157-.018,1.731-.049v-25.28H885.672v5.278H896.21A2.109,2.109,0,0,1,898.318,314.627Z" transform="translate(-885.672 -307.239)" fill="#01b4d9"/>
    </g>
    <g id="Group_87" data-name="Group 87" transform="translate(17.535 42.214)">
      <path id="Path_73" data-name="Path 73" d="M901.768,333.27a34.5,34.5,0,0,1-16.563-4.238.789.789,0,0,1-.411-.693V307.15a.791.791,0,0,1,.79-.792H903.5a.791.791,0,0,1,.79.792v25.28a.79.79,0,0,1-.749.791C902.953,333.253,902.362,333.27,901.768,333.27Zm-15.394-5.4a32.83,32.83,0,0,0,16.335,3.806v-23.73H886.374Z" transform="translate(-884.794 -306.359)" fill="#061a3a"/>
    </g>
    <g id="Group_88" data-name="Group 88" transform="translate(36.24 43.006)">
      <path id="Path_74" data-name="Path 74" d="M927.295,323.071a33.735,33.735,0,0,0,9.219-15.832H905.589v15.832Z" transform="translate(-905.589 -307.239)" fill="#fff"/>
    </g>
    <g id="Group_89" data-name="Group 89" transform="translate(52.9 43.006)">
      <path id="Path_75" data-name="Path 75" d="M924.11,323.071h5.046a33.735,33.735,0,0,0,9.219-15.832h-7.964A30.339,30.339,0,0,1,924.11,323.071Z" transform="translate(-924.11 -307.239)" fill="#01b4d9"/>
    </g>
    <g id="Group_90" data-name="Group 90" transform="translate(35.45 42.214)">
      <path id="Path_76" data-name="Path 76" d="M927.207,323.774H905.5a.791.791,0,0,1-.79-.792V307.15a.791.791,0,0,1,.79-.792h30.925a.79.79,0,0,1,.765.989,34.522,34.522,0,0,1-9.435,16.2A.785.785,0,0,1,927.207,323.774Zm-20.916-1.583h20.594a32.961,32.961,0,0,0,8.505-14.249h-29.1Z" transform="translate(-904.71 -306.359)" fill="#061a3a"/>
    </g>
    <g id="Group_91" data-name="Group 91" transform="translate(36.24 58.838)">
      <path id="Path_77" data-name="Path 77" d="M905.589,324.84v9.448a33.584,33.584,0,0,0,21.706-9.448Z" transform="translate(-905.589 -324.84)" fill="#fff"/>
    </g>
    <g id="Group_92" data-name="Group 92" transform="translate(42.46 58.838)">
      <path id="Path_78" data-name="Path 78" d="M912.5,333.386a33.654,33.654,0,0,0,15.486-8.546h-5.046A30.575,30.575,0,0,1,912.5,333.386Z" transform="translate(-912.503 -324.84)" fill="#01b4d9"/>
    </g>
    <g id="Group_93" data-name="Group 93" transform="translate(35.45 58.047)">
      <path id="Path_79" data-name="Path 79" d="M905.5,334.991a.791.791,0,0,1-.79-.792v-9.448a.791.791,0,0,1,.79-.792h21.706a.792.792,0,0,1,.549,1.36,34.44,34.44,0,0,1-22.215,9.669Zm.79-9.448v7.813a32.855,32.855,0,0,0,18.872-7.813Z" transform="translate(-904.71 -323.96)" fill="#061a3a"/>
    </g>
    <g id="Group_94" data-name="Group 94" transform="translate(24.426 10.291)">
      <path id="Path_80" data-name="Path 80" d="M922.259,275.991a17.472,17.472,0,0,0-24.69,24.728l12.345,12.365,12.345-12.365A17.505,17.505,0,0,0,922.259,275.991Z" transform="translate(-892.454 -270.87)" fill="#fff"/>
    </g>
    <g id="Group_95" data-name="Group 95" transform="translate(28.135 10.291)">
      <path id="Path_81" data-name="Path 81" d="M922.673,275.991a17.44,17.44,0,0,0-24.69,0,17.76,17.76,0,0,0-1.4,1.608,17.468,17.468,0,0,1,23.084,26.136l3.011-3.016A17.505,17.505,0,0,0,922.673,275.991Z" transform="translate(-896.578 -270.87)" fill="#01b4d9"/>
    </g>
    <g id="Group_96" data-name="Group 96" transform="translate(23.636 9.508)">
      <path id="Path_82" data-name="Path 82" d="M909.825,313.787a.786.786,0,0,1-.56-.232l-12.344-12.365a18.263,18.263,0,0,1,25.807-25.848h0a18.319,18.319,0,0,1,0,25.848l-12.345,12.365A.783.783,0,0,1,909.825,313.787Zm0-42.206a16.694,16.694,0,0,0-11.787,28.49l11.787,11.8,11.786-11.8a16.686,16.686,0,0,0-11.786-28.49Z" transform="translate(-891.576 -269.998)" fill="#061a3a"/>
    </g>
    <g id="Group_97" data-name="Group 97" transform="translate(32.401 18.278)">
      <ellipse id="Ellipse_10" data-name="Ellipse 10" cx="9.483" cy="9.498" rx="9.483" ry="9.498" fill="#fff"/>
    </g>
    <g id="Group_98" data-name="Group 98" transform="translate(33.795 18.279)">
      <path id="Path_83" data-name="Path 83" d="M920.443,289.248a9.473,9.473,0,0,0-17.574-4.937,9.478,9.478,0,0,1,13.019,13.04A9.487,9.487,0,0,0,920.443,289.248Z" transform="translate(-902.87 -279.749)" fill="#01b4d9"/>
    </g>
    <g id="Group_99" data-name="Group 99" transform="translate(31.611 17.487)">
      <path id="Path_84" data-name="Path 84" d="M910.716,299.449a10.29,10.29,0,1,1,10.274-10.29A10.294,10.294,0,0,1,910.716,299.449Zm0-19a8.707,8.707,0,1,0,8.693,8.707A8.71,8.71,0,0,0,910.716,280.452Z" transform="translate(-900.443 -278.869)" fill="#061a3a"/>
    </g>
    <g id="Group_100" data-name="Group 100" transform="translate(27.537 58.624)">
      <ellipse id="Ellipse_11" data-name="Ellipse 11" cx="2.107" cy="2.111" rx="2.107" ry="2.111" fill="#fff"/>
    </g>
    <g id="Group_101" data-name="Group 101" transform="translate(26.747 57.833)">
      <path id="Path_85" data-name="Path 85" d="M897.933,329.526a2.9,2.9,0,1,1,2.9-2.9A2.9,2.9,0,0,1,897.933,329.526Zm0-4.221a1.319,1.319,0,1,0,1.317,1.319A1.319,1.319,0,0,0,897.933,325.3Z" transform="translate(-895.035 -323.722)" fill="#061a3a"/>
    </g>
    <g id="Group_102" data-name="Group 102" transform="translate(52.828 50.18)">
      <ellipse id="Ellipse_12" data-name="Ellipse 12" cx="2.107" cy="2.111" rx="2.107" ry="2.111" fill="#fff"/>
    </g>
    <g id="Group_103" data-name="Group 103" transform="translate(52.037 49.389)">
      <path id="Path_86" data-name="Path 86" d="M926.048,320.139a2.9,2.9,0,1,1,2.9-2.9A2.9,2.9,0,0,1,926.048,320.139Zm0-4.221a1.319,1.319,0,1,0,1.317,1.319A1.319,1.319,0,0,0,926.048,315.918Z" transform="translate(-923.151 -314.335)" fill="#061a3a"/>
    </g>
    <g id="Group_104" data-name="Group 104" transform="translate(22.268 48.07)">
      <ellipse id="Ellipse_13" data-name="Ellipse 13" cx="2.107" cy="2.111" rx="2.107" ry="2.111" fill="#fff"/>
    </g>
    <g id="Group_105" data-name="Group 105" transform="translate(21.478 47.278)">
      <path id="Path_87" data-name="Path 87" d="M892.075,317.793a2.9,2.9,0,1,1,2.9-2.9A2.9,2.9,0,0,1,892.075,317.793Zm0-4.221a1.319,1.319,0,1,0,1.317,1.319A1.319,1.319,0,0,0,892.075,313.571Z" transform="translate(-889.177 -311.988)" fill="#061a3a"/>
    </g>
    <g id="Group_106" data-name="Group 106" transform="translate(6.461 34.348)">
      <ellipse id="Ellipse_14" data-name="Ellipse 14" cx="2.107" cy="2.111" rx="2.107" ry="2.111" fill="#fff"/>
    </g>
    <g id="Group_107" data-name="Group 107" transform="translate(5.671 33.556)">
      <path id="Path_88" data-name="Path 88" d="M874.5,302.538a2.9,2.9,0,1,1,2.9-2.9A2.9,2.9,0,0,1,874.5,302.538Zm0-4.221a1.319,1.319,0,1,0,1.317,1.319A1.319,1.319,0,0,0,874.5,298.316Z" transform="translate(-871.604 -296.733)" fill="#061a3a"/>
    </g>
    <g id="Group_108" data-name="Group 108" transform="translate(9.622 15.349)">
      <ellipse id="Ellipse_15" data-name="Ellipse 15" cx="2.107" cy="2.111" rx="2.107" ry="2.111" fill="#fff"/>
    </g>
    <g id="Group_109" data-name="Group 109" transform="translate(8.832 14.558)">
      <path id="Path_89" data-name="Path 89" d="M878.016,281.417a2.9,2.9,0,1,1,2.9-2.9A2.9,2.9,0,0,1,878.016,281.417Zm0-4.221a1.319,1.319,0,1,0,1.317,1.319A1.319,1.319,0,0,0,878.016,277.2Z" transform="translate(-875.119 -275.612)" fill="#061a3a"/>
    </g>
    <g id="Group_110" data-name="Group 110" transform="translate(24.376 6.906)">
      <ellipse id="Ellipse_16" data-name="Ellipse 16" cx="2.107" cy="2.111" rx="2.107" ry="2.111" fill="#fff"/>
    </g>
    <g id="Group_111" data-name="Group 111" transform="translate(23.585 6.115)">
      <path id="Path_90" data-name="Path 90" d="M894.417,272.031a2.9,2.9,0,1,1,2.9-2.9A2.9,2.9,0,0,1,894.417,272.031Zm0-4.221a1.319,1.319,0,1,0,1.317,1.319A1.319,1.319,0,0,0,894.417,267.809Z" transform="translate(-891.52 -266.226)" fill="#061a3a"/>
    </g>
  </g>
</svg>
