<svg xmlns="http://www.w3.org/2000/svg" width="99" height="93" viewBox="0 0 99 93">
  <g id="Vector_Smart_Object" data-name="Vector Smart Object" transform="translate(-293.944 -111.663)">
    <g id="Group_33" data-name="Group 33">
      <g id="Group_3" data-name="Group 3">
        <ellipse id="Ellipse_1" data-name="Ellipse 1" cx="16.557" cy="16.626" rx="16.557" ry="16.626" transform="translate(359.831 130.052)" fill="#e2f2f0"/>
      </g>
      <g id="Group_4" data-name="Group 4">
        <ellipse id="Ellipse_2" data-name="Ellipse 2" cx="14.192" cy="14.251" rx="14.192" ry="14.251" transform="translate(308.356 111.663)" fill="#e2f2f0"/>
      </g>
      <g id="Group_5" data-name="Group 5">
        <ellipse id="Ellipse_3" data-name="Ellipse 3" cx="23.653" cy="23.752" rx="23.653" ry="23.752" transform="translate(293.944 157.159)" fill="#e2f2f0"/>
      </g>
      <g id="Group_32" data-name="Group 32">
        <g id="Group_6" data-name="Group 6">
          <path id="Path_3" data-name="Path 3" d="M378.758,152.045H307.8a2.371,2.371,0,0,0-2.365,2.375v28.5A2.37,2.37,0,0,0,307.8,185.3H327.91l15.373,13.064L358.657,185.3h20.1a2.37,2.37,0,0,0,2.365-2.375v-28.5A2.371,2.371,0,0,0,378.758,152.045Z" fill="#fff"/>
        </g>
        <g id="Group_7" data-name="Group 7">
          <path id="Path_4" data-name="Path 4" d="M378.758,152.045h-1.183l-3.548,29.69-17.736-1.188-20.679,11.3,7.671,6.519L358.657,185.3h20.1a2.37,2.37,0,0,0,2.365-2.375v-28.5A2.37,2.37,0,0,0,378.758,152.045Z" fill="#39cabb"/>
        </g>
        <g id="Group_8" data-name="Group 8">
          <path id="Path_5" data-name="Path 5" d="M343.282,199.252a.881.881,0,0,1-.572-.211l-15.126-12.852H307.8a3.263,3.263,0,0,1-3.252-3.266v-28.5a3.263,3.263,0,0,1,3.252-3.266h70.958a3.263,3.263,0,0,1,3.252,3.266v28.5a3.263,3.263,0,0,1-3.252,3.266H358.982l-15.126,12.852A.882.882,0,0,1,343.282,199.252ZM307.8,152.936a1.483,1.483,0,0,0-1.478,1.484v28.5a1.482,1.482,0,0,0,1.478,1.484h20.108a.884.884,0,0,1,.574.211l14.8,12.577,14.8-12.577a.884.884,0,0,1,.572-.211h20.1a1.483,1.483,0,0,0,1.478-1.484v-28.5a1.483,1.483,0,0,0-1.478-1.484Z" fill="#061a3a"/>
        </g>
        <g id="Group_9" data-name="Group 9">
          <path id="Path_6" data-name="Path 6" d="M343.278,154.419l28.383,22.168H314.9Z" fill="#39cabb"/>
        </g>
        <g id="Group_10" data-name="Group 10">
          <path id="Path_7" data-name="Path 7" d="M343.278,165.5l7.095-5.541,11.159,13.112L314.9,176.586l21.287-16.626Z" fill="#fff"/>
        </g>
        <g id="Group_11" data-name="Group 11">
          <path id="Path_8" data-name="Path 8" d="M371.662,177.475H314.9a.891.891,0,0,1-.544-1.593l28.383-22.168a.885.885,0,0,1,1.088,0l28.383,22.168a.891.891,0,0,1-.544,1.593Zm-54.182-1.781h51.6l-25.8-20.149Z" fill="#061a3a"/>
        </g>
        <g id="Group_12" data-name="Group 12">
          <path id="Path_9" data-name="Path 9" d="M343.278,165.5,314.9,143.334h56.766Z" fill="#39cabb"/>
        </g>
        <g id="Group_13" data-name="Group 13">
          <path id="Path_10" data-name="Path 10" d="M343.278,165.5l-17.739-18.655,46.122-3.512Z" fill="#fff"/>
        </g>
        <g id="Group_14" data-name="Group 14">
          <path id="Path_11" data-name="Path 11" d="M343.279,166.39a.878.878,0,0,1-.545-.188l-28.383-22.168a.892.892,0,0,1,.545-1.594h56.766a.892.892,0,0,1,.545,1.594L343.824,166.2A.883.883,0,0,1,343.279,166.39Zm-25.8-22.168,25.8,20.149,25.8-20.149Z" fill="#061a3a"/>
        </g>
        <g id="Group_15" data-name="Group 15">
          <path id="Path_12" data-name="Path 12" d="M362.2,127.994a.892.892,0,0,1-.458-.127c-10.18-6.166-26.747-6.166-36.928,0a.89.89,0,0,1-.917-1.526c10.687-6.472,28.073-6.472,38.761,0a.891.891,0,0,1-.459,1.653Z" fill="#061a3a"/>
        </g>
        <g id="Group_16" data-name="Group 16">
          <path id="Path_13" data-name="Path 13" d="M356.287,133.19a.88.88,0,0,1-.458-.127c-6.921-4.19-18.181-4.19-25.1,0a.89.89,0,0,1-.917-1.525c7.426-4.5,19.509-4.5,26.934,0a.89.89,0,0,1-.459,1.652Z" fill="#061a3a"/>
        </g>
        <g id="Group_17" data-name="Group 17">
          <path id="Path_14" data-name="Path 14" d="M350.374,138.387a.871.871,0,0,1-.458-.128,14.091,14.091,0,0,0-13.275,0,.889.889,0,0,1-.917-1.524,15.786,15.786,0,0,1,15.108,0,.89.89,0,0,1-.459,1.652Z" fill="#061a3a"/>
        </g>
        <g id="Group_18" data-name="Group 18">
          <path id="Path_15" data-name="Path 15" d="M314.9,143.334v33.253l21.287-16.626Z" fill="#39cabb"/>
        </g>
        <g id="Group_19" data-name="Group 19">
          <path id="Path_16" data-name="Path 16" d="M371.661,176.586V143.334L350.373,159.96Z" fill="#39cabb"/>
        </g>
        <g id="Group_20" data-name="Group 20">
          <path id="Path_17" data-name="Path 17" d="M314.9,143.334l3.692,25.482,17.6-8.856Z" fill="#fff"/>
        </g>
        <g id="Group_21" data-name="Group 21">
          <path id="Path_18" data-name="Path 18" d="M371.661,176.586l-3.8-25.386-17.491,8.76Z" fill="#fff"/>
        </g>
        <g id="Group_22" data-name="Group 22">
          <path id="Path_19" data-name="Path 19" d="M314.9,177.475a.87.87,0,0,1-.39-.09.892.892,0,0,1-.5-.8V143.332a.886.886,0,0,1,1.432-.7l21.287,16.626a.893.893,0,0,1,0,1.406L315.44,177.288A.877.877,0,0,1,314.9,177.475Zm.887-32.322v29.61l18.955-14.8Z" fill="#061a3a"/>
        </g>
        <g id="Group_23" data-name="Group 23">
          <path id="Path_20" data-name="Path 20" d="M371.662,177.475a.875.875,0,0,1-.544-.188L349.83,160.661a.891.891,0,0,1,0-1.4l21.288-16.626a.881.881,0,0,1,.933-.1.9.9,0,0,1,.5.8v33.253a.894.894,0,0,1-.5.8A.869.869,0,0,1,371.662,177.475Zm-19.845-17.517,18.958,14.806v-29.61Z" fill="#061a3a"/>
        </g>
        <g id="Group_24" data-name="Group 24">
          <path id="Path_21" data-name="Path 21" d="M381.123,138.284h-4.73a.891.891,0,0,1,0-1.781h4.73a.891.891,0,0,1,0,1.781Z" fill="#061a3a"/>
        </g>
        <g id="Group_25" data-name="Group 25">
          <path id="Path_22" data-name="Path 22" d="M378.758,140.659a.889.889,0,0,1-.887-.891v-4.75a.887.887,0,1,1,1.774,0v4.75A.889.889,0,0,1,378.758,140.659Z" fill="#061a3a"/>
        </g>
        <g id="Group_26" data-name="Group 26">
          <path id="Path_23" data-name="Path 23" d="M318.438,131.158h-4.73a.891.891,0,0,1,0-1.781h4.73a.891.891,0,0,1,0,1.781Z" fill="#061a3a"/>
        </g>
        <g id="Group_27" data-name="Group 27">
          <path id="Path_24" data-name="Path 24" d="M316.073,133.533a.889.889,0,0,1-.887-.891v-4.75a.887.887,0,1,1,1.774,0v4.75A.889.889,0,0,1,316.073,133.533Z" fill="#061a3a"/>
        </g>
        <g id="Group_28" data-name="Group 28">
          <path id="Path_25" data-name="Path 25" d="M310.158,141.848h-4.73a.891.891,0,0,1,0-1.781h4.73a.891.891,0,0,1,0,1.781Z" fill="#061a3a"/>
        </g>
        <g id="Group_29" data-name="Group 29">
          <path id="Path_26" data-name="Path 26" d="M307.793,144.223a.889.889,0,0,1-.887-.891v-4.75a.887.887,0,1,1,1.774,0v4.75A.889.889,0,0,1,307.793,144.223Z" fill="#061a3a"/>
        </g>
        <g id="Group_30" data-name="Group 30">
          <path id="Path_27" data-name="Path 27" d="M374.027,126.807H369.3a.891.891,0,0,1,0-1.781h4.73a.891.891,0,0,1,0,1.781Z" fill="#061a3a"/>
        </g>
        <g id="Group_31" data-name="Group 31">
          <path id="Path_28" data-name="Path 28" d="M371.662,129.182a.889.889,0,0,1-.887-.891v-4.75a.887.887,0,1,1,1.774,0v4.75A.889.889,0,0,1,371.662,129.182Z" fill="#061a3a"/>
        </g>
      </g>
    </g>
  </g>
</svg>
