<svg xmlns="http://www.w3.org/2000/svg" width="71.225" height="71.225" viewBox="0 0 71.225 71.225">
  <path id="Path_10189" data-name="Path 10189" d="M1.391,50.915H2.782V69.834a1.391,1.391,0,0,0,1.391,1.391H67.052a4.178,4.178,0,0,0,4.173-4.173V15.3a1.391,1.391,0,0,0-1.391-1.391H59.261V12.52a12.52,12.52,0,1,0-25.04,0v1.391H23.649A1.391,1.391,0,0,0,22.258,15.3V30.051a6.994,6.994,0,0,0-2.642,4.179,1.348,1.348,0,0,0-.14-.009c-.047,0-.093,0-.139,0a6.955,6.955,0,1,0-12.377,5.56H1.391A1.391,1.391,0,0,0,0,41.177v8.347a1.391,1.391,0,0,0,1.391,1.391Zm4.173,0H12.52V68.443H5.564Zm9.738,0h8.347V68.443H15.3ZM33.387,68.443H26.431V50.915h6.956Zm-6.956-20.31V42.568h9.738v5.564Zm0-8.347c-.048,0-.1,0-.142,0A6.907,6.907,0,0,0,25.04,37V31.679a4.173,4.173,0,1,1,1.391,8.107ZM19.395,37l1.2.152a4.188,4.188,0,0,1,2.812,2.63H15.545A4.175,4.175,0,0,1,19.395,37Zm4.254,5.564v5.564H15.3V42.568Zm43.4,25.875H36.169V62.878H68.443v4.173A1.392,1.392,0,0,1,67.052,68.443ZM37,12.52a9.738,9.738,0,0,1,19.476,0v1.391H37Zm-2.782,4.173v6.4H32.83a1.391,1.391,0,1,0,0,2.782h5.564a1.391,1.391,0,0,0,0-2.782H37v-6.4H56.479v6.4H55.088a1.391,1.391,0,0,0,0,2.782h5.564a1.391,1.391,0,1,0,0-2.782H59.261v-6.4h9.181V60.1H36.169V50.915H37.56a1.391,1.391,0,0,0,1.391-1.391V41.177a1.391,1.391,0,0,0-1.391-1.391H31.992A6.952,6.952,0,0,0,25.04,28.8v-12.1ZM8.347,35.612a4.173,4.173,0,0,1,8.273-.777,7.012,7.012,0,0,0-3.956,4.946c-.048,0-.1,0-.144,0a4.178,4.178,0,0,1-4.173-4.173ZM2.782,42.568H12.52v5.564H2.782Zm0,0" transform="translate(0)" fill="#202331"/>
</svg>
