<svg id="Group_10649" data-name="Group 10649" xmlns="http://www.w3.org/2000/svg" width="82.927" height="74.14" viewBox="0 0 82.927 74.14">
  <path id="XMLID_798_" d="M335.329,297.666v-4.182a2.969,2.969,0,0,0-1.067-2.286,48.485,48.485,0,0,0-8.669-5.57.255.255,0,0,1-.152-.237v-5.875a2.727,2.727,0,0,0,1.219-2.286v-6.1a5.484,5.484,0,0,0-5.486-5.486h-1.321a5.484,5.484,0,0,0-5.486,5.486v6.1a2.769,2.769,0,0,0,1.219,2.286v5.875a.24.24,0,0,1-.152.237,47.464,47.464,0,0,0-8.669,5.57,2.969,2.969,0,0,0-1.067,2.286v4.182" transform="translate(-253.942 -225.067)" fill="#d3dae4"/>
  <path id="Path_10183" data-name="Path 10183" d="M89.241,234.35a1.546,1.546,0,0,0-1.541,1.541v6.1a13.187,13.187,0,0,0,13.172,13.172h19.369l-2.54,2.54a1.543,1.543,0,0,0,0,2.167,1.513,1.513,0,0,0,2.167,0l5.147-5.147a1.513,1.513,0,0,0,0-2.167l-5.147-5.147a1.532,1.532,0,0,0-2.167,2.167l2.54,2.54H100.872A10.123,10.123,0,0,1,90.764,242v-6.1A1.525,1.525,0,0,0,89.241,234.35Z" transform="translate(-72.852 -199.066)" fill="#202331"/>
  <path id="Path_10184" data-name="Path 10184" d="M184.287,83.647a1.513,1.513,0,0,0,2.167,0,1.543,1.543,0,0,0,0-2.167l-2.54-2.54h19.454a10.123,10.123,0,0,1,10.108,10.108v6.1a1.541,1.541,0,1,0,3.081,0v-6.1a13.187,13.187,0,0,0-13.172-13.172H183.932l2.54-2.54a1.532,1.532,0,1,0-2.167-2.167l-5.147,5.147a1.513,1.513,0,0,0,0,2.167Z" transform="translate(-148.445 -63.144)" fill="#202331"/>
  <path id="Path_10185" data-name="Path 10185" d="M1.575,61.048a1.546,1.546,0,0,0,1.541-1.541V55.325a1.443,1.443,0,0,1,.508-1.1,47.5,47.5,0,0,1,8.364-5.367A1.829,1.829,0,0,0,13,47.232V41.357a1.514,1.514,0,0,0-.677-1.27,1.216,1.216,0,0,1-.542-1.016v-6.1a3.963,3.963,0,0,1,3.945-3.962h1.3a3.952,3.952,0,0,1,3.945,3.962v6.1a1.238,1.238,0,0,1-.542,1.016,1.537,1.537,0,0,0-.677,1.27v5.875a1.817,1.817,0,0,0,1.016,1.625,46.24,46.24,0,0,1,8.364,5.367,1.417,1.417,0,0,1,.508,1.1v4.182a1.541,1.541,0,1,0,3.081,0V55.325a4.458,4.458,0,0,0-1.642-3.471,64.272,64.272,0,0,0-8.262-5.4V42.068a4.268,4.268,0,0,0,1.219-3v-6.1a7.031,7.031,0,0,0-7.026-7.026h-1.3a7.031,7.031,0,0,0-7.026,7.026v6.1a4.268,4.268,0,0,0,1.219,3v4.385a50.138,50.138,0,0,0-8.262,5.4A4.486,4.486,0,0,0,0,55.325v4.182A1.587,1.587,0,0,0,1.575,61.048Z" transform="translate(0 -25.95)" fill="#202331"/>
  <path id="Path_10186" data-name="Path 10186" d="M298.242,282.454a4.486,4.486,0,0,0-1.642,3.471v4.182a1.541,1.541,0,0,0,3.081,0v-4.182a1.443,1.443,0,0,1,.508-1.1,47.5,47.5,0,0,1,8.364-5.367,1.829,1.829,0,0,0,1.016-1.625v-5.875a1.514,1.514,0,0,0-.677-1.27,1.216,1.216,0,0,1-.542-1.016v-6.1a3.963,3.963,0,0,1,3.945-3.962h1.3a3.967,3.967,0,0,1,3.962,3.962v6.1a1.238,1.238,0,0,1-.542,1.016,1.537,1.537,0,0,0-.677,1.27v5.875a1.817,1.817,0,0,0,1.016,1.625,46.238,46.238,0,0,1,8.364,5.367,1.417,1.417,0,0,1,.508,1.1v4.182a1.541,1.541,0,0,0,3.081,0v-4.182a4.458,4.458,0,0,0-1.642-3.471,50.137,50.137,0,0,0-8.262-5.4v-4.385a4.269,4.269,0,0,0,1.219-3v-6.1a7.031,7.031,0,0,0-7.026-7.026h-1.3a7.031,7.031,0,0,0-7.026,7.026v6.1a4.269,4.269,0,0,0,1.219,3v4.385A51.654,51.654,0,0,0,298.242,282.454Z" transform="translate(-246.383 -217.507)" fill="#202331"/>
</svg>
