<svg xmlns="http://www.w3.org/2000/svg" width="60.299" height="68.282" viewBox="0 0 60.299 68.282">
  <g id="medal" transform="translate(-29.928 0)">
    <g id="Group_10652" data-name="Group 10652" transform="translate(49.343 13.7)">
      <g id="Group_10651" data-name="Group 10651">
        <path id="Path_10210" data-name="Path 10210" d="M196.914,110.476a1.334,1.334,0,0,0-1.077-.907l-5.8-.842-2.6-5.256a1.334,1.334,0,0,0-1.2-.743h0a1.334,1.334,0,0,0-1.2.744l-2.593,5.258-5.8.845a1.334,1.334,0,0,0-.738,2.275l4.2,4.091-.989,5.778a1.334,1.334,0,0,0,1.935,1.405l5.188-2.729,5.19,2.727a1.334,1.334,0,0,0,1.935-1.406l-.992-5.778,4.2-4.093A1.334,1.334,0,0,0,196.914,110.476Zm-6.9,4.04a1.334,1.334,0,0,0-.383,1.181l.654,3.806-3.418-1.8a1.334,1.334,0,0,0-1.241,0l-3.417,1.8.652-3.806a1.334,1.334,0,0,0-.384-1.18l-2.766-2.694,3.821-.556a1.334,1.334,0,0,0,1-.73l1.708-3.463,1.71,3.462a1.334,1.334,0,0,0,1,.729l3.821.554Z" transform="translate(-175.512 -102.728)" fill="#202331"/>
      </g>
    </g>
    <g id="Group_10654" data-name="Group 10654" transform="translate(29.928 0)">
      <g id="Group_10653" data-name="Group 10653" transform="translate(0 0)">
        <path id="Path_10211" data-name="Path 10211" d="M90.05,58.6,79.026,39.422a24.272,24.272,0,1,0-37.9,0L30.105,58.6a1.334,1.334,0,0,0,1.334,1.987l8.6-1.155,3.3,8.029a1.334,1.334,0,0,0,1.145.823q.045,0,.089,0a1.334,1.334,0,0,0,1.155-.667L56.86,48.341l0-.009a24.334,24.334,0,0,0,6.425,0l0,.009L74.423,67.615a1.334,1.334,0,0,0,1.155.667q.044,0,.089,0a1.334,1.334,0,0,0,1.145-.823l3.3-8.029,8.6,1.155A1.333,1.333,0,0,0,90.05,58.6ZM44.779,63.932l-2.4-5.844,2.157-3.519a1.334,1.334,0,0,0-2.274-1.394l-2.179,3.556-6.312.848,9.239-16.07A24.271,24.271,0,0,0,54.094,47.8Zm15.3-18.055A21.605,21.605,0,1,1,81.682,24.272,21.63,21.63,0,0,1,60.077,45.877Zm20,10.854L77.9,53.175a1.334,1.334,0,0,0-2.274,1.394l2.157,3.519-2.4,5.844L66.061,47.8a24.271,24.271,0,0,0,11.088-6.289l9.239,16.07Z" transform="translate(-29.928 0)" fill="#202331"/>
      </g>
    </g>
    <g id="Group_10656" data-name="Group 10656" transform="translate(50.906 6.935)">
      <g id="Group_10655" data-name="Group 10655" transform="translate(0)">
        <path id="Path_10212" data-name="Path 10212" d="M196.4,52a17.346,17.346,0,0,0-8.492,2.219,1.334,1.334,0,1,0,1.308,2.325,14.676,14.676,0,0,1,20.43,19.107,1.334,1.334,0,1,0,2.407,1.149,17.184,17.184,0,0,0,1.684-7.462A17.357,17.357,0,0,0,196.4,52Z" transform="translate(-187.227 -52)" fill="#202331"/>
      </g>
    </g>
    <g id="Group_10658" data-name="Group 10658" transform="translate(70.192 34.088)">
      <g id="Group_10657" data-name="Group 10657" transform="translate(0)">
        <path id="Path_10213" data-name="Path 10213" d="M334.138,255.975a1.334,1.334,0,0,0-1.886.028l-.03.03a1.334,1.334,0,1,0,1.908,1.863l.035-.036A1.334,1.334,0,0,0,334.138,255.975Z" transform="translate(-331.843 -255.598)" fill="#202331"/>
      </g>
    </g>
    <g id="Group_10660" data-name="Group 10660" transform="translate(42.74 16.311)">
      <g id="Group_10659" data-name="Group 10659">
        <path id="Path_10214" data-name="Path 10214" d="M152.214,143.65a1.334,1.334,0,0,0-1.812-.524,14.677,14.677,0,0,1-20.427-18.932,1.334,1.334,0,0,0-2.427-1.106,17.343,17.343,0,0,0,24.141,22.374A1.334,1.334,0,0,0,152.214,143.65Z" transform="translate(-125.996 -122.306)" fill="#202331"/>
      </g>
    </g>
    <g id="Group_10662" data-name="Group 10662" transform="translate(47.006 12.032)">
      <g id="Group_10661" data-name="Group 10661">
        <path id="Path_10215" data-name="Path 10215" d="M160.254,90.574a1.334,1.334,0,0,0-1.885.067l-.03.032a1.334,1.334,0,1,0,1.958,1.811l.023-.025A1.334,1.334,0,0,0,160.254,90.574Z" transform="translate(-157.984 -90.216)" fill="#202331"/>
      </g>
    </g>
  </g>
</svg>
