<svg xmlns="http://www.w3.org/2000/svg" width="86.87" height="66.6" viewBox="0 0 86.87 66.6">
  <g id="Tracking" transform="translate(-2 -9)">
    <path id="Path_10165" data-name="Path 10165" d="M88.445,40.246,70.472,22.273A4.312,4.312,0,0,0,67.4,21H42.539v2.9h7.239V45.613h2.9V23.9H67.4a1.448,1.448,0,0,1,1.025.424L70.9,26.791h-6.64a2.9,2.9,0,0,0-2.9,2.9v13.03a2.9,2.9,0,0,0,2.9,2.9H85.974V57.2a1.448,1.448,0,0,1-1.448,1.448H81.515a10.122,10.122,0,0,0-20.038,0h-20.5a10.122,10.122,0,0,0-20.038,0H17.926A1.448,1.448,0,0,1,16.478,57.2V44.165h-2.9V57.2a4.343,4.343,0,0,0,4.343,4.343h3.011a10.1,10.1,0,0,0,2.941,5.791H2v2.9H71.5a10.143,10.143,0,0,0,10.019-8.687h3.011A4.343,4.343,0,0,0,88.87,57.2V41.27a1.448,1.448,0,0,0-.424-1.023ZM23.717,60.091a7.239,7.239,0,1,1,7.239,7.239A7.239,7.239,0,0,1,23.717,60.091Zm14.318,7.239a10.1,10.1,0,0,0,2.941-5.791h20.5a10.1,10.1,0,0,0,2.941,5.791Zm33.461,0a7.239,7.239,0,1,1,7.239-7.239A7.239,7.239,0,0,1,71.5,67.331ZM64.257,42.717V29.687h9.535L85.974,41.869v.848Z" transform="translate(0 5.374)" fill="#202432"/>
    <rect id="Rectangle_4928" data-name="Rectangle 4928" width="2" height="3" transform="translate(30 63.6)" fill="#202432"/>
    <rect id="Rectangle_4929" data-name="Rectangle 4929" width="3" height="3" transform="translate(70 63.6)" fill="#202432"/>
    <rect id="Rectangle_4930" data-name="Rectangle 4930" width="7" height="3" transform="translate(2 59.6)" fill="#202432"/>
    <rect id="Rectangle_4931" data-name="Rectangle 4931" width="4" height="3" transform="translate(5 53.6)" fill="#202432"/>
    <rect id="Rectangle_4932" data-name="Rectangle 4932" width="3" height="3" transform="translate(6 47.6)" fill="#202432"/>
    <path id="Path_10166" data-name="Path 10166" d="M20.822,46.644A18.822,18.822,0,1,0,2,27.822,18.822,18.822,0,0,0,20.822,46.644Zm0-34.748A15.926,15.926,0,1,1,4.9,27.822,15.926,15.926,0,0,1,20.822,11.9Z" transform="translate(0)" fill="#202432"/>
    <path id="Path_10167" data-name="Path 10167" d="M18.135,39.061a1.448,1.448,0,0,0,1.023-.424c.933-.933,9.111-9.291,9.111-15.5a10.135,10.135,0,1,0-20.27,0c0,6.211,8.179,14.569,9.111,15.5A1.448,1.448,0,0,0,18.135,39.061Zm0-23.165a7.248,7.248,0,0,1,7.239,7.239c0,3.715-4.556,9.456-7.239,12.38C15.452,32.591,10.9,26.85,10.9,23.135A7.248,7.248,0,0,1,18.135,15.9Z" transform="translate(2.687 1.791)" fill="#202432"/>
    <path id="Path_10168" data-name="Path 10168" d="M20.687,21.343a4.343,4.343,0,1,0-4.343,4.343A4.343,4.343,0,0,0,20.687,21.343Zm-5.791,0a1.448,1.448,0,1,1,1.448,1.448A1.448,1.448,0,0,1,14.9,21.343Z" transform="translate(4.478 3.583)" fill="#202432"/>
    <rect id="Rectangle_4933" data-name="Rectangle 4933" width="6" height="3" transform="translate(57 53.6)" fill="#202432"/>
  </g>
</svg>
