<svg xmlns="http://www.w3.org/2000/svg" width="67.033" height="67.033" viewBox="0 0 67.033 67.033">
  <path id="Path_10169" data-name="Path 10169" d="M68.033,18.3V10.731h-.01a1.067,1.067,0,0,0-.307-.764L59.067,1.317A1.078,1.078,0,0,0,58.3,1H10.731a1.078,1.078,0,0,0-.764.317L1.317,9.966a1.076,1.076,0,0,0-.307.764H1V18.3a6.469,6.469,0,0,0,2.162,4.822V61.546H2.081A1.081,1.081,0,0,0,1,62.627v4.325a1.081,1.081,0,0,0,1.081,1.081H66.952a1.081,1.081,0,0,0,1.081-1.081V62.627a1.081,1.081,0,0,0-1.081-1.081H65.871V23.121A6.469,6.469,0,0,0,68.033,18.3Zm-6.487,4.325A4.329,4.329,0,0,1,57.221,18.3V11.812h8.649V18.3A4.329,4.329,0,0,1,61.546,22.624ZM3.162,18.3V11.812h8.649V18.3a4.325,4.325,0,1,1-8.649,0Zm10.812-6.487h8.649V18.3a4.325,4.325,0,1,1-8.649,0Zm10.812,0h8.649V18.3a4.325,4.325,0,1,1-8.649,0Zm10.812,0h8.649V18.3a4.325,4.325,0,1,1-8.649,0Zm10.812,0h8.649V18.3a4.325,4.325,0,1,1-8.649,0ZM11.178,3.162H57.855l6.487,6.487H4.691ZM65.871,65.871H3.162V63.708H65.871ZM44.247,39.922H59.384v4.325H44.247ZM57.221,55.059V53.978a5.406,5.406,0,0,0-10.812,0v1.081H44.247V46.409H59.384v8.649Zm-2.162,0H48.572V53.978a3.244,3.244,0,0,1,6.487,0Zm-17.3,0H31.273V53.978a3.244,3.244,0,1,1,6.487,0Zm-3.244-6.487a5.412,5.412,0,0,0-5.406,5.406v1.081H26.948V46.409H42.085v8.649H39.922V53.978A5.412,5.412,0,0,0,34.516,48.572Zm7.568-4.325H26.948V39.922H42.085Zm-17.3-5.406v22.7H9.649V37.76H24.786Zm2.162,22.7V57.221h36.76v4.325Zm36.76-6.487H61.546V38.841a1.081,1.081,0,0,0-1.081-1.081H26.948V36.679A1.081,1.081,0,0,0,25.867,35.6H8.568a1.081,1.081,0,0,0-1.081,1.081V61.546H5.325V24.407a6.451,6.451,0,0,0,7.568-2.53,6.478,6.478,0,0,0,10.812,0,6.478,6.478,0,0,0,10.812,0,6.478,6.478,0,0,0,10.812,0,6.478,6.478,0,0,0,10.812,0,6.451,6.451,0,0,0,7.568,2.53Z" transform="translate(-1 -1)" fill="#202432"/>
</svg>
