<svg xmlns="http://www.w3.org/2000/svg" width="72.566" height="72.637" viewBox="0 0 72.566 72.637">
  <g id="customer-review" transform="translate(0 0)">
    <path id="Path_10190" data-name="Path 10190" d="M153.531,230.82a8.734,8.734,0,0,0-1.45-.121H147.44v-2.96a9.938,9.938,0,0,0,4.437-8.273V214.14a9.921,9.921,0,0,0-1.457-5.184l-1.817,1.112a7.793,7.793,0,0,1,1.144,4.072v1.117l-.28-.517a4.864,4.864,0,0,0-4.283-2.553h-6.5a4.864,4.864,0,0,0-4.283,2.553l-.279.517V214.14a7.81,7.81,0,0,1,13.317-5.539l1.5-1.511A9.94,9.94,0,0,0,132,214.14v5.325a9.938,9.938,0,0,0,4.438,8.273v2.96h-4.641a8.682,8.682,0,0,0-8.672,8.673v8.495h2.13v-8.495a6.549,6.549,0,0,1,6.542-6.543h4.723a5.5,5.5,0,0,0,10.842,0h4.723a6.578,6.578,0,0,1,1.1.091Zm-8.221,1.071a3.373,3.373,0,0,1-6.745,0v-3.075a9.94,9.94,0,0,0,6.745,0Zm-3.373-4.615a7.818,7.818,0,0,1-7.8-7.553l2.147-3.97a2.736,2.736,0,0,1,2.408-1.436h6.5a2.736,2.736,0,0,1,2.409,1.436l2.147,3.969A7.819,7.819,0,0,1,141.937,227.276Zm0,0" transform="translate(-105.654 -175.23)" fill="#202331"/>
    <path id="Path_10191" data-name="Path 10191" d="M348.146,397.012l-.924,1.919a6.583,6.583,0,0,1,3.708,5.9v8.495h2.13V404.83A8.724,8.724,0,0,0,348.146,397.012Zm0,0" transform="translate(-297.962 -340.688)" fill="#202331"/>
    <path id="Path_10192" data-name="Path 10192" d="M328.32,475.965h2.13v5.112h-2.13Zm0,0" transform="translate(-281.742 -408.44)" fill="#202331"/>
    <path id="Path_10193" data-name="Path 10193" d="M168.164,475.965h2.13v5.112h-2.13Zm0,0" transform="translate(-144.307 -408.44)" fill="#202331"/>
    <path id="Path_10194" data-name="Path 10194" d="M69.874,40.579,67.411,35.59l-2.463,4.989-5.506.8,3.985,3.884-.94,5.484,4.925-2.589,4.925,2.589-.94-5.484,3.985-3.884Zm-.367,6.275-2.1-1.1-2.1,1.1.4-2.334-1.7-1.653,2.344-.34L67.411,40.4l1.048,2.124,2.344.34-1.7,1.653Zm0,0" transform="translate(-51.009 -30.541)" fill="#202331"/>
    <path id="Path_10195" data-name="Path 10195" d="M215.013,40.576l-2.463-4.99-2.462,4.99-5.507.8,3.985,3.884-.94,5.484,4.925-2.589,4.926,2.589-.941-5.485,3.984-3.884Zm-.366,6.275-2.1-1.1-2.1,1.1.4-2.334-1.7-1.653,2.344-.34,1.048-2.124,1.048,2.124,2.344.34-1.7,1.653Zm0,0" transform="translate(-175.558 -30.537)" fill="#202331"/>
    <path id="Path_10196" data-name="Path 10196" d="M347.684,35.586l-2.463,4.99-5.506.8L343.7,45.26l-.94,5.485,4.925-2.589,4.926,2.589-.941-5.485,3.985-3.884-5.506-.8Zm2.1,11.265-2.1-1.1-2.1,1.1.4-2.334-1.7-1.653,2.344-.34,1.048-2.124,1.048,2.124,2.344.34-1.7,1.653Zm0,0" transform="translate(-291.52 -30.537)" fill="#202331"/>
    <path id="Path_10197" data-name="Path 10197" d="M68.661,0H55.582V2.13H68.661a1.777,1.777,0,0,1,1.775,1.775V22.366a1.777,1.777,0,0,1-1.775,1.776H20.308v7.53L9.64,24.142H3.906a1.777,1.777,0,0,1-1.775-1.776V13.089H0v9.277a3.91,3.91,0,0,0,3.905,3.905H8.964l13.474,9.511V26.271H68.661a3.91,3.91,0,0,0,3.905-3.905V3.905A3.91,3.91,0,0,0,68.661,0Zm0,0" transform="translate(0)" fill="#202331"/>
    <path id="Path_10198" data-name="Path 10198" d="M2.13,3.905A1.777,1.777,0,0,1,3.905,2.13H53.452V0H3.905A3.91,3.91,0,0,0,0,3.905v7.054H2.13Zm0,0" transform="translate(0 0)" fill="#202331"/>
    <path id="Path_10199" data-name="Path 10199" d="M153.148,425.432h2.13a2.285,2.285,0,0,1,2.282-2.283v-2.13a4.418,4.418,0,0,0-4.412,4.412Zm0,0" transform="translate(-131.421 -361.29)" fill="#202331"/>
    <path id="Path_10200" data-name="Path 10200" d="M448.259,35.356V30.031h-5.325v2.13h3.195v3.2Zm0,0" transform="translate(-380.095 -25.771)" fill="#202331"/>
    <path id="Path_10201" data-name="Path 10201" d="M30.031,116.613v5.326h5.325v-2.13h-3.2v-3.2Zm0,0" transform="translate(-25.771 -100.069)" fill="#202331"/>
    <path id="Path_10202" data-name="Path 10202" d="M218.215,478.469h2.13v2.13h-2.13Zm0,0" transform="translate(-187.257 -410.589)" fill="#202331"/>
    <path id="Path_10203" data-name="Path 10203" d="M248.242,478.469h2.13v2.13h-2.13Zm0,0" transform="translate(-213.024 -410.589)" fill="#202331"/>
    <path id="Path_10204" data-name="Path 10204" d="M278.273,478.469h2.13v2.13h-2.13Zm0,0" transform="translate(-238.795 -410.589)" fill="#202331"/>
  </g>
</svg>
