<svg xmlns="http://www.w3.org/2000/svg" width="1920" height="1251.385" viewBox="0 0 1920 1251.385">
  <g id="Group_11781" data-name="Group 11781" transform="translate(985.65 432.873)">
    <g id="Group_11776" data-name="Group 11776" transform="translate(0 44.68)">
      <path id="Path_10995" data-name="Path 10995" d="M747.87,385.105H248.416a11.943,11.943,0,0,0-11.943,11.943V704.419h.107a11.944,11.944,0,0,0,11.836,10.365H437.79l-7.56,45.607h0l-11.036,6.792c-1.726,1.062-1.209,4.838.662,4.838H576.431c1.871,0,2.387-3.776.662-4.838l-11.037-6.792-7.56-45.607H747.87a11.943,11.943,0,0,0,11.836-10.365h.107V397.048A11.943,11.943,0,0,0,747.87,385.105Z" transform="translate(-235.699 -385.105)" fill="#1d293f"/>
      <g id="Group_11749" data-name="Group 11749" transform="translate(148.912 90.43)">
        <g id="Group_11747" data-name="Group 11747">
          <path id="Path_10996" data-name="Path 10996" d="M537.825,658.986l37.153-87.866h22.291v87.866h9.661v18.575h-9.661v23.593H577.208V677.561H537.825Zm39.383,0V610.127l-20.62,48.859Z" transform="translate(-537.825 -569.631)" fill="#fcce64"/>
          <path id="Path_10997" data-name="Path 10997" d="M702.481,600.8c0-20.807,10.959-32.7,31.022-32.7S764.526,580,764.526,600.8v67.618c0,20.8-10.959,32.692-31.022,32.692s-31.022-11.889-31.022-32.692Zm20.433,68.919c0,9.289,4.087,12.818,10.589,12.818s10.589-3.53,10.589-12.818V599.5c0-9.288-4.087-12.818-10.589-12.818s-10.589,3.53-10.589,12.818Z" transform="translate(-621.117 -568.107)" fill="#fcce64"/>
          <path id="Path_10998" data-name="Path 10998" d="M854.352,658.986l37.153-87.866H913.8v87.866h9.661v18.575H913.8v23.593H893.735V677.561H854.352Zm39.383,0V610.127l-20.62,48.859Z" transform="translate(-697.941 -569.631)" fill="#fcce64"/>
        </g>
        <g id="Group_11748" data-name="Group 11748" transform="translate(0 147.029)">
          <path id="Path_10999" data-name="Path 10999" d="M548.914,872.083v3.1c0,3.808-1.838,5.882-5.578,5.882h-1.77v8.947h-3.74V866.2h5.51C547.075,866.2,548.914,868.274,548.914,872.083Zm-7.349-2.483v8.062h1.77c1.19,0,1.836-.545,1.836-2.247v-3.569c0-1.7-.646-2.246-1.836-2.246Z" transform="translate(-537.825 -865.928)" fill="#fcce64"/>
          <path id="Path_11000" data-name="Path 11000" d="M574.335,890.009H570.56l-.646-4.32h-4.593l-.644,4.32H561.24l3.81-23.808h5.476Zm-8.538-7.551H569.4l-1.8-12.04Z" transform="translate(-549.67 -865.928)" fill="#fcce64"/>
          <path id="Path_11001" data-name="Path 11001" d="M596.564,876.467H601.8v7.55c0,3.808-1.9,5.986-5.578,5.986s-5.576-2.177-5.576-5.986V871.635c0-3.809,1.9-5.986,5.576-5.986s5.578,2.177,5.578,5.986v2.313h-3.536V871.4c0-1.7-.75-2.346-1.939-2.346s-1.94.645-1.94,2.346v12.855c0,1.7.748,2.313,1.94,2.313s1.939-.611,1.939-2.313v-4.387h-1.7Z" transform="translate(-564.545 -865.649)" fill="#fcce64"/>
          <path id="Path_11002" data-name="Path 11002" d="M621.868,876.234H627v3.4h-5.136v6.972h6.462v3.4h-10.2V866.2h10.2v3.4h-6.462Z" transform="translate(-578.446 -865.928)" fill="#fcce64"/>
          <path id="Path_11003" data-name="Path 11003" d="M654.145,866.2h5.917c3.742,0,5.578,2.073,5.578,5.882v12.04c0,3.812-1.836,5.886-5.578,5.886h-5.917Zm3.741,3.4V886.61h2.109c1.192,0,1.906-.615,1.906-2.313V871.914c0-1.7-.714-2.313-1.906-2.313Z" transform="translate(-596.666 -865.928)" fill="#fcce64"/>
          <path id="Path_11004" data-name="Path 11004" d="M681.623,871.635c0-3.809,2.005-5.986,5.679-5.986s5.68,2.177,5.68,5.986v12.383c0,3.808-2.007,5.986-5.68,5.986s-5.679-2.177-5.679-5.986Zm3.74,12.619c0,1.7.748,2.346,1.939,2.346s1.939-.644,1.939-2.346V871.4c0-1.7-.749-2.346-1.939-2.346s-1.939.645-1.939,2.346Z" transform="translate(-610.566 -865.649)" fill="#fcce64"/>
          <path id="Path_11005" data-name="Path 11005" d="M713.253,876.234h5.137v3.4h-5.137v6.972h6.462v3.4h-10.2V866.2h10.2v3.4h-6.462Z" transform="translate(-624.674 -865.928)" fill="#fcce64"/>
          <path id="Path_11006" data-name="Path 11006" d="M739.3,865.649c3.639,0,5.51,2.177,5.51,5.986v.748h-3.538V871.4c0-1.7-.679-2.346-1.869-2.346s-1.871.645-1.871,2.346c0,4.9,7.313,5.816,7.313,12.619,0,3.808-1.906,5.986-5.578,5.986s-5.578-2.177-5.578-5.986v-1.463h3.538v1.7c0,1.7.748,2.313,1.938,2.313s1.939-.611,1.939-2.313c0-4.9-7.313-5.816-7.313-12.619C733.789,867.826,735.66,865.649,739.3,865.649Z" transform="translate(-636.903 -865.649)" fill="#fcce64"/>
          <path id="Path_11007" data-name="Path 11007" d="M774.588,872.765v17.245H771.22V866.2h4.694l3.843,14.25V866.2h3.333v23.808h-3.843Z" transform="translate(-655.889 -865.928)" fill="#fcce64"/>
          <path id="Path_11008" data-name="Path 11008" d="M800.075,871.635c0-3.809,2.006-5.986,5.68-5.986s5.68,2.177,5.68,5.986v12.383c0,3.808-2.008,5.986-5.68,5.986s-5.68-2.177-5.68-5.986Zm3.74,12.619c0,1.7.748,2.346,1.94,2.346s1.939-.644,1.939-2.346V871.4c0-1.7-.75-2.346-1.939-2.346s-1.94.645-1.94,2.346Z" transform="translate(-670.485 -865.649)" fill="#fcce64"/>
          <path id="Path_11009" data-name="Path 11009" d="M825.763,866.2h11.564v3.4h-3.911v20.409h-3.741V869.6h-3.912Z" transform="translate(-683.479 -865.928)" fill="#fcce64"/>
          <path id="Path_11010" data-name="Path 11010" d="M866.9,876.779h4.83v3.4H866.9v9.831h-3.74V866.2h9.9v3.4H866.9Z" transform="translate(-702.396 -865.928)" fill="#fcce64"/>
          <path id="Path_11011" data-name="Path 11011" d="M886.229,871.635c0-3.809,2.005-5.986,5.679-5.986s5.68,2.177,5.68,5.986v12.383c0,3.808-2.007,5.986-5.68,5.986s-5.679-2.177-5.679-5.986Zm3.74,12.619c0,1.7.748,2.346,1.939,2.346s1.939-.644,1.939-2.346V871.4c0-1.7-.749-2.346-1.939-2.346s-1.939.645-1.939,2.346Z" transform="translate(-714.066 -865.649)" fill="#fcce64"/>
          <path id="Path_11012" data-name="Path 11012" d="M917.515,866.2v18.365c0,1.7.748,2.313,1.939,2.313s1.938-.611,1.938-2.313V866.2h3.538V884.33c0,3.808-1.9,5.986-5.578,5.986s-5.578-2.177-5.578-5.986V866.2Z" transform="translate(-728 -865.928)" fill="#fcce64"/>
          <path id="Path_11013" data-name="Path 11013" d="M944.827,872.765v17.245h-3.369V866.2h4.694L950,880.451V866.2h3.333v23.808h-3.844Z" transform="translate(-742.004 -865.928)" fill="#fcce64"/>
          <path id="Path_11014" data-name="Path 11014" d="M970.936,866.2h5.917c3.742,0,5.578,2.073,5.578,5.882v12.04c0,3.812-1.836,5.886-5.578,5.886h-5.917Zm3.74,3.4V886.61h2.109c1.191,0,1.906-.615,1.906-2.313V871.914c0-1.7-.715-2.313-1.906-2.313Z" transform="translate(-756.916 -865.928)" fill="#fcce64"/>
        </g>
      </g>
      <g id="Group_11775" data-name="Group 11775" transform="translate(37.568 37.856)">
        <g id="Group_11750" data-name="Group 11750" transform="translate(370.259 48.477)">
          <path id="Path_11015" data-name="Path 11015" d="M1129.184,576.351c-.608-2.807-5.957-3.46-12.312-3.2a23.788,23.788,0,0,0-45.127,9.7c-.156.068-.309.122-.465.19-9.145,3.759-9.759,6.254-9.424,7.8s2.081,2.427,4.638,2.877a37.751,37.751,0,0,0,7.69.331,23.781,23.781,0,0,0,45.112-9.7c.156-.069.309-.122.464-.19C1128.9,580.391,1129.519,577.9,1129.184,576.351Zm-12.83,6a159.695,159.695,0,0,1-40.333,8.686,21.033,21.033,0,0,1-1.336-6.21,142.928,142.928,0,0,1,19.891-5.638,141.063,141.063,0,0,1,20.439-3.033A21.115,21.115,0,0,1,1116.354,582.352Zm-41.389-2.379a20.869,20.869,0,0,1,38.726-6.636,172.325,172.325,0,0,0-19.733,3.014,152.465,152.465,0,0,0-19.218,5.357C1074.794,581.126,1074.864,580.547,1074.965,579.974Zm-10.22,10.231c.376-.861,2.79-2.417,7.124-4.258a22.319,22.319,0,0,0,1.128,5.215C1068.292,591.292,1065.448,590.84,1064.745,590.2Zm51.329-3a20.863,20.863,0,0,1-38.739,6.619,171.093,171.093,0,0,0,19.745-3,150.09,150.09,0,0,0,19.219-5.357C1116.245,586.056,1116.175,586.635,1116.075,587.207Zm3.1-5.973a22.231,22.231,0,0,0-1.112-5.212c4.7-.131,7.532.319,8.235.954C1125.919,577.837,1123.5,579.393,1119.171,581.235Z" transform="translate(-1061.789 -559.816)" fill="#fcce64"/>
          <path id="Path_11016" data-name="Path 11016" d="M1111.606,573.425a17.5,17.5,0,0,0-10.167,6.593,1.451,1.451,0,1,0,2.325,1.738,14.593,14.593,0,0,1,8.479-5.5,1.451,1.451,0,1,0-.638-2.831Z" transform="translate(-1081.7 -566.682)" fill="#fcce64"/>
        </g>
        <g id="Group_11753" data-name="Group 11753" transform="translate(43.097 36.058)">
          <g id="Group_11752" data-name="Group 11752">
            <g id="Group_11751" data-name="Group 11751">
              <path id="Path_11017" data-name="Path 11017" d="M425.744,545.9a11.989,11.989,0,0,0-.364-1.67,12.273,12.273,0,0,0-1.1-2.717,13.233,13.233,0,0,0-.918-1.445,13.083,13.083,0,0,0-23.52,9.553,13.263,13.263,0,0,0,.363,1.671,12.266,12.266,0,0,0,1.107,2.717,11.974,11.974,0,0,0,.918,1.445,13.071,13.071,0,0,0,23.641-7.693A13.261,13.261,0,0,0,425.744,545.9Z" transform="translate(-399.714 -534.683)" fill="#fcce64"/>
            </g>
          </g>
        </g>
        <g id="Group_11757" data-name="Group 11757" transform="translate(0 93.735)">
          <g id="Group_11756" data-name="Group 11756">
            <g id="Group_11755" data-name="Group 11755">
              <g id="Group_11754" data-name="Group 11754">
                <path id="Path_11018" data-name="Path 11018" d="M357.95,661.505A75.737,75.737,0,0,1,312.7,673.541l-.1.907a17.615,17.615,0,0,0,.036,4.1,66.14,66.14,0,0,0,48.43-11.524A23.244,23.244,0,0,0,357.95,661.505Zm-41.481,28.369-.213-.023a24.709,24.709,0,0,0,12.562,10.444A25.309,25.309,0,0,0,361.4,685.629q.593-1.716,1.026-3.45a22.208,22.208,0,0,0,.463-3.241l.035-.32A76.541,76.541,0,0,1,316.469,689.874Zm30.267-36.83A25.382,25.382,0,0,0,314.1,667.7a2.707,2.707,0,0,0-.177.628,69.065,69.065,0,0,0,40.41-10.731A24.517,24.517,0,0,0,346.736,653.044Z" transform="translate(-312.5 -651.404)" fill="#fcce64"/>
              </g>
            </g>
          </g>
        </g>
        <g id="Group_11758" data-name="Group 11758" transform="translate(13.255 40.018)">
          <path id="Path_11019" data-name="Path 11019" d="M341.833,545.414a5.335,5.335,0,0,0,1.735-.342,5.324,5.324,0,0,0-1.736-.342,6.059,6.059,0,0,0-.386-2.033,6.079,6.079,0,0,0-.387,2.032,5.27,5.27,0,0,0-1.735.343,5.284,5.284,0,0,0,1.735.342,6.007,6.007,0,0,0,.387,2.033A6.011,6.011,0,0,0,341.833,545.414Z" transform="translate(-339.323 -542.697)" fill="#fcce64"/>
        </g>
        <g id="Group_11759" data-name="Group 11759" transform="translate(342.582 26.976)">
          <path id="Path_11020" data-name="Path 11020" d="M1009.1,520.326a6.4,6.4,0,0,0,2.293-.506,6.378,6.378,0,0,0-2.294-.507,9.938,9.938,0,0,0-.511-3.009,9.916,9.916,0,0,0-.511,3.008,6.325,6.325,0,0,0-2.294.508,6.307,6.307,0,0,0,2.293.506,9.818,9.818,0,0,0,.512,3.009A9.833,9.833,0,0,0,1009.1,520.326Z" transform="translate(-1005.781 -516.305)" fill="#fcce64"/>
        </g>
        <g id="Group_11760" data-name="Group 11760" transform="translate(376.191 13.964)">
          <path id="Path_11021" data-name="Path 11021" d="M1076.338,493.056a4.891,4.891,0,0,0,1.759-.388,4.889,4.889,0,0,0-1.759-.388,7.62,7.62,0,0,0-.392-2.308,7.63,7.63,0,0,0-.391,2.307,4.851,4.851,0,0,0-1.759.389,4.847,4.847,0,0,0,1.758.389,7.552,7.552,0,0,0,.392,2.307A7.516,7.516,0,0,0,1076.338,493.056Z" transform="translate(-1073.795 -489.972)" fill="#fcce64"/>
        </g>
        <g id="Group_11761" data-name="Group 11761" transform="translate(434.902 129.55)">
          <path id="Path_11022" data-name="Path 11022" d="M1194.134,724.646a.763.763,0,1,1-.764-.763A.763.763,0,0,1,1194.134,724.646Z" transform="translate(-1192.607 -723.882)" fill="#fcce64"/>
        </g>
        <g id="Group_11762" data-name="Group 11762" transform="translate(216.398 12.833)">
          <path id="Path_11023" data-name="Path 11023" d="M751.988,488.467a.783.783,0,1,1-.783-.783A.783.783,0,0,1,751.988,488.467Z" transform="translate(-750.422 -487.684)" fill="#fcce64"/>
        </g>
        <g id="Group_11763" data-name="Group 11763" transform="translate(435.68 16.821)">
          <path id="Path_11024" data-name="Path 11024" d="M1195.679,496.5a.749.749,0,1,1-.749-.749A.749.749,0,0,1,1195.679,496.5Z" transform="translate(-1194.182 -495.753)" fill="#fcce64"/>
        </g>
        <g id="Group_11764" data-name="Group 11764" transform="translate(374.506 122.852)">
          <path id="Path_11025" data-name="Path 11025" d="M1071.881,711.076a.749.749,0,1,1-.749-.749A.749.749,0,0,1,1071.881,711.076Z" transform="translate(-1070.384 -710.327)" fill="#fcce64"/>
        </g>
        <g id="Group_11765" data-name="Group 11765" transform="translate(2.846 29.583)">
          <path id="Path_11026" data-name="Path 11026" d="M320.078,522.488a.909.909,0,1,1-.909-.909A.909.909,0,0,1,320.078,522.488Z" transform="translate(-318.26 -521.579)" fill="#fcce64"/>
        </g>
        <g id="Group_11766" data-name="Group 11766" transform="translate(70.303 89.039)">
          <path id="Path_11027" data-name="Path 11027" d="M457.12,644.749a4.53,4.53,0,0,0,1.623-.359,4.521,4.521,0,0,0-1.624-.358,7.036,7.036,0,0,0-.362-2.131,7.03,7.03,0,0,0-.362,2.13,4.469,4.469,0,0,0-1.624.359,4.456,4.456,0,0,0,1.623.359,6.971,6.971,0,0,0,.362,2.131A6.962,6.962,0,0,0,457.12,644.749Z" transform="translate(-454.772 -641.901)" fill="#fcce64"/>
        </g>
        <g id="Group_11767" data-name="Group 11767" transform="translate(142.442 10.114)">
          <path id="Path_11028" data-name="Path 11028" d="M604.035,486.153a6.3,6.3,0,0,0,2.265-.5,6.308,6.308,0,0,0-2.266-.5,9.811,9.811,0,0,0-.5-2.972,9.815,9.815,0,0,0-.5,2.972,6.239,6.239,0,0,0-2.266.5,6.235,6.235,0,0,0,2.265.5,9.71,9.71,0,0,0,.506,2.972A9.717,9.717,0,0,0,604.035,486.153Z" transform="translate(-600.759 -482.181)" fill="#fcce64"/>
        </g>
        <g id="Group_11768" data-name="Group 11768" transform="translate(69.328 120.047)">
          <path id="Path_11029" data-name="Path 11029" d="M454.391,705.447a.8.8,0,1,1-.8-.8A.8.8,0,0,1,454.391,705.447Z" transform="translate(-452.798 -704.651)" fill="#fcce64"/>
        </g>
        <g id="Group_11769" data-name="Group 11769" transform="translate(95.03 28.857)">
          <path id="Path_11030" data-name="Path 11030" d="M508.081,521.746a1.635,1.635,0,1,1-1.635-1.635A1.635,1.635,0,0,1,508.081,521.746Z" transform="translate(-504.811 -520.111)" fill="#fcce64"/>
        </g>
        <g id="Group_11770" data-name="Group 11770" transform="translate(395.647 157.835)">
          <path id="Path_11031" data-name="Path 11031" d="M1116.966,783.021a1.9,1.9,0,1,1-1.9-1.9A1.9,1.9,0,0,1,1116.966,783.021Z" transform="translate(-1113.167 -781.122)" fill="#fcce64"/>
        </g>
        <g id="Group_11771" data-name="Group 11771" transform="translate(67.23 7.366)">
          <path id="Path_11032" data-name="Path 11032" d="M451.447,478.067A1.447,1.447,0,1,1,450,476.62,1.447,1.447,0,0,1,451.447,478.067Z" transform="translate(-448.552 -476.62)" fill="#fcce64"/>
        </g>
        <g id="Group_11772" data-name="Group 11772" transform="translate(417.971 126.586)">
          <path id="Path_11033" data-name="Path 11033" d="M1160,718.713a.829.829,0,1,1-.829-.829A.829.829,0,0,1,1160,718.713Z" transform="translate(-1158.345 -717.884)" fill="#fcce64"/>
        </g>
        <g id="Group_11773" data-name="Group 11773" transform="translate(344.616)">
          <path id="Path_11034" data-name="Path 11034" d="M1011.439,462.484a.771.771,0,1,1-.771-.771A.771.771,0,0,1,1011.439,462.484Z" transform="translate(-1009.897 -461.713)" fill="#fcce64"/>
        </g>
        <g id="Group_11774" data-name="Group 11774" transform="translate(260.246 3.392)">
          <path id="Path_11035" data-name="Path 11035" d="M868.963,511.681a15.9,15.9,0,0,0,1.888-4.883c-2.945.348-7.546.263-14.257-.2-4.405-.3-11.546-.789-17.039-.026a16.036,16.036,0,0,0,2.2,5.532c3.355-.3,7.5-.358,12.356-.3C860.229,511.883,865.249,511.939,868.963,511.681Z" transform="translate(-839.358 -487.593)" fill="#fcce64"/>
          <path id="Path_11036" data-name="Path 11036" d="M855.248,528.808a16.107,16.107,0,0,0,2.07.993,15.928,15.928,0,0,0,13.959-1.112c-3.464.188-7.319.193-11.119.137C858.521,528.8,856.866,528.791,855.248,528.808Z" transform="translate(-847.297 -498.986)" fill="#fcce64"/>
          <path id="Path_11037" data-name="Path 11037" d="M871.462,478.241a15.96,15.96,0,0,0-2.131-2.469,58.869,58.869,0,0,1-7.119-.567,128.311,128.311,0,0,0-12.82-1.012,15.9,15.9,0,0,0-3.6,3.377c3.72-.494,9.428-.029,16.779.69C866.323,478.623,870.108,478.895,871.462,478.241Z" transform="translate(-842.514 -471.418)" fill="#fcce64"/>
          <path id="Path_11038" data-name="Path 11038" d="M873.893,470.927a16.064,16.064,0,0,0-2.479-1.236,15.9,15.9,0,0,0-11.41-.105c2.132.053,4.984.318,9.053.812C871.355,470.675,872.875,470.854,873.893,470.927Z" transform="translate(-849.703 -468.578)" fill="#fcce64"/>
          <path id="Path_11039" data-name="Path 11039" d="M870.946,492.631a15.976,15.976,0,0,0-1.129-4.814c-1.727.529-5.388.475-11.4-.089-7.182-.673-13.634-1.167-17.886-.611-.126.274-.247.552-.359.837a15.989,15.989,0,0,0-1.014,4.1c3.317-.423,8.5-.423,16.745.27C862.043,492.844,867.752,493.217,870.946,492.631Z" transform="translate(-839.158 -477.834)" fill="#fcce64"/>
        </g>
      </g>
      <path id="Path_11040" data-name="Path 11040" d="M882.21,1109.511h16.525c1.871,0,2.387-3.776.662-4.838l-11.037-6.792-7.56-45.607-7.178,5.817Z" transform="translate(-558.777 -722.595)" fill="#42516d"/>
      <path id="Path_11041" data-name="Path 11041" d="M748.662,385.105H249.208a11.946,11.946,0,0,0-11.169,7.711h506.7a7.5,7.5,0,0,1,7.5,7.5V712.131h-.107a11.844,11.844,0,0,1-.541,2.279,11.945,11.945,0,0,0,8.905-9.991h.107V397.048A11.943,11.943,0,0,0,748.662,385.105Z" transform="translate(-237.265 -385.105)" fill="#42516d"/>
    </g>
    <g id="Group_11780" data-name="Group 11780" transform="translate(509.94 0)">
      <g id="Group_11777" data-name="Group 11777" transform="translate(26.152 24.144)">
        <path id="Path_11042" data-name="Path 11042" d="M1330.531,360.7l9.822-5.937a6.047,6.047,0,1,0-6.257-10.35l-9.823,5.939a6.047,6.047,0,0,0,6.259,10.348Z" transform="translate(-1321.358 -343.546)" fill="#1d293f"/>
        <path id="Path_11043" data-name="Path 11043" d="M1332.378,350.668a6.025,6.025,0,0,1,8.906,3.408,6.046,6.046,0,0,0-7.183-9.659l-9.823,5.939a6.053,6.053,0,0,0-2.646,6.939,6.058,6.058,0,0,1,.922-.688Z" transform="translate(-1321.364 -343.546)" fill="#42516d"/>
      </g>
      <g id="Group_11778" data-name="Group 11778" transform="translate(31.267 62.24)">
        <path id="Path_11044" data-name="Path 11044" d="M1350.351,423.565l-11.147-2.747a6.047,6.047,0,0,0-2.891,11.742l11.144,2.744a6.038,6.038,0,0,0,7.318-4.424A6.192,6.192,0,0,0,1350.351,423.565Z" transform="translate(-1331.709 -420.641)" fill="#1d293f"/>
        <path id="Path_11045" data-name="Path 11045" d="M1350.354,423.565l-11.147-2.747a6.041,6.041,0,0,0-7.223,7.64,6.04,6.04,0,0,1,5.5-1.389l11.147,2.747a6.167,6.167,0,0,1,4.3,4.135,6.016,6.016,0,0,0,1.851-3.07A6.192,6.192,0,0,0,1350.354,423.565Z" transform="translate(-1331.712 -420.641)" fill="#42516d"/>
      </g>
      <g id="Group_11779" data-name="Group 11779">
        <path id="Path_11046" data-name="Path 11046" d="M1273.035,317.753a6.053,6.053,0,0,0,7.317-4.426l2.749-11.147a6.048,6.048,0,0,0-11.744-2.893l-2.745,11.146a6.06,6.06,0,0,0,4.424,7.32Z" transform="translate(-1268.434 -294.687)" fill="#1d293f"/>
        <path id="Path_11047" data-name="Path 11047" d="M1278.706,301.114a6.056,6.056,0,0,1,4.427,7.317l-1.54,6.245a5.984,5.984,0,0,0,.515-1.349l2.748-11.147a6.048,6.048,0,0,0-11.744-2.893l-1.206,4.9A6.053,6.053,0,0,1,1278.706,301.114Z" transform="translate(-1270.19 -294.687)" fill="#42516d"/>
      </g>
    </g>
    <path id="Path_11048" data-name="Path 11048" d="M248.416,1555.02H747.87a11.943,11.943,0,0,0,11.943-11.943V1235.705h-.107a11.943,11.943,0,0,0-11.836-10.364H558.5l7.56-45.607h0l11.037-6.792c1.725-1.062,1.209-4.838-.662-4.838H419.855c-1.87,0-2.387,3.776-.662,4.838l11.036,6.792,7.56,45.607H248.416a11.943,11.943,0,0,0-11.836,10.364h-.107v307.372A11.943,11.943,0,0,0,248.416,1555.02Z" transform="translate(-236.473 -736.508)" opacity="0.15"/>
  </g>
  <g id="Group_11784" data-name="Group 11784" transform="translate(1553.353 534.764)">
    <g id="Group_11783" data-name="Group 11783" transform="translate(0)">
      <path id="Path_11049" data-name="Path 11049" d="M1542.774,566.95l-36.168-62.642a6.857,6.857,0,0,0-5.928-3.423h-72.336a6.868,6.868,0,0,0-5.93,3.422l-36.168,62.646a6.864,6.864,0,0,0,0,6.849l36.168,62.643a6.868,6.868,0,0,0,5.93,3.425H1455.3V830.588h22.764V639.87h22.612a6.856,6.856,0,0,0,5.93-3.429l36.166-62.641A6.864,6.864,0,0,0,1542.774,566.95Z" transform="translate(-1385.329 -500.884)" fill="#1d293f"/>
      <g id="Group_11782" data-name="Group 11782" transform="translate(70.249 30.609)">
        <path id="Path_11050" data-name="Path 11050" d="M1527.49,632.534a8.424,8.424,0,0,1,.685-3.4,8.651,8.651,0,0,1,1.877-2.74,9.277,9.277,0,0,1,9.872-1.851,9.334,9.334,0,0,1,2.842,1.851,8.4,8.4,0,0,1,2.587,6.141,8.613,8.613,0,0,1-.685,3.425,8.325,8.325,0,0,1-1.9,2.767,8.962,8.962,0,0,1-2.842,1.827,9.235,9.235,0,0,1-3.5.658,9.35,9.35,0,0,1-3.551-.658,8.621,8.621,0,0,1-2.818-1.827,8.633,8.633,0,0,1-2.562-6.192Zm16.443-69.706v35.9a76.373,76.373,0,0,1-.559,9.262q-.557,4.591-1.469,9.362h-10.659q-.911-4.77-1.472-9.362a76.844,76.844,0,0,1-.557-9.262v-35.9Z" transform="translate(-1527.49 -562.828)" fill="#fcce64"/>
      </g>
      <path id="Path_11051" data-name="Path 11051" d="M1579.268,566.95,1543.1,504.307a6.857,6.857,0,0,0-5.927-3.423h-72.336a6.867,6.867,0,0,0-5.93,3.422l-1.435,2.485a6.965,6.965,0,0,1,1.632-.2h74.066a7.021,7.021,0,0,1,6.07,3.505l37.033,64.14a7,7,0,0,1,.926,3.147l2.071-3.587A6.864,6.864,0,0,0,1579.268,566.95Z" transform="translate(-1421.822 -500.884)" fill="#42516d"/>
      <path id="Path_11052" data-name="Path 11052" d="M1561.173,972.867h5.845V782.149l-5.845,3.978Z" transform="translate(-1474.28 -643.163)" fill="#42516d"/>
    </g>
    <path id="Path_11053" data-name="Path 11053" d="M1542.774,1431.743l-36.168,62.642a6.856,6.856,0,0,1-5.928,3.423h-72.336a6.868,6.868,0,0,1-5.93-3.422l-36.168-62.646a6.864,6.864,0,0,1,0-6.849l36.168-62.644a6.868,6.868,0,0,1,5.93-3.424H1455.3V1168.1h22.764v190.718h22.612a6.857,6.857,0,0,1,5.93,3.429l36.166,62.641A6.864,6.864,0,0,1,1542.774,1431.743Z" transform="translate(-1385.329 -838.4)" opacity="0.15"/>
  </g>
  <path id="Path_11054" data-name="Path 11054" d="M248.336,185.132a42.4,42.4,0,0,1-12.527,1.688,21.287,21.287,0,0,0,10.814-10.394,42.492,42.492,0,0,1-14.045,3.309A21.245,21.245,0,0,0,194.152,194.1a60.259,60.259,0,0,1-40.4-27.81,21.248,21.248,0,0,0,2.734,28.961,21.15,21.15,0,0,1-9.175-3.913c-.013.088-.025.176-.037.265a21.24,21.24,0,0,0,14.1,22.9,21.263,21.263,0,0,1-9.548-.917,21.244,21.244,0,0,0,17.686,17.25,42.583,42.583,0,0,1-27.337,5.493,43.058,43.058,0,0,1-4.979-.969,60.077,60.077,0,0,0,30.976,13.788c38.693,5.2,64.163-24.006,67.9-51.805q.185-1.368.3-2.73A43.129,43.129,0,0,0,248.336,185.132Z" transform="translate(799.397 203.135)" fill="#1d293f"/>
  <path id="_Rectangle_" data-name="&lt;Rectangle&gt;" d="M0,0V1080H1920V0Z" fill="none"/>
</svg>
