<svg id="instagram-logo" xmlns="http://www.w3.org/2000/svg" width="17.062" height="17.062" viewBox="0 0 17.062 17.062">
  <path id="Path_254" data-name="Path 254" d="M12.353,0H4.708A4.714,4.714,0,0,0,0,4.708v7.645a4.714,4.714,0,0,0,4.708,4.708h7.645a4.714,4.714,0,0,0,4.709-4.708V4.708A4.714,4.714,0,0,0,12.353,0Zm3.195,12.354a3.2,3.2,0,0,1-3.195,3.195H4.708a3.2,3.2,0,0,1-3.195-3.195V4.708A3.2,3.2,0,0,1,4.708,1.514h7.645a3.2,3.2,0,0,1,3.195,3.195v7.645Z" fill="#1d293f"/>
  <path id="Path_255" data-name="Path 255" d="M45.364,40.97a4.4,4.4,0,1,0,4.4,4.4A4.4,4.4,0,0,0,45.364,40.97Zm0,7.279a2.883,2.883,0,1,1,2.883-2.882A2.886,2.886,0,0,1,45.364,48.249Z" transform="translate(-36.833 -36.835)" fill="#1d293f"/>
  <path id="Path_256" data-name="Path 256" d="M120.031,28.251a1.11,1.11,0,1,0,.785.325A1.114,1.114,0,0,0,120.031,28.251Z" transform="translate(-106.919 -25.4)" fill="#1d293f"/>
</svg>
