<svg xmlns="http://www.w3.org/2000/svg" width="118.074" height="98" viewBox="0 0 118.074 98">
  <g id="Vector_Smart_Object" data-name="Vector Smart Object" transform="translate(-303.274 -116.736)">
    <g id="Group_19" data-name="Group 19">
      <g id="Group_15" data-name="Group 15">
        <rect id="Rectangle_1" data-name="Rectangle 1" width="90.616" height="67.42" rx="8.651" transform="translate(330.731 147.317)" fill="#f7eded"/>
        <ellipse id="Ellipse_1" data-name="Ellipse 1" cx="21.575" cy="21.682" rx="21.575" ry="21.682" transform="translate(303.274 162.357) rotate(-45)" fill="#f7eded"/>
        <g id="Group_5" data-name="Group 5">
          <g id="Group_3" data-name="Group 3">
            <path id="Path_3" data-name="Path 3" d="M390.542,120.923a.858.858,0,0,1-.61-.254l-2.441-2.453a.87.87,0,0,1,0-1.226.86.86,0,0,1,1.22,0l2.441,2.453a.87.87,0,0,1,0,1.226A.858.858,0,0,1,390.542,120.923Z" fill="#ff6846"/>
          </g>
          <g id="Group_4" data-name="Group 4">
            <path id="Path_4" data-name="Path 4" d="M388.1,120.923a.858.858,0,0,1-.61-.254.87.87,0,0,1,0-1.226l2.441-2.453a.86.86,0,0,1,1.22,0,.87.87,0,0,1,0,1.226l-2.441,2.453A.858.858,0,0,1,388.1,120.923Z" fill="#ff6846"/>
          </g>
        </g>
        <g id="Group_8" data-name="Group 8">
          <g id="Group_6" data-name="Group 6">
            <path id="Path_5" data-name="Path 5" d="M411.344,139.3a.858.858,0,0,1-.61-.254l-2.441-2.453a.87.87,0,0,1,0-1.226.86.86,0,0,1,1.22,0l2.441,2.453a.87.87,0,0,1,0,1.226A.858.858,0,0,1,411.344,139.3Z" fill="#ff6846"/>
          </g>
          <g id="Group_7" data-name="Group 7">
            <path id="Path_6" data-name="Path 6" d="M408.9,139.3a.858.858,0,0,1-.61-.254.87.87,0,0,1,0-1.226l2.441-2.453a.86.86,0,0,1,1.22,0,.87.87,0,0,1,0,1.226l-2.441,2.453A.858.858,0,0,1,408.9,139.3Z" fill="#ff6846"/>
          </g>
        </g>
        <g id="Group_11" data-name="Group 11">
          <g id="Group_9" data-name="Group 9">
            <path id="Path_7" data-name="Path 7" d="M314.651,188.3a.858.858,0,0,1-.61-.254l-2.441-2.453a.87.87,0,0,1,0-1.226.859.859,0,0,1,1.22,0l2.441,2.453a.87.87,0,0,1,0,1.226A.858.858,0,0,1,314.651,188.3Z" fill="#ff6846"/>
          </g>
          <g id="Group_10" data-name="Group 10">
            <path id="Path_8" data-name="Path 8" d="M312.21,188.3a.858.858,0,0,1-.61-.254.87.87,0,0,1,0-1.226l2.441-2.453a.86.86,0,0,1,1.22,0,.87.87,0,0,1,0,1.226l-2.441,2.453A.858.858,0,0,1,312.21,188.3Z" fill="#ff6846"/>
          </g>
        </g>
        <g id="Group_14" data-name="Group 14">
          <g id="Group_12" data-name="Group 12">
            <path id="Path_9" data-name="Path 9" d="M325.911,206.08a.858.858,0,0,1-.61-.254l-2.441-2.453a.87.87,0,0,1,0-1.226.859.859,0,0,1,1.22,0l2.441,2.453a.87.87,0,0,1,0,1.226A.858.858,0,0,1,325.911,206.08Z" fill="#ff6846"/>
          </g>
          <g id="Group_13" data-name="Group 13">
            <path id="Path_10" data-name="Path 10" d="M323.47,206.08a.858.858,0,0,1-.61-.254.87.87,0,0,1,0-1.226l2.441-2.453a.86.86,0,0,1,1.22,0,.87.87,0,0,1,0,1.226l-2.441,2.453A.858.858,0,0,1,323.47,206.08Z" fill="#ff6846"/>
          </g>
        </g>
      </g>
      <g id="Group_10769" data-name="Group 10769" transform="translate(-343.707 -289.758)">
        <path id="Path_10444" data-name="Path 10444" d="M717.966,425.023l8.246-6.227a7.688,7.688,0,1,1,4.633,13.823H719.379Z" fill="#f7eded"/>
        <path id="Path_10445" data-name="Path 10445" d="M707.984,425.023l-8.246-6.227a7.688,7.688,0,1,0-4.633,13.823h11.47Z" fill="#f7eded"/>
        <path id="Path_10446" data-name="Path 10446" d="M747.952,451.505H678a4.2,4.2,0,0,1-4.2-4.2v-10.49a4.2,4.2,0,0,1,4.2-4.2h69.953a4.2,4.2,0,0,1,4.2,4.2v10.493A4.2,4.2,0,0,1,747.952,451.505Z" fill="#f7eded"/>
        <path id="Path_10447" data-name="Path 10447" d="M746.552,451.506H679.4v46.169a5.6,5.6,0,0,0,5.6,5.6H740.96a5.6,5.6,0,0,0,5.6-5.6h0Z" fill="#fff"/>
        <path id="Path_10448" data-name="Path 10448" d="M706.68,451.506h12.591v51.765H706.68Z" fill="#f7eded"/>
        <path id="Path_10449" data-name="Path 10449" d="M706.68,432.618h12.591v18.887H706.68Z" fill="#ff6846"/>
        <path id="Path_10450" data-name="Path 10450" d="M712.976,422.825a6.3,6.3,0,0,0-6.3,6.3h0v3.5h12.591v-3.5A6.3,6.3,0,0,0,712.976,422.825Z" fill="#ffcb7c"/>
        <g id="Group_10769-2" data-name="Group 10769">
          <path id="Path_10451" data-name="Path 10451" d="M752.9,447.308V436.816a4.96,4.96,0,0,0-4.947-4.946l0-1h0v1H736.071l1.319-1.629A8.434,8.434,0,0,0,725.76,418.2l-7.8,5.892-.606-.484a6.982,6.982,0,0,0-8.753,0l-.608.484-7.8-5.893a8.432,8.432,0,0,0-11.633,12.041l1.324,1.631H678a4.959,4.959,0,0,0-4.945,4.947v10.492a4.959,4.959,0,0,0,4.659,4.936l.94.056v45.373A6.364,6.364,0,0,0,685,504.02h55.957a6.364,6.364,0,0,0,6.345-6.347V485.258a.75.75,0,1,0-1.5,0v12.416a4.859,4.859,0,0,1-4.846,4.847H720.021V452.254H745.8v17.265a.75.75,0,0,0,1.5,0V452.3l.94-.056A4.959,4.959,0,0,0,752.9,447.308Zm-45.475-18.187a5.56,5.56,0,0,1,5.546-5.547h0a5.561,5.561,0,0,1,5.545,5.546v2.75H707.429Zm-1.5,73.4H684.994a4.86,4.86,0,0,1-4.847-4.847v-1h.005v-44.42h25.781Zm0-51.764H678a3.455,3.455,0,0,1-3.448-3.448V436.816A3.458,3.458,0,0,1,678,433.368h27.934Zm.736-24.767a7.043,7.043,0,0,0-.736,3.13v2.75H695.1a6.956,6.956,0,0,1-6.938-6.938h0a6.938,6.938,0,0,1,6.937-6.939h0a6.983,6.983,0,0,1,4.182,1.4l7.751,5.853Zm.761,7.376h11.093v17.39H707.429Zm11.1,69.155H707.433V452.254h11.093Zm.757-76.532-.37-.744,7.752-5.852a6.938,6.938,0,1,1,4.183,12.475H720.021v-2.748A7.044,7.044,0,0,0,719.283,425.99Zm28.674,24.766H720.021V433.367h27.931a3.458,3.458,0,0,1,3.448,3.447l0,10.5A3.455,3.455,0,0,1,747.957,450.756Z" stroke="#1d293f" stroke-width="0.5"/>
          <path id="Path_10452" data-name="Path 10452" d="M746.553,475.639a1.75,1.75,0,1,0,1.236.512A1.749,1.749,0,0,0,746.553,475.639Z" stroke="#1d293f" stroke-width="0.5"/>
        </g>
      </g>
    </g>
  </g>
</svg>
