<svg xmlns="http://www.w3.org/2000/svg" width="111.711" height="97" viewBox="0 0 111.711 97">
  <g id="Group_53" data-name="Group 53" transform="translate(-62.487 -95.95)">
    <g id="Group_49" data-name="Group 49">
      <rect id="Rectangle_5" data-name="Rectangle 5" width="96.061" height="64.847" rx="7.537" transform="translate(78.137 120.47)" fill="#e4f3f4"/>
      <circle id="Ellipse_4" data-name="Ellipse 4" cx="18.841" cy="18.841" r="18.841" transform="matrix(0.707, -0.707, 0.707, 0.707, 62.487, 124.079)" fill="#e4f3f4"/>
      <g id="Group_39" data-name="Group 39">
        <g id="Group_37" data-name="Group 37">
          <path id="Path_71" data-name="Path 71" d="M132.005,99.59a.751.751,0,0,1-.533-.221l-2.131-2.132a.754.754,0,0,1,1.065-1.066l2.131,2.132a.754.754,0,0,1-.533,1.287Z" fill="#01b4d9"/>
        </g>
        <g id="Group_38" data-name="Group 38">
          <path id="Path_72" data-name="Path 72" d="M129.875,99.59a.754.754,0,0,1-.533-1.287l2.131-2.132a.754.754,0,1,1,1.065,1.066l-2.131,2.132A.751.751,0,0,1,129.875,99.59Z" fill="#01b4d9"/>
        </g>
      </g>
      <g id="Group_42" data-name="Group 42">
        <g id="Group_40" data-name="Group 40">
          <path id="Path_73" data-name="Path 73" d="M159.787,107.788a.751.751,0,0,1-.533-.221l-2.131-2.132a.754.754,0,1,1,1.065-1.066l2.131,2.132a.754.754,0,0,1-.533,1.287Z" fill="#01b4d9"/>
        </g>
        <g id="Group_41" data-name="Group 41">
          <path id="Path_74" data-name="Path 74" d="M157.657,107.788a.754.754,0,0,1-.533-1.287l2.131-2.132a.754.754,0,0,1,1.065,1.066l-2.131,2.132A.751.751,0,0,1,157.657,107.788Z" fill="#01b4d9"/>
        </g>
      </g>
      <g id="Group_45" data-name="Group 45">
        <g id="Group_43" data-name="Group 43">
          <path id="Path_75" data-name="Path 75" d="M70.951,188.426a.754.754,0,0,1-.533-1.287l2.131-2.132a.754.754,0,0,1,1.065,1.066l-2.131,2.132A.751.751,0,0,1,70.951,188.426Z" fill="#01b4d9"/>
        </g>
        <g id="Group_44" data-name="Group 44">
          <path id="Path_76" data-name="Path 76" d="M73.082,188.426a.751.751,0,0,1-.533-.221l-2.131-2.132a.754.754,0,0,1,1.065-1.066l2.131,2.132a.754.754,0,0,1-.533,1.287Z" fill="#01b4d9"/>
        </g>
      </g>
      <g id="Group_48" data-name="Group 48">
        <g id="Group_46" data-name="Group 46">
          <path id="Path_77" data-name="Path 77" d="M92.047,192.95a.754.754,0,0,1-.533-1.287l2.131-2.132A.754.754,0,1,1,94.71,190.6l-2.131,2.132A.751.751,0,0,1,92.047,192.95Z" fill="#01b4d9"/>
        </g>
        <g id="Group_47" data-name="Group 47">
          <path id="Path_78" data-name="Path 78" d="M94.178,192.95a.751.751,0,0,1-.533-.221L91.514,190.6a.754.754,0,1,1,1.065-1.066l2.131,2.132a.754.754,0,0,1-.533,1.287Z" fill="#01b4d9"/>
        </g>
      </g>
    </g>
    <g id="Group_51" data-name="Group 51">
      <path id="Path_79" data-name="Path 79" d="M166.256,128.238V168.95a6.047,6.047,0,0,1-6.027,6.031H131.6a6.047,6.047,0,0,0-6.027,6.031h-9.041a6.047,6.047,0,0,0-6.027-6.031H81.874a6.049,6.049,0,0,1-5.492-3.551,5.952,5.952,0,0,1-.536-2.48V128.238a6.047,6.047,0,0,1,6.027-6.031h78.355a5.952,5.952,0,0,1,2.479.535A6.054,6.054,0,0,1,166.256,128.238Z" fill="#01b4d9"/>
      <path id="Path_80" data-name="Path 80" d="M163.243,125.223v40.711a6.047,6.047,0,0,1-6.027,6.031H131.6c-3.315,0-7.534,2.715-7.534,6.031h-6.027c0-3.317-4.219-6.031-7.534-6.031H78.861a5.948,5.948,0,0,1-2.478-.535,5.952,5.952,0,0,1-.536-2.48V128.238a6.047,6.047,0,0,1,6.027-6.031h78.355a5.952,5.952,0,0,1,2.479.535A5.97,5.97,0,0,1,163.243,125.223Z" fill="#e4f3f4"/>
      <path id="Path_81" data-name="Path 81" d="M160.229,116.176V168.95h-33.15a6.047,6.047,0,0,0-6.027,6.031,6.047,6.047,0,0,0-6.027-6.031H81.874V116.176h78.355Z" fill="#fff"/>
      <path id="Path_82" data-name="Path 82" d="M116.531,116.176v16.586l7.534-6.031h22.6a6.047,6.047,0,0,0,6.027-6.031v-4.524a6.047,6.047,0,0,0-6.027-6.031H122.558a6.051,6.051,0,0,0-6.027,6.031Z" fill="#01b4d9"/>
      <path id="Path_83" data-name="Path 83" d="M118.791,111.48v16.005l5.274-3.649h24.109a4.525,4.525,0,0,0,4.52-4.523v-3.136a6.047,6.047,0,0,0-6.027-6.031H122.558A5.96,5.96,0,0,0,118.791,111.48Z" fill="#fff"/>
      <rect id="Rectangle_6" data-name="Rectangle 6" width="39.931" height="27.141" transform="translate(116.531 134.27)" fill="#e4f3f4"/>
      <g id="Group_50" data-name="Group 50">
        <path id="Path_84" data-name="Path 84" d="M89.439,159.149a1.586,1.586,0,0,0,1.567,1.508h18.76a1.579,1.579,0,0,0,1.56-1.508s.316-9.213-1.56-12.063a9.414,9.414,0,0,0-3.127-2.367,8.023,8.023,0,0,0-2.871-.649H97.741a9.843,9.843,0,0,0-2.915.535s-.188.075-.49.2v.008a8.867,8.867,0,0,0-3.33,2.269C89.055,149.883,89.439,159.149,89.439,159.149Z" fill="#01b4d9"/>
        <path id="Path_85" data-name="Path 85" d="M92.506,158.9a1.85,1.85,0,0,0,1.831,1.757h15.43a1.579,1.579,0,0,0,1.56-1.508s.316-9.213-1.56-12.063a9.414,9.414,0,0,0-3.127-2.367,8.023,8.023,0,0,0-2.871-.649H97.741a9.843,9.843,0,0,0-2.915.535s-.188.075-.49.2v.008C92.054,148.081,92.506,158.9,92.506,158.9Z" fill="#e4f3f4"/>
        <path id="Path_86" data-name="Path 86" d="M95.481,133.516v.754s3.014,1.508,7.534-1.508c.753,1.508,3.014,1.508,3.014,1.508v-.754a4.535,4.535,0,0,0-4.52-4.524H100A4.536,4.536,0,0,0,95.481,133.516Z" fill="#01b4d9"/>
        <path id="Path_87" data-name="Path 87" d="M95.481,134.27v2.262a4.516,4.516,0,0,0,2.216,3.882,4.441,4.441,0,0,0,2.3.641h1.507a4.447,4.447,0,0,0,2.306-.641,4.515,4.515,0,0,0,2.214-3.882V134.27s-2.26,0-3.014-1.508C98.495,135.778,95.481,134.27,95.481,134.27Z" fill="#fff"/>
        <path id="Path_88" data-name="Path 88" d="M109.043,146.332l6.872,2.5a2.1,2.1,0,0,0,2.291-.712l2.892-4.05,3.014,2.262-3.8,6.969a2.5,2.5,0,0,1-2.223,1.187l-6.787-.618Z" fill="#fff"/>
        <path id="Path_89" data-name="Path 89" d="M121.1,144.071l.377-1.131a2.618,2.618,0,0,1,1.854-1.427l4.579-.916a.881.881,0,0,1,1.112,1.167l-.022.09a2.773,2.773,0,0,1-1.828,1.829l-1.552.388-1.507,2.262Z" fill="#fff"/>
      </g>
    </g>
    <g id="Group_52" data-name="Group 52">
      <path id="Path_90" data-name="Path 90" d="M160.982,121.5v-5.322a.754.754,0,0,0-.753-.754h-1.507a.754.754,0,0,0,0,1.508h.753v20.356a.753.753,0,1,0,1.507,0V123.022a5.279,5.279,0,0,1,4.52,5.217V168.95a5.281,5.281,0,0,1-5.274,5.277H131.6a6.791,6.791,0,0,0-6.738,6.031h-7.618a6.793,6.793,0,0,0-6.739-6.031H81.874A5.281,5.281,0,0,1,76.6,168.95V146.332a.753.753,0,1,0-1.507,0V168.95a6.791,6.791,0,0,0,6.781,6.785H110.5a5.282,5.282,0,0,1,5.274,5.277.754.754,0,0,0,.753.754h9.041a.754.754,0,0,0,.753-.754,5.282,5.282,0,0,1,5.274-5.277h28.63a6.791,6.791,0,0,0,6.781-6.785V128.238A6.79,6.79,0,0,0,160.982,121.5Z" fill="#061a3a"/>
      <path id="Path_91" data-name="Path 91" d="M75.847,132.008a.754.754,0,0,0,.753-.754v-3.016a5.279,5.279,0,0,1,4.52-5.217V168.95a.754.754,0,0,0,.753.754h9.794a.754.754,0,0,0,0-1.508H82.628V116.93H110.5a.754.754,0,0,0,0-1.508H81.874a.754.754,0,0,0-.753.754V121.5a6.791,6.791,0,0,0-6.027,6.74v3.016A.754.754,0,0,0,75.847,132.008Z" fill="#061a3a"/>
      <path id="Path_92" data-name="Path 92" d="M159.476,168.2h-32.4a6.787,6.787,0,0,0-6.027,3.679,6.787,6.787,0,0,0-6.027-3.679h-9.041a.754.754,0,0,0,0,1.508h9.041a5.282,5.282,0,0,1,5.274,5.277.753.753,0,1,0,1.507,0,5.282,5.282,0,0,1,5.274-5.277h33.15a.754.754,0,0,0,.753-.754V153.118a.753.753,0,1,0-1.507,0Z" fill="#061a3a"/>
      <path id="Path_93" data-name="Path 93" d="M116.2,133.442a.753.753,0,0,0,.8-.091l7.328-5.866h22.337a6.791,6.791,0,0,0,6.781-6.785v-4.524a6.791,6.791,0,0,0-6.781-6.785H142.9a.754.754,0,0,0,0,1.508h3.767a5.282,5.282,0,0,1,5.274,5.277V120.7a5.282,5.282,0,0,1-5.274,5.277h-22.6a.753.753,0,0,0-.471.166l-6.31,5.051V116.176a5.282,5.282,0,0,1,5.274-5.277h4.52a.754.754,0,0,0,0-1.508h-4.52a6.791,6.791,0,0,0-6.781,6.785v16.586A.755.755,0,0,0,116.2,133.442Z" fill="#061a3a"/>
      <path id="Path_94" data-name="Path 94" d="M95.372,145.313a8.984,8.984,0,0,1,2.644-.489h6.027a7.252,7.252,0,0,1,2.544.576,11.153,11.153,0,0,1,2.123,1.355.749.749,0,0,0,.241.219,3.153,3.153,0,0,1,.461.525c1.427,2.174,1.52,9.129,1.436,11.623a.825.825,0,0,1-.807.78H109a.754.754,0,0,0,0,1.508h1.046a2.334,2.334,0,0,0,2.312-2.235c.006-.174.066-2.12-.05-4.48l5.992.545c.074.007.147.01.221.01a3.287,3.287,0,0,0,2.732-1.587l3.8-6.969a.753.753,0,0,0-.21-.964l-2.578-1.936.2-.616a1.909,1.909,0,0,1,1.288-.926l4.579-.916a.464.464,0,0,1,.241,0,.41.41,0,0,1-.009.249l-.021.086a2.031,2.031,0,0,1-1.28,1.28l-1.552.389a.753.753,0,0,0,.365,1.462l1.552-.387A3.543,3.543,0,0,0,130,142.033l.022-.087a1.627,1.627,0,0,0-1.991-2.089l-4.579.916a3.332,3.332,0,0,0-2.421,1.927l-.341,1.024-2.827,3.958a1.359,1.359,0,0,1-1.42.44l-6.639-2.416a12.359,12.359,0,0,0-2.572-1.669,8.68,8.68,0,0,0-3.192-.722H98.017a10.469,10.469,0,0,0-3.183.588c-.315.121-3.106,1.221-4.172,2.751-2.037,2.923-1.745,11.552-1.7,12.526a2.348,2.348,0,0,0,2.322,2.228h11.69a.754.754,0,0,0,0-1.508H91.28a.836.836,0,0,1-.817-.783c-.1-2.507-.046-9.478,1.435-11.6A9.258,9.258,0,0,1,95.372,145.313Zm23.722,3.246,2.443-3.423,1.876,1.407-3.486,6.4a1.743,1.743,0,0,1-1.494.8l-6.226-.567a21.646,21.646,0,0,0-.976-5.341l4.7,1.711A2.856,2.856,0,0,0,119.094,148.559Z" fill="#061a3a"/>
      <path id="Path_95" data-name="Path 95" d="M100.277,141.809h1.507a5.225,5.225,0,0,0,2.69-.746,5.287,5.287,0,0,0,2.584-4.532v-3.016a5.282,5.282,0,0,0-5.274-5.277h-1.507A5.282,5.282,0,0,0,95,133.516v3.016a5.284,5.284,0,0,0,2.581,4.529A5.223,5.223,0,0,0,100.277,141.809Zm0-12.062h1.507a3.767,3.767,0,0,1,3.757,3.669,2.205,2.205,0,0,1-1.576-.991.745.745,0,0,0-.48-.391.755.755,0,0,0-.612.1c-3.177,2.12-5.467,1.844-6.363,1.6v-.222A3.773,3.773,0,0,1,100.277,129.746Zm-3.767,6.785v-1.254a6.953,6.953,0,0,0,1.323.124,10.2,10.2,0,0,0,5.259-1.62,4.312,4.312,0,0,0,2.459,1.174v1.578a3.774,3.774,0,0,1-1.848,3.236,3.676,3.676,0,0,1-1.919.533h-1.507a3.665,3.665,0,0,1-1.92-.536A3.771,3.771,0,0,1,96.51,136.532Z" fill="#061a3a"/>
      <path id="Path_96" data-name="Path 96" d="M134.613,140.3h.753a.754.754,0,0,0,0-1.508h-.753a.754.754,0,0,0,0,1.508Z" fill="#061a3a"/>
      <path id="Path_97" data-name="Path 97" d="M134.613,145.578h.753a.754.754,0,0,0,0-1.508h-.753a.754.754,0,0,0,0,1.508Z" fill="#061a3a"/>
      <path id="Path_98" data-name="Path 98" d="M134.613,150.856h.753a.754.754,0,0,0,0-1.508h-.753a.754.754,0,0,0,0,1.508Z" fill="#061a3a"/>
      <path id="Path_99" data-name="Path 99" d="M134.613,156.133h.753a.754.754,0,0,0,0-1.508h-.753a.754.754,0,0,0,0,1.508Z" fill="#061a3a"/>
      <path id="Path_100" data-name="Path 100" d="M139.133,140.3h13.561a.754.754,0,0,0,0-1.508H139.133a.754.754,0,0,0,0,1.508Z" fill="#061a3a"/>
      <path id="Path_101" data-name="Path 101" d="M139.133,145.578h13.561a.754.754,0,0,0,0-1.508H139.133a.754.754,0,0,0,0,1.508Z" fill="#061a3a"/>
      <path id="Path_102" data-name="Path 102" d="M139.133,150.856h13.561a.754.754,0,0,0,0-1.508H139.133a.754.754,0,0,0,0,1.508Z" fill="#061a3a"/>
      <path id="Path_103" data-name="Path 103" d="M139.133,156.133h13.561a.754.754,0,0,0,0-1.508H139.133a.754.754,0,0,0,0,1.508Z" fill="#061a3a"/>
      <path id="Path_104" data-name="Path 104" d="M139.133,110.9h.753a.754.754,0,0,0,0-1.508h-.753a.754.754,0,0,0,0,1.508Z" fill="#061a3a"/>
      <path id="Path_105" data-name="Path 105" d="M75.847,135.778a.754.754,0,0,0,.753-.754v-.754a.753.753,0,1,0-1.507,0v.754A.754.754,0,0,0,75.847,135.778Z" fill="#061a3a"/>
      <path id="Path_106" data-name="Path 106" d="M160.229,150.856a.754.754,0,0,0,.753-.754v-.754a.753.753,0,1,0-1.507,0v.754A.754.754,0,0,0,160.229,150.856Z" fill="#061a3a"/>
      <path id="Path_107" data-name="Path 107" d="M94.682,168.2a.754.754,0,0,0,0,1.508h.753a.754.754,0,0,0,0-1.508Z" fill="#061a3a"/>
    </g>
  </g>
</svg>
