<svg xmlns="http://www.w3.org/2000/svg" width="650.476" height="50.375" viewBox="0 0 650.476 50.375">
  <path id="Shape_641" data-name="Shape 641" d="M635,3348s100.708,34.634,325,0c185.539-28.65,257.553-21.983,325,0" transform="translate(-634.756 -3320.21)" fill="none" stroke="#061a3a" stroke-width="1.5" stroke-dasharray="9 6"/>
  <path id="Shape_641-2" data-name="Shape 641" d="M723.882,3359.651l17.357,10.829a.716.716,0,0,0,1-.962l-5.044-8.852,7.074-7.332a.716.716,0,0,0-.424-1.208.728.728,0,0,0-.3.028l-19.494,6.208a.716.716,0,0,0-.163,1.289Z" transform="translate(-181.73 -3352.121)" fill="#fe5948"/>
  <path id="Shape_641_copy" data-name="Shape 641 copy" d="M1176.988,3327.971l17.483,10.625a.715.715,0,0,0,.987-.973l-5.147-8.793,6.988-7.414a.714.714,0,0,0-.743-1.17l-19.421,6.434a.716.716,0,0,0-.148,1.291Z" transform="translate(-1087.856 -3288.323)" fill="#fe5948"/>
</svg>
