<svg xmlns="http://www.w3.org/2000/svg" width="117.884" height="102" viewBox="0 0 117.884 102">
  <g id="Vector_Smart_Object3" data-name="Vector Smart Object3" transform="translate(-472.206 -95.581)">
    <g id="Group_36" data-name="Group 36">
      <g id="Group_32" data-name="Group 32">
        <rect id="Rectangle_2" data-name="Rectangle 2" width="81.463" height="62.23" rx="7.658" transform="translate(472.206 129.614)" fill="#f7eded"/>
        <ellipse id="Ellipse_3" data-name="Ellipse 3" cx="19.164" cy="19.126" rx="19.164" ry="19.126" transform="translate(535.94 134.084) rotate(-45)" fill="#f7eded"/>
        <g id="Group_22" data-name="Group 22">
          <g id="Group_20" data-name="Group 20">
            <path id="Path_33" data-name="Path 33" d="M474.822,107.117a.765.765,0,0,1-.542-1.306l2.168-2.164a.766.766,0,0,1,1.084,1.082l-2.168,2.164A.765.765,0,0,1,474.822,107.117Z" fill="#fe5948"/>
          </g>
          <g id="Group_21" data-name="Group 21">
            <path id="Path_34" data-name="Path 34" d="M476.99,107.117a.765.765,0,0,1-.542-.224l-2.168-2.164a.766.766,0,0,1,1.084-1.082l2.168,2.164a.765.765,0,0,1-.542,1.306Z" fill="#fe5948"/>
          </g>
        </g>
        <g id="Group_25" data-name="Group 25">
          <g id="Group_23" data-name="Group 23">
            <path id="Path_35" data-name="Path 35" d="M493.082,99.275a.765.765,0,0,1-.542-1.306l2.168-2.164a.766.766,0,0,1,1.084,1.082l-2.168,2.164A.765.765,0,0,1,493.082,99.275Z" fill="#fe5948"/>
          </g>
          <g id="Group_24" data-name="Group 24">
            <path id="Path_36" data-name="Path 36" d="M495.25,99.275a.764.764,0,0,1-.542-.224l-2.168-2.164a.766.766,0,0,1,1.084-1.082l2.168,2.164a.765.765,0,0,1-.542,1.306Z" fill="#fe5948"/>
          </g>
        </g>
        <g id="Group_28" data-name="Group 28">
          <g id="Group_26" data-name="Group 26">
            <path id="Path_37" data-name="Path 37" d="M576.327,182.215a.765.765,0,0,1-.542-1.306l2.168-2.164a.766.766,0,0,1,1.084,1.082l-2.168,2.164A.765.765,0,0,1,576.327,182.215Z" fill="#fe5948"/>
          </g>
          <g id="Group_27" data-name="Group 27">
            <path id="Path_38" data-name="Path 38" d="M578.495,182.215a.765.765,0,0,1-.542-.224l-2.168-2.164a.766.766,0,0,1,1.084-1.082l2.168,2.164a.765.765,0,0,1-.542,1.306Z" fill="#fe5948"/>
          </g>
        </g>
        <g id="Group_31" data-name="Group 31">
          <g id="Group_29" data-name="Group 29">
            <path id="Path_39" data-name="Path 39" d="M564.445,197.581a.765.765,0,0,1-.542-1.306l2.168-2.164a.766.766,0,0,1,1.084,1.082l-2.168,2.163A.764.764,0,0,1,564.445,197.581Z" fill="#fe5948"/>
          </g>
          <g id="Group_30" data-name="Group 30">
            <path id="Path_40" data-name="Path 40" d="M566.613,197.581a.764.764,0,0,1-.542-.224l-2.168-2.163a.766.766,0,0,1,1.084-1.082l2.168,2.164a.765.765,0,0,1-.542,1.306Z" fill="#fe5948"/>
          </g>
        </g>
      </g>
      <g id="Group_34" data-name="Group 34">
        <path id="Path_41" data-name="Path 41" d="M567.062,115.341v71.913H479.673V115.341a6.145,6.145,0,0,1,6.133-6.12h75.124A6.145,6.145,0,0,1,567.062,115.341Z" fill="#fe5948"/>
        <rect id="Rectangle_3" data-name="Rectangle 3" width="83.556" height="61.967" transform="translate(479.673 121.461)" fill="#fff"/>
        <path id="Path_42" data-name="Path 42" d="M567.062,115.341v6.12H479.673v-6.12a6.145,6.145,0,0,1,6.133-6.12h75.124A6.145,6.145,0,0,1,567.062,115.341Z" fill="#fe5948"/>
        <path id="Path_43" data-name="Path 43" d="M563.229,115.341v6.12H479.673v-6.12a6.145,6.145,0,0,1,6.133-6.12H557.1A6.145,6.145,0,0,1,563.229,115.341Z" fill="#f7eded"/>
        <rect id="Rectangle_4" data-name="Rectangle 4" width="49.061" height="35.191" transform="translate(522.601 130.641)" fill="#f7eded"/>
        <g id="Group_33" data-name="Group 33">
          <path id="Path_44" data-name="Path 44" d="M486.934,173.483a1.611,1.611,0,0,0,1.594,1.53h19.088a1.6,1.6,0,0,0,1.585-1.53s.323-9.349-1.585-12.24a9.6,9.6,0,0,0-3.182-2.4,8.2,8.2,0,0,0-2.921-.658h-6.133a10.058,10.058,0,0,0-2.966.542s-.192.077-.5.207v.008a9.023,9.023,0,0,0-3.388,2.3C486.544,164.08,486.934,173.483,486.934,173.483Z" fill="#fe5948"/>
          <path id="Path_45" data-name="Path 45" d="M490.055,173.23a1.879,1.879,0,0,0,1.863,1.783h15.7a1.6,1.6,0,0,0,1.585-1.53s.323-9.349-1.585-12.24a9.6,9.6,0,0,0-3.182-2.4,8.2,8.2,0,0,0-2.921-.658h-6.133a10.058,10.058,0,0,0-2.966.542s-.192.077-.5.207v.008C489.595,162.252,490.055,173.23,490.055,173.23Z" fill="#f7eded"/>
          <path id="Path_46" data-name="Path 46" d="M493.082,147.471v.765s3.066,1.531,7.666-1.53c.767,1.53,3.066,1.53,3.066,1.53v-.765a4.609,4.609,0,0,0-4.6-4.59h-1.533A4.609,4.609,0,0,0,493.082,147.471Z" fill="#fe5948"/>
          <path id="Path_47" data-name="Path 47" d="M493.082,148.236v2.3a4.617,4.617,0,0,0,4.6,4.59h1.533a4.617,4.617,0,0,0,4.6-4.59v-2.3s-2.3,0-3.066-1.53C496.148,149.767,493.082,148.236,493.082,148.236Z" fill="#fff"/>
          <path id="Path_48" data-name="Path 48" d="M506.88,160.477l6.992,2.537a2.14,2.14,0,0,0,2.331-.723l2.942-4.109,3.066,2.3-3.864,7.072a2.544,2.544,0,0,1-2.262,1.2l-6.905-.626Z" fill="#fff"/>
          <path id="Path_49" data-name="Path 49" d="M519.145,158.182s.172-.517.383-1.147a2.658,2.658,0,0,1,1.886-1.448l4.659-.929a.9.9,0,0,1,1.132,1.184l-.022.091a2.815,2.815,0,0,1-1.859,1.856l-1.58.394-1.533,2.3Z" fill="#fff"/>
        </g>
      </g>
      <g id="Group_35" data-name="Group 35">
        <path id="Path_50" data-name="Path 50" d="M492.69,159.443a9.162,9.162,0,0,1,2.69-.5h6.133a7.426,7.426,0,0,1,2.587.584,11.48,11.48,0,0,1,2.162,1.375.727.727,0,0,0,.244.222,3.261,3.261,0,0,1,.47.533c1.451,2.207,1.545,9.263,1.46,11.795a.837.837,0,0,1-.819.791H504.4a.765.765,0,1,0,0,1.53h3.219a2.371,2.371,0,0,0,2.351-2.268c.006-.176.069-2.152-.049-4.547l6.1.554c.075.007.15.01.226.01a3.347,3.347,0,0,0,2.779-1.611l3.864-7.072a.764.764,0,0,0-.213-.978l-2.625-1.964.208-.625a1.944,1.944,0,0,1,1.31-.94l4.659-.929a.454.454,0,0,1,.245,0,.4.4,0,0,1-.008.251l-.022.088a2.062,2.062,0,0,1-1.3,1.3l-1.58.394a.765.765,0,1,0,.371,1.484l1.58-.394a3.6,3.6,0,0,0,2.418-2.415l.022-.09a1.653,1.653,0,0,0-2.027-2.119l-4.659.93a3.39,3.39,0,0,0-2.463,1.956l-.347,1.04-2.875,4.015a1.387,1.387,0,0,1-1.445.448l-6.756-2.451a12.549,12.549,0,0,0-2.617-1.694,8.849,8.849,0,0,0-3.247-.734H495.38a10.65,10.65,0,0,0-3.238.6c-.32.122-3.161,1.239-4.245,2.79-2.074,2.967-1.776,11.723-1.735,12.713a2.389,2.389,0,0,0,2.364,2.261h8.968a.765.765,0,1,0,0-1.53h-8.968a.852.852,0,0,1-.832-.795c-.1-2.544-.045-9.617,1.461-11.773A9.433,9.433,0,0,1,492.69,159.443Zm24.135,3.293,2.487-3.472,1.907,1.428-3.547,6.49a1.748,1.748,0,0,1-1.52.81l-6.335-.575a21.911,21.911,0,0,0-.993-5.419l4.784,1.736A2.9,2.9,0,0,0,516.825,162.737Z" fill="#061a3a"/>
        <path id="Path_51" data-name="Path 51" d="M497.68,142.117a5.367,5.367,0,0,0-5.366,5.355v3.06a5.382,5.382,0,0,0,5.366,5.355h1.533a5.381,5.381,0,0,0,5.366-5.355v-3.06a5.367,5.367,0,0,0-5.366-5.355Zm3.484,11.7a3.75,3.75,0,0,1-1.951.541H497.68a3.743,3.743,0,0,1-1.955-.544,3.823,3.823,0,0,1-1.878-3.281v-1.273a7.069,7.069,0,0,0,1.346.126,10.4,10.4,0,0,0,5.349-1.644,4.4,4.4,0,0,0,2.5,1.191v1.6A3.83,3.83,0,0,1,501.164,153.816Zm1.871-6.446a2.24,2.24,0,0,1-1.6-1.006.769.769,0,0,0-1.111-.294c-3.234,2.151-5.564,1.871-6.474,1.626v-.225a3.833,3.833,0,0,1,3.833-3.825h1.533A3.828,3.828,0,0,1,503.035,147.37Z" fill="#061a3a"/>
        <path id="Path_52" data-name="Path 52" d="M567.062,171.188a.765.765,0,0,0-.767.765v14.536H507.013a.765.765,0,1,0,0,1.53h60.049a.765.765,0,0,0,.767-.765v-15.3A.765.765,0,0,0,567.062,171.188Z" fill="#061a3a"/>
        <path id="Path_53" data-name="Path 53" d="M491.673,186.488H480.44V136a.767.767,0,0,0-1.533,0v51.257a.765.765,0,0,0,.767.765h12a.765.765,0,1,0,0-1.53Z" fill="#061a3a"/>
        <path id="Path_54" data-name="Path 54" d="M479.673,123.947a.766.766,0,0,0,.767-.765v-.956H566.3v2.3a.767.767,0,0,0,1.533,0v-9.18a6.9,6.9,0,0,0-6.9-6.885H541.006a.765.765,0,1,0,0,1.53h19.923a5.367,5.367,0,0,1,5.366,5.355V120.7H480.44v-5.355a5.366,5.366,0,0,1,5.366-5.355h39.86a.765.765,0,1,0,0-1.53h-39.86a6.9,6.9,0,0,0-6.9,6.885v7.842A.766.766,0,0,0,479.673,123.947Z" fill="#061a3a"/>
        <path id="Path_55" data-name="Path 55" d="M487.339,114.576a.765.765,0,1,0,0,1.53H518a.765.765,0,1,0,0-1.53Z" fill="#061a3a"/>
        <path id="Path_56" data-name="Path 56" d="M560.929,116.106a.765.765,0,1,0,0-1.53H559.4a.765.765,0,1,0,0,1.53Z" fill="#061a3a"/>
        <path id="Path_57" data-name="Path 57" d="M553.264,116.106a.765.765,0,1,0,0-1.53h-1.533a.765.765,0,1,0,0,1.53Z" fill="#061a3a"/>
        <path id="Path_58" data-name="Path 58" d="M539.849,130.641a.766.766,0,0,0-.767-.765H522.6a.766.766,0,0,0-.767.765v20.783a.767.767,0,0,0,1.533,0V131.406h15.715A.766.766,0,0,0,539.849,130.641Z" fill="#061a3a"/>
        <path id="Path_59" data-name="Path 59" d="M571.662,129.876H554.423a.765.765,0,1,0,0,1.53h16.472v15.109a.767.767,0,0,0,1.533,0V130.641A.766.766,0,0,0,571.662,129.876Z" fill="#061a3a"/>
        <path id="Path_60" data-name="Path 60" d="M571.662,153.405a.765.765,0,0,0-.767.765v10.9H526.818a.765.765,0,1,0,0,1.53h15.556l-2.129,11.334a.766.766,0,0,0,1.506.282l2.183-11.617h6.393l2.183,11.617a.766.766,0,0,0,.752.624.779.779,0,0,0,.142-.014.765.765,0,0,0,.612-.893L551.886,166.6h19.775a.765.765,0,0,0,.767-.765V154.17A.765.765,0,0,0,571.662,153.405Z" fill="#061a3a"/>
        <path id="Path_61" data-name="Path 61" d="M537.709,137.751a.767.767,0,0,0-1.084,0L534.1,140.27l-.991-.989a.766.766,0,1,0-1.084,1.082l1.533,1.53a.767.767,0,0,0,1.084,0l3.066-3.06A.764.764,0,0,0,537.709,137.751Z" fill="#061a3a"/>
        <path id="Path_62" data-name="Path 62" d="M565.529,139.056H541a.765.765,0,1,0,0,1.53h24.53a.765.765,0,1,0,0-1.53Z" fill="#061a3a"/>
        <path id="Path_63" data-name="Path 63" d="M537.709,145.4a.767.767,0,0,0-1.084,0L534.1,147.92l-.991-.989a.766.766,0,0,0-1.084,1.082l1.533,1.53a.767.767,0,0,0,1.084,0l3.066-3.06A.764.764,0,0,0,537.709,145.4Z" fill="#061a3a"/>
        <path id="Path_64" data-name="Path 64" d="M565.529,146.706H541a.765.765,0,1,0,0,1.53h24.53a.765.765,0,1,0,0-1.53Z" fill="#061a3a"/>
        <path id="Path_65" data-name="Path 65" d="M536.625,153.051,534.1,155.57l-.991-.989a.766.766,0,0,0-1.084,1.082l1.533,1.53a.768.768,0,0,0,1.084,0l3.066-3.06a.766.766,0,0,0-1.084-1.082Z" fill="#061a3a"/>
        <path id="Path_66" data-name="Path 66" d="M565.529,154.356H541a.765.765,0,1,0,0,1.53h24.53a.765.765,0,1,0,0-1.53Z" fill="#061a3a"/>
        <path id="Path_67" data-name="Path 67" d="M528.988,109.985h.512a.765.765,0,1,0,0-1.53h-.512a.765.765,0,1,0,0,1.53Z" fill="#061a3a"/>
        <path id="Path_68" data-name="Path 68" d="M504.458,186.488h-.645a.765.765,0,1,0,0,1.53h.645a.765.765,0,1,0,0-1.53Z" fill="#061a3a"/>
        <path id="Path_69" data-name="Path 69" d="M542.915,129.876h-.958a.765.765,0,1,0,0,1.53h.958a.765.765,0,1,0,0-1.53Z" fill="#061a3a"/>
        <path id="Path_70" data-name="Path 70" d="M479.673,134.466a.766.766,0,0,0,.767-.765v-.956a.767.767,0,0,0-1.533,0v.956A.766.766,0,0,0,479.673,134.466Z" fill="#061a3a"/>
      </g>
    </g>
  </g>
</svg>
