<svg xmlns="http://www.w3.org/2000/svg" width="50.375" height="649.277" viewBox="0 0 50.375 649.277">
  <path id="Shape_641" data-name="Shape 641" d="M723.882,3359.651l17.357,10.829a.716.716,0,0,0,1-.962l-5.044-8.852,7.074-7.332a.716.716,0,0,0-.424-1.208.728.728,0,0,0-.3.028l-19.494,6.208a.716.716,0,0,0-.163,1.289Z" transform="translate(-3352.121 827.372) rotate(-90)" fill="#fe5948"/>
  <g id="Shape_641-2" data-name="Shape 641" transform="translate(-2962.456 -555.536)">
    <path id="Path_10865" data-name="Path 10865" d="M2990.174,1204.813l-1.418-.489c.01-.028.989-2.9,2.428-8.6l1.455.367C2991.182,1201.866,2990.215,1204.694,2990.174,1204.813Zm3.86-14.576-1.463-.33c.63-2.785,1.252-5.741,1.849-8.787l1.473.289C2995.292,1184.469,2994.667,1187.439,2994.034,1190.237ZM2997,1175.5l-1.477-.264c.515-2.874,1.015-5.854,1.486-8.86l1.482.232C2998.018,1169.625,2997.516,1172.617,2997,1175.5Zm2.383-14.834-1.485-.213c.422-2.94.825-5.936,1.2-8.905l1.488.185C3000.209,1154.713,2999.8,1157.718,2999.382,1160.667Zm1.914-14.9-1.49-.17c.331-2.9.65-5.91.949-8.938l1.492.147C3001.948,1139.845,3001.628,1142.859,3001.3,1145.77Zm1.511-14.942-1.494-.133q.384-4.345.731-8.96l1.5.114Q3003.194,1126.472,3002.807,1130.828Zm1.152-14.972-1.5-.1q.287-4.375.532-8.975l1.5.08Q3004.25,1111.474,3003.959,1115.856Zm.829-14.991-1.5-.068q.2-4.4.354-8.984l1.5.051Q3004.987,1096.463,3004.788,1100.865Zm.533-15-1.5-.039q.09-3.452.154-7.008l.033-1.982,1.5.023-.033,1.987Q3005.41,1082.406,3005.321,1085.862ZM2995.3,927.3l1.488-.18m-2.224-5.771q-.555-4.425-1.147-8.921l1.486-.2q.6,4.5,1.15,8.93Zm-1.944-14.865q-.6-4.421-1.239-8.909l1.484-.211q.641,4.491,1.241,8.917Zm-2.1-14.845q-.645-4.416-1.328-8.9l1.483-.226q.683,4.487,1.33,8.906Zm-2.239-14.827q-.69-4.494-1.35-8.9l1.483-.223q.658,4.4,1.35,8.894Zm-2.237-14.836q-.664-4.5-1.3-8.906l1.485-.215q.636,4.406,1.3,8.9Zm-2.153-14.846q-.642-4.506-1.249-8.915l1.486-.2q.608,4.406,1.247,8.909Zm-2.061-14.862q-.61-4.511-1.187-8.922l1.486-.2q.578,4.408,1.187,8.917Zm-1.959-14.876q-.578-4.518-1.12-8.931l1.488-.184q.545,4.412,1.12,8.926Zm-1.844-14.889q-.542-4.527-1.046-8.943l1.491-.169q.5,4.41,1.046,8.934Zm-1.716-14.908q-.5-4.534-.962-8.952l1.492-.156q.459,4.414.96,8.944Zm-1.573-14.923q-.453-4.542-.866-8.962l1.494-.139q.411,4.416.864,8.952Zm-1.409-14.941q-.4-4.551-.759-8.97l1.5-.121q.355,4.414.757,8.959Zm-1.225-14.956q-.342-4.56-.634-8.984l1.5-.1q.291,4.42.635,8.97Zm-1.014-14.974q-.275-4.568-.494-8.993l1.5-.074q.219,4.419.494,8.977Zm-.774-14.992q-.2-4.574-.334-9l1.5-.046q.138,4.417.332,8.983Zm-.5-15q-.105-4.582-.147-9.008l1.5-.014q.042,4.416.147,8.986Zm1.321-15.016h-1.5v-.16c0-2.991.022-5.946.065-8.848l1.5.022q-.064,4.344-.065,8.841Zm.189-14.975-1.5-.039c.079-3.039.184-6.069.312-9.005l1.5.065C2971.516,661.77,2971.411,664.79,2971.333,667.821Zm.6-14.961-1.5-.084c.168-3.016.367-6.042.589-8.993l1.5.113C2972.3,646.837,2972.1,649.854,2971.938,652.86Zm1.081-14.929-1.5-.135c.272-3.022.576-6.039.905-8.969l1.49.168C2973.592,631.913,2973.288,634.919,2973.019,637.931Zm1.614-14.88-1.488-.191c.383-3,.8-6.005,1.251-8.928l1.482.226C2975.434,617.07,2975.015,620.062,2974.633,623.051Zm2.2-14.8-1.478-.252c.506-2.984,1.051-5.969,1.621-8.87l1.472.289C2977.878,602.3,2977.335,605.275,2976.83,608.248Zm2.816-14.7-1.467-.315c.625-2.92,1.3-5.878,2-8.792l1.459.352C2980.937,587.7,2980.268,590.645,2979.646,593.553Zm3.438-14.563-1.453-.375c.744-2.879,1.538-5.807,2.362-8.705l1.444.41C2984.615,573.206,2983.824,576.123,2983.084,578.99Zm4.032-14.419-1.437-.431c.838-2.788,1.74-5.684,2.682-8.6l1.428.461C2988.85,558.907,2987.95,561.792,2987.116,564.571Z" fill="#061a3a"/>
  </g>
  <path id="Shape_641_copy" data-name="Shape 641 copy" d="M1176.988,3327.971l17.483,10.625a.715.715,0,0,0,.987-.973l-5.147-8.793,6.988-7.414a.714.714,0,0,0-.743-1.17l-19.421,6.434a.716.716,0,0,0-.148,1.291Z" transform="translate(-3288.323 1733.498) rotate(-90)" fill="#fe5948"/>
</svg>
