<svg xmlns="http://www.w3.org/2000/svg" width="23.297" height="23.294" viewBox="0 0 23.297 23.294">
  <g id="Group_11787" data-name="Group 11787" transform="translate(-8.011 -8.012)">
    <g id="linkedin" transform="translate(8.012 8.012)">
      <path id="Subtraction_1" data-name="Subtraction 1" d="M-2196.364-7596.717a11.572,11.572,0,0,1-8.237-3.412,11.57,11.57,0,0,1-3.412-8.235,11.573,11.573,0,0,1,3.412-8.236,11.572,11.572,0,0,1,8.237-3.412,11.572,11.572,0,0,1,8.237,3.412,11.572,11.572,0,0,1,3.412,8.236,11.57,11.57,0,0,1-3.412,8.236A11.572,11.572,0,0,1-2196.364-7596.717Zm-1.454-14.583v7.293h2.188v-3.945a1.729,1.729,0,0,1,1.721-1.647c.791,0,1.191.547,1.191,1.627v3.962h2.182v-4.125c0-2.805-1.314-3.394-2.417-3.394a3.281,3.281,0,0,0-2.677,1.239v-1.012Zm-3.632.023v7.271h2.182v-7.271Zm1.081-2.909a1.093,1.093,0,0,0-1.092,1.092,1.093,1.093,0,0,0,1.092,1.092,1.093,1.093,0,0,0,1.092-1.092A1.093,1.093,0,0,0-2200.368-7614.187Z" transform="translate(2208.012 7620.012)" fill="#1d293f"/>
    </g>
  </g>
</svg>
