<?xml version="1.0" encoding="utf-8"?>
<!-- Generator: Adobe Illustrator 24.1.3, SVG Export Plug-In . SVG Version: 6.00 Build 0)  -->
<svg version="1.1" id="Layer_1" xmlns="http://www.w3.org/2000/svg" xmlns:xlink="http://www.w3.org/1999/xlink" x="0px" y="0px"
	 viewBox="0 0 1920 1080" style="enable-background:new 0 0 1920 1080;" xml:space="preserve">
<style type="text/css">
	.st0{fill-rule:evenodd;clip-rule:evenodd;fill:#FE7456;}
	.st1{fill-rule:evenodd;clip-rule:evenodd;fill:#FF6645;}
	.st2{fill:#FF6645;}
</style>
<g id="logo" transform="translate(-362.094 63.212)">
	<path id="Path_7413" class="st0" d="M575.1,328.6c0-112.2,90.9-203.1,203-203.1c112.2,0,203.1,90.9,203.1,203
		c0,58.8-25.4,114.7-69.8,153.3c84.6,73.6,93.5,201.9,19.8,286.4c-38.6,44.3-94.4,69.7-153.2,69.7h-34.4
		c-27.6,0.4-50.2-21.6-50.6-49.2c-0.4-27.6,21.6-50.2,49.2-50.6c0.5,0,0.9,0,1.4,0h34.4c57,0,103.3-46.1,103.3-103.2
		c0-57-46.1-103.3-103.2-103.3c-0.1,0-0.1,0-0.2,0h-34.4c-27.6,0-49.9-22.3-49.9-49.9c0-27.6,22.3-49.9,49.9-49.9c0,0,0,0,0,0h34.4
		c57,0,103.2-46.2,103.2-103.3c0-57-46.2-103.2-103.3-103.2c-57,0-103.2,46.2-103.2,103.2v153.1c0,27.6-22.4,49.9-49.9,49.9
		c-27.5,0-49.9-22.3-49.9-49.9V328.6z"/>
	<g id="logo-2">
		<path id="Path_7411" class="st1" d="M575.1,717.3c0,27.4,22.2,49.6,49.6,49.6c27.4,0,49.6-22.2,49.6-49.6
			c0-27.4-22.2-49.6-49.6-49.6S575.1,689.9,575.1,717.3L575.1,717.3"/>
		<circle id="Ellipse_705" class="st2" cx="624.7" cy="598.7" r="49.6"/>
		<path id="Path_7414" class="st0" d="M575.1,328.6c0-112.2,90.9-203.1,203-203.1c112.2,0,203.1,90.9,203.1,203
			c0,58.8-25.4,114.7-69.8,153.3c84.6,73.6,93.5,201.9,19.8,286.4c-38.6,44.3-94.4,69.7-153.2,69.7h-34.4
			c-27.6,0.4-50.2-21.6-50.6-49.2c-0.4-27.6,21.6-50.2,49.2-50.6c0.5,0,0.9,0,1.4,0h34.4c57,0,103.3-46.1,103.3-103.2
			c0-57-46.1-103.3-103.2-103.3c-0.1,0-0.1,0-0.2,0h-34.4c-27.6,0-49.9-22.3-49.9-49.9c0-27.6,22.3-49.9,49.9-49.9c0,0,0,0,0,0h34.4
			c57,0,103.2-46.2,103.2-103.3c0-57-46.2-103.2-103.3-103.2c-57,0-103.2,46.2-103.2,103.2v153.1c0,27.6-22.4,49.9-49.9,49.9
			c-27.5,0-49.9-22.3-49.9-49.9V328.6z"/>
		<path id="Path_7415" class="st1" d="M743.5,738.7c-27.6,0-50,22.5-49.9,50.1c0,27.6,22.4,49.9,49.9,49.9h34.4
			c112.1,0,205.7-91.1,202.9-203.5c-4-160.6-145.9-203.5-202.9-203.5h-34.4c-27.6,0-50,22.5-49.9,50.1c0,27.6,22.4,49.9,49.9,49.9
			h34.4c57.1,0,103.5,46.3,103.5,103.5s-46.3,103.5-103.5,103.5L743.5,738.7z"/>
	</g>
	<path id="Union_3" class="st2" d="M1971,684.3V624h-30.4c-4.1,0.2-7.6-3-7.8-7.1c0-0.2,0-0.5,0-0.7v-12.9c-0.2-4.1,3-7.6,7.1-7.8
		c0.2,0,0.5,0,0.7,0h29.4l6-68.1c-0.2-3.6,2.5-6.7,6.1-6.9c0.3,0,0.5,0,0.8,0h14.7c3.6-0.2,6.7,2.5,6.9,6.1c0,0.3,0,0.5,0,0.8v68.1
		h55.7c4.1-0.2,7.6,3,7.8,7.1c0,0.2,0,0.5,0,0.7v12.9c0.2,4.1-3,7.6-7.1,7.8c-0.2,0-0.5,0-0.7,0h-55.7v72.2
		c0,20.7,1.4,59.3,47.9,59.3c5.5,0,10.6-2.3,16.1-2.3c3.2-0.1,6,2.3,6.4,5.5l3.7,13.3c0.4,1.3,0.5,2.7,0.5,4.1
		c-0.5,8.7-24.8,9.2-35,9.2C1984.8,785.5,1971,745,1971,684.3z M1736.8,693c0-68.5,43.7-100.3,106.7-100.3c16-0.3,32,1.7,47.4,6
		c4.6,1.4,7.4,3.7,7.4,7.4v168c0.2,4.1-3,7.6-7.1,7.8c-0.2,0-0.5,0-0.7,0h-13.8c-2.8,0.2-5.5-1.3-6.9-3.7l-6.9-9.7
		c-15.6,15.6-43.7,15.6-50.1,15.6C1765.3,784.1,1736.8,753.8,1736.8,693z M1769.5,695.7c0,51.5,26.7,59.8,53.4,59.8
		c16.1-1.3,31.3-8.3,42.8-19.7V621.3C1789.2,621.3,1769.5,647.5,1769.5,695.7L1769.5,695.7z M1315.8,686.6c0-56.6,29-93.9,90.6-93.9
		s90.6,37.3,90.6,93.9c0,60.7-29,97.5-90.6,97.5S1315.9,747.3,1315.8,686.6L1315.8,686.6z M1348.5,687c0,27.6,5.5,68.6,58,68.6
		c52.4,0,58-40.9,58-68.6c0-28.5-11-65.8-58-65.8S1348.5,658.5,1348.5,687L1348.5,687z M1119.4,772.6c-4.6-1.4-7.4-3.7-7.4-7.3
		V528.3c-0.2-4.1,3-7.6,7.1-7.8c0.2,0,0.5,0,0.7,0h17c4.1-0.2,7.6,3,7.8,7.1c0,0.2,0,0.5,0,0.7v76.8c17.2-8.4,36.1-12.6,55.2-12.4
		c45.1,0,81.4,31.7,81.4,92.5c0,60.7-32.2,98.9-93.9,98.9C1164.3,783.8,1141.4,779.9,1119.4,772.6z M1144.7,636.4v110
		c13.9,6.3,28.9,9.4,44.2,9.2c42.3,0,59.8-21.6,59.8-70.4c0-50.6-23-63.9-57-63.9C1174.9,622,1158.7,627.2,1144.7,636.4z
		 M1675.2,781.8c-4.1,0.2-7.6-3-7.8-7.1c0-0.2,0-0.5,0-0.7v-75.9c0-48.8-4.6-76.8-48.3-76.8c-6,0-36.8,1.8-45.5,7.8V774
		c0.2,4.1-3,7.6-7.1,7.8c-0.2,0-0.5,0-0.7,0h-17c-4.1,0.2-7.6-3-7.8-7.1c0-0.2,0-0.5,0-0.7V609.3c0-3.7,2.8-6,7.4-7.4
		c22.2-5.9,45.1-9,68.1-9.2c61.6,0,83.7,28.5,83.7,87.9V774c0.2,4.1-3,7.6-7.1,7.8c-0.2,0-0.5,0-0.7,0L1675.2,781.8z"/>
	<path id="Union_2" class="st2" d="M1705.2,487.2c-1.4,0.2-2.7-0.8-2.8-2.1c0-0.2,0-0.5,0-0.7v-16.5c-0.2-1.4,0.8-2.6,2.1-2.8
		c0.2,0,0.5,0,0.7,0h34.1c3.6,0,7.1-0.4,10.5-1.3c3.1-0.8,5.9-2.2,8.4-4.3c2.5-2.2,4.4-5.1,5.6-8.3c1.5-4.3,2.2-8.8,2-13.3v-7.4
		h-30.5c-7.6,0.1-15.3-0.9-22.6-3c-13.5-3.6-24.1-14-28-27.5c-2.7-8.9-3.9-18.1-3.7-27.3c-0.2-9.6,1.3-19.2,4.4-28.3
		c2.5-7.4,6.6-14.2,12-19.9c4.9-5.1,10.9-9.1,17.5-11.6c6.7-2.6,13.9-3.9,21.1-3.8c14.6-0.8,29,4.5,39.5,14.7
		c9.5,9.8,14.2,25.6,14.2,47.4v37.3h101c3.8,0.3,7.5-0.8,10.4-3.3c2.6-3.4,3.7-7.6,3.3-11.8v-76.3c-0.2-1.4,0.8-2.6,2.1-2.8
		c0.2,0,0.5,0,0.7,0h18.2c1.4-0.2,2.6,0.8,2.8,2.1c0,0.2,0,0.5,0,0.7v77.7c0.8,9.7-1.9,19.3-7.7,27.2c-6.9,6.5-16.2,9.6-25.6,8.7
		h-105.3v6.8c0.2,7.7-1,15.4-3.6,22.8c-2.1,5.8-5.5,11.1-10,15.4c-4.4,4.1-9.7,7.1-15.5,8.8c-6.5,2-13.4,2.9-20.2,2.8L1705.2,487.2z
		 M1713.3,342.7c-6,8.9-8.9,19.5-8.4,30.2c-1.1,10,1.8,20,8.1,27.9c6.7,5.6,15.3,8.3,24,7.7h28.8v-37.3c0.6-10.2-1.8-20.4-7-29.3
		c-5.2-7.3-13.9-11.3-22.9-10.5C1727,331.1,1718.4,335.3,1713.3,342.7z M1909.2,482.7c-6.6,0-12-5.4-12-12v-2.5c0-6.6,5.4-12,12-12
		h1c6.6,0,12,5.4,12,12c0,0,0,0,0,0v2.5c0,6.6-5.4,12-12,12H1909.2z M1595.6,430.6c-0.4,0-0.7,0-1,0c-0.3,0-0.6,0-1,0h-80
		c-9.4,0.9-18.7-2.2-25.6-8.7c-5.8-7.8-8.5-17.5-7.7-27.2V240c-0.2-1.4,0.8-2.6,2.1-2.8c0.2,0,0.5,0,0.7,0h18.3
		c1.4-0.2,2.6,0.8,2.8,2.1c0,0.2,0,0.5,0,0.7v153.4c-0.5,4.2,0.7,8.4,3.3,11.8c2.9,2.4,6.6,3.6,10.4,3.3h75.7c0.4,0,0.7,0,1,0.1
		s0.6-0.1,1-0.1h17.9c3.8,0.3,7.5-0.8,10.4-3.3c2.6-3.4,3.7-7.6,3.3-11.8v-76.3c-0.2-1.4,0.8-2.6,2.1-2.8c0.2,0,0.5,0,0.7,0h18.2
		c1.4-0.2,2.6,0.8,2.8,2.1c0,0.2,0,0.5,0,0.7v77.7c0.8,9.7-1.9,19.3-7.7,27.2c-6.9,6.5-16.2,9.6-25.6,8.7L1595.6,430.6z
		 M1273.5,430.6c-9.4,0.9-18.7-2.2-25.6-8.7c-5.8-7.8-8.5-17.5-7.7-27.2v-59.5c-0.2-1.4,0.8-2.7,2.1-2.8c0.2,0,0.5,0,0.7,0h18.2
		c1.4-0.2,2.7,0.8,2.8,2.1c0,0.2,0,0.5,0,0.7v58c-0.5,4.2,0.7,8.4,3.3,11.8c2.9,2.4,6.6,3.6,10.4,3.3h128.6
		c3.9,0.4,7.7-0.8,10.7-3.3c2.6-3.4,3.7-7.6,3.3-11.8v-76.3c-0.2-1.4,0.8-2.6,2.1-2.8c0.2,0,0.5,0,0.7,0h18.2
		c1.4-0.2,2.6,0.8,2.8,2.1c0,0.2,0,0.5,0,0.7v77.7c0.8,9.7-1.9,19.3-7.7,27.2c-7.1,6.5-16.6,9.7-26.2,8.7L1273.5,430.6z
		 M1359.5,302.9c-6.6,0-12-5.4-12-12v-2.5c0-6.6,5.4-12,12-12h1c6.6,0,12,5.4,12,12v2.5c0,6.6-5.3,12-12,12H1359.5z M1324.8,302.9
		c-6.6,0-12-5.3-12-12c0,0,0,0,0,0v-2.5c0-6.6,5.4-12,12-12h1c6.6,0,12,5.4,12,12c0,0,0,0,0,0v2.5c0,6.6-5.4,12-12,12H1324.8z
		 M1638.6,286.1c-6.6,0-12-5.4-12-12v-2.5c0-6.6,5.4-12,12-12c0,0,0,0,0,0h1c6.6,0,12,5.4,12,12v2.5c0,6.6-5.3,12-11.9,12.1
		c0,0,0,0-0.1,0H1638.6z"/>
</g>
</svg>
