<svg xmlns="http://www.w3.org/2000/svg" xmlns:xlink="http://www.w3.org/1999/xlink" width="126.857" height="45.919" viewBox="0 0 126.857 45.919">
  <defs>
    <clipPath id="clip-path">
      <path id="Path_7" data-name="Path 7" d="M70.029,155.018a13.076,13.076,0,1,1,21.662,9.861A13.073,13.073,0,0,1,83.1,187.813H80.888a3.213,3.213,0,1,1,0-6.426H83.1a6.648,6.648,0,1,0,0-13.3H80.888a3.213,3.213,0,1,1,0-6.425H83.1a6.647,6.647,0,1,0-6.649-6.648v9.861a3.213,3.213,0,0,1-6.427,0Z" transform="translate(-70.029 -141.945)" fill="none" clip-rule="evenodd"/>
    </clipPath>
    <clipPath id="clip-path-2">
      <rect id="Rectangle_21" data-name="Rectangle 21" width="175.244" height="186.151" fill="none"/>
    </clipPath>
    <clipPath id="clip-path-3">
      <rect id="Rectangle_20" data-name="Rectangle 20" width="29.813" height="49.81" fill="#ff6645"/>
    </clipPath>
    <clipPath id="clip-path-4">
      <rect id="Rectangle_19" data-name="Rectangle 19" width="26.178" height="46.174" fill="#ff6645"/>
    </clipPath>
    <clipPath id="clip-path-5">
      <path id="Path_6" data-name="Path 6" d="M70.029,369.013a3.193,3.193,0,1,0,3.193-3.193,3.193,3.193,0,0,0-3.193,3.193" transform="translate(-70.029 -365.82)" fill="#ff6645" clip-rule="evenodd"/>
    </clipPath>
    <clipPath id="clip-path-6">
      <rect id="Rectangle_12" data-name="Rectangle 12" width="175.244" height="186.151" fill="#ff6645"/>
    </clipPath>
    <clipPath id="clip-path-7">
      <ellipse id="Ellipse_3" data-name="Ellipse 3" cx="3.193" cy="3.193" rx="3.193" ry="3.193" fill="#ff6645"/>
    </clipPath>
    <clipPath id="clip-path-11">
      <rect id="Rectangle_26" data-name="Rectangle 26" width="29.813" height="49.81" fill="#f2f2f2"/>
    </clipPath>
    <clipPath id="clip-path-12">
      <rect id="Rectangle_25" data-name="Rectangle 25" width="26.178" height="46.174" fill="#f2f2f2"/>
    </clipPath>
    <clipPath id="clip-path-13">
      <path id="Path_10" data-name="Path 10" d="M122.213,288.162a3.22,3.22,0,0,0,0,6.44h2.215a12.971,12.971,0,0,0,13.067-13.1c-.259-10.344-9.4-13.1-13.067-13.1h-2.215a3.22,3.22,0,0,0,0,6.44h2.215a6.662,6.662,0,0,1,0,13.324Z" transform="translate(-119.002 -268.398)" fill="#ff6645" clip-rule="evenodd"/>
    </clipPath>
  </defs>
  <g id="Group_2980" data-name="Group 2980" transform="translate(0)">
    <path id="Path_5" data-name="Path 5" d="M70.029,369.013a3.193,3.193,0,1,0,3.193-3.193,3.193,3.193,0,0,0-3.193,3.193" transform="translate(-70.029 -330.917)" fill="#ff6645" fill-rule="evenodd"/>
    <ellipse id="Ellipse_2" data-name="Ellipse 2" cx="3.193" cy="3.193" rx="3.193" ry="3.193" transform="translate(0 27.268)" fill="#ff6645"/>
    <g id="Group_35" data-name="Group 35" transform="translate(0)" clip-path="url(#clip-path)">
      <g id="Group_34" data-name="Group 34" transform="translate(-74.533 -44.72)">
        <g id="Group_33" data-name="Group 33" transform="translate(0 0)" clip-path="url(#clip-path-2)">
          <g id="Group_32" data-name="Group 32" transform="translate(72.715 42.902)">
            <g id="Group_31" data-name="Group 31" transform="translate(0)">
              <rect id="Rectangle_16" data-name="Rectangle 16" width="29.813" height="49.81" fill="#ff6645"/>
              <g id="Group_30" data-name="Group 30" clip-path="url(#clip-path-3)">
                <g id="Group_29" data-name="Group 29" transform="translate(1.818 1.818)">
                  <rect id="Rectangle_17" data-name="Rectangle 17" width="26.178" height="46.174" fill="#ff6645"/>
                  <g id="Group_28" data-name="Group 28" clip-path="url(#clip-path-4)">
                    <rect id="Rectangle_18" data-name="Rectangle 18" width="29.787" height="49.504" transform="translate(-1.818 -1.818)" fill="#ff6645"/>
                  </g>
                </g>
              </g>
            </g>
          </g>
        </g>
      </g>
    </g>
    <path id="Path_9" data-name="Path 9" d="M122.213,288.162a3.22,3.22,0,0,0,0,6.44h2.215a12.971,12.971,0,0,0,13.067-13.1c-.259-10.344-9.4-13.1-13.067-13.1h-2.215a3.22,3.22,0,0,0,0,6.44h2.215a6.662,6.662,0,0,1,0,13.324Z" transform="translate(-111.367 -248.683)" fill="#ff6645" fill-rule="evenodd"/>
    <g id="Group_2979" data-name="Group 2979" transform="translate(0)">
      <g id="Group_22" data-name="Group 22" transform="translate(0 34.903)" clip-path="url(#clip-path-5)">
        <g id="Group_21" data-name="Group 21" transform="translate(-74.533 -79.623)">
          <rect id="Rectangle_10" data-name="Rectangle 10" width="175.244" height="186.151" transform="translate(0 0)" fill="#ff6645"/>
          <g id="Group_20" data-name="Group 20" transform="translate(0 0)" clip-path="url(#clip-path-6)">
            <rect id="Rectangle_11" data-name="Rectangle 11" width="10.022" height="10.022" transform="translate(72.715 77.805)" fill="#ff6645"/>
          </g>
        </g>
      </g>
      <g id="Group_26" data-name="Group 26" transform="translate(0 27.268)" clip-path="url(#clip-path-7)">
        <g id="Group_25" data-name="Group 25" transform="translate(-74.533 -71.988)">
          <rect id="Rectangle_13" data-name="Rectangle 13" width="175.244" height="186.151" transform="translate(0 0)" fill="#ff6645"/>
          <g id="Group_24" data-name="Group 24" transform="translate(0 0)" clip-path="url(#clip-path-6)">
            <rect id="Rectangle_14" data-name="Rectangle 14" width="10.022" height="10.022" transform="translate(72.715 70.17)" fill="#ff6645"/>
          </g>
        </g>
      </g>
      <g id="Group_44" data-name="Group 44" clip-path="url(#clip-path)">
        <g id="Group_43" data-name="Group 43" transform="translate(-74.533 -44.72)">
          <g id="Group_42" data-name="Group 42" transform="translate(0 0)" clip-path="url(#clip-path-2)">
            <g id="Group_41" data-name="Group 41" transform="translate(72.715 42.902)" opacity="0.1">
              <g id="Group_40" data-name="Group 40" transform="translate(0)">
                <rect id="Rectangle_22" data-name="Rectangle 22" width="29.813" height="49.81" fill="#f2f2f2"/>
                <g id="Group_39" data-name="Group 39" clip-path="url(#clip-path-11)">
                  <g id="Group_38" data-name="Group 38" transform="translate(1.818 1.818)">
                    <rect id="Rectangle_23" data-name="Rectangle 23" width="26.178" height="46.174" fill="#f2f2f2"/>
                    <g id="Group_37" data-name="Group 37" clip-path="url(#clip-path-12)">
                      <rect id="Rectangle_24" data-name="Rectangle 24" width="29.787" height="49.504" transform="translate(-1.818 -1.818)" fill="#f2f2f2"/>
                    </g>
                  </g>
                </g>
              </g>
            </g>
          </g>
        </g>
      </g>
      <g id="Group_48" data-name="Group 48" transform="translate(7.635 19.715)" clip-path="url(#clip-path-13)">
        <g id="Group_47" data-name="Group 47" transform="translate(-82.168 -64.717)">
          <rect id="Rectangle_28" data-name="Rectangle 28" width="175.244" height="186.151" transform="translate(0 0)" fill="#ff6645"/>
          <g id="Group_46" data-name="Group 46" transform="translate(0 0)" clip-path="url(#clip-path-6)">
            <rect id="Rectangle_29" data-name="Rectangle 29" width="22.132" height="29.84" transform="translate(80.35 62.899)" fill="#ff6645"/>
          </g>
        </g>
      </g>
    </g>
  </g>
  <g id="Group_10637" data-name="Group 10637" transform="translate(36.595 22.005)">
    <path id="Path_10172" data-name="Path 10172" d="M-82.032,694.876a6.179,6.179,0,0,1,2.356,2.652,9.2,9.2,0,0,1,.849,4.08,9.2,9.2,0,0,1-.849,4.079,6.182,6.182,0,0,1-2.356,2.653,6.408,6.408,0,0,1-3.393.916,5.6,5.6,0,0,1-3.218-.9,4.934,4.934,0,0,1-1.9-2.41v3.124h-3.8V689.14h3.8v8.105a4.863,4.863,0,0,1,1.9-2.4,5.667,5.667,0,0,1,3.218-.889A6.408,6.408,0,0,1-82.032,694.876Zm-7.418,3.568a4.392,4.392,0,0,0-1.118,3.164,4.352,4.352,0,0,0,1.118,3.137,3.755,3.755,0,0,0,2.841,1.172,3.733,3.733,0,0,0,2.854-1.145,4.431,4.431,0,0,0,1.077-3.164,4.483,4.483,0,0,0-1.077-3.178,3.716,3.716,0,0,0-2.854-1.158A3.754,3.754,0,0,0-89.45,698.443Z" transform="translate(94.338 -689.14)" fill="#ff6846"/>
    <path id="Path_10173" data-name="Path 10173" d="M-53.6,697.037a6.7,6.7,0,0,1,2.733,2.652,8.061,8.061,0,0,1,1,4.08,7.982,7.982,0,0,1-1,4.066,6.815,6.815,0,0,1-2.733,2.653,8.181,8.181,0,0,1-3.918.929,8.184,8.184,0,0,1-3.918-.929,6.815,6.815,0,0,1-2.733-2.653,7.975,7.975,0,0,1-1-4.066,8.054,8.054,0,0,1,1-4.08,6.7,6.7,0,0,1,2.733-2.652,8.274,8.274,0,0,1,3.918-.916A8.271,8.271,0,0,1-53.6,697.037Zm-6.611,3.487a4.427,4.427,0,0,0-1.1,3.245,4.422,4.422,0,0,0,1.1,3.244,3.638,3.638,0,0,0,2.693,1.118,3.642,3.642,0,0,0,2.693-1.118,4.428,4.428,0,0,0,1.1-3.244,4.433,4.433,0,0,0-1.1-3.245,3.646,3.646,0,0,0-2.693-1.117A3.643,3.643,0,0,0-60.212,700.523Z" transform="translate(85.309 -691.301)" fill="#ff6846"/>
    <path id="Path_10174" data-name="Path 10174" d="M-22.208,697.778a6.857,6.857,0,0,1,1.535,4.766v8.671h-3.77v-8.24a3.9,3.9,0,0,0-.916-2.76,3.26,3.26,0,0,0-2.5-.982,3.351,3.351,0,0,0-2.586,1.05,4.29,4.29,0,0,0-.969,3.016v7.917h-3.8V696.3h3.8v2.989a4.751,4.751,0,0,1,1.952-2.356,5.8,5.8,0,0,1,3.137-.849A5.283,5.283,0,0,1-22.208,697.778Z" transform="translate(76.037 -691.289)" fill="#ff6846"/>
    <path id="Path_10175" data-name="Path 10175" d="M3.318,697.01a4.847,4.847,0,0,1,1.912,2.4v-3.1H9v14.918H5.23V708.1a4.917,4.917,0,0,1-1.912,2.41,5.673,5.673,0,0,1-3.232.9,6.408,6.408,0,0,1-3.393-.916,6.186,6.186,0,0,1-2.356-2.653,10.231,10.231,0,0,1,0-8.159,6.184,6.184,0,0,1,2.356-2.652,6.408,6.408,0,0,1,3.393-.916A5.737,5.737,0,0,1,3.318,697.01Zm-4.9,3.581a4.483,4.483,0,0,0-1.077,3.178,4.431,4.431,0,0,0,1.077,3.164,3.733,3.733,0,0,0,2.854,1.145,3.758,3.758,0,0,0,2.841-1.172,4.355,4.355,0,0,0,1.118-3.137A4.395,4.395,0,0,0,4.112,700.6a3.757,3.757,0,0,0-2.841-1.171A3.716,3.716,0,0,0-1.583,700.591Z" transform="translate(67.152 -691.301)" fill="#ff6846"/>
    <path id="Path_10176" data-name="Path 10176" d="M32.248,706.4v3.258H30.256a5.511,5.511,0,0,1-3.837-1.212,5.246,5.246,0,0,1-1.333-4.039v-6.463H23.012v-3.2h2.073v-3.689h3.8v3.689h3.339v3.2H28.882v6.517a2.1,2.1,0,0,0,.431,1.508,2.011,2.011,0,0,0,1.454.431Z" transform="translate(58.014 -689.732)" fill="#ff6846"/>
  </g>
</svg>
