<svg xmlns="http://www.w3.org/2000/svg" width="146.789" height="121.709" viewBox="0 0 146.789 121.709">
  <g id="Vector_Smart_Object" data-name="Vector Smart Object" transform="translate(-146.414 -11.667)">
    <g id="Group_47" data-name="Group 47" transform="translate(0 0)">
      <g id="Group_10762" data-name="Group 10762">
        <g id="Group_10761" data-name="Group 10761" transform="translate(146.414 11.667)">
          <rect id="Rectangle_29" data-name="Rectangle 29" width="112.654" height="83.731" rx="7.861" transform="translate(0 37.979)" fill="#ff6846" opacity="0.1"/>
          <ellipse id="Ellipse_12" data-name="Ellipse 12" cx="26.822" cy="26.927" rx="26.822" ry="26.927" transform="translate(108.709 94.739) rotate(-135)" fill="#ff6846" opacity="0.1"/>
          <g id="Group_33" data-name="Group 33" transform="translate(37.225)">
            <g id="Group_31" data-name="Group 31" transform="translate(0)">
              <path id="Path_270" data-name="Path 270" d="M353.108,111.216a1.067,1.067,0,0,0,.758-.316l3.034-3.046a1.075,1.075,0,0,0-1.517-1.523l-3.034,3.046a1.08,1.08,0,0,0,0,1.523A1.067,1.067,0,0,0,353.108,111.216Z" transform="translate(-352.035 -106.016)" fill="#ff6846"/>
            </g>
            <g id="Group_32" data-name="Group 32" transform="translate(0)">
              <path id="Path_271" data-name="Path 271" d="M356.142,111.216a1.067,1.067,0,0,0,.759-.316,1.08,1.08,0,0,0,0-1.523l-3.034-3.046a1.075,1.075,0,1,0-1.517,1.523l3.034,3.046A1.068,1.068,0,0,0,356.142,111.216Z" transform="translate(-352.035 -106.016)" fill="#ff6846"/>
            </g>
          </g>
          <g id="Group_36" data-name="Group 36" transform="translate(11.364 22.823)">
            <g id="Group_34" data-name="Group 34">
              <path id="Path_272" data-name="Path 272" d="M372.018,127.905a1.068,1.068,0,0,0,.759-.316l3.034-3.046a1.075,1.075,0,0,0-1.517-1.523l-3.034,3.046a1.08,1.08,0,0,0,0,1.523A1.068,1.068,0,0,0,372.018,127.905Z" transform="translate(-370.945 -122.705)" fill="#ff6846"/>
            </g>
            <g id="Group_35" data-name="Group 35">
              <path id="Path_273" data-name="Path 273" d="M375.053,127.905a1.068,1.068,0,0,0,.759-.316,1.08,1.08,0,0,0,0-1.523l-3.034-3.046a1.075,1.075,0,1,0-1.517,1.523l3.034,3.046A1.067,1.067,0,0,0,375.053,127.905Z" transform="translate(-370.945 -122.705)" fill="#ff6846"/>
            </g>
          </g>
          <g id="Group_39" data-name="Group 39" transform="translate(131.572 83.677)">
            <g id="Group_37" data-name="Group 37" transform="translate(0)">
              <path id="Path_274" data-name="Path 274" d="M284.116,172.4a1.067,1.067,0,0,0,.759-.315l3.034-3.046a1.075,1.075,0,0,0-1.517-1.523l-3.034,3.046a1.08,1.08,0,0,0,0,1.523A1.067,1.067,0,0,0,284.116,172.4Z" transform="translate(-283.043 -167.204)" fill="#ff6846"/>
            </g>
            <g id="Group_38" data-name="Group 38" transform="translate(0)">
              <path id="Path_275" data-name="Path 275" d="M287.15,172.4a1.067,1.067,0,0,0,.759-.315,1.08,1.08,0,0,0,0-1.523l-3.034-3.046a1.075,1.075,0,1,0-1.517,1.523l3.034,3.046A1.067,1.067,0,0,0,287.15,172.4Z" transform="translate(-283.043 -167.204)" fill="#ff6846"/>
            </g>
          </g>
          <g id="Group_42" data-name="Group 42" transform="translate(117.574 105.758)">
            <g id="Group_40" data-name="Group 40" transform="translate(0)">
              <path id="Path_276" data-name="Path 276" d="M294.352,188.552a1.068,1.068,0,0,0,.758-.316l3.034-3.046a1.075,1.075,0,0,0-1.517-1.523l-3.034,3.046a1.08,1.08,0,0,0,0,1.523A1.067,1.067,0,0,0,294.352,188.552Z" transform="translate(-293.279 -183.351)" fill="#ff6846"/>
            </g>
            <g id="Group_41" data-name="Group 41" transform="translate(0)">
              <path id="Path_277" data-name="Path 277" d="M297.386,188.552a1.067,1.067,0,0,0,.759-.316,1.08,1.08,0,0,0,0-1.523l-3.034-3.046a1.075,1.075,0,1,0-1.517,1.523l3.034,3.046A1.067,1.067,0,0,0,297.386,188.552Z" transform="translate(-293.279 -183.351)" fill="#ff6846"/>
            </g>
          </g>
        </g>
        <g id="profits" transform="translate(157.281 11.91)">
          <g id="Group_10767" data-name="Group 10767" transform="translate(1.715 4.299)">
            <path id="Path_10416" data-name="Path 10416" d="M66.74,303.867H12.513A5.013,5.013,0,0,1,7.5,298.854v-6.309a5.013,5.013,0,0,1,5.013-5.013H66.74a5.013,5.013,0,0,1,5.013,5.013v6.309A5.013,5.013,0,0,1,66.74,303.867Z" transform="translate(-7.5 -224.105)" fill="#fac87a"/>
            <path id="Path_10417" data-name="Path 10417" d="M22.946,303.87H12.515A5.014,5.014,0,0,1,7.5,298.858v-6.311a5.014,5.014,0,0,1,5.015-5.012H22.946a5.013,5.013,0,0,0-5.012,5.012v6.311A5.013,5.013,0,0,0,22.946,303.87Z" transform="translate(-7.5 -224.108)" fill="#fdd69c"/>
            <path id="Path_10418" data-name="Path 10418" d="M71.754,319.63v3.987a5.012,5.012,0,0,1-5.013,5.011H12.514A5.012,5.012,0,0,1,7.5,323.617V319.63a5.014,5.014,0,0,0,5.013,5.013H66.741A5.014,5.014,0,0,0,71.754,319.63Z" transform="translate(-7.501 -248.866)" fill="#fdd69c"/>
            <path id="Path_10419" data-name="Path 10419" d="M107.378,232.411H53.151a5.013,5.013,0,0,1-5.013-5.013v-6.309a5.013,5.013,0,0,1,5.013-5.013h54.227a5.013,5.013,0,0,1,5.013,5.013V227.4A5.013,5.013,0,0,1,107.378,232.411Z" transform="translate(-38.848 -168.984)" fill="#ff6846"/>
            <path id="Path_10420" data-name="Path 10420" d="M63.585,232.414H53.154a5.014,5.014,0,0,1-5.015-5.012v-6.311a5.014,5.014,0,0,1,5.015-5.012H63.585a5.013,5.013,0,0,0-5.012,5.012V227.4A5.013,5.013,0,0,0,63.585,232.414Z" transform="translate(-38.849 -168.987)" fill="#fc9f8a"/>
            <path id="Path_10421" data-name="Path 10421" d="M112.393,248.174v3.987a5.012,5.012,0,0,1-5.013,5.011H53.153a5.012,5.012,0,0,1-5.013-5.011v-3.987a5.014,5.014,0,0,0,5.013,5.013H107.38A5.014,5.014,0,0,0,112.393,248.174Z" transform="translate(-38.85 -193.745)" fill="#fc9f8a"/>
            <path id="Path_10422" data-name="Path 10422" d="M78.8,160.953H24.575a5.013,5.013,0,0,1-5.013-5.013v-6.309a5.013,5.013,0,0,1,5.013-5.013H78.8a5.013,5.013,0,0,1,5.013,5.013v6.309A5.013,5.013,0,0,1,78.8,160.953Z" transform="translate(-16.805 -113.862)" fill="#fac87a"/>
            <path id="Path_10423" data-name="Path 10423" d="M35.009,160.957H24.578a5.014,5.014,0,0,1-5.015-5.012v-6.311a5.014,5.014,0,0,1,5.015-5.012H35.009A5.013,5.013,0,0,0,30,149.634v6.311A5.013,5.013,0,0,0,35.009,160.957Z" transform="translate(-16.805 -113.865)" fill="#fdd69c"/>
            <path id="Path_10424" data-name="Path 10424" d="M83.816,176.716V180.7a5.012,5.012,0,0,1-5.013,5.011H24.576a5.012,5.012,0,0,1-5.013-5.011v-3.987a5.014,5.014,0,0,0,5.013,5.013H78.8A5.014,5.014,0,0,0,83.816,176.716Z" transform="translate(-16.805 -138.622)" fill="#fdd69c"/>
            <path id="Path_10425" data-name="Path 10425" d="M86.74,375.325H32.513a5.013,5.013,0,0,1-5.013-5.013V364a5.013,5.013,0,0,1,5.013-5.013H86.74A5.013,5.013,0,0,1,91.753,364v6.309A5.013,5.013,0,0,1,86.74,375.325Z" transform="translate(-22.928 -279.228)" fill="#ff6846"/>
            <path id="Path_10426" data-name="Path 10426" d="M91.754,391.088v3.987a5.012,5.012,0,0,1-5.013,5.011H32.514a5.012,5.012,0,0,1-5.013-5.011v-3.987a5.014,5.014,0,0,0,5.013,5.013H86.741A5.014,5.014,0,0,0,91.754,391.088Z" transform="translate(-22.929 -303.988)" fill="#fc9f8a"/>
            <path id="Path_10427" data-name="Path 10427" d="M42.946,375.328H32.515a5.014,5.014,0,0,1-5.015-5.012v-6.311a5.014,5.014,0,0,1,5.015-5.012H42.946a5.013,5.013,0,0,0-5.012,5.012v6.311A5.013,5.013,0,0,0,42.946,375.328Z" transform="translate(-22.928 -279.23)" fill="#fc9f8a"/>
            <path id="Path_10428" data-name="Path 10428" d="M71.74,446.783H17.513A5.013,5.013,0,0,1,12.5,441.77v-6.309a5.013,5.013,0,0,1,5.013-5.013H71.74a5.013,5.013,0,0,1,5.013,5.013v6.309A5.013,5.013,0,0,1,71.74,446.783Z" transform="translate(-11.357 -334.351)" fill="#fac87a"/>
            <path id="Path_10429" data-name="Path 10429" d="M76.754,462.546v3.987a5.012,5.012,0,0,1-5.013,5.011H17.514a5.012,5.012,0,0,1-5.013-5.011v-3.987a5.014,5.014,0,0,0,5.013,5.013H71.741A5.014,5.014,0,0,0,76.754,462.546Z" transform="translate(-11.358 -359.111)" fill="#fdd69c"/>
            <path id="Path_10430" data-name="Path 10430" d="M27.946,446.786H17.515a5.014,5.014,0,0,1-5.015-5.012v-6.311a5.014,5.014,0,0,1,5.015-5.012H27.946a5.013,5.013,0,0,0-5.012,5.012v6.311A5.013,5.013,0,0,0,27.946,446.786Z" transform="translate(-11.357 -334.353)" fill="#fdd69c"/>
            <g id="Group_10764" data-name="Group 10764" transform="translate(49.362 48.18)">
              <circle id="Ellipse_119" data-name="Ellipse 119" cx="32.126" cy="32.126" r="32.126" fill="#fdd69c"/>
              <g id="Group_10763" data-name="Group 10763" transform="translate(0 0)">
                <path id="Path_10431" data-name="Path 10431" d="M258.273,284.978q-1.342.116-2.717.115a32.126,32.126,0,0,1,0-64.252q1.374,0,2.717.115a32.126,32.126,0,0,0,0,64.023Z" transform="translate(-223.43 -220.841)" fill="#fac87a"/>
                <circle id="Ellipse_120" data-name="Ellipse 120" cx="21.694" cy="21.694" r="21.694" transform="translate(10.433 10.432)" fill="#fac87a"/>
              </g>
            </g>
            <g id="Group_10765" data-name="Group 10765" transform="translate(11.803 2.764)">
              <path id="Path_10432" data-name="Path 10432" d="M90.731,87.969V61.521h4.521a7.13,7.13,0,0,0,6.175-10.7L86.936,25.731a7.13,7.13,0,0,0-12.349,0L60.1,50.825a7.13,7.13,0,0,0,6.174,10.7h4.523V87.969a4.487,4.487,0,0,0,4.487,4.487H86.244A4.487,4.487,0,0,0,90.731,87.969Z" transform="translate(-59.13 -22.166)" fill="#1d293f"/>
              <path id="Path_10433" data-name="Path 10433" d="M79.408,92.462H75.28a4.485,4.485,0,0,1-4.485-4.485V61.526H66.27a7.128,7.128,0,0,1-6.173-10.7L74.586,25.737a7.063,7.063,0,0,1,6.175-3.563c-1.609,0-3.217,1.187-4.135,3.563L66.919,50.831c-1.84,4.754.459,10.7,4.135,10.7h1.859A3.489,3.489,0,0,1,76.4,65.015v22.96c0,2.478,1.347,4.488,3.007,4.488Z" transform="translate(-59.13 -22.172)" fill="#2c3d5b"/>
            </g>
            <g id="Group_10766" data-name="Group 10766" transform="translate(57.796)">
              <path id="Path_10434" data-name="Path 10434" d="M372.488,142.774l-.131-.489a3.4,3.4,0,0,1,2.181-4.095l5.2-1.783a3.4,3.4,0,0,1,4.385,2.335l.326,1.216a3.4,3.4,0,0,1-2.63,4.215l-5.394,1.056a3.4,3.4,0,0,1-3.936-2.455Z" transform="translate(-346.656 -107.385)" fill="#f7f493"/>
              <path id="Path_10435" data-name="Path 10435" d="M332.423,66.037l-.358-.358a3.4,3.4,0,0,1-.159-4.636l3.611-4.143a3.4,3.4,0,0,1,4.965-.17l.89.89a3.4,3.4,0,0,1-.17,4.965L337.059,66.2A3.4,3.4,0,0,1,332.423,66.037Z" transform="translate(-314.897 -45.296)" fill="#f7f493"/>
              <path id="Path_10436" data-name="Path 10436" d="M263.334,22.285l-.489-.131a3.4,3.4,0,0,1-2.456-3.936l1.056-5.394a3.4,3.4,0,0,1,4.215-2.63l1.216.326a3.4,3.4,0,0,1,2.335,4.385l-1.783,5.2A3.4,3.4,0,0,1,263.334,22.285Z" transform="translate(-260.325 -10.077)" fill="#f7f493"/>
            </g>
          </g>
          <g id="Group_10768" data-name="Group 10768" transform="translate(0 2.587)">
            <path id="Path_10437" data-name="Path 10437" d="M107.84,70.724a1.714,1.714,0,1,0-2.5,2.351,30.409,30.409,0,1,1-4.919-4.217,1.714,1.714,0,0,0,1.945-2.824A33.859,33.859,0,0,0,75.1,61.065a6.7,6.7,0,0,0-4.858-2.072h-.673a6.685,6.685,0,0,0,.868-3.3V49.385a6.735,6.735,0,0,0-6.728-6.728H56.418L42.809,19.088a8.758,8.758,0,0,0-7.662-4.423h0a8.751,8.751,0,0,0-7.655,4.42L13.88,42.657H9.485a6.735,6.735,0,0,0-6.728,6.728v6.309a6.735,6.735,0,0,0,6.728,6.728h.673a6.686,6.686,0,0,0-.868,3.3V72.03a6.686,6.686,0,0,0,.868,3.3H6.728A6.734,6.734,0,0,0,0,82.054v6.309a6.737,6.737,0,0,0,5.5,6.614,6.685,6.685,0,0,0-.933,3.412V104.7a6.686,6.686,0,0,0,1.095,3.672,6.738,6.738,0,0,0-4.524,6.355v6.309a6.735,6.735,0,0,0,6.728,6.728H62.1a6.751,6.751,0,0,0,5.948-3.589A33.838,33.838,0,0,0,107.84,70.724ZM8,104.7V98.39a3.3,3.3,0,0,1,3.3-3.3H49.384A33.612,33.612,0,0,0,52.431,108H11.3A3.3,3.3,0,0,1,8,104.7ZM70.74,62.461a34.033,34.033,0,0,0-15.8,12.868H46.833V62.422H70.245a3.3,3.3,0,0,1,.5.039ZM67.01,49.385v6.309a3.3,3.3,0,0,1-3.3,3.3H46.833V57.449h2.8A8.849,8.849,0,0,0,58.12,46.086h5.592a3.3,3.3,0,0,1,3.3,3.3ZM6.186,55.695V49.385a3.3,3.3,0,0,1,3.3-3.3h2.692a8.733,8.733,0,0,0-.158,4.436,1.714,1.714,0,1,0,3.345-.754,5.3,5.3,0,0,1,.605-3.873L30.46,20.8a5.357,5.357,0,0,1,4.686-2.706h0A5.364,5.364,0,0,1,39.839,20.8L54.328,45.9a5.416,5.416,0,0,1-4.69,8.124H45.119A1.715,1.715,0,0,0,43.4,55.735V82.182a2.776,2.776,0,0,1-2.773,2.773H29.668a2.776,2.776,0,0,1-2.773-2.773V55.735A1.715,1.715,0,0,0,25.18,54.02H20.659a5.448,5.448,0,0,1-1.867-.322,1.714,1.714,0,1,0-1.172,3.222,8.862,8.862,0,0,0,3.039.529h2.807v1.544H9.485a3.3,3.3,0,0,1-3.3-3.3ZM12.719,72.03V65.721a3.3,3.3,0,0,1,3.3-3.3h7.448V75.329H16.018A3.3,3.3,0,0,1,12.719,72.03ZM3.429,88.364V82.054a3.3,3.3,0,0,1,3.3-3.3H23.466v3.424a6.209,6.209,0,0,0,6.2,6.2H40.632a6.209,6.209,0,0,0,6.2-6.2V78.758h6.123a33.591,33.591,0,0,0-3.517,12.9H6.728a3.3,3.3,0,0,1-3.3-3.3ZM62.1,124.334H7.871a3.3,3.3,0,0,1-3.3-3.3v-6.309a3.3,3.3,0,0,1,3.3-3.3H54.25a34.107,34.107,0,0,0,10.81,11.051A3.307,3.307,0,0,1,62.1,124.334Z" transform="translate(0 -11.904)"/>
            <path id="Path_10438" data-name="Path 10438" d="M335.922,303.651c-.607-.177-1.228-.362-1.848-.556v-7.6a7.247,7.247,0,0,1,3.023,1.108,1.714,1.714,0,0,0,2.063-2.739,10.843,10.843,0,0,0-5.086-1.819v-1.481a1.714,1.714,0,0,0-3.429,0v1.591q-.5.084-1.014.211a7.166,7.166,0,0,0-5.5,5.618,5.523,5.523,0,0,0,2.421,5.648,20.3,20.3,0,0,0,4.091,1.923v9.623a9.887,9.887,0,0,1-4.893-1.418,1.715,1.715,0,0,0-1.626,3.019,13.119,13.119,0,0,0,6.519,1.83v1.684a1.715,1.715,0,0,0,3.429,0v-1.8c4.517-.675,7.269-3.881,7.711-7.043C342.284,307.9,339.982,304.833,335.922,303.651Zm-7.507-2.9a2.123,2.123,0,0,1-.9-2.2,3.681,3.681,0,0,1,2.941-2.854c.064-.016.126-.029.188-.043v6.225A14.352,14.352,0,0,1,328.416,300.754Zm9.974,10.228a5.2,5.2,0,0,1-4.315,4.03v-8.331c.288.086.583.174.889.263C337.4,307.653,338.649,309.125,338.39,310.982Z" transform="translate(-249.335 -223.412)"/>
            <path id="Path_10439" data-name="Path 10439" d="M284.977,258.977a23.408,23.408,0,1,0,23.408,23.408A23.434,23.434,0,0,0,284.977,258.977Zm0,43.387a19.979,19.979,0,1,1,19.979-19.979A20,20,0,0,1,284.977,302.364Z" transform="translate(-201.774 -200.366)"/>
            <path id="Path_10440" data-name="Path 10440" d="M364.92,136.951l.131.489h0a5.133,5.133,0,0,0,4.944,3.79,5.07,5.07,0,0,0,.977-.1l5.394-1.056a5.113,5.113,0,0,0,3.957-6.341L380,132.522a5.114,5.114,0,0,0-6.6-3.513l-5.2,1.782A5.129,5.129,0,0,0,364.92,136.951Zm4.393-2.916,5.2-1.782a1.684,1.684,0,0,1,2.173,1.157l.326,1.216a1.684,1.684,0,0,1-1.3,2.089l-5.394,1.056a1.688,1.688,0,0,1-1.95-1.217l-.131-.49A1.689,1.689,0,0,1,369.313,134.035Z" transform="translate(-281.365 -99.896)"/>
            <path id="Path_10441" data-name="Path 10441" d="M325.444,61.463a5.128,5.128,0,0,0,6.975.239l4.143-3.611a5.113,5.113,0,0,0,.256-7.47l-.89-.89a5.113,5.113,0,0,0-7.47.256l-3.612,4.143a5.129,5.129,0,0,0,.239,6.976Zm1.988-5.081,3.612-4.143a1.666,1.666,0,0,1,1.212-.577h.06a1.666,1.666,0,0,1,1.189.493l.89.89a1.685,1.685,0,0,1-.084,2.461l-4.144,3.611a1.689,1.689,0,0,1-2.3-.079l-.358-.358A1.69,1.69,0,0,1,327.431,56.383Z" transform="translate(-249.619 -37.798)"/>
            <path id="Path_10442" data-name="Path 10442" d="M271.547,70.725h0Z" transform="translate(-209.471 -55.149)"/>
            <path id="Path_10443" data-name="Path 10443" d="M256.619,18.033l.489.131a5.078,5.078,0,0,0,1.315.174,5.133,5.133,0,0,0,4.846-3.454l1.782-5.2a5.113,5.113,0,0,0-3.513-6.6l-1.216-.326a5.113,5.113,0,0,0-6.342,3.957l-1.056,5.394a5.129,5.129,0,0,0,3.695,5.921Zm-.33-5.263,1.056-5.394a1.687,1.687,0,0,1,1.648-1.362,1.7,1.7,0,0,1,.441.059l1.216.326a1.684,1.684,0,0,1,1.157,2.173l-1.782,5.2A1.69,1.69,0,0,1,258,14.852h0l-.489-.131A1.69,1.69,0,0,1,256.289,12.77Z" transform="translate(-195.032 -2.587)"/>
          </g>
        </g>
      </g>
    </g>
  </g>
</svg>
