<svg xmlns="http://www.w3.org/2000/svg" width="146.79" height="121.709" viewBox="0 0 146.79 121.709">
  <g id="Vector_Smart_Object" data-name="Vector Smart Object" transform="translate(-146.414 -11.667)">
    <g id="Group_47" data-name="Group 47" transform="translate(0 0)">
      <g id="Group_10762" data-name="Group 10762">
        <g id="Group_10761" data-name="Group 10761" transform="translate(146.414 11.667)">
          <rect id="Rectangle_29" data-name="Rectangle 29" width="112.654" height="83.731" rx="7.861" transform="translate(0 37.979)" fill="#ff6846" opacity="0.1"/>
          <ellipse id="Ellipse_12" data-name="Ellipse 12" cx="26.822" cy="26.927" rx="26.822" ry="26.927" transform="translate(108.709 94.739) rotate(-135)" fill="#ff6846" opacity="0.1"/>
          <g id="Group_33" data-name="Group 33" transform="translate(37.225)">
            <g id="Group_31" data-name="Group 31" transform="translate(0)">
              <path id="Path_270" data-name="Path 270" d="M353.108,111.216a1.067,1.067,0,0,0,.758-.316l3.034-3.046a1.075,1.075,0,0,0-1.517-1.523l-3.034,3.046a1.08,1.08,0,0,0,0,1.523A1.067,1.067,0,0,0,353.108,111.216Z" transform="translate(-352.035 -106.016)" fill="#ff6846"/>
            </g>
            <g id="Group_32" data-name="Group 32" transform="translate(0)">
              <path id="Path_271" data-name="Path 271" d="M356.142,111.216a1.067,1.067,0,0,0,.759-.316,1.08,1.08,0,0,0,0-1.523l-3.034-3.046a1.075,1.075,0,1,0-1.517,1.523l3.034,3.046A1.068,1.068,0,0,0,356.142,111.216Z" transform="translate(-352.035 -106.016)" fill="#ff6846"/>
            </g>
          </g>
          <g id="Group_36" data-name="Group 36" transform="translate(11.364 22.823)">
            <g id="Group_34" data-name="Group 34">
              <path id="Path_272" data-name="Path 272" d="M372.018,127.905a1.068,1.068,0,0,0,.759-.316l3.034-3.046a1.075,1.075,0,0,0-1.517-1.523l-3.034,3.046a1.08,1.08,0,0,0,0,1.523A1.068,1.068,0,0,0,372.018,127.905Z" transform="translate(-370.945 -122.705)" fill="#ff6846"/>
            </g>
            <g id="Group_35" data-name="Group 35">
              <path id="Path_273" data-name="Path 273" d="M375.053,127.905a1.068,1.068,0,0,0,.759-.316,1.08,1.08,0,0,0,0-1.523l-3.034-3.046a1.075,1.075,0,1,0-1.517,1.523l3.034,3.046A1.067,1.067,0,0,0,375.053,127.905Z" transform="translate(-370.945 -122.705)" fill="#ff6846"/>
            </g>
          </g>
          <g id="Group_39" data-name="Group 39" transform="translate(131.572 83.677)">
            <g id="Group_37" data-name="Group 37" transform="translate(0)">
              <path id="Path_274" data-name="Path 274" d="M284.116,172.4a1.067,1.067,0,0,0,.759-.315l3.034-3.046a1.075,1.075,0,0,0-1.517-1.523l-3.034,3.046a1.08,1.08,0,0,0,0,1.523A1.067,1.067,0,0,0,284.116,172.4Z" transform="translate(-283.043 -167.204)" fill="#ff6846"/>
            </g>
            <g id="Group_38" data-name="Group 38" transform="translate(0)">
              <path id="Path_275" data-name="Path 275" d="M287.15,172.4a1.067,1.067,0,0,0,.759-.315,1.08,1.08,0,0,0,0-1.523l-3.034-3.046a1.075,1.075,0,1,0-1.517,1.523l3.034,3.046A1.067,1.067,0,0,0,287.15,172.4Z" transform="translate(-283.043 -167.204)" fill="#ff6846"/>
            </g>
          </g>
          <g id="Group_42" data-name="Group 42" transform="translate(117.574 105.758)">
            <g id="Group_40" data-name="Group 40" transform="translate(0)">
              <path id="Path_276" data-name="Path 276" d="M294.352,188.552a1.068,1.068,0,0,0,.758-.316l3.034-3.046a1.075,1.075,0,0,0-1.517-1.523l-3.034,3.046a1.08,1.08,0,0,0,0,1.523A1.067,1.067,0,0,0,294.352,188.552Z" transform="translate(-293.279 -183.351)" fill="#ff6846"/>
            </g>
            <g id="Group_41" data-name="Group 41" transform="translate(0)">
              <path id="Path_277" data-name="Path 277" d="M297.386,188.552a1.067,1.067,0,0,0,.759-.316,1.08,1.08,0,0,0,0-1.523l-3.034-3.046a1.075,1.075,0,1,0-1.517,1.523l3.034,3.046A1.067,1.067,0,0,0,297.386,188.552Z" transform="translate(-293.279 -183.351)" fill="#ff6846"/>
            </g>
          </g>
        </g>
        <g id="Customer_analytics" data-name="Customer analytics" transform="translate(164.657 20.934)">
          <path id="Path_10379" data-name="Path 10379" d="M42,36h7.345V50.691H42Z" transform="translate(31.454 26.436)" fill="#ffcb7c"/>
          <path id="Path_10380" data-name="Path 10380" d="M54.691,43V68.709a7.345,7.345,0,0,1-14.691,0V43Z" transform="translate(29.781 32.29)" fill="#ff6846"/>
          <ellipse id="Ellipse_108" data-name="Ellipse 108" cx="30.5" cy="32" rx="30.5" ry="32" transform="translate(45.67 0.451)" fill="#ffcb7c"/>
          <ellipse id="Ellipse_109" data-name="Ellipse 109" cx="24.5" cy="23.5" rx="24.5" ry="23.5" transform="translate(52.67 10.451)" fill="#ffd89e"/>
          <path id="Path_10381" data-name="Path 10381" d="M29,50H40.018V70.2H29Z" transform="translate(20.581 38.145)" fill="#ff6846"/>
          <path id="Path_10382" data-name="Path 10382" d="M34.018,54.182v20.2H23V45H34.018Z" transform="translate(15.563 33.963)" fill="#ffd89e"/>
          <path id="Path_10383" data-name="Path 10383" d="M28.018,49.182V78.563H17V40H28.018Z" transform="translate(10.545 29.781)" fill="#ff6846"/>
          <path id="Path_10384" data-name="Path 10384" d="M22.018,44.182V82.745H11V35H22.018Z" transform="translate(5.527 25.6)" fill="#ffd89e"/>
          <path id="Path_10385" data-name="Path 10385" d="M5,45H16.018V74.382H5Z" transform="translate(0.509 33.963)" fill="#ff6846"/>
          <path id="Path_10386" data-name="Path 10386" d="M2,2H42.4V27.709H2Z" transform="translate(-2 -2)" fill="#e8dac5"/>
          <ellipse id="Ellipse_110" data-name="Ellipse 110" cx="3.5" cy="4" rx="3.5" ry="4" transform="translate(1.67 44.451)" fill="#ff6846"/>
          <circle id="Ellipse_111" data-name="Ellipse 111" cx="3.5" cy="3.5" r="3.5" transform="translate(18.67 32.451)" fill="#ff6846"/>
          <ellipse id="Ellipse_112" data-name="Ellipse 112" cx="2.5" cy="4" rx="2.5" ry="4" transform="translate(35.67 44.451)" fill="#ff6846"/>
          <ellipse id="Ellipse_113" data-name="Ellipse 113" cx="2.5" cy="3.5" rx="2.5" ry="3.5" transform="translate(52.67 32.451)" fill="#ff6846"/>
          <ellipse id="Ellipse_114" data-name="Ellipse 114" cx="3.5" cy="4" rx="3.5" ry="4" transform="translate(67.67 44.451)" fill="#ff6846"/>
          <g id="Group_10761-2" data-name="Group 10761" transform="translate(0 0)">
            <path id="Path_10387" data-name="Path 10387" d="M112.181,35.054a33.055,33.055,0,1,0-65.06,8.113L43.85,45.351a5.4,5.4,0,0,0-6.574,0l-7.915-5.285a5.51,5.51,0,1,0-10.651,0L10.8,45.351a5.457,5.457,0,0,0-3.287-1.115,5.6,5.6,0,1,0,5.325,4.17l7.915-5.285a5.4,5.4,0,0,0,6.574,0l7.915,5.285a5.51,5.51,0,1,0,10.651,0l2.384-1.592a33.114,33.114,0,0,0,25.345,20.8v7.843H71.781a1.836,1.836,0,0,0-1.836,1.836V103a9.182,9.182,0,1,0,18.364,0V77.29a1.836,1.836,0,0,0-1.836-1.836H84.636V67.611a33.081,33.081,0,0,0,27.545-32.557ZM7.509,51.582a1.836,1.836,0,1,1,1.836-1.836A1.838,1.838,0,0,1,7.509,51.582ZM24.036,40.563a1.836,1.836,0,1,1,1.836-1.836A1.838,1.838,0,0,1,24.036,40.563ZM40.563,51.582A1.836,1.836,0,1,1,42.4,49.745,1.838,1.838,0,0,1,40.563,51.582Zm10.849-6.862,2.391-1.6a5.4,5.4,0,0,0,6.574,0l7.915,5.285a5.506,5.506,0,1,0,10.282-1.021L93.818,32.142v8.422H97.49V27.709a1.836,1.836,0,0,0-1.836-1.836H82.8v3.673h8.422L75.977,44.789a5.367,5.367,0,0,0-5.647.562l-7.915-5.285a5.51,5.51,0,1,0-10.651,0l-1.412.942a29.714,29.714,0,1,1,1.06,3.711Zm3.842-5.992a1.836,1.836,0,1,1,1.836,1.836A1.838,1.838,0,0,1,55.254,38.727Zm20.2,11.018a1.836,1.836,0,1,1-1.836-1.836A1.838,1.838,0,0,1,75.454,49.745ZM84.636,103a5.509,5.509,0,0,1-11.018,0V79.127H84.636ZM80.963,75.454H77.29V68.015c.612.035,1.216.094,1.836.094s1.225-.059,1.836-.094Z" transform="translate(-2 -2)" fill="#0b052b"/>
            <path id="Path_10388" data-name="Path 10388" d="M34.835,25.538l-3.256,1.7a25.813,25.813,0,0,0,9.1,9.887l1.961-3.105A22.138,22.138,0,0,1,34.835,25.538Z" transform="translate(22.738 17.686)" fill="#0b052b"/>
            <path id="Path_10389" data-name="Path 10389" d="M81.105,31.709a25.713,25.713,0,0,0-50.731-5.931l3.575.845A22.039,22.039,0,1,1,55.4,53.745,22.285,22.285,0,0,1,52,53.486l-.56,3.63a26.077,26.077,0,0,0,3.954.3A25.737,25.737,0,0,0,81.105,31.709Z" transform="translate(21.731 1.345)" fill="#0b052b"/>
            <path id="Path_10390" data-name="Path 10390" d="M2,2H13.018V5.673H2Z" transform="translate(-2 -2)" fill="#0b052b"/>
            <path id="Path_10391" data-name="Path 10391" d="M10,2H35.709V5.673H10Z" transform="translate(4.691 -2)" fill="#0b052b"/>
            <path id="Path_10392" data-name="Path 10392" d="M2,6H25.873V9.673H2Z" transform="translate(-2 1.345)" fill="#0b052b"/>
            <path id="Path_10393" data-name="Path 10393" d="M17,6H29.854V9.673H17Z" transform="translate(10.545 1.345)" fill="#0b052b"/>
            <path id="Path_10394" data-name="Path 10394" d="M2,10H5.673v3.673H2Z" transform="translate(-2 4.691)" fill="#0b052b"/>
            <path id="Path_10395" data-name="Path 10395" d="M6,10H17.018v3.673H6Z" transform="translate(1.345 4.691)" fill="#0b052b"/>
            <path id="Path_10396" data-name="Path 10396" d="M14,10H32.364v3.673H14Z" transform="translate(8.036 4.691)" fill="#0b052b"/>
            <path id="Path_10397" data-name="Path 10397" d="M2,14H14.854v3.673H2Z" transform="translate(-2 8.036)" fill="#0b052b"/>
            <path id="Path_10398" data-name="Path 10398" d="M11,14H34.873v3.673H11Z" transform="translate(5.527 8.036)" fill="#0b052b"/>
            <path id="Path_10399" data-name="Path 10399" d="M64.436,63.382A1.836,1.836,0,0,0,62.6,61.545H53.418V54.2a1.836,1.836,0,0,0-1.836-1.836H42.4V45.018a1.836,1.836,0,0,0-1.836-1.836H31.382V35.836A1.836,1.836,0,0,0,29.545,34H18.527a1.836,1.836,0,0,0-1.836,1.836V52.364H7.509A1.836,1.836,0,0,0,5.673,54.2V81.745H2v3.673H68.109V81.745H64.436ZM9.345,56.036h7.345V81.745H9.345ZM20.364,54.2V37.673h7.345V81.745H20.364Zm11.018-7.345h7.345V81.745H31.382ZM42.4,56.036h7.345V81.745H42.4ZM53.418,81.745V65.218h7.345V81.745Z" transform="translate(-2 24.763)" fill="#0b052b"/>
          </g>
        </g>
      </g>
    </g>
  </g>
</svg>
