<svg xmlns="http://www.w3.org/2000/svg" width="146.789" height="121.709" viewBox="0 0 146.789 121.709">
  <g id="Group_47" data-name="Group 47" transform="translate(-146.414 -11.667)">
    <g id="Group_10762" data-name="Group 10762">
      <g id="Group_10761" data-name="Group 10761" transform="translate(146.414 11.667)">
        <rect id="Rectangle_29" data-name="Rectangle 29" width="112.654" height="83.731" rx="7.861" transform="translate(0 37.979)" fill="#ff6846" opacity="0.1"/>
        <ellipse id="Ellipse_12" data-name="Ellipse 12" cx="26.822" cy="26.927" rx="26.822" ry="26.927" transform="translate(108.709 94.739) rotate(-135)" fill="#ff6846" opacity="0.1"/>
        <g id="Group_33" data-name="Group 33" transform="translate(37.225)">
          <g id="Group_31" data-name="Group 31" transform="translate(0)">
            <path id="Path_270" data-name="Path 270" d="M353.108,111.216a1.067,1.067,0,0,0,.758-.316l3.034-3.046a1.075,1.075,0,0,0-1.517-1.523l-3.034,3.046a1.08,1.08,0,0,0,0,1.523A1.067,1.067,0,0,0,353.108,111.216Z" transform="translate(-352.035 -106.016)" fill="#ff6846"/>
          </g>
          <g id="Group_32" data-name="Group 32" transform="translate(0)">
            <path id="Path_271" data-name="Path 271" d="M356.142,111.216a1.067,1.067,0,0,0,.759-.316,1.08,1.08,0,0,0,0-1.523l-3.034-3.046a1.075,1.075,0,1,0-1.517,1.523l3.034,3.046A1.068,1.068,0,0,0,356.142,111.216Z" transform="translate(-352.035 -106.016)" fill="#ff6846"/>
          </g>
        </g>
        <g id="Group_36" data-name="Group 36" transform="translate(11.364 22.823)">
          <g id="Group_34" data-name="Group 34">
            <path id="Path_272" data-name="Path 272" d="M372.018,127.905a1.068,1.068,0,0,0,.759-.316l3.034-3.046a1.075,1.075,0,0,0-1.517-1.523l-3.034,3.046a1.08,1.08,0,0,0,0,1.523A1.068,1.068,0,0,0,372.018,127.905Z" transform="translate(-370.945 -122.705)" fill="#ff6846"/>
          </g>
          <g id="Group_35" data-name="Group 35">
            <path id="Path_273" data-name="Path 273" d="M375.053,127.905a1.068,1.068,0,0,0,.759-.316,1.08,1.08,0,0,0,0-1.523l-3.034-3.046a1.075,1.075,0,1,0-1.517,1.523l3.034,3.046A1.067,1.067,0,0,0,375.053,127.905Z" transform="translate(-370.945 -122.705)" fill="#ff6846"/>
          </g>
        </g>
        <g id="Group_39" data-name="Group 39" transform="translate(131.572 83.677)">
          <g id="Group_37" data-name="Group 37" transform="translate(0)">
            <path id="Path_274" data-name="Path 274" d="M284.116,172.4a1.067,1.067,0,0,0,.759-.315l3.034-3.046a1.075,1.075,0,0,0-1.517-1.523l-3.034,3.046a1.08,1.08,0,0,0,0,1.523A1.067,1.067,0,0,0,284.116,172.4Z" transform="translate(-283.043 -167.204)" fill="#ff6846"/>
          </g>
          <g id="Group_38" data-name="Group 38" transform="translate(0)">
            <path id="Path_275" data-name="Path 275" d="M287.15,172.4a1.067,1.067,0,0,0,.759-.315,1.08,1.08,0,0,0,0-1.523l-3.034-3.046a1.075,1.075,0,1,0-1.517,1.523l3.034,3.046A1.067,1.067,0,0,0,287.15,172.4Z" transform="translate(-283.043 -167.204)" fill="#ff6846"/>
          </g>
        </g>
        <g id="Group_42" data-name="Group 42" transform="translate(117.574 105.758)">
          <g id="Group_40" data-name="Group 40" transform="translate(0)">
            <path id="Path_276" data-name="Path 276" d="M294.352,188.552a1.068,1.068,0,0,0,.758-.316l3.034-3.046a1.075,1.075,0,0,0-1.517-1.523l-3.034,3.046a1.08,1.08,0,0,0,0,1.523A1.067,1.067,0,0,0,294.352,188.552Z" transform="translate(-293.279 -183.351)" fill="#ff6846"/>
          </g>
          <g id="Group_41" data-name="Group 41" transform="translate(0)">
            <path id="Path_277" data-name="Path 277" d="M297.386,188.552a1.067,1.067,0,0,0,.759-.316,1.08,1.08,0,0,0,0-1.523l-3.034-3.046a1.075,1.075,0,1,0-1.517,1.523l3.034,3.046A1.067,1.067,0,0,0,297.386,188.552Z" transform="translate(-293.279 -183.351)" fill="#ff6846"/>
          </g>
        </g>
      </g>
      <g id="clients" transform="translate(150.547 9.69)">
        <path id="Path_10400" data-name="Path 10400" d="M103.737,50.387a23.724,23.724,0,1,0-30.988,0,25.912,25.912,0,0,0-6.228,3.161A23.719,23.719,0,1,0,28.263,78.154a26.038,26.038,0,0,0-17.486,24.56v17.565a3,3,0,0,0,3,3H73.735a3,3,0,0,0,3-3V102.714a25.9,25.9,0,0,0-1.02-7.195l42.508-.005a3,3,0,0,0,3-3V74.947a26.04,26.04,0,0,0-17.486-24.56Z" fill="#e6e7e8"/>
        <path id="Path_10401" data-name="Path 10401" d="M97.653,46.786a22.708,22.708,0,0,1-26.819,0,25.007,25.007,0,0,0-18.57,24.161V88.512a2,2,0,0,0,2,2h59.958a2,2,0,0,0,2-2V70.947a25.007,25.007,0,0,0-18.565-24.16Z" fill="#ff6846"/>
        <path id="Path_10402" data-name="Path 10402" d="M84.243,51.021l-4.9,3.909,2.774,5.824h4.247l2.774-5.823Z" fill="#ffcb7c"/>
        <path id="Path_10403" data-name="Path 10403" d="M84.243,87.014l4.231-3.222L86.367,60.754H82.12L80.012,83.792Z" fill="#ffcb7c"/>
        <path id="Path_10404" data-name="Path 10404" d="M84.421,51.164l8.94,7.136L95.819,48a22.62,22.62,0,0,1-11.4,3.164Z" fill="#fdd69c"/>
        <path id="Path_10405" data-name="Path 10405" d="M72.668,48l2.457,10.3,8.94-7.136A22.609,22.609,0,0,1,72.668,48Z" fill="#fdd69c"/>
        <circle id="Ellipse_115" data-name="Ellipse 115" cx="22.724" cy="22.724" r="22.724" transform="translate(61.519 5.721)" fill="#fdd69c"/>
        <circle id="Ellipse_116" data-name="Ellipse 116" cx="18.179" cy="18.179" r="18.179" transform="translate(66.064 10.266)" fill="#ffcb7c"/>
        <path id="Path_10406" data-name="Path 10406" d="M90.929,37.565A8.227,8.227,0,0,1,86.2,39.746v1.991a1.641,1.641,0,0,1-.442,1.186,1.723,1.723,0,0,1-2.34,0,1.637,1.637,0,0,1-.442-1.186V39.809a14.244,14.244,0,0,1-3.509-.759,10.027,10.027,0,0,1-2.94-1.58,1.6,1.6,0,0,1-.569-.632,2.067,2.067,0,0,1-.158-.854,1.84,1.84,0,0,1,.395-1.169,1.132,1.132,0,0,1,.9-.506,1.523,1.523,0,0,1,.585.11,6.588,6.588,0,0,1,.711.364,11.645,11.645,0,0,0,2.861,1.39,9.758,9.758,0,0,0,2.956.443,5.592,5.592,0,0,0,3.272-.821,2.736,2.736,0,0,0,1.153-2.372A1.908,1.908,0,0,0,88,31.937a4.611,4.611,0,0,0-1.581-.9q-.948-.331-2.655-.775a28.609,28.609,0,0,1-3.856-1.217,6.664,6.664,0,0,1-2.561-1.881,5.091,5.091,0,0,1-1.075-3.413,5.892,5.892,0,0,1,1.833-4.363,8.408,8.408,0,0,1,4.805-2.244V15.152a1.635,1.635,0,0,1,.443-1.186,1.723,1.723,0,0,1,2.34,0,1.643,1.643,0,0,1,.442,1.186v1.96a10.6,10.6,0,0,1,5.5,2.307,1.774,1.774,0,0,1,.759,1.486A1.848,1.848,0,0,1,92,22.075a1.161,1.161,0,0,1-.933.5,1.656,1.656,0,0,1-.553-.094,3.7,3.7,0,0,1-.711-.38,12.031,12.031,0,0,0-2.45-1.375,7.4,7.4,0,0,0-2.734-.458,5.132,5.132,0,0,0-3.13.869,2.812,2.812,0,0,0-1.169,2.387,2.258,2.258,0,0,0,.663,1.691,4.411,4.411,0,0,0,1.676,1q1.011.348,2.75.79a27.238,27.238,0,0,1,3.761,1.17,6.4,6.4,0,0,1,2.482,1.818,4.961,4.961,0,0,1,1.027,3.3,5.778,5.778,0,0,1-1.75,4.272Z" fill="#1d293f"/>
        <path id="Path_10407" data-name="Path 10407" d="M53.166,74.553a22.708,22.708,0,0,1-26.819,0A25.008,25.008,0,0,0,7.778,98.714v17.565a2,2,0,0,0,2,2H69.736a2,2,0,0,0,2-2V98.714a25.008,25.008,0,0,0-18.565-24.16Z" fill="#ffcb7c"/>
        <path id="Path_10408" data-name="Path 10408" d="M69.736,115.279H9.778a2,2,0,0,1-2-2v3a2,2,0,0,0,2,2H69.736a2,2,0,0,0,2-2v-3A2,2,0,0,1,69.736,115.279Z" fill="#fff"/>
        <path id="Path_10409" data-name="Path 10409" d="M39.757,78.935h-.178L34.86,82.7l2.773,5.823H41.88L44.654,82.7l-4.719-3.767c-.06,0-.118,0-.178,0Z" fill="#ff6846"/>
        <path id="Path_10410" data-name="Path 10410" d="M39.757,114.781l4.231-3.222L41.88,88.521H37.633l-2.107,23.038Z" fill="#ff6846"/>
        <path id="Path_10411" data-name="Path 10411" d="M39.935,78.931l8.94,7.136,2.457-10.3A22.609,22.609,0,0,1,39.935,78.931Z" fill="#d4fbff"/>
        <path id="Path_10412" data-name="Path 10412" d="M28.181,75.765l2.458,10.3,8.94-7.136A22.613,22.613,0,0,1,28.181,75.765Z" fill="#d4fbff"/>
        <circle id="Ellipse_117" data-name="Ellipse 117" cx="22.724" cy="22.724" r="22.724" transform="translate(17.033 33.488)" fill="#fbcbc0"/>
        <path id="Path_10413" data-name="Path 10413" d="M99.72,46.4a23.724,23.724,0,1,0-30.936.014,25.881,25.881,0,0,0-6.256,3.155,23.719,23.719,0,1,0-38.248,24.6A26.022,26.022,0,0,0,6.78,98.714v17.565a3,3,0,0,0,3,3H69.735a3,3,0,0,0,3-3V98.714a25.876,25.876,0,0,0-1.036-7.2H87.875a1,1,0,0,0,0-2H71.031a26.1,26.1,0,0,0-15.8-15.343,23.663,23.663,0,0,0,7.8-22.525,23.908,23.908,0,0,1,7.644-3.753c.364.254.733.5,1.11.734l2.363,9.907a1,1,0,0,0,.648.713.982.982,0,0,0,.325.055,1,1,0,0,0,.624-.218L78.984,56.5,81.1,60.937,79.017,83.7a1,1,0,0,0,.39.886l4.231,3.223a1,1,0,0,0,1.211,0l4.23-3.223a1,1,0,0,0,.391-.886L87.388,60.937,89.5,56.5l3.235,2.583a1,1,0,0,0,1.6-.55L96.7,48.625c.377-.233.745-.479,1.107-.732a24.021,24.021,0,0,1,17.418,23.054V88.512a1,1,0,0,1-1,1h-9.659a1,1,0,0,0,0,2h9.659a3,3,0,0,0,3-3V70.947A26.022,26.022,0,0,0,99.72,46.4ZM38.546,89.521h2.422L42.942,111.1l-3.185,2.425L36.571,111.1Zm2.7-2H38.265L36.1,82.984l3.653-2.916,3.653,2.916Zm1.33-7.76a23.518,23.518,0,0,0,7.27-2.086L48.268,84.3ZM31.246,84.3l-1.581-6.628a23.51,23.51,0,0,0,7.27,2.086ZM70.735,98.714v17.565a1,1,0,0,1-1,1H9.777a1,1,0,0,1-1-1V98.714A24.022,24.022,0,0,1,26.2,75.66q.543.381,1.107.732L29.666,86.3a1,1,0,0,0,1.6.55L34.5,84.266,36.612,88.7l-2.083,22.764a1,1,0,0,0,.391.886l4.231,3.223a1,1,0,0,0,1.211,0l4.231-3.223a1,1,0,0,0,.391-.886L42.9,88.7l2.113-4.436,3.236,2.584a1,1,0,0,0,1.6-.55l2.363-9.907q.564-.349,1.107-.732A24.022,24.022,0,0,1,70.735,98.714ZM39.757,77.935A21.724,21.724,0,1,1,61.481,56.211,21.724,21.724,0,0,1,39.757,77.935ZM62.52,28.445A21.724,21.724,0,1,1,84.243,50.168,21.724,21.724,0,0,1,62.52,28.445ZM75.733,56.536l-1.581-6.628a23.51,23.51,0,0,0,7.27,2.086Zm8.51,29.221-3.184-2.425,1.973-21.578h2.422l1.974,21.578Zm1.492-26H82.751l-2.161-4.54L84.243,52.3,87.9,55.217Zm7.019-3.218L87.065,52a23.51,23.51,0,0,0,7.27-2.086Z" fill="#1d293f" stroke="#1d293f" stroke-width="1.5"/>
        <path id="Path_10414" data-name="Path 10414" d="M100.375,89.512H92a1,1,0,0,0,0,2h8.375a1,1,0,0,0,0-2Z" fill="#3a2c60"/>
        <circle id="Ellipse_118" data-name="Ellipse 118" cx="18.179" cy="18.179" r="18.179" transform="translate(21.578 38.033)" fill="#ff6846"/>
        <path id="Path_10415" data-name="Path 10415" d="M46.442,65.332a8.218,8.218,0,0,1-4.725,2.181V69.5a1.638,1.638,0,0,1-.443,1.186,1.722,1.722,0,0,1-2.339,0,1.633,1.633,0,0,1-.442-1.186V67.576a14.288,14.288,0,0,1-3.509-.758,10.071,10.071,0,0,1-2.941-1.581,1.6,1.6,0,0,1-.568-.632,2.048,2.048,0,0,1-.158-.854,1.84,1.84,0,0,1,.4-1.169,1.132,1.132,0,0,1,.9-.506,1.525,1.525,0,0,1,.586.11,6.683,6.683,0,0,1,.711.364,11.645,11.645,0,0,0,2.861,1.39,9.756,9.756,0,0,0,2.955.443A5.58,5.58,0,0,0,43,63.562a2.734,2.734,0,0,0,1.154-2.372,1.9,1.9,0,0,0-.633-1.485,4.582,4.582,0,0,0-1.58-.9q-.948-.332-2.655-.775a28.532,28.532,0,0,1-3.857-1.217,6.669,6.669,0,0,1-2.56-1.881,5.091,5.091,0,0,1-1.075-3.413,5.892,5.892,0,0,1,1.833-4.363,8.408,8.408,0,0,1,4.805-2.244V42.919a1.635,1.635,0,0,1,.443-1.186,1.722,1.722,0,0,1,2.339,0,1.639,1.639,0,0,1,.443,1.186v1.96a10.6,10.6,0,0,1,5.5,2.307,1.774,1.774,0,0,1,.759,1.486,1.844,1.844,0,0,1-.4,1.17,1.16,1.16,0,0,1-.932.506,1.663,1.663,0,0,1-.554-.095,3.7,3.7,0,0,1-.71-.38A12.036,12.036,0,0,0,42.87,48.5a7.4,7.4,0,0,0-2.734-.458,5.127,5.127,0,0,0-3.129.869,2.813,2.813,0,0,0-1.17,2.387,2.255,2.255,0,0,0,.664,1.691,4.394,4.394,0,0,0,1.675,1q1.011.348,2.75.791a27.135,27.135,0,0,1,3.762,1.169,6.422,6.422,0,0,1,2.482,1.818,4.961,4.961,0,0,1,1.027,3.3,5.775,5.775,0,0,1-1.755,4.265Z" fill="#fff"/>
      </g>
    </g>
  </g>
</svg>
