<svg xmlns="http://www.w3.org/2000/svg" width="113.673" height="113.653" viewBox="0 0 113.673 113.653">
  <path id="Shape_13_copy_2" data-name="Shape 13 copy 2" d="M1028.3,1564.508l.693-.134a1.16,1.16,0,0,1,.519.382c.807.949-.594,1.472-1.236,1.216a1.655,1.655,0,0,1-.323-1.007Zm7.968-2.13c.926-.325,1.883.607,1.168,1.249a.994.994,0,0,1-.946.357,1.118,1.118,0,0,1-.591-1.04Zm7.919-2.118a1.261,1.261,0,0,1,1.173.1l.192.521a.7.7,0,0,1-.268.748,1.1,1.1,0,0,1-.826.221,1.043,1.043,0,0,1-.475-1.383Zm7.968-2.13c.56-.182.874-.161,1.138.164a.985.985,0,0,1,.093,1.12,2.014,2.014,0,0,1-.69.34C1051.755,1559.615,1051.657,1558.77,1052.151,1558.129Zm7.968-2.13a1.312,1.312,0,0,1,1.05.032,1.563,1.563,0,0,1,.309.958,1.17,1.17,0,0,1-1.136.617c-.4-.284-.934-.932-.378-1.409Zm7.919-2.118.693-.133a1.148,1.148,0,0,1,.519.381.816.816,0,0,1-.2,1.2l-.473.179C1067.659,1555.361,1067.54,1554.522,1068.038,1553.881Zm7.968-2.13c.623-.2.932-.136,1.212.248.43.666.012,1.233-.72,1.39-.293-.1-.48-.11-.678-.391C1075.4,1552.49,1075.786,1552.036,1076.006,1551.751Zm7.968-2.132a1.02,1.02,0,0,1,.768-.049c.309.058.481.285.6.673a.968.968,0,0,1-.316.761,1.1,1.1,0,0,1-.826.221,1.043,1.043,0,0,1-.475-1.383Zm7.919-2.117.693-.134a1.152,1.152,0,0,1,.519.381.979.979,0,0,1,.018,1.037,2.015,2.015,0,0,1-.69.34l-.564-.161a1.654,1.654,0,0,1-.323-1.007Zm7.968-2.131c.766-.251,1.2-.075,1.378.673a.786.786,0,0,1-.21.576.992.992,0,0,1-.946.357,1.115,1.115,0,0,1-.591-1.039Zm7.919-2.118a1.261,1.261,0,0,1,1.173.1l.192.521a.7.7,0,0,1-.268.748.8.8,0,0,1-1.085.03c-.453-.252-.354-.834-.216-1.191Zm7.968-2.13c.56-.181.874-.161,1.138.165l.254.556-.161.564c-.45.315-.99.483-1.341.047l-.267-.605A1.655,1.655,0,0,1,1115.748,1541.123Zm-85.229,31.275a1.266,1.266,0,0,1,.953.058c.36.477.47,1.051.012,1.4a.815.815,0,0,1-1.173-.1l-.254-.557A1.392,1.392,0,0,1,1030.519,1572.4Zm7.968-2.13.658-.073c.544.366.892,1.086.272,1.593a.859.859,0,0,1-1.365-.624C1037.983,1570.667,1038.21,1570.556,1038.486,1570.268Zm7.919-2.118a.89.89,0,1,1,.553,1.674,1,1,0,0,1-.837-.4,1.334,1.334,0,0,1-.147-.741Zm7.968-2.13c.728-.216,1.138.038,1.307.8a.976.976,0,0,1-1.12.872,1.54,1.54,0,0,1-.47-.395.767.767,0,0,1-.1-.755C1054.048,1566.276,1054.2,1566.208,1054.374,1566.02Zm7.968-2.132a.825.825,0,0,1,.622-.01c.3.053.41.219.594.467a1.212,1.212,0,0,1-.118.916l-.592.315-.674-.185-.315-.591A1.282,1.282,0,0,1,1062.341,1563.888Zm7.919-2.117a1.085,1.085,0,0,1,1.164.262c.254.774.1,1.2-.61,1.412a.971.971,0,0,1-.762-.316,1.1,1.1,0,0,1-.222-.826Zm7.968-2.13.658-.073a1.172,1.172,0,0,1,.617,1.136c-.355.5-1.064.917-1.545.258l-.17-.632C1077.833,1559.971,1078,1559.886,1078.229,1559.641Zm7.968-2.131a1.232,1.232,0,0,1,.966.106,1.159,1.159,0,0,1,.132,1.266l-.593.315-.674-.184A.986.986,0,0,1,1086.2,1557.509Zm7.919-2.117c1.039-.334,1.741.881.965,1.459a.933.933,0,0,1-.729.2C1093.5,1556.749,1093.609,1555.912,1094.116,1555.393Zm7.968-2.131.658-.072c.544.365.892,1.085.272,1.592a.859.859,0,0,1-1.365-.623C1101.58,1553.661,1101.807,1553.55,1102.083,1553.261Zm7.919-2.118a.89.89,0,1,1,.553,1.674,1,1,0,0,1-.837-.4,1.335,1.335,0,0,1-.147-.742Zm7.968-2.13a.892.892,0,0,1,1.294.747l-.019.317a1.153,1.153,0,0,1-1.088.6,1.549,1.549,0,0,1-.47-.4.979.979,0,0,1-.018-1.036Zm-85.362,31.363.645-.12a1.151,1.151,0,0,1,.519.381.8.8,0,0,1-.115,1.124.847.847,0,0,1-1.283-.126,1.042,1.042,0,0,1,.018-1.1Zm7.919-2.118a1.312,1.312,0,0,1,1.05.032,1.235,1.235,0,0,1,.18,1.253,2.134,2.134,0,0,1-.738.353c-.426-.087-.531-.248-.827-.559A1.142,1.142,0,0,1,1040.528,1578.258Zm7.968-2.13.645-.12a2.52,2.52,0,0,1,.668.551.9.9,0,0,1-.348,1.029,1,1,0,0,1-.975.053,1.17,1.17,0,0,1-.242-1.289Zm7.919-2.118.8-.11.409.359a.839.839,0,0,1-.2,1.2,1.454,1.454,0,0,1-.79.159l-.409-.359C1055.813,1574.751,1056.195,1574.3,1056.415,1574.01Zm7.968-2.13a1.4,1.4,0,0,1,.988,0c.519.649.54,1.406-.5,1.642a1.006,1.006,0,0,1-.665-.343,1.049,1.049,0,0,1-.209-.777Zm7.968-2.13.645-.12a1.145,1.145,0,0,1,.519.381.8.8,0,0,1-.115,1.124.985.985,0,0,1-1.121.091,2.014,2.014,0,0,1-.341-.689A1.389,1.389,0,0,1,1072.351,1569.749Zm7.919-2.118a1.314,1.314,0,0,1,1.05.032,2.013,2.013,0,0,1,.341.689.953.953,0,0,1-.378.726,1.462,1.462,0,0,1-.79.16l-.409-.359C1079.667,1568.372,1080.05,1567.917,1080.27,1567.631Zm7.968-2.131c.57-.181.886-.125,1.151.213a1.049,1.049,0,0,1,.208.777C1088.677,1567.818,1087.231,1566.732,1088.238,1565.5Zm7.968-2.131.645-.12a1.148,1.148,0,0,1,.519.381.8.8,0,0,1-.115,1.124.847.847,0,0,1-1.283-.125,1.043,1.043,0,0,1,.018-1.1Zm7.919-2.118a1.31,1.31,0,0,1,1.05.032,1.217,1.217,0,0,1,.18,1.253,2.135,2.135,0,0,1-.738.354c-.426-.087-.531-.248-.827-.559A1.142,1.142,0,0,1,1104.125,1561.252Zm7.968-2.13.645-.12a2.531,2.531,0,0,1,.668.55.9.9,0,0,1-.348,1.031,1,1,0,0,1-.975.053,1.17,1.17,0,0,1-.242-1.288Zm7.919-2.118.8-.111.409.359a.839.839,0,0,1-.2,1.2,1.452,1.452,0,0,1-.79.159l-.409-.359C1119.41,1557.744,1119.792,1557.29,1120.012,1557Zm-85.1,31.761a1.22,1.22,0,0,1,.953.057c.788,1.031-.439,2.214-1.161,1.3l-.254-.556A1.3,1.3,0,0,1,1034.913,1588.766Zm7.919-2.119.706-.084a1.048,1.048,0,0,1,.44,1.444c-.393.262-.906.453-1.231.069a.637.637,0,0,1-.3-.543C1042.381,1587.062,1042.586,1586.928,1042.832,1586.647Zm7.968-2.13c1.469-.5,1.707,1.625.541,1.625a1.01,1.01,0,0,1-.661-.135,1.564,1.564,0,0,1-.309-.958Zm7.919-2.117a1.315,1.315,0,0,1,1,.044,1.656,1.656,0,0,1,.322,1.007c-.364.508-1.1.906-1.558.209C1058.055,1583.132,1058.482,1582.691,1058.719,1582.4Zm7.968-2.132c.536-.164.849-.089,1.1.227a.958.958,0,0,1,.079,1.071,1.012,1.012,0,0,1-.848.331c-.39-.039-.628-.263-.769-.731A1.315,1.315,0,0,1,1066.687,1580.268Zm7.968-2.13a.883.883,0,0,1,.965,1.46.844.844,0,0,1-1.173-.1l-.254-.556A1.392,1.392,0,0,1,1074.655,1578.138Zm7.919-2.118c.443-.139.741-.132.966.106a.993.993,0,0,1,.358.945,1.133,1.133,0,0,1-1.039.59.973.973,0,0,1-.519-.381C1081.9,1576.74,1082.334,1576.314,1082.574,1576.02Zm7.968-2.131.706-.084a1,1,0,0,1,.271,1.593,1.3,1.3,0,0,1-1.1-.019,1.593,1.593,0,0,1-.31-.958Zm7.968-2.131a1.224,1.224,0,0,1,.953.057c.516.7.311,1.1-.2,1.565a.887.887,0,0,1-.956-.265l-.254-.557A1.3,1.3,0,0,1,1098.51,1571.759Zm7.919-2.118.706-.085a1.2,1.2,0,0,1,.636.819c-.065.5-.545,1.178-1.181.837a.692.692,0,0,1-.549-.686C1105.978,1570.056,1106.183,1569.922,1106.429,1569.641Zm7.968-2.13c.731-.211.9.039,1.264.443a.85.85,0,0,1-.18.88.678.678,0,0,1-.544.3,1.017,1.017,0,0,1-.661-.136,1.565,1.565,0,0,1-.309-.958Zm7.919-2.118a1.314,1.314,0,0,1,1,.045,1.656,1.656,0,0,1,.323,1.007c-.161.22-.375.586-.735.56a.744.744,0,0,1-.824-.352C1121.652,1566.125,1122.079,1565.684,1122.317,1565.393Zm-85.362,31.363.693-.133a1.151,1.151,0,0,1,.519.382.816.816,0,0,1-.2,1.2,1.047,1.047,0,0,1-1.037.018,1.657,1.657,0,0,1-.322-1.007Zm7.968-2.13a1.312,1.312,0,0,1,1.05.031c.261.391.482.873.119,1.218a1,1,0,0,1-.946.357,1.117,1.117,0,0,1-.592-1.039Zm7.968-2.131c.634-.215,1.38-.01,1.317.638a.7.7,0,0,1-.268.748.8.8,0,0,1-1.085.03c-.453-.252-.354-.835-.216-1.192Zm7.919-2.117c.56-.182.874-.161,1.138.164a.985.985,0,0,1,.093,1.121c-.268.187-.632.433-.972.26a.6.6,0,0,1-.444-.3C1060.267,1591.058,1060.551,1590.713,1060.809,1590.377Zm7.968-2.131a1.314,1.314,0,0,1,1.05.032,1.565,1.565,0,0,1,.309.958,1.17,1.17,0,0,1-1.136.617c-.4-.284-.934-.933-.378-1.409Zm7.919-2.118.693-.134a1.151,1.151,0,0,1,.519.382.818.818,0,0,1-.2,1.2.884.884,0,1,1-1.013-1.448Zm7.968-2.13c.623-.2.932-.135,1.212.248a1.047,1.047,0,0,1,.018,1.036C1084.723,1586.111,1083.941,1584.914,1084.664,1584Zm7.968-2.13a1.016,1.016,0,0,1,.768-.049c.309.057.481.285.6.673a.966.966,0,0,1-.316.761,1.1,1.1,0,0,1-.826.221,1.043,1.043,0,0,1-.475-1.383Zm7.919-2.118.693-.133a1.154,1.154,0,0,1,.519.381c.8.919-.809,1.827-1.4,1a1.457,1.457,0,0,1-.16-.79Zm7.968-2.131c.926-.325,1.884.607,1.169,1.25a.993.993,0,0,1-.945.357,1.116,1.116,0,0,1-.591-1.039Zm7.968-2.13.645-.12c.268.13.713.332.672.757a.7.7,0,0,1-.268.748.8.8,0,0,1-1.085.03c-.453-.252-.354-.835-.216-1.192Zm7.919-2.117c.56-.182.874-.161,1.138.164l.254.556-.161.563C1124.465,1575.483,1123.683,1574.287,1124.406,1573.371Zm-85.23,31.274c.871-.28,1.778.694,1.084,1.324a.862.862,0,0,1-.849.331C1038.561,1606,1038.671,1605.167,1039.177,1604.646Zm7.968-2.13.658-.073c.544.365.892,1.086.272,1.594a.859.859,0,0,1-1.365-.624C1046.641,1602.915,1046.868,1602.805,1047.145,1602.516Zm7.968-2.131a1.237,1.237,0,0,1,.966.106l.315.593c-.111.493-.148.788-.776.988a1,1,0,0,1-.837-.4,1.334,1.334,0,0,1-.147-.741Zm7.919-2.117c.728-.217,1.138.039,1.307.8a.977.977,0,0,1-1.12.872,1.543,1.543,0,0,1-.471-.395.767.767,0,0,1-.1-.755C1062.707,1598.525,1062.861,1598.456,1063.032,1598.268Zm7.968-2.131a1.23,1.23,0,0,1,.966.106,1.147,1.147,0,0,1,.132,1.266,1.159,1.159,0,0,1-1.267.13,1.147,1.147,0,0,1-.132-1.266Zm7.919-2.118a1.085,1.085,0,0,1,1.164.262c.254.774.1,1.2-.61,1.412a.966.966,0,0,1-.762-.316,1.093,1.093,0,0,1-.222-.825Zm7.968-2.13.658-.071a1.17,1.17,0,0,1,.617,1.135c-.355.5-1.064.917-1.545.257l-.17-.631C1086.491,1592.218,1086.657,1592.134,1086.887,1591.888Zm7.968-2.13a1.235,1.235,0,0,1,.966.105,1.148,1.148,0,0,1,.132,1.266l-.593.315c-.843-.066-1.117-.713-.806-1.451Zm7.919-2.118c1.04-.334,1.741.881.965,1.46a.933.933,0,0,1-.729.195C1102.158,1589,1102.268,1588.16,1102.774,1587.64Zm7.968-2.131.658-.072a1.172,1.172,0,0,1,.617,1.136c-.356.512-1.829,1-1.711-.167C1110.239,1585.909,1110.465,1585.8,1110.742,1585.509Zm7.968-2.131a1.232,1.232,0,0,1,.966.107,1.062,1.062,0,0,1,.27.812c-.039.389-.263.627-.731.768a1,1,0,0,1-.837-.4,1.337,1.337,0,0,1-.147-.741Zm7.919-2.117c.728-.216,1.138.038,1.307.8-.115.682-.582.911-1.292.813-.241-.232-.611-.67-.4-1.091C1126.3,1581.518,1126.458,1581.449,1126.629,1581.261Zm-85.482,30.53a1.749,1.749,0,0,1,.781,0c.241.232.611.67.4,1.09-.054.265-.21.366-.43.532-.7.2-1.1-.073-1.258-.81A1.4,1.4,0,0,1,1041.147,1611.791Zm7.968-2.131a.909.909,0,0,1,1.08.335,1.34,1.34,0,0,1,.147.742C1049.41,1612.076,1047.88,1610.726,1049.115,1609.66Zm7.919-2.118a.929.929,0,0,1,1.281.7l-.184.673a1.593,1.593,0,0,1-.959.309A.966.966,0,0,1,1057.035,1607.542Zm7.968-2.13.56-.046c.729.24,1.057,1.753-.153,1.759C1064.352,1607.131,1064.408,1605.918,1065,1605.412Zm7.968-2.131a1.215,1.215,0,0,1,.917.12.9.9,0,1,1-1.135,1.4A.968.968,0,0,1,1072.97,1603.281Zm7.919-2.118a.885.885,0,0,1,1.067.288l.169.631c-.047.538-.5.779-1.1.761a1.17,1.17,0,0,1-.618-1.135Zm7.968-2.131a.884.884,0,0,1,1,.252,1.094,1.094,0,0,1,.222.825,1.043,1.043,0,0,1-1.383.474l-.211-.2C1088.245,1599.587,1088.431,1599.427,1088.857,1599.033Zm7.919-2.118a1.292,1.292,0,0,1,.966.106l.315.593c-.066.843-.712,1.115-1.45.8a1.147,1.147,0,0,1-.132-1.266Zm7.968-2.13.609-.059a1.564,1.564,0,0,1,.47.4.766.766,0,0,1,.1.754c-.055.264-.211.366-.43.531-.7.2-1.1-.073-1.259-.808A1.407,1.407,0,0,1,1104.745,1594.785Zm7.968-2.131a.883.883,0,0,1,1,.252,1.1,1.1,0,0,1,.222.826l-.31.4C1112.808,1594.952,1111.589,1593.608,1112.712,1592.654Zm7.919-2.118a1.1,1.1,0,0,1,1.115.275,1.278,1.278,0,0,1-.018,1.1,1.564,1.564,0,0,1-.959.308A.965.965,0,0,1,1120.632,1590.536Zm7.968-2.131.561-.046c.729.24,1.057,1.752-.153,1.759C1127.951,1590.124,1128,1588.912,1128.6,1588.405Zm-85.411,31.377c.524-.166.84-.128,1.089.177l.267.606a.9.9,0,0,1-.391.677.8.8,0,0,1-1.125-.116l-.254-.557A1.536,1.536,0,0,1,1043.189,1619.782Zm7.968-2.131c.443-.139.741-.132.966.106.453.251.354.834.216,1.191l-.2.211c-.652.225-1.429.042-1.365-.624C1050.7,1618.066,1050.9,1617.928,1051.156,1617.651Zm7.968-2.13.706-.085a1.116,1.116,0,0,1,.591,1.039.894.894,0,0,1-.381.518.98.98,0,0,1-1.037.017A.994.994,0,0,1,1059.124,1615.521Zm7.919-2.118a1.273,1.273,0,0,1,1,.045l.162.217a1.459,1.459,0,0,1,.16.79l-.359.409a.815.815,0,0,1-1.2-.2.767.767,0,0,1-.1-.755C1066.759,1613.654,1066.887,1613.587,1067.044,1613.4Zm7.968-2.13.706-.085a1.043,1.043,0,0,1,.475,1.382l-.217.162a.886.886,0,0,1-.8.11c-.309-.058-.481-.285-.6-.673A1.313,1.313,0,0,1,1075.011,1611.272Zm7.919-2.118c.573-.181.913-.111,1.164.261a.859.859,0,1,1-1.4,1C1082.334,1609.835,1082.654,1609.493,1082.931,1609.155Zm7.968-2.131a1.274,1.274,0,0,1,1,.045c.9,1.261-.629,2.16-1.236,1.216C1090.229,1607.756,1090.643,1607.305,1090.9,1607.024Zm7.968-2.131.706-.085c.5.355.918,1.064.258,1.545a1.094,1.094,0,0,1-1.085.03,1.565,1.565,0,0,1-.309-.958Zm7.919-2.117c.584-.183.9-.1,1.164.261a.82.82,0,0,1-.2,1.2.8.8,0,0,1-1.125-.116C1106.107,1603.626,1106.524,1603.092,1106.786,1602.776Zm7.968-2.131c.443-.139.741-.132.966.105.453.252.354.835.216,1.192l-.2.21c-.652.225-1.429.043-1.365-.624C1114.3,1601.061,1114.5,1600.921,1114.754,1600.645Zm7.968-2.13.706-.085a1.116,1.116,0,0,1,.591,1.039.9.9,0,0,1-.965.674C1122.07,1600.056,1122.253,1599,1122.722,1598.515Zm7.919-2.118a1.272,1.272,0,0,1,1,.045,1.655,1.655,0,0,1,.322,1.007l-.359.408a.814.814,0,0,1-1.2-.2C1129.972,1597.129,1130.385,1596.678,1130.641,1596.4Zm-85.132,31.25a.9.9,0,0,1,.982.362.979.979,0,0,1,.018,1.036,1.211,1.211,0,0,1-1.254.179,1.655,1.655,0,0,1-.323-1.007A5.035,5.035,0,0,1,1045.508,1627.646Zm7.919-2.118a1.437,1.437,0,0,1,.869.132,1.567,1.567,0,0,1,.309.959.95.95,0,0,1-1.695.089.85.85,0,0,1,.18-.881Zm7.968-2.13a1.19,1.19,0,0,1,1.018.3l.117.437a.759.759,0,0,1-.352.822,1.337,1.337,0,0,1-.742.147,1.049,1.049,0,0,1-.44-1.444Zm7.919-2.118a.911.911,0,0,1,.956.265l.254.558-.161.563-.69.341C1068.616,1622.851,1068.645,1621.863,1069.315,1621.28Zm7.968-2.13a1.488,1.488,0,0,1,.869.132,1.594,1.594,0,0,1,.309.958,1.169,1.169,0,0,1-1.136.616,1,1,0,0,1-.271-1.593Zm7.968-2.13a.88.88,0,0,1,.982.362c.508.6,0,1.221-.623,1.364-.627-.057-.952-.4-.935-1.156A5,5,0,0,1,1085.251,1617.019Zm7.919-2.118a.909.909,0,0,1,.956.265l.254.557c-.082.481-.242.76-.9.917-.293-.1-.48-.112-.678-.391C1092.313,1615.654,1092.836,1615.188,1093.17,1614.9Zm7.968-2.13a.923.923,0,0,1,1.184.725.968.968,0,0,1-.316.761,1.1,1.1,0,0,1-.826.221l-.4-.311a.976.976,0,0,1-.044-1.134Zm7.968-2.131a.9.9,0,0,1,.982.362.98.98,0,0,1,.018,1.037,1.214,1.214,0,0,1-1.254.179,1.657,1.657,0,0,1-.322-1.007A5.05,5.05,0,0,1,1109.106,1610.639Zm7.919-2.117c.6-.107,1.431.291,1.178,1.09-.29.916-1.259.6-1.694.089a.85.85,0,0,1,.18-.881Zm7.968-2.131a.841.841,0,0,1,.833.194.638.638,0,0,1,.3.544.759.759,0,0,1-.352.822,1.329,1.329,0,0,1-.742.147,1.048,1.048,0,0,1-.44-1.443Zm7.919-2.118a.909.909,0,0,1,.956.266l.254.556-.161.563-.69.341C1132.213,1605.845,1132.243,1604.856,1132.912,1604.274Zm-85.329,31.875.755-.1.409.359a.813.813,0,0,1-.2,1.2,1.254,1.254,0,0,1-.79.16l-.409-.359a.8.8,0,0,1-.1-.754C1047.3,1636.4,1047.426,1636.333,1047.583,1636.149Zm7.919-2.117a1.4,1.4,0,0,1,.988,0,1.172,1.172,0,0,1,.242,1.289c-.7.515-1.1.31-1.565-.206A1.142,1.142,0,0,1,1055.5,1634.031Zm7.968-2.131.645-.12a2.537,2.537,0,0,1,.668.549.9.9,0,0,1-.348,1.031.98.98,0,0,1-1.037.017A1.034,1.034,0,0,1,1063.47,1631.9Zm7.968-2.13c.584-.183.9-.1,1.164.262a.826.826,0,0,1-.115,1.123l-.605.266a.9.9,0,0,1-.678-.392C1070.771,1630.506,1071.175,1630.047,1071.438,1629.77Zm7.919-2.118c.473-.154.777-.159,1.014.093.457.255.345.83.216,1.191a2.121,2.121,0,0,1-.738.354.947.947,0,0,1-.665-.342,1.048,1.048,0,0,1-.209-.777Zm7.968-2.13.755-.1.409.359a.814.814,0,0,1-.2,1.2.982.982,0,0,1-1.037.017,2.02,2.02,0,0,1-.341-.69A1.393,1.393,0,0,1,1087.325,1625.522Zm7.968-2.131a1.246,1.246,0,0,1,1,.045,2.015,2.015,0,0,1,.341.689c-.1.715-1.071,1.309-1.577.526C1094.626,1624.127,1095.03,1623.667,1095.293,1623.391Zm7.919-2.118c.569-.18.884-.118,1.151.212a1.053,1.053,0,0,1,.209.778,1.09,1.09,0,0,1-1.37.522,1.333,1.333,0,0,1-.313-1.166Zm7.968-2.131.755-.1.409.36a.812.812,0,0,1-.2,1.2,1.254,1.254,0,0,1-.791.16l-.409-.359a.8.8,0,0,1-.1-.754C1110.9,1619.394,1111.023,1619.327,1111.18,1619.142Zm7.919-2.118a1.342,1.342,0,0,1,1.05.031,1.219,1.219,0,0,1,.18,1.254c-.7.515-1.1.311-1.566-.206A1.143,1.143,0,0,1,1119.1,1617.024Zm7.968-2.13.645-.12a2.531,2.531,0,0,1,.668.55.9.9,0,0,1-.348,1.03.979.979,0,0,1-1.037.017A1.033,1.033,0,0,1,1127.067,1614.894Zm7.968-2.131c.584-.182.9-.1,1.164.261a.827.827,0,0,1-.115,1.124l-.605.266a.9.9,0,0,1-.678-.391C1134.368,1613.5,1134.772,1613.04,1135.035,1612.764Zm-85.229,31.275.609-.058a1.528,1.528,0,0,1,.471.394.979.979,0,0,1,.018,1.037c-.661.452-1.379.441-1.6-.511.006-.105.013-.212.019-.317Zm7.968-2.13a.907.907,0,0,1,1.08.336,1.335,1.335,0,0,1,.147.741C1058.068,1644.324,1056.538,1642.974,1057.774,1641.908Zm7.968-2.131a1.1,1.1,0,0,1,1.066.288c.323.85-.041,1.428-.976,1.406A.949.949,0,0,1,1065.741,1639.777Zm7.919-2.118.561-.046c.729.24,1.057,1.753-.153,1.759C1073.01,1639.378,1073.067,1638.165,1073.661,1637.66Zm7.968-2.13a1.284,1.284,0,0,1,.917.119,1.1,1.1,0,0,1,.012,1.4,1.252,1.252,0,0,1-1.147-.005A.968.968,0,0,1,1081.629,1635.53Zm7.919-2.118a.884.884,0,0,1,1.067.288l.17.63c-.047.538-.5.779-1.1.762a1.171,1.171,0,0,1-.618-1.136Zm7.968-2.13a.882.882,0,0,1,1,.251,1.094,1.094,0,0,1,.222.826,1.043,1.043,0,0,1-1.383.474l-.211-.2C1096.9,1631.835,1097.089,1631.675,1097.516,1631.281Zm7.968-2.131a1.288,1.288,0,0,1,.917.119l.315.592c-.031.47-.442,1.247-1.107.921-.3-.053-.411-.219-.594-.466C1104.857,1629.661,1105.107,1629.492,1105.484,1629.15Zm7.919-2.118.609-.059a1.548,1.548,0,0,1,.47.4.766.766,0,0,1,.1.754c-.055.264-.211.365-.43.531-.7.2-1.1-.073-1.259-.808A1.406,1.406,0,0,1,1113.4,1627.032Zm7.968-2.13a.92.92,0,0,1,1.08.336,1.336,1.336,0,0,1,.147.742C1121.665,1627.317,1120.136,1625.968,1121.371,1624.9Zm7.919-2.118a1.1,1.1,0,0,1,1.115.275c.323.85-.041,1.428-.976,1.406A.966.966,0,0,1,1129.29,1622.784Zm7.968-2.13a.881.881,0,0,1,1,.252l.254.557a.952.952,0,0,1-1.415.742A.994.994,0,0,1,1137.258,1620.654Zm-85.411,31.376a1.272,1.272,0,0,1,1,.045c.374.493.473,1.078-.037,1.415a.8.8,0,0,1-1.125-.116l-.254-.557A1.535,1.535,0,0,1,1051.847,1652.03Zm7.968-2.131c.443-.139.741-.132.966.107a.89.89,0,0,1,.012,1.4c-.618.4-1.434-.078-1.365-.624C1059.363,1650.314,1059.561,1650.176,1059.815,1649.9Zm7.968-2.13.706-.085a1.116,1.116,0,0,1,.591,1.039.894.894,0,0,1-.965.674c-.538-.047-.779-.5-.763-1.1Zm7.919-2.118a1.278,1.278,0,0,1,1,.044l.162.217a1.458,1.458,0,0,1,.16.79l-.359.408a.814.814,0,0,1-1.2-.2C1075.037,1646.384,1075.465,1645.942,1075.7,1645.651Zm7.968-2.131.706-.085a1.043,1.043,0,0,1,.475,1.382l-.217.162a.882.882,0,0,1-.8.11c-.309-.058-.481-.285-.6-.672A1.314,1.314,0,0,1,1083.67,1643.52Zm7.968-2.13c1.089-.361,1.745.943.916,1.473a.819.819,0,0,1-1.2-.2C1090.984,1642.071,1091.322,1641.718,1091.638,1641.39Zm7.919-2.118c.73-.229,1.173-.011,1.343.735a.883.883,0,0,1-1.577.526C1098.888,1640,1099.3,1639.553,1099.557,1639.271Zm7.968-2.131.706-.084c.5.355.918,1.064.259,1.544a1.1,1.1,0,0,1-1.086.031,1.572,1.572,0,0,1-.309-.959Zm7.919-2.117a1.277,1.277,0,0,1,1,.044c.374.494.473,1.08-.037,1.416a.8.8,0,0,1-1.125-.116l-.254-.558A1.536,1.536,0,0,1,1115.444,1635.024Zm7.968-2.131c.443-.139.741-.132.966.106.206.119.291.285.377.628a.906.906,0,0,1-.378.725.829.829,0,0,1-1.352-.575C1122.96,1633.309,1123.158,1633.169,1123.412,1632.893Zm7.968-2.13.706-.085a1.115,1.115,0,0,1,.591,1.039.9.9,0,0,1-.381.518.949.949,0,0,1-1.037.017A.994.994,0,0,1,1131.38,1630.762Zm7.919-2.118a1.272,1.272,0,0,1,1,.045,1.654,1.654,0,0,1,.322,1.007l-.359.408a.815.815,0,0,1-1.2-.2C1138.634,1629.377,1139.062,1628.936,1139.3,1628.645Z" transform="translate(-1027.45 -1540.522)" fill="#f8bd47" stroke="#00224f" stroke-width="1"/>
</svg>
