<svg xmlns="http://www.w3.org/2000/svg" xmlns:xlink="http://www.w3.org/1999/xlink" width="29.442" height="32.788" viewBox="0 0 29.442 32.788">
  <defs>
    <clipPath id="clip-path">
      <path id="Path_279" data-name="Path 279" d="M38.405,28.334a2.584,2.584,0,0,0-.605,1.782V58.323a2.381,2.381,0,0,0,.605,1.782l.1.1,15.8-15.8V44l-15.8-15.8Z" transform="translate(-37.8 -28.2)"/>
    </clipPath>
    <linearGradient id="linear-gradient" x1="-0.712" y1="3.307" x2="-0.679" y2="3.307" gradientUnits="objectBoundingBox">
      <stop offset="0" stop-color="#4a96d1"/>
      <stop offset="0.007" stop-color="#4b97d2"/>
      <stop offset="0.26" stop-color="#48b8e9"/>
      <stop offset="0.411" stop-color="#47beeb"/>
      <stop offset="0.512" stop-color="#46c5ee"/>
      <stop offset="0.76" stop-color="#57c8e7"/>
      <stop offset="1" stop-color="#5dc9e5"/>
    </linearGradient>
    <clipPath id="clip-path-2">
      <path id="Path_280" data-name="Path 280" d="M86.8,65.011v.4l5.278,5.278.134-.067,6.219-3.53c1.782-1.009,1.782-2.656,0-3.7l-6.219-3.53-.134-.067Z" transform="translate(-86.8 -59.8)"/>
    </clipPath>
    <linearGradient id="linear-gradient-2" x1="-5.047" y1="14.072" x2="-4.925" y2="14.072" gradientUnits="objectBoundingBox">
      <stop offset="0" stop-color="#fadd00"/>
      <stop offset="0.409" stop-color="#f9ba18"/>
      <stop offset="0.443" stop-color="#f9b819"/>
      <stop offset="0.775" stop-color="#f8a31d"/>
      <stop offset="1" stop-color="#f79920"/>
    </linearGradient>
    <clipPath id="clip-path-3">
      <path id="Path_282" data-name="Path 282" d="M39.6,91.7c.605.639,1.546.706,2.656.067l18.625-10.59L55.5,75.8Z" transform="translate(-39.6 -75.8)"/>
    </clipPath>
    <linearGradient id="linear-gradient-3" x1="-1.021" y1="3.917" x2="-0.978" y2="3.917" gradientUnits="objectBoundingBox">
      <stop offset="0" stop-color="#ed414b"/>
      <stop offset="0.394" stop-color="#da3255"/>
      <stop offset="1" stop-color="#c11e63"/>
    </linearGradient>
    <clipPath id="clip-path-4">
      <path id="Path_284" data-name="Path 284" d="M39.6,27.6l15.9,15.9,5.379-5.379L42.256,27.537a2.834,2.834,0,0,0-1.412-.437,1.621,1.621,0,0,0-1.244.5" transform="translate(-39.6 -27.1)"/>
    </clipPath>
    <linearGradient id="linear-gradient-4" x1="-0.501" y1="3.885" x2="-0.458" y2="3.885" gradientUnits="objectBoundingBox">
      <stop offset="0" stop-color="#2f9e74"/>
      <stop offset="0.068" stop-color="#27a672"/>
      <stop offset="0.476" stop-color="#4bb76f"/>
      <stop offset="0.801" stop-color="#60bb6c"/>
      <stop offset="1" stop-color="#68be6b"/>
    </linearGradient>
  </defs>
  <g id="Group_111" data-name="Group 111" transform="translate(0 0)">
    <g id="Group_101" data-name="Group 101" transform="translate(0 0.37)">
      <g id="Group_100" data-name="Group 100" clip-path="url(#clip-path)">
        <path id="Path_278" data-name="Path 278" d="M14.505,3.8-9.7,28.039,14.505,52.245,38.745,28.039Z" transform="translate(-6.269 -12.003)" fill="url(#linear-gradient)"/>
      </g>
    </g>
    <g id="Group_103" data-name="Group 103" transform="translate(16.473 10.993)">
      <g id="Group_102" data-name="Group 102" clip-path="url(#clip-path-2)">
        <rect id="Rectangle_29" data-name="Rectangle 29" width="13.414" height="10.893" transform="translate(0 -0.067)" fill="url(#linear-gradient-2)"/>
      </g>
    </g>
    <g id="Group_105" data-name="Group 105" transform="translate(0.605 16.372)">
      <g id="Group_104" data-name="Group 104" clip-path="url(#clip-path-3)">
        <path id="Path_281" data-name="Path 281" d="M33.827,44.2,14.9,63.127,33.827,82.055,52.755,63.127Z" transform="translate(-23.204 -54.824)" fill="url(#linear-gradient-3)"/>
      </g>
    </g>
    <g id="Group_107" data-name="Group 107" transform="translate(0.605 0)">
      <g id="Group_106" data-name="Group 106" clip-path="url(#clip-path-4)">
        <path id="Path_283" data-name="Path 283" d="M15.2,14.26,34.026,33.087,52.887,14.26,34.026-4.6Z" transform="translate(-23.403 -6.057)" fill="url(#linear-gradient-4)"/>
      </g>
    </g>
  </g>
</svg>
