<svg id="settings" xmlns="http://www.w3.org/2000/svg" width="93.358" height="93.346" viewBox="0 0 93.358 93.346">
  <circle id="Ellipse_1" data-name="Ellipse 1" cx="46.5" cy="46.5" r="46.5" transform="translate(0 0.346)" fill="#dd636e"/>
  <g id="Group_10563" data-name="Group 10563" transform="translate(0.046 0)">
    <path id="Path_262" data-name="Path 262" d="M84.247,36.866H79.812a34.411,34.411,0,0,0-2.786-6.723l3.135-3.135a9.079,9.079,0,0,0,0-12.843l-1-1a9.08,9.08,0,0,0-12.84,0L63.182,16.3a34.346,34.346,0,0,0-6.723-2.786V9.078A9.079,9.079,0,0,0,47.378,0H45.961A9.08,9.08,0,0,0,36.88,9.078v4.435A34.346,34.346,0,0,0,30.156,16.3l-3.138-3.135a9.08,9.08,0,0,0-12.84,0l-1,1a9.079,9.079,0,0,0,0,12.843l3.135,3.135a34.411,34.411,0,0,0-2.786,6.723H9.091A9.08,9.08,0,0,0,.013,45.947v1.417a9.08,9.08,0,0,0,9.078,9.081h4.435a34.346,34.346,0,0,0,2.786,6.723l-3.135,3.138a9.076,9.076,0,0,0,0,12.84l1,1a9.076,9.076,0,0,0,12.84,0l3.138-3.135A34.19,34.19,0,0,0,36.88,79.8v4.435a9.08,9.08,0,0,0,9.081,9.081h1.417a9.08,9.08,0,0,0,9.081-9.081V79.8a34.19,34.19,0,0,0,6.723-2.786l3.137,3.135a9.076,9.076,0,0,0,12.84,0l1-1a9.076,9.076,0,0,0,0-12.84l-3.135-3.138a34.346,34.346,0,0,0,2.786-6.723h4.435a9.08,9.08,0,0,0,9.078-9.081V45.947A9.08,9.08,0,0,0,84.247,36.866Zm-37.577,23.9A14.112,14.112,0,1,1,60.781,46.656,14.112,14.112,0,0,1,46.669,60.768Z" transform="translate(-0.013 0)" fill="#ededed"/>
    <g id="Group_10562" data-name="Group 10562" transform="translate(0 0)">
      <path id="Path_263" data-name="Path 263" d="M144.775,119.97a24.791,24.791,0,1,0,24.791,24.791A24.791,24.791,0,0,0,144.775,119.97Z" transform="translate(-98.119 -98.105)" fill="#dddaec"/>
      <g id="Group_10561" data-name="Group 10561">
        <path id="Path_264" data-name="Path 264" d="M350.971,65.434l5.132-5.128a9.04,9.04,0,0,1,3.242-2.084,9.08,9.08,0,0,0-9.6,2.084l-3.137,3.135A34.142,34.142,0,0,1,350.971,65.434Z" transform="translate(-283.44 -47.143)" fill="#dddaec"/>
        <path id="Path_265" data-name="Path 265" d="M208.65,442.277v-2.758l-6.356-1.677v4.435a9.08,9.08,0,0,0,9.081,9.081h1.417a9.09,9.09,0,0,0,2.47-.343A9.082,9.082,0,0,1,208.65,442.277Z" transform="translate(-165.427 -358.043)" fill="#dddaec"/>
        <path id="Path_266" data-name="Path 266" d="M208.65,9.081v2.758l-6.356,1.677V9.081A9.08,9.08,0,0,1,211.375,0h1.417a9.088,9.088,0,0,1,2.47.343,9.082,9.082,0,0,0-6.611,8.738Z" transform="translate(-165.427 0)" fill="#dddaec"/>
        <path id="Path_267" data-name="Path 267" d="M20.535,127.29l-1-1a9.076,9.076,0,0,1,0-12.84l3.135-3.138a34.346,34.346,0,0,1-2.786-6.723H15.448a9.08,9.08,0,0,1-9.078-9.081V93.089a9.08,9.08,0,0,1,9.078-9.081h4.435a34.411,34.411,0,0,1,2.786-6.723L19.534,74.15a9.079,9.079,0,0,1,0-12.843l1-1a9.041,9.041,0,0,1,3.242-2.084,9.08,9.08,0,0,0-9.6,2.084l-1,1a9.079,9.079,0,0,0,0,12.843l3.135,3.135a34.411,34.411,0,0,0-2.786,6.723H9.091A9.08,9.08,0,0,0,.013,93.089v1.417a9.08,9.08,0,0,0,9.078,9.081h4.435a34.346,34.346,0,0,0,2.786,6.723l-3.135,3.138a9.076,9.076,0,0,0,0,12.84l1,1a9.075,9.075,0,0,0,9.6,2.086,9.04,9.04,0,0,1-3.242-2.086Z" transform="translate(-0.013 -47.142)" fill="#dddaec"/>
        <path id="Path_268" data-name="Path 268" d="M356.1,416.748l-5.133-5.128a34.125,34.125,0,0,1-4.362,1.993l3.137,3.135a9.076,9.076,0,0,0,9.6,2.086,9.044,9.044,0,0,1-3.242-2.086Z" transform="translate(-283.44 -336.6)" fill="#dddaec"/>
      </g>
    </g>
  </g>
  <g id="Group_10564" data-name="Group 10564" transform="translate(27.407 17.512)">
    <path id="Path_269" data-name="Path 269" d="M168.269,173.363a5.657,5.657,0,1,0,0,11.313" transform="translate(-160.339 -159.278)" fill="#2b4d66"/>
    <path id="Path_270" data-name="Path 270" d="M177.042,238.126a5.657,5.657,0,0,0,0,11.313" transform="translate(-167.513 -212.238)" fill="#2b4d66"/>
    <path id="Path_271" data-name="Path 271" d="M184.641,233.7H153.76a3.62,3.62,0,0,1,0-7.24h30.881a3.62,3.62,0,1,1,0,7.24Z" transform="translate(-150.14 -202.697)" fill="#ffcbbe"/>
    <path id="Path_272" data-name="Path 272" d="M163.063,240.929a1.546,1.546,0,1,1,0-3.093h30.881a1.546,1.546,0,0,1,0,3.093Z" transform="translate(-159.443 -212.001)" fill="#eaac9d"/>
    <path id="Path_273" data-name="Path 273" d="M320.415,161.112h-4.347V175.56a2.173,2.173,0,0,0,4.347,0Z" transform="translate(-285.827 -149.26)" fill="#365e7d"/>
    <path id="Path_274" data-name="Path 274" d="M195.327,168.263A13.963,13.963,0,0,1,181.364,154.3v-8.469c0-7.711,6.251-21.074,13.963-21.074A13.963,13.963,0,0,1,209.29,138.72V154.3A13.963,13.963,0,0,1,195.327,168.263Z" transform="translate(-175.673 -119.531)" fill="#ffddce"/>
    <path id="Path_275" data-name="Path 275" d="M199.369,167.669a13.93,13.93,0,0,1-4.04.595h0A13.963,13.963,0,0,1,181.365,154.3v-8.469c0-7.711,6.252-21.074,13.963-21.074h0a13.929,13.929,0,0,1,4.04.595,13.967,13.967,0,0,0-9.922,13.368V154.3A13.967,13.967,0,0,0,199.369,167.669Z" transform="translate(-175.674 -119.532)" fill="#ffcbbe"/>
    <path id="Path_276" data-name="Path 276" d="M230.178,214.242a1.773,1.773,0,0,1-1.773-1.773v-3.694a1.773,1.773,0,1,1,3.546,0v3.694A1.773,1.773,0,0,1,230.178,214.242Z" transform="translate(-214.141 -186.786)" fill="#2b4d66"/>
    <path id="Path_277" data-name="Path 277" d="M290.17,214.242a1.773,1.773,0,0,1-1.773-1.773v-3.694a1.773,1.773,0,1,1,3.546,0v3.694A1.773,1.773,0,0,1,290.17,214.242Z" transform="translate(-263.199 -186.786)" fill="#2b4d66"/>
    <path id="Path_278" data-name="Path 278" d="M261.947,176.1H258.4V157.7a1.773,1.773,0,1,1,3.546,0v18.4Z" transform="translate(-238.67 -145.02)" fill="#ffcbbe"/>
    <path id="Path_279" data-name="Path 279" d="M237.185,278.818a6.044,6.044,0,0,1-6.037-6.037,1.039,1.039,0,1,1,2.078,0,3.963,3.963,0,0,0,3.959,3.959,1.039,1.039,0,1,1,0,2.078Z" transform="translate(-216.384 -239.727)" fill="#eaac9d"/>
    <path id="Path_280" data-name="Path 280" d="M185.711,161.112h-4.347V175.56a2.173,2.173,0,0,0,4.347,0Z" transform="translate(-175.673 -149.26)" fill="#2b4d66"/>
    <path id="Path_281" data-name="Path 281" d="M258.052,252.311H255.2a1.986,1.986,0,0,0,0,3.973h2.857a1.986,1.986,0,0,0,0-3.973Z" transform="translate(-234.424 -223.838)" fill="#ffcbbe"/>
    <circle id="Ellipse_2" data-name="Ellipse 2" cx="7.736" cy="7.736" r="7.736" transform="translate(2.287 0.394)" fill="#365e7d"/>
    <path id="Path_282" data-name="Path 282" d="M173.2,113.2a7.737,7.737,0,1,1,0-14.447,7.737,7.737,0,0,0,0,14.447Z" transform="translate(-160.404 -97.849)" fill="#2b4d66"/>
    <path id="Path_283" data-name="Path 283" d="M267.746,96.083H249.729a7.758,7.758,0,0,0,0,15.516h5.163a12.854,12.854,0,0,0,12.854-12.854Z" transform="translate(-225.234 -96.083)" fill="#365e7d"/>
    <path id="Path_284" data-name="Path 284" d="M248.993,109.329a7.728,7.728,0,0,0,5.485,2.274h-4.75a7.758,7.758,0,0,1,0-15.517h4.75a7.757,7.757,0,0,0-5.485,13.243Z" transform="translate(-225.234 -96.085)" fill="#2b4d66"/>
  </g>
</svg>
