<svg xmlns="http://www.w3.org/2000/svg" width="216.279" height="216.236" viewBox="0 0 216.279 216.236">
  <path id="Shape_13_copy" data-name="Shape 13 copy" d="M279.964,3842.267l1.324-.255a2.208,2.208,0,0,1,.992.729c1.543,1.811-1.136,2.812-2.361,2.323a3.165,3.165,0,0,1-.616-1.923Zm15.224-4.071c1.77-.621,3.6,1.159,2.233,2.387a1.9,1.9,0,0,1-1.807.682,2.133,2.133,0,0,1-1.13-1.986Q294.836,3838.738,295.188,3838.2Zm15.131-4.045a2.4,2.4,0,0,1,2.241.2q.184.494.367,1a1.342,1.342,0,0,1-.511,1.429,2.086,2.086,0,0,1-1.578.421,1.991,1.991,0,0,1-.908-2.64Zm15.224-4.072c1.07-.346,1.669-.308,2.174.314a1.881,1.881,0,0,1,.177,2.141,3.868,3.868,0,0,1-1.318.651C324.786,3832.92,324.6,3831.3,325.543,3830.079Zm15.224-4.07a2.51,2.51,0,0,1,2.006.06,2.991,2.991,0,0,1,.591,1.831,2.233,2.233,0,0,1-2.171,1.177c-.764-.542-1.785-1.78-.722-2.69Zm15.131-4.045c.441-.085.883-.172,1.324-.256a2.191,2.191,0,0,1,.992.729,1.561,1.561,0,0,1-.38,2.29l-.9.341C355.173,3824.792,354.946,3823.188,355.9,3821.963Zm15.224-4.071c1.19-.381,1.782-.26,2.316.473.821,1.272.023,2.356-1.376,2.657-.561-.193-.917-.212-1.3-.748C369.97,3819.3,370.7,3818.438,371.121,3817.892Zm15.224-4.072a1.951,1.951,0,0,1,1.467-.095c.59.111.919.546,1.141,1.288a1.848,1.848,0,0,1-.6,1.454,2.1,2.1,0,0,1-1.578.422,1.993,1.993,0,0,1-.908-2.641Zm15.131-4.046,1.324-.254a2.214,2.214,0,0,1,.992.729,1.871,1.871,0,0,1,.034,1.98,3.851,3.851,0,0,1-1.318.651l-1.078-.309a3.165,3.165,0,0,1-.616-1.923ZM416.7,3805.7c1.464-.479,2.289-.142,2.633,1.286a1.5,1.5,0,0,1-.4,1.1,1.9,1.9,0,0,1-1.807.683,2.133,2.133,0,0,1-1.13-1.985Zm15.131-4.045a2.41,2.41,0,0,1,2.241.2l.367,1a1.342,1.342,0,0,1-.512,1.429,1.524,1.524,0,0,1-2.074.059c-.865-.482-.675-1.595-.412-2.276Zm15.224-4.071c1.07-.347,1.669-.308,2.174.314l.485,1.063c-.1.36-.205.718-.308,1.078-.859.6-1.891.921-2.563.088l-.509-1.157A3.16,3.16,0,0,1,447.055,3797.586Zm-162.844,59.756a2.42,2.42,0,0,1,1.821.111c.688.91.9,2.007.023,2.679a1.558,1.558,0,0,1-2.242-.2c-.162-.355-.323-.708-.485-1.064A2.661,2.661,0,0,1,284.211,3857.342Zm15.224-4.07,1.257-.138c1.04.7,1.7,2.075.519,3.043a1.641,1.641,0,0,1-2.609-1.19C298.472,3854.035,298.906,3853.824,299.435,3853.272Zm15.131-4.046a1.7,1.7,0,1,1,1.057,3.2,1.918,1.918,0,0,1-1.6-.766,2.554,2.554,0,0,1-.281-1.417Zm15.224-4.072c1.391-.412,2.174.074,2.5,1.521a1.865,1.865,0,0,1-2.14,1.665,2.935,2.935,0,0,1-.9-.753,1.464,1.464,0,0,1-.188-1.441C329.168,3845.647,329.462,3845.515,329.789,3845.154Zm15.224-4.071a1.563,1.563,0,0,1,1.189-.02c.571.1.784.418,1.134.892a2.319,2.319,0,0,1-.226,1.75l-1.132.6c-.429-.118-.859-.234-1.289-.353q-.3-.564-.6-1.131A2.446,2.446,0,0,1,345.013,3841.083Zm15.131-4.045a2.074,2.074,0,0,1,2.223.5c.486,1.478.186,2.3-1.166,2.7a1.852,1.852,0,0,1-1.456-.606,2.089,2.089,0,0,1-.424-1.577Zm15.224-4.071,1.257-.138A2.237,2.237,0,0,1,377.8,3835c-.679.95-2.032,1.751-2.953.491q-.162-.6-.324-1.206C374.612,3833.6,374.93,3833.438,375.368,3832.967Zm15.224-4.071a2.353,2.353,0,0,1,1.845.2,2.212,2.212,0,0,1,.251,2.418l-1.132.6-1.288-.352A1.884,1.884,0,0,1,390.592,3828.9Zm15.131-4.046c1.986-.638,3.327,1.684,1.843,2.79a1.786,1.786,0,0,1-1.393.371C404.547,3827.441,404.755,3825.844,405.723,3824.85Zm15.224-4.071,1.257-.136c1.04.7,1.7,2.073.519,3.042a1.641,1.641,0,0,1-2.608-1.191C419.985,3821.542,420.418,3821.331,420.947,3820.779Zm15.131-4.046a1.7,1.7,0,1,1,1.058,3.2,1.92,1.92,0,0,1-1.6-.766,2.55,2.55,0,0,1-.281-1.417Zm15.224-4.071a1.7,1.7,0,0,1,2.473,1.428q-.018.3-.036.606a2.2,2.2,0,0,1-2.078,1.152,2.957,2.957,0,0,1-.9-.754,1.87,1.87,0,0,1-.034-1.98Zm-163.1,59.923,1.232-.229a2.191,2.191,0,0,1,.992.729,1.526,1.526,0,0,1-.219,2.147,1.618,1.618,0,0,1-2.452-.239,1.992,1.992,0,0,1,.034-2.1Zm15.131-4.045a2.512,2.512,0,0,1,2.006.06,2.362,2.362,0,0,1,.344,2.4,4.088,4.088,0,0,1-1.41.675c-.813-.166-1.015-.473-1.58-1.069A2.181,2.181,0,0,1,303.335,3868.54Zm15.224-4.07c.411-.077.821-.154,1.232-.229a4.822,4.822,0,0,1,1.277,1.051,1.709,1.709,0,0,1-.665,1.967,1.909,1.909,0,0,1-1.863.1,2.237,2.237,0,0,1-.462-2.463Zm15.131-4.046q.767-.107,1.535-.211l.781.687a1.6,1.6,0,0,1-.38,2.289,2.787,2.787,0,0,1-1.51.305l-.781-.687C332.539,3861.838,333.269,3860.97,333.69,3860.423Zm15.224-4.07a2.664,2.664,0,0,1,1.888-.008c.992,1.241,1.031,2.687-.948,3.138a1.918,1.918,0,0,1-1.27-.657,2,2,0,0,1-.4-1.483Zm15.224-4.072,1.232-.229a2.2,2.2,0,0,1,.992.729,1.526,1.526,0,0,1-.22,2.147,1.882,1.882,0,0,1-2.142.176,3.879,3.879,0,0,1-.652-1.317A2.662,2.662,0,0,1,364.137,3852.281Zm15.131-4.046a2.507,2.507,0,0,1,2.006.06,3.865,3.865,0,0,1,.652,1.317A1.824,1.824,0,0,1,381.2,3851a2.786,2.786,0,0,1-1.51.3l-.781-.685C378.117,3849.65,378.848,3848.781,379.268,3848.235Zm15.224-4.071c1.088-.348,1.693-.238,2.2.406a2.008,2.008,0,0,1,.4,1.485C395.33,3848.591,392.568,3846.517,394.492,3844.164Zm15.224-4.072,1.232-.229a2.2,2.2,0,0,1,.992.729,1.527,1.527,0,0,1-.219,2.147,1.618,1.618,0,0,1-2.452-.239,1.993,1.993,0,0,1,.034-2.1C409.44,3840.3,409.578,3840.2,409.716,3840.092Zm15.131-4.046a2.507,2.507,0,0,1,2.006.062,2.326,2.326,0,0,1,.344,2.394,4.09,4.09,0,0,1-1.41.676c-.813-.166-1.015-.473-1.581-1.069A2.184,2.184,0,0,1,424.847,3836.046Zm15.224-4.07,1.232-.231a4.845,4.845,0,0,1,1.277,1.052,1.71,1.71,0,0,1-.666,1.968,1.913,1.913,0,0,1-1.863.1,2.238,2.238,0,0,1-.462-2.463Zm15.131-4.046,1.535-.212.781.687a1.6,1.6,0,0,1-.38,2.289,2.781,2.781,0,0,1-1.51.3l-.781-.686C454.051,3829.344,454.781,3828.477,455.2,3827.93Zm-162.6,60.685a2.323,2.323,0,0,1,1.82.109c1.506,1.967-.84,4.229-2.219,2.483l-.485-1.064A2.474,2.474,0,0,1,292.607,3888.615Zm15.131-4.047q.675-.081,1.349-.162a2.005,2.005,0,0,1,.84,2.76c-.752.5-1.731.864-2.353.132a1.22,1.22,0,0,1-.578-1.039C306.876,3885.36,307.267,3885.1,307.738,3884.567Zm15.224-4.07c2.806-.947,3.261,3.1,1.033,3.1a1.93,1.93,0,0,1-1.263-.259,2.985,2.985,0,0,1-.591-1.83Zm15.131-4.046a2.514,2.514,0,0,1,1.913.085,3.162,3.162,0,0,1,.616,1.923c-.694.971-2.1,1.731-2.977.4C336.822,3877.851,337.639,3877.008,338.093,3876.452Zm15.224-4.071c1.024-.314,1.621-.171,2.106.432a1.832,1.832,0,0,1,.152,2.047,1.932,1.932,0,0,1-1.621.632c-.744-.075-1.2-.5-1.47-1.4A2.512,2.512,0,0,1,353.316,3872.38Zm15.224-4.072c2.028-.666,3.3,1.678,1.843,2.79a1.614,1.614,0,0,1-2.242-.2c-.162-.355-.323-.709-.484-1.064A2.666,2.666,0,0,1,368.54,3868.309Zm15.131-4.046c.846-.266,1.415-.251,1.845.2a1.9,1.9,0,0,1,.684,1.8,2.161,2.161,0,0,1-1.986,1.127,1.855,1.855,0,0,1-.992-.728C382.378,3865.64,383.213,3864.826,383.671,3864.263Zm15.224-4.071,1.349-.162a1.9,1.9,0,0,1,.519,3.043,2.485,2.485,0,0,1-2.1-.034,3.05,3.05,0,0,1-.591-1.831Zm15.224-4.07a2.329,2.329,0,0,1,1.82.109c.987,1.338.594,2.107-.391,2.99a1.7,1.7,0,0,1-1.827-.507l-.485-1.064A2.474,2.474,0,0,1,414.119,3856.122Zm15.131-4.046,1.349-.163a2.283,2.283,0,0,1,1.216,1.566c-.125.957-1.042,2.25-2.257,1.6a1.321,1.321,0,0,1-1.048-1.312C428.388,3852.866,428.779,3852.611,429.25,3852.075ZM444.474,3848c1.4-.4,1.713.075,2.416.847a1.626,1.626,0,0,1-.344,1.684,1.3,1.3,0,0,1-1.039.575,1.943,1.943,0,0,1-1.264-.259,2.992,2.992,0,0,1-.591-1.83Zm15.131-4.045a2.514,2.514,0,0,1,1.913.085,3.163,3.163,0,0,1,.616,1.924c-.309.419-.716,1.119-1.4,1.071a1.422,1.422,0,0,1-1.574-.673C458.335,3845.358,459.151,3844.515,459.6,3843.958Zm-163.1,59.924c.442-.085.883-.171,1.325-.254a2.2,2.2,0,0,1,.992.729,1.561,1.561,0,0,1-.38,2.29,2,2,0,0,1-1.981.033,3.161,3.161,0,0,1-.616-1.922Q296.176,3904.318,296.507,3903.882Zm15.224-4.072a2.508,2.508,0,0,1,2.006.061c.5.745.922,1.667.227,2.327a1.9,1.9,0,0,1-1.807.682,2.135,2.135,0,0,1-1.13-1.985Zm15.224-4.071c1.211-.412,2.638-.019,2.516,1.218a1.342,1.342,0,0,1-.512,1.429,1.522,1.522,0,0,1-2.074.056c-.865-.48-.675-1.594-.412-2.276C326.633,3896.024,326.794,3895.883,326.955,3895.74Zm15.131-4.046c1.07-.346,1.669-.309,2.174.316a1.877,1.877,0,0,1,.177,2.139c-.512.359-1.208.829-1.856.5a1.14,1.14,0,0,1-.849-.569C341.049,3893,341.592,3892.335,342.086,3891.693Zm15.224-4.07a2.511,2.511,0,0,1,2.006.061,2.991,2.991,0,0,1,.591,1.83,2.231,2.231,0,0,1-2.171,1.177c-.764-.542-1.785-1.78-.722-2.69Zm15.131-4.045,1.324-.256a2.2,2.2,0,0,1,.992.73,1.56,1.56,0,0,1-.38,2.289,1.688,1.688,0,1,1-1.936-2.763Zm15.224-4.072c1.19-.381,1.782-.259,2.316.475a2,2,0,0,1,.034,1.98C387.776,3883.542,386.282,3881.256,387.664,3879.506Zm15.224-4.071a1.952,1.952,0,0,1,1.467-.093c.59.11.919.545,1.141,1.286a1.849,1.849,0,0,1-.6,1.455,2.088,2.088,0,0,1-1.578.422,1.993,1.993,0,0,1-.908-2.642C402.567,3875.721,402.727,3875.577,402.888,3875.435Zm15.131-4.045,1.324-.254a2.21,2.21,0,0,1,.992.728c1.531,1.756-1.546,3.49-2.672,1.909a2.785,2.785,0,0,1-.306-1.51Zm15.224-4.071c1.77-.622,3.6,1.16,2.233,2.387a1.9,1.9,0,0,1-1.807.683,2.134,2.134,0,0,1-1.13-1.985Zm15.224-4.07q.616-.118,1.232-.23c.513.247,1.362.633,1.284,1.447a1.341,1.341,0,0,1-.511,1.429,1.524,1.524,0,0,1-2.074.058c-.865-.481-.675-1.594-.412-2.276C448.145,3863.531,448.306,3863.39,448.467,3863.248ZM463.6,3859.2c1.07-.346,1.669-.308,2.174.314.162.354.323.71.485,1.064q-.154.539-.308,1.076C463.71,3863.236,462.216,3860.952,463.6,3859.2Zm-162.844,59.757c1.664-.536,3.4,1.323,2.072,2.528a1.65,1.65,0,0,1-1.621.633C299.577,3921.549,299.786,3919.952,300.754,3918.958Zm15.224-4.071,1.256-.138c1.04.7,1.7,2.074.519,3.044a1.641,1.641,0,0,1-2.609-1.192C315.016,3915.648,315.449,3915.439,315.978,3914.887Zm15.224-4.072a2.355,2.355,0,0,1,1.845.2l.6,1.131c-.212.944-.282,1.507-1.483,1.888a1.913,1.913,0,0,1-1.6-.766,2.552,2.552,0,0,1-.281-1.417Zm15.131-4.045c1.391-.413,2.174.073,2.5,1.521a1.865,1.865,0,0,1-2.14,1.665,2.947,2.947,0,0,1-.9-.753,1.464,1.464,0,0,1-.188-1.442C345.711,3907.262,346.005,3907.129,346.333,3906.77Zm15.224-4.071a2.358,2.358,0,0,1,1.845.2,2.191,2.191,0,0,1,.251,2.419,2.214,2.214,0,0,1-2.421.25,2.191,2.191,0,0,1-.251-2.419Zm15.131-4.046a2.074,2.074,0,0,1,2.223.5c.486,1.479.185,2.3-1.166,2.7a1.849,1.849,0,0,1-1.456-.6,2.091,2.091,0,0,1-.423-1.578Zm15.224-4.072c.419-.043.838-.091,1.257-.136a2.239,2.239,0,0,1,1.18,2.171c-.679.951-2.032,1.752-2.952.492l-.324-1.207C391.155,3895.213,391.473,3895.051,391.911,3894.581Zm15.224-4.07a2.36,2.36,0,0,1,1.845.2,2.192,2.192,0,0,1,.251,2.419l-1.132.6c-1.612-.126-2.134-1.361-1.54-2.771Zm15.131-4.045c1.986-.638,3.327,1.684,1.843,2.789a1.788,1.788,0,0,1-1.393.372C421.09,3889.056,421.3,3887.458,422.266,3886.465Zm15.224-4.071,1.257-.138a2.241,2.241,0,0,1,1.18,2.172c-.68.978-3.494,1.909-3.27-.319C436.528,3883.157,436.961,3882.945,437.49,3882.394Zm15.224-4.071a2.352,2.352,0,0,1,1.846.2,2.032,2.032,0,0,1,.516,1.552c-.075.743-.5,1.2-1.4,1.467a1.918,1.918,0,0,1-1.6-.766,2.55,2.55,0,0,1-.281-1.416Zm15.131-4.046c1.391-.413,2.174.074,2.5,1.52-.219,1.3-1.113,1.742-2.468,1.556-.46-.445-1.168-1.282-.759-2.085C467.223,3874.768,467.518,3874.637,467.845,3874.276Zm-163.326,58.333a3.366,3.366,0,0,1,1.492,0c.46.444,1.168,1.281.759,2.084-.1.5-.4.7-.822,1.015-1.328.379-2.1-.14-2.4-1.546A2.685,2.685,0,0,1,304.519,3932.609Zm15.224-4.071a1.733,1.733,0,0,1,2.063.641,2.551,2.551,0,0,1,.281,1.417C320.3,3933.153,317.382,3930.574,319.742,3928.539Zm15.131-4.046a1.773,1.773,0,0,1,2.448,1.334l-.351,1.288a3.042,3.042,0,0,1-1.832.588C333.76,3926.713,333.734,3925.657,334.873,3924.492Zm15.224-4.072c.357-.027.714-.058,1.071-.087,1.392.458,2.02,3.349-.292,3.36C348.855,3923.7,348.962,3921.387,350.1,3920.42Zm15.224-4.069a2.322,2.322,0,0,1,1.752.226,1.72,1.72,0,1,1-2.169,2.669C364.027,3917.933,364.327,3917.239,365.321,3916.351Zm15.131-4.047a1.689,1.689,0,0,1,2.038.549c.108.4.216.8.324,1.208-.09,1.027-.954,1.485-2.1,1.454a2.236,2.236,0,0,1-1.18-2.17Zm15.224-4.071a1.689,1.689,0,0,1,1.92.481,2.088,2.088,0,0,1,.423,1.577,1.992,1.992,0,0,1-2.642.906l-.4-.39C394.505,3909.293,394.861,3908.986,395.676,3908.233Zm15.131-4.046a2.459,2.459,0,0,1,1.846.2c.2.376.4.755.6,1.132-.126,1.609-1.361,2.132-2.771,1.537a2.191,2.191,0,0,1-.251-2.419Zm15.224-4.07,1.164-.113a2.949,2.949,0,0,1,.9.755,1.462,1.462,0,0,1,.188,1.441c-.1.5-.4.7-.822,1.015-1.328.379-2.1-.139-2.4-1.544A2.684,2.684,0,0,1,426.031,3900.117Zm15.224-4.072a1.685,1.685,0,0,1,1.92.48,2.094,2.094,0,0,1,.424,1.579c-.2.251-.4.5-.593.755C441.437,3900.437,439.108,3897.867,441.255,3896.045ZM456.386,3892a2.107,2.107,0,0,1,2.131.524,2.441,2.441,0,0,1-.034,2.1,3,3,0,0,1-1.832.589C455.273,3894.219,455.246,3893.164,456.386,3892Zm15.224-4.072,1.071-.086c1.392.458,2.019,3.349-.292,3.361C470.371,3891.21,470.466,3888.9,471.609,3887.927Zm-163.191,59.949c1-.315,1.6-.241,2.081.34.17.385.34.771.51,1.155a1.709,1.709,0,0,1-.747,1.294,1.529,1.529,0,0,1-2.149-.221l-.485-1.064A2.945,2.945,0,0,1,308.419,3947.875Zm15.224-4.07c.846-.266,1.415-.251,1.845.2.865.481.675,1.6.412,2.277l-.389.4c-1.246.43-2.731.081-2.609-1.191C322.779,3944.6,323.157,3944.333,323.643,3943.805Zm15.224-4.07,1.349-.163a2.132,2.132,0,0,1,1.13,1.986,1.71,1.71,0,0,1-.729.99,1.875,1.875,0,0,1-1.981.034A1.9,1.9,0,0,1,338.866,3939.735ZM354,3935.689a2.434,2.434,0,0,1,1.913.084l.31.415a2.783,2.783,0,0,1,.306,1.509l-.686.781a1.557,1.557,0,0,1-2.291-.384,1.463,1.463,0,0,1-.188-1.441C353.454,3936.168,353.7,3936.042,354,3935.689Zm15.224-4.072,1.349-.161a1.992,1.992,0,0,1,.908,2.641l-.414.311a1.689,1.689,0,0,1-1.535.211c-.59-.111-.919-.545-1.141-1.285A2.512,2.512,0,0,1,369.221,3931.617Zm15.131-4.045c1.094-.346,1.745-.212,2.224.5a1.641,1.641,0,1,1-2.672,1.907C383.211,3928.871,383.824,3928.218,384.352,3927.572Zm15.224-4.072a2.436,2.436,0,0,1,1.913.085c1.728,2.41-1.2,4.126-2.361,2.323C398.3,3924.9,399.088,3924.039,399.576,3923.5Zm15.224-4.071q.675-.081,1.35-.162c.951.679,1.755,2.033.494,2.951a2.093,2.093,0,0,1-2.074.058,2.993,2.993,0,0,1-.591-1.832Zm15.131-4.047c1.116-.348,1.718-.192,2.224.5a1.565,1.565,0,0,1-.38,2.29,1.529,1.529,0,0,1-2.149-.221C428.634,3917.009,429.432,3915.989,429.931,3915.382Zm15.224-4.069c.846-.268,1.416-.252,1.845.2.865.481.675,1.594.412,2.277l-.389.4c-1.246.429-2.731.083-2.609-1.191C444.291,3912.106,444.669,3911.841,445.155,3911.313Zm15.224-4.072,1.349-.161a2.128,2.128,0,0,1,1.13,1.984,1.722,1.722,0,0,1-1.843,1.289C459.134,3910.188,459.484,3908.161,460.379,3907.242Zm15.131-4.045a2.427,2.427,0,0,1,1.913.085,3.159,3.159,0,0,1,.616,1.923l-.686.78a1.556,1.556,0,0,1-2.291-.382C474.231,3904.595,475.022,3903.734,475.51,3903.2ZM312.851,3962.9a1.714,1.714,0,0,1,1.877.692,1.87,1.87,0,0,1,.034,1.98,2.315,2.315,0,0,1-2.4.342,3.165,3.165,0,0,1-.616-1.924A9.567,9.567,0,0,1,312.851,3962.9Zm15.131-4.045a2.757,2.757,0,0,1,1.66.252,2.994,2.994,0,0,1,.591,1.832c-1,1.4-2.111,1.431-3.238.169a1.624,1.624,0,0,1,.344-1.683Zm15.224-4.071a2.265,2.265,0,0,1,1.945.575l.224.833a1.453,1.453,0,0,1-.672,1.573,2.556,2.556,0,0,1-1.417.279,2,2,0,0,1-.84-2.758Zm15.131-4.045a1.74,1.74,0,0,1,1.827.505c.161.355.323.708.485,1.064q-.154.538-.308,1.077-.659.327-1.318.651C357,3953.74,357.058,3951.853,358.337,3950.74Zm15.224-4.071a2.853,2.853,0,0,1,1.66.252,3.05,3.05,0,0,1,.591,1.831,2.236,2.236,0,0,1-2.171,1.177,1.905,1.905,0,0,1-.519-3.044Zm15.224-4.072a1.684,1.684,0,0,1,1.877.693c.971,1.144-.009,2.334-1.191,2.605-1.2-.11-1.819-.77-1.786-2.208A9.616,9.616,0,0,1,388.785,3942.6Zm15.131-4.045a1.735,1.735,0,0,1,1.827.507q.242.53.485,1.063c-.156.919-.462,1.453-1.718,1.753-.561-.193-.917-.214-1.295-.748C402.278,3939.99,403.277,3939.1,403.916,3938.551Zm15.224-4.071a1.764,1.764,0,0,1,2.262,1.384,1.851,1.851,0,0,1-.6,1.456,2.092,2.092,0,0,1-1.578.42l-.756-.592a1.865,1.865,0,0,1-.084-2.167Zm15.224-4.072a1.715,1.715,0,0,1,1.877.692,1.87,1.87,0,0,1,.034,1.98,2.319,2.319,0,0,1-2.4.343,3.168,3.168,0,0,1-.616-1.924A9.714,9.714,0,0,1,434.363,3930.409Zm15.131-4.046c1.151-.205,2.735.558,2.251,2.085-.554,1.749-2.405,1.137-3.238.169a1.624,1.624,0,0,1,.344-1.683Zm15.224-4.07a1.6,1.6,0,0,1,1.592.37,1.216,1.216,0,0,1,.577,1.039,1.452,1.452,0,0,1-.672,1.573,2.539,2.539,0,0,1-1.417.279,2,2,0,0,1-.84-2.758Zm15.131-4.046a1.736,1.736,0,0,1,1.827.507q.242.53.485,1.062l-.308,1.078-1.318.651C478.513,3921.247,478.57,3919.359,479.849,3918.247Zm-163.034,60.9,1.442-.187.781.687a1.553,1.553,0,0,1-.38,2.289,2.393,2.393,0,0,1-1.51.3l-.781-.686a1.526,1.526,0,0,1-.188-1.441C316.271,3979.628,316.515,3979.5,316.815,3979.148Zm15.131-4.047a2.677,2.677,0,0,1,1.889-.007,2.236,2.236,0,0,1,.462,2.462c-1.337.986-2.107.592-2.991-.393A2.185,2.185,0,0,1,331.946,3975.1Zm15.224-4.07,1.232-.229a4.868,4.868,0,0,1,1.277,1.05,1.712,1.712,0,0,1-.666,1.969,1.874,1.874,0,0,1-1.981.032A1.975,1.975,0,0,1,347.17,3971.03Zm15.224-4.07c1.116-.35,1.718-.193,2.224.5a1.578,1.578,0,0,1-.219,2.146l-1.157.509a1.717,1.717,0,0,1-1.3-.748C361.119,3968.367,361.891,3967.487,362.393,3966.96Zm15.131-4.046c.9-.295,1.484-.3,1.938.178.873.486.659,1.585.412,2.276a4.079,4.079,0,0,1-1.41.675,1.814,1.814,0,0,1-1.27-.655,2,2,0,0,1-.4-1.484Zm15.224-4.071,1.442-.187.781.686a1.554,1.554,0,0,1-.38,2.29,1.871,1.871,0,0,1-1.981.032,3.865,3.865,0,0,1-.652-1.317A2.661,2.661,0,0,1,392.748,3958.843Zm15.224-4.072a2.376,2.376,0,0,1,1.914.086,3.85,3.85,0,0,1,.652,1.316c-.182,1.366-2.046,2.5-3.013,1.006C406.7,3956.179,407.469,3955.3,407.972,3954.771Zm15.131-4.046c1.087-.344,1.69-.227,2.2.406a2.012,2.012,0,0,1,.4,1.486,2.083,2.083,0,0,1-2.618,1,2.547,2.547,0,0,1-.6-2.228Q422.794,3951.057,423.1,3950.726Zm15.224-4.071,1.442-.187.781.686a1.553,1.553,0,0,1-.38,2.29,2.411,2.411,0,0,1-1.51.305l-.781-.686a1.526,1.526,0,0,1-.188-1.442C437.784,3947.133,438.027,3947.007,438.327,3946.655Zm15.131-4.046a2.56,2.56,0,0,1,2.006.061,2.326,2.326,0,0,1,.344,2.394c-1.337.984-2.108.592-2.991-.394A2.182,2.182,0,0,1,453.458,3942.608Zm15.224-4.07q.616-.117,1.232-.231a4.826,4.826,0,0,1,1.277,1.052,1.709,1.709,0,0,1-.666,1.967,1.872,1.872,0,0,1-1.981.033A1.974,1.974,0,0,1,468.682,3938.539Zm15.224-4.071c1.116-.349,1.718-.193,2.223.5a1.577,1.577,0,0,1-.219,2.145l-1.157.509a1.713,1.713,0,0,1-1.3-.747C482.631,3935.874,483.4,3935,483.906,3934.467Zm-162.844,59.756,1.164-.113a2.955,2.955,0,0,1,.9.754,1.872,1.872,0,0,1,.034,1.981c-1.263.863-2.635.844-3.048-.977q.018-.3.036-.607Zm15.224-4.071a1.733,1.733,0,0,1,2.063.642,2.546,2.546,0,0,1,.281,1.415C336.848,3994.768,333.926,3992.188,336.285,3990.153Zm15.224-4.072a2.1,2.1,0,0,1,2.038.55c.616,1.625-.078,2.728-1.865,2.686C350.282,3988.313,350.248,3987.207,351.509,3986.081Zm15.131-4.046,1.071-.087c1.392.457,2.02,3.349-.292,3.359C365.4,3985.318,365.505,3983,366.64,3982.035Zm15.224-4.071a2.46,2.46,0,0,1,1.752.229,2.1,2.1,0,0,1,.023,2.679,2.39,2.39,0,0,1-2.192-.011C380.57,3979.547,380.87,3978.854,381.864,3977.964ZM397,3973.917a1.69,1.69,0,0,1,2.038.55q.162.6.324,1.206c-.09,1.029-.954,1.487-2.1,1.456a2.238,2.238,0,0,1-1.18-2.17Q396.538,3974.438,397,3973.917Zm15.224-4.069a1.686,1.686,0,0,1,1.92.481,2.088,2.088,0,0,1,.424,1.577,1.994,1.994,0,0,1-2.642.906l-.4-.39C411.048,3970.907,411.4,3970.6,412.219,3969.848Zm15.224-4.072a2.459,2.459,0,0,1,1.753.227q.3.567.6,1.133c-.059.9-.845,2.381-2.114,1.759-.572-.1-.784-.419-1.135-.89C426.246,3966.752,426.724,3966.43,427.443,3965.776Zm15.131-4.045,1.164-.113a2.961,2.961,0,0,1,.9.754,1.463,1.463,0,0,1,.188,1.441c-.1.5-.4.7-.822,1.016-1.328.378-2.1-.141-2.4-1.544A2.678,2.678,0,0,1,442.574,3961.731Zm15.224-4.071a1.758,1.758,0,0,1,2.063.641,2.556,2.556,0,0,1,.281,1.417C458.36,3962.275,455.438,3959.7,457.8,3957.66Zm15.131-4.047a2.108,2.108,0,0,1,2.131.525c.617,1.625-.078,2.728-1.865,2.686C471.816,3955.834,471.789,3954.779,472.929,3953.613Zm15.224-4.07a1.685,1.685,0,0,1,1.92.481l.485,1.064a1.821,1.821,0,0,1-2.7,1.419A1.9,1.9,0,0,1,488.153,3949.542Zm-163.191,59.948a2.436,2.436,0,0,1,1.913.085c.714.942.9,2.062-.07,2.7a1.53,1.53,0,0,1-2.149-.22l-.485-1.065A2.934,2.934,0,0,1,324.962,4009.491Zm15.224-4.071c.846-.266,1.415-.252,1.845.2,1,.52.756,2.209.023,2.678-1.18.754-2.74-.149-2.608-1.193C339.322,4006.214,339.7,4005.949,340.186,4005.42Zm15.224-4.071,1.35-.162a2.133,2.133,0,0,1,1.13,1.986,1.709,1.709,0,0,1-1.843,1.288c-1.029-.091-1.488-.955-1.458-2.1Zm15.131-4.047a2.436,2.436,0,0,1,1.913.086l.31.413a2.787,2.787,0,0,1,.306,1.511l-.686.779a1.556,1.556,0,0,1-2.291-.381C369.27,3998.7,370.087,3997.861,370.54,3997.3Zm15.224-4.07,1.349-.162a1.993,1.993,0,0,1,.908,2.641l-.414.31a1.691,1.691,0,0,1-1.535.21c-.59-.11-.919-.544-1.141-1.285A2.507,2.507,0,0,1,385.765,3993.232Zm15.224-4.071c2.081-.691,3.334,1.8,1.751,2.814a1.565,1.565,0,0,1-2.291-.382C399.74,3990.463,400.385,3989.79,400.988,3989.162Zm15.131-4.046c1.4-.437,2.241-.021,2.565,1.4-.145,1.449-2.027,2.423-3.014,1.006C414.84,3986.514,415.631,3985.652,416.119,3985.115Zm15.224-4.072,1.349-.161c.952.679,1.754,2.033.494,2.951a2.1,2.1,0,0,1-2.074.057,2.994,2.994,0,0,1-.591-1.831Q430.932,3981.553,431.343,3981.043ZM446.474,3977a2.436,2.436,0,0,1,1.913.085c.714.943.9,2.063-.07,2.7a1.53,1.53,0,0,1-2.149-.221l-.485-1.064A2.938,2.938,0,0,1,446.474,3977Zm15.224-4.071c.846-.266,1.415-.252,1.845.2.393.227.556.543.72,1.2a1.73,1.73,0,0,1-.722,1.384,1.583,1.583,0,0,1-2.583-1.1C460.834,3973.722,461.212,3973.456,461.7,3972.927Zm15.224-4.071,1.349-.162a2.133,2.133,0,0,1,1.13,1.985,1.714,1.714,0,0,1-.729.991,1.813,1.813,0,0,1-1.981.032A1.9,1.9,0,0,1,476.922,3968.856Zm15.131-4.045a2.424,2.424,0,0,1,1.913.085,3.16,3.16,0,0,1,.616,1.924l-.686.78a1.556,1.556,0,0,1-2.291-.383C490.783,3966.211,491.6,3965.368,492.053,3964.811Z" transform="translate(-278.803 -3796.897)" fill="#fe5948" stroke="#061a3a" stroke-width="1"/>
</svg>
