<svg xmlns="http://www.w3.org/2000/svg" width="16" height="13" viewBox="0 0 16 13">
  <path id="Path_5" data-name="Path 5" d="M28,15.5a5.918,5.918,0,0,1-1.9.5,2.827,2.827,0,0,0,1.4-1.8,6.561,6.561,0,0,1-2.1.8A3.492,3.492,0,0,0,23,14a3.311,3.311,0,0,0-3.2,3.3,1.483,1.483,0,0,0,.1.7,9.2,9.2,0,0,1-6.8-3.4,3.064,3.064,0,0,0-.4,1.7A3.282,3.282,0,0,0,14.2,19a4.191,4.191,0,0,1-1.5-.4,3.228,3.228,0,0,0,2.6,3.2,2.769,2.769,0,0,1-.9.1,1.268,1.268,0,0,1-.6-.1,3.24,3.24,0,0,0,3.1,2.3,6.359,6.359,0,0,1-4.1,1.4H12A9.757,9.757,0,0,0,17,27a9.256,9.256,0,0,0,9.3-9.3v-.4A5.814,5.814,0,0,0,28,15.5Z" transform="translate(-12 -14)" fill="#1d293f"/>
</svg>
