<svg xmlns="http://www.w3.org/2000/svg" width="195.388" height="107.719" viewBox="0 0 195.388 107.719">
  <g id="Group_11718" data-name="Group 11718" transform="translate(0 0)">
    <g id="Group_11019" data-name="Group 11019" transform="translate(0 11.899)">
      <path id="Path_10573" data-name="Path 10573" d="M1227.756,651.893h-71.95a5.862,5.862,0,0,0-5.861,5.862h0a5.861,5.861,0,0,0,5.861,5.861h19.763a3.365,3.365,0,0,0,3.365,3.366h7.718a5.314,5.314,0,0,1,5.313,5.314h0a5.313,5.313,0,0,1-5.313,5.314h-51.466a6.083,6.083,0,0,0-6.083,6.083h0a6.082,6.082,0,0,0,6.071,6.082l34.06.038a5.256,5.256,0,0,1,5.25,5.256h0a5.256,5.256,0,0,1-5.256,5.255h-18.3a7.056,7.056,0,0,0-7.055,7.056h0a7.056,7.056,0,0,0,7.055,7.056h5.752a8.484,8.484,0,0,1,8.484,8.484v24.053h120.169v-36.9h31.777a5.172,5.172,0,0,0,5.171-5.171v-.134a5.331,5.331,0,0,0-5.325-5.357h-26.81a4.813,4.813,0,0,1-4.813-4.816h0a4.817,4.817,0,0,1,4.83-4.816l3.934.01a12.336,12.336,0,0,0,12.367-12.336v-2.018H1272.88a5.8,5.8,0,0,1-5.8-5.8h0a5.8,5.8,0,0,1,5.8-5.8h45.639a5.972,5.972,0,0,0,5.971-5.971h0a5.972,5.972,0,0,0-5.971-5.972Z" transform="translate(-1129.103 -651.893)" fill="#f7eded"/>
    </g>
    <g id="Group_11041" data-name="Group 11041" transform="translate(29.057 46.149)">
      <g id="Group_11023" data-name="Group 11023" transform="translate(30.611 12.632)">
        <g id="Group_11020" data-name="Group 11020" transform="translate(0 0.365)">
          <rect id="Rectangle_5025" data-name="Rectangle 5025" width="24.35" height="24.35" rx="1.064" transform="translate(7.32 0) rotate(17.495)" fill="#fff"/>
        </g>
        <g id="Group_11021" data-name="Group 11021" transform="translate(4.021 3.94)">
          <rect id="Rectangle_5026" data-name="Rectangle 5026" width="18.194" height="17.131" transform="translate(5.15 0) rotate(17.495)" fill="#f4a698"/>
        </g>
        <g id="Group_11022" data-name="Group 11022" transform="translate(4.118)">
          <path id="Path_10574" data-name="Path 10574" d="M1215.994,722.527l-1.413-.445,4.365-13.847a.75.75,0,0,0-.488-.939l-20.386-6.425a.746.746,0,0,0-.937.488l-2.048,6.5-1.413-.446,2.048-6.5a2.229,2.229,0,0,1,2.8-1.454l20.386,6.426a2.231,2.231,0,0,1,1.455,2.8Z" transform="translate(-1193.675 -699.352)" fill="#414042"/>
        </g>
      </g>
      <g id="Group_11030" data-name="Group 11030" transform="translate(0 13.662)">
        <g id="Group_11024" data-name="Group 11024" transform="translate(0.519 0.519)">
          <rect id="Rectangle_5027" data-name="Rectangle 5027" width="26.321" height="18.51" rx="1.556" transform="translate(0 5.777) rotate(-12.678)" fill="#ff6846"/>
        </g>
        <g id="Group_11025" data-name="Group 11025" transform="translate(0.518 0.518)">
          <path id="Path_10575" data-name="Path 10575" d="M1184.723,700.919l-10.357,11.421a.956.956,0,0,1-1.072.241l-14.25-5.885Z" transform="translate(-1159.043 -700.919)" fill="#f4a698"/>
        </g>
        <g id="Group_11026" data-name="Group 11026" transform="translate(0.509 0.384)">
          <path id="Path_10576" data-name="Path 10576" d="M1173.655,713.392a1.683,1.683,0,0,1-.643-.127l-13.979-5.772.565-1.37,13.978,5.772a.217.217,0,0,0,.24-.054l10.029-11.057,1.1,1-10.028,11.057A1.7,1.7,0,0,1,1173.655,713.392Z" transform="translate(-1159.033 -700.783)" fill="#414042"/>
        </g>
        <g id="Group_11027" data-name="Group 11027" transform="translate(0 4.781)">
          <path id="Path_10577" data-name="Path 10577" d="M1161.875,722.742l-3.31-14.717a1.886,1.886,0,0,1,1.423-2.25l2.406-.541.325,1.445-2.405.541a.4.4,0,0,0-.3.479l3.31,14.717Z" transform="translate(-1158.518 -705.234)" fill="#414042"/>
        </g>
        <g id="Group_11028" data-name="Group 11028" transform="translate(10.137)">
          <path id="Path_10578" data-name="Path 10578" d="M1185.632,707.81l-1.263-5.619a.409.409,0,0,0-.48-.305l-14.784,3.326-.325-1.445,14.785-3.326a1.886,1.886,0,0,1,2.249,1.424l1.264,5.619Z" transform="translate(-1168.78 -700.394)" fill="#414042"/>
        </g>
        <g id="Group_11029" data-name="Group 11029" transform="translate(5.901 3.704)">
          <rect id="Rectangle_5028" data-name="Rectangle 5028" width="2.832" height="1.481" transform="matrix(0.976, -0.219, 0.219, 0.976, 0, 0.622)" fill="#414042"/>
        </g>
      </g>
      <g id="Group_11031" data-name="Group 11031" transform="translate(1.711 23.563)">
        <path id="Path_10579" data-name="Path 10579" d="M1213.124,725.071h-.233a8.5,8.5,0,0,0-12.762-4.787,11.644,11.644,0,0,0-22.627-1.676,7.968,7.968,0,0,0-9.973,6.463h-1.3a5.992,5.992,0,0,0-5.974,5.974v.44a5.992,5.992,0,0,0,5.974,5.974h46.9a5.992,5.992,0,0,0,5.974-5.974v-.44A5.992,5.992,0,0,0,1213.124,725.071Z" transform="translate(-1160.25 -710.418)" fill="#fff"/>
      </g>
      <g id="Group_11032" data-name="Group 11032" transform="translate(0.97 22.823)">
        <path id="Path_10580" data-name="Path 10580" d="M1219.83,731.477h-1.482v-.439a5.239,5.239,0,0,0-5.234-5.235h-.79l-.155-.534a7.757,7.757,0,0,0-11.65-4.37l-.959.616-.174-1.127a10.9,10.9,0,0,0-21.187-1.569l-.213.682-.689-.188a7.3,7.3,0,0,0-1.886-.256,7.219,7.219,0,0,0-7.163,6.12l-.1.625h-1.936a5.24,5.24,0,0,0-5.233,5.235v.439H1159.5v-.439a6.724,6.724,0,0,1,6.715-6.716h.694a8.69,8.69,0,0,1,8.5-6.745,8.487,8.487,0,0,1,1.593.152,12.386,12.386,0,0,1,23.642,1.4,9.2,9.2,0,0,1,4.062-.944,9.3,9.3,0,0,1,8.712,6.145,6.724,6.724,0,0,1,6.408,6.71Z" transform="translate(-1159.5 -709.668)" fill="#414042"/>
      </g>
      <g id="Group_11033" data-name="Group 11033" transform="translate(24.216 27.32)">
        <path id="Path_10581" data-name="Path 10581" d="M1195.872,719.789a8.966,8.966,0,0,0-12.084-2.839l-.756-1.273a10.444,10.444,0,0,1,14.083,3.306Z" transform="translate(-1183.032 -714.221)" fill="#414042"/>
      </g>
      <g id="Group_11034" data-name="Group 11034" transform="translate(17.032 30.697)">
        <path id="Path_10582" data-name="Path 10582" d="M1180.648,722.527h-1.482a3.409,3.409,0,0,0-3.406-3.406v-1.482A4.892,4.892,0,0,1,1180.648,722.527Z" transform="translate(-1175.76 -717.639)" fill="#414042"/>
      </g>
      <g id="Group_11040" data-name="Group 11040" transform="translate(24.948)">
        <g id="Group_11035" data-name="Group 11035" transform="translate(0.741 7.559)">
          <path id="Path_10583" data-name="Path 10583" d="M1189.154,695.46c.153.879-.758,1.771-2.032,1.991s-2.43-.314-2.582-1.193.758-1.772,2.032-1.992S1189,694.581,1189.154,695.46Z" transform="translate(-1184.523 -694.216)" fill="#fff"/>
        </g>
        <g id="Group_11036" data-name="Group 11036" transform="translate(0 6.817)">
          <path id="Path_10584" data-name="Path 10584" d="M1186.534,698.233a2.561,2.561,0,0,1-2.733-1.859,2.155,2.155,0,0,1,.693-1.9,3.685,3.685,0,0,1,1.944-.949c1.7-.292,3.213.5,3.438,1.8h0a2.149,2.149,0,0,1-.692,1.9,3.664,3.664,0,0,1-1.943.95A4.139,4.139,0,0,1,1186.534,698.233Zm.6-3.285a2.513,2.513,0,0,0-.445.038,2.224,2.224,0,0,0-1.159.546.762.762,0,0,0-.27.588c.071.406.821.749,1.727.591a2.218,2.218,0,0,0,1.158-.547.763.763,0,0,0,.271-.589h0C1188.356,695.239,1187.827,694.949,1187.134,694.949Z" transform="translate(-1183.773 -693.465)" fill="#414042"/>
        </g>
        <g id="Group_11037" data-name="Group 11037" transform="translate(7.28 7.559)">
          <path id="Path_10585" data-name="Path 10585" d="M1195.776,695.46c.152.879-.759,1.771-2.033,1.991s-2.43-.314-2.583-1.193.759-1.772,2.033-1.992S1195.623,694.581,1195.776,695.46Z" transform="translate(-1191.143 -694.216)" fill="#fff"/>
        </g>
        <g id="Group_11038" data-name="Group 11038" transform="translate(6.54 6.816)">
          <path id="Path_10586" data-name="Path 10586" d="M1193.155,698.233a2.562,2.562,0,0,1-2.733-1.859c-.225-1.3.933-2.554,2.636-2.848s3.214.5,3.439,1.8a2.158,2.158,0,0,1-.693,1.9,3.671,3.671,0,0,1-1.945.95A4.127,4.127,0,0,1,1193.155,698.233Zm.6-3.285a2.509,2.509,0,0,0-.445.039c-.9.155-1.5.727-1.428,1.135s.825.749,1.726.59a2.225,2.225,0,0,0,1.159-.547.763.763,0,0,0,.271-.589h0C1194.978,695.239,1194.449,694.949,1193.755,694.949Z" transform="translate(-1190.394 -693.465)" fill="#414042"/>
        </g>
        <g id="Group_11039" data-name="Group 11039" transform="translate(4.647)">
          <path id="Path_10587" data-name="Path 10587" d="M1196.5,695.558h-1.482v-7.512h-5.059v7.512h-1.482v-8.994h8.022Z" transform="translate(-1188.478 -686.564)" fill="#414042"/>
        </g>
      </g>
    </g>
    <g id="Group_11048" data-name="Group 11048" transform="translate(119.771 69.335)">
      <g id="Group_11042" data-name="Group 11042" transform="translate(0 5.106)">
        <path id="Path_10588" data-name="Path 10588" d="M1295.849,747.709l-.161-28.591a4.178,4.178,0,0,0-4.4-3.913h-40.94l.161,32.537Z" transform="translate(-1250.349 -715.205)" fill="#fff"/>
      </g>
      <g id="Group_11043" data-name="Group 11043" transform="translate(8.443 4.365)">
        <path id="Path_10589" data-name="Path 10589" d="M1295.213,746.378l-.161-26.778a3.664,3.664,0,0,0-3.659-3.663h-32.5v-1.482h32.5a5.146,5.146,0,0,1,5.141,5.14l.161,26.774Z" transform="translate(-1258.896 -714.455)" fill="#414042"/>
      </g>
      <g id="Group_11044" data-name="Group 11044" transform="translate(40.933 0.741)">
        <path id="Path_10590" data-name="Path 10590" d="M1291.786,747.688h4.568V713.947a3.346,3.346,0,0,0-3.506-3.161h-1.062Z" transform="translate(-1291.786 -710.786)" fill="#f4a698"/>
      </g>
      <g id="Group_11045" data-name="Group 11045" transform="translate(40.192)">
        <path id="Path_10591" data-name="Path 10591" d="M1297.086,747.678H1295.6v-33.4a2.769,2.769,0,0,0-2.765-2.765h-.321v36.161h-1.482V710.036h1.8a4.252,4.252,0,0,1,4.247,4.247Z" transform="translate(-1291.036 -710.036)" fill="#414042"/>
      </g>
      <g id="Group_11046" data-name="Group 11046" transform="translate(15.83 11.924)">
        <path id="Path_10592" data-name="Path 10592" d="M1280.22,724.483a8.111,8.111,0,1,1-11.472,0A8.11,8.11,0,0,1,1280.22,724.483Z" transform="translate(-1266.374 -722.107)" fill="#ff6846"/>
      </g>
      <g id="Group_11047" data-name="Group 11047" transform="translate(11.214 15.057)">
        <path id="Path_10593" data-name="Path 10593" d="M1270.04,742.969a8.957,8.957,0,0,1-2.1-.377l.435-1.417a7.382,7.382,0,0,0,1.749.314Zm2.128-.132-.27-1.457a7.374,7.374,0,0,0,1.694-.53l.609,1.35A8.844,8.844,0,0,1,1272.168,742.837Zm-6.174-1.114a8.877,8.877,0,0,1-1.681-1.312l1.045-1.05a7.4,7.4,0,0,0,1.4,1.092Zm10.033-.631-.919-1.164a7.617,7.617,0,0,0,1.256-1.259l1.168.913a8.89,8.89,0,0,1-.719.81A9.231,9.231,0,0,1,1276.027,741.091Zm-13.035-2.354a8.744,8.744,0,0,1-.882-1.942l1.413-.445a7.371,7.371,0,0,0,.735,1.616Zm15.639-.982-1.351-.606a7.343,7.343,0,0,0,.525-1.7l1.458.265A8.816,8.816,0,0,1,1278.631,737.755Zm-16.913-3.055c-.012-.189-.018-.379-.018-.569a8.962,8.962,0,0,1,.137-1.559l1.458.261a7.491,7.491,0,0,0-.114,1.3c0,.159,0,.316.015.475Zm16.19-1.018a7.389,7.389,0,0,0-.319-1.747l1.415-.44a8.89,8.89,0,0,1,.383,2.1Zm-14.093-2.547-1.353-.6a8.814,8.814,0,0,1,1.1-1.831l1.17.911A7.311,7.311,0,0,0,1263.816,731.135Zm13.046-.818a7.342,7.342,0,0,0-1.1-1.4l1.012-1.085.036.037a8.917,8.917,0,0,1,1.317,1.676Zm-10.883-1.966-.921-1.162a8.83,8.83,0,0,1,1.82-1.113l.614,1.348A7.292,7.292,0,0,0,1265.979,728.351Zm8.349-.552a7.319,7.319,0,0,0-1.622-.718l.431-1.417a8.754,8.754,0,0,1,1.951.864Zm-5.144-.911-.275-1.457a8.842,8.842,0,0,1,2.131-.138l-.087,1.48A7.2,7.2,0,0,0,1269.185,726.888Z" transform="translate(-1261.701 -725.278)" fill="#414042"/>
      </g>
    </g>
    <g id="Group_11055" data-name="Group 11055" transform="translate(107.713 8.398)">
      <g id="Group_11049" data-name="Group 11049" transform="translate(0.741 0.742)">
        <path id="Path_10594" data-name="Path 10594" d="M1301.293,666.394h-.277a10.029,10.029,0,0,0-15.06-5.65,13.741,13.741,0,0,0-26.7-1.977,9.4,9.4,0,0,0-11.77,7.627h-1.538a7.072,7.072,0,0,0-7.051,7.051v.519a7.072,7.072,0,0,0,7.051,7.051h55.348a7.071,7.071,0,0,0,7.05-7.051v-.519A7.071,7.071,0,0,0,1301.293,666.394Z" transform="translate(-1238.893 -649.1)" fill="#d2d9e3"/>
      </g>
      <g id="Group_11050" data-name="Group 11050" transform="translate(1.648 4.522)">
        <path id="Path_10595" data-name="Path 10595" d="M1294.818,668.172h-.243a8.842,8.842,0,0,0-13.278-4.981,12.113,12.113,0,0,0-23.54-1.744,8.289,8.289,0,0,0-10.376,6.724h-1.355a6.234,6.234,0,0,0-6.215,6.215v.458a6.234,6.234,0,0,0,6.215,6.215h48.792a6.234,6.234,0,0,0,6.216-6.215v-.458A6.234,6.234,0,0,0,1294.818,668.172Z" transform="translate(-1239.811 -652.927)" fill="#fff"/>
      </g>
      <g id="Group_11051" data-name="Group 11051" transform="translate(27.368 5.309)">
        <path id="Path_10596" data-name="Path 10596" d="M1281.045,660.09A10.71,10.71,0,0,0,1266.6,656.7l-.756-1.275a12.194,12.194,0,0,1,16.44,3.86Z" transform="translate(-1265.848 -653.723)" fill="#414042"/>
      </g>
      <g id="Group_11052" data-name="Group 11052" transform="translate(0 17.295)">
        <path id="Path_10597" data-name="Path 10597" d="M1271.389,681.96h-25.453a7.8,7.8,0,0,1-7.792-7.792v-.519a7.8,7.8,0,0,1,7.792-7.792v1.482a6.318,6.318,0,0,0-6.31,6.31v.519a6.317,6.317,0,0,0,6.31,6.31h25.453Z" transform="translate(-1238.143 -665.857)" fill="#414042"/>
      </g>
      <g id="Group_11053" data-name="Group 11053" transform="translate(11.639)">
        <path id="Path_10598" data-name="Path 10598" d="M1301.427,681.747h-8.441v-1.482h8.441a6.317,6.317,0,0,0,6.309-6.31v-.519a6.318,6.318,0,0,0-6.309-6.31h-.833l-.155-.534a9.289,9.289,0,0,0-13.949-5.234l-.958.616-.174-1.126a13,13,0,0,0-22.79-6.386,13.062,13.062,0,0,0-1.4,2.03,12.906,12.906,0,0,0-1.069,2.485l-.211.682-.689-.186a8.579,8.579,0,0,0-8.248,2.086l-1.021-1.073a10.023,10.023,0,0,1,8.974-2.6,14.483,14.483,0,0,1,27.723,1.693,10.718,10.718,0,0,1,4.885-1.177,10.842,10.842,0,0,1,10.187,7.25,7.8,7.8,0,0,1,7.524,7.787v.519A7.8,7.8,0,0,1,1301.427,681.747Z" transform="translate(-1249.925 -648.349)" fill="#414042"/>
      </g>
      <g id="Group_11054" data-name="Group 11054" transform="translate(18.822 9.294)">
        <path id="Path_10599" data-name="Path 10599" d="M1262.833,663.392h-1.482a4.157,4.157,0,0,0-4.154-4.153v-1.482A5.641,5.641,0,0,1,1262.833,663.392Z" transform="translate(-1257.197 -657.757)" fill="#414042"/>
      </g>
    </g>
    <g id="Group_11058" data-name="Group 11058" transform="translate(185.514 33.004)">
      <g id="Group_11056" data-name="Group 11056" transform="translate(0 2.11)">
        <path id="Path_10600" data-name="Path 10600" d="M1321.866,676.876h-4.223a.741.741,0,1,1,0-1.482h4.223a.741.741,0,0,1,0,1.482Z" transform="translate(-1316.902 -675.394)" fill="#414042"/>
      </g>
      <g id="Group_11057" data-name="Group 11057" transform="translate(2.112)">
        <path id="Path_10601" data-name="Path 10601" d="M1319.781,678.962a.741.741,0,0,1-.741-.741V674a.741.741,0,0,1,1.482,0v4.222A.741.741,0,0,1,1319.781,678.962Z" transform="translate(-1319.04 -673.258)" fill="#414042"/>
      </g>
    </g>
    <g id="Group_11061" data-name="Group 11061" transform="translate(45.211 28.467)">
      <g id="Group_11059" data-name="Group 11059" transform="translate(0 2.112)">
        <path id="Path_10602" data-name="Path 10602" d="M1179.834,672.285h-4.222a.741.741,0,1,1,0-1.482h4.222a.741.741,0,1,1,0,1.482Z" transform="translate(-1174.871 -670.803)" fill="#414042"/>
      </g>
      <g id="Group_11060" data-name="Group 11060" transform="translate(2.111)">
        <path id="Path_10603" data-name="Path 10603" d="M1177.749,674.369a.741.741,0,0,1-.741-.741v-4.222a.741.741,0,0,1,1.482,0v4.222A.741.741,0,0,1,1177.749,674.369Z" transform="translate(-1177.008 -668.665)" fill="#414042"/>
      </g>
    </g>
    <g id="Group_11064" data-name="Group 11064" transform="translate(146.431)">
      <g id="Group_11062" data-name="Group 11062">
        <path id="Path_10604" data-name="Path 10604" d="M1278.078,644.314a.741.741,0,0,1-.524-1.264l2.985-2.985a.741.741,0,0,1,1.047,1.048L1278.6,644.1A.734.734,0,0,1,1278.078,644.314Z" transform="translate(-1277.337 -639.847)" fill="#414042"/>
      </g>
      <g id="Group_11063" data-name="Group 11063">
        <path id="Path_10605" data-name="Path 10605" d="M1281.063,644.314a.734.734,0,0,1-.524-.217l-2.985-2.984a.741.741,0,0,1,1.047-1.048l2.985,2.985a.741.741,0,0,1-.523,1.264Z" transform="translate(-1277.337 -639.847)" fill="#414042"/>
      </g>
    </g>
    <g id="Group_11067" data-name="Group 11067" transform="translate(27.642 51.474)">
      <g id="Group_11065" data-name="Group 11065">
        <path id="Path_10606" data-name="Path 10606" d="M1157.826,696.422a.74.74,0,0,1-.523-1.264l2.986-2.985a.74.74,0,0,1,1.047,1.047l-2.985,2.986A.742.742,0,0,1,1157.826,696.422Z" transform="translate(-1157.085 -691.955)" fill="#414042"/>
      </g>
      <g id="Group_11066" data-name="Group 11066">
        <path id="Path_10607" data-name="Path 10607" d="M1160.812,696.422a.739.739,0,0,1-.524-.216l-2.986-2.986a.741.741,0,0,1,1.048-1.047l2.985,2.985a.74.74,0,0,1-.523,1.264Z" transform="translate(-1157.085 -691.955)" fill="#414042"/>
      </g>
    </g>
    <g id="Group_11068" data-name="Group 11068" transform="translate(76.352 6.936)">
      <rect id="Rectangle_5029" data-name="Rectangle 5029" width="31.601" height="1.482" fill="#414042"/>
    </g>
    <g id="Group_11069" data-name="Group 11069" transform="translate(93.63 1.503)">
      <rect id="Rectangle_5030" data-name="Rectangle 5030" width="50.103" height="1.482" fill="#414042"/>
    </g>
    <g id="Group_11070" data-name="Group 11070" transform="translate(110.423 6.936)">
      <rect id="Rectangle_5031" data-name="Rectangle 5031" width="5.466" height="1.482" fill="#414042"/>
    </g>
    <g id="Group_11071" data-name="Group 11071" transform="translate(167.938 51.075)">
      <rect id="Rectangle_5032" data-name="Rectangle 5032" width="17.184" height="1.482" fill="#414042"/>
    </g>
    <g id="Group_11072" data-name="Group 11072" transform="translate(186.603 51.075)">
      <rect id="Rectangle_5033" data-name="Rectangle 5033" width="3.527" height="1.482" fill="#414042"/>
    </g>
    <g id="Group_11073" data-name="Group 11073" transform="translate(19.672 30.579)">
      <rect id="Rectangle_5034" data-name="Rectangle 5034" width="17.184" height="1.482" fill="#414042"/>
    </g>
    <g id="Group_11074" data-name="Group 11074" transform="translate(38.337 30.579)">
      <rect id="Rectangle_5035" data-name="Rectangle 5035" width="3.527" height="1.482" fill="#414042"/>
    </g>
    <g id="Group_11075" data-name="Group 11075" transform="translate(47.526 8.08)">
      <path id="Path_10608" data-name="Path 10608" d="M1179.333,649.087a1.059,1.059,0,1,1-1.059-1.06A1.06,1.06,0,0,1,1179.333,649.087Z" transform="translate(-1177.214 -648.027)" fill="#414042"/>
    </g>
    <g id="Group_11076" data-name="Group 11076" transform="translate(73.609 39.618)">
      <path id="Path_10609" data-name="Path 10609" d="M1206.28,681.284a1.331,1.331,0,1,1-1.331-1.331A1.33,1.33,0,0,1,1206.28,681.284Z" transform="translate(-1203.619 -679.953)" fill="#414042"/>
    </g>
    <g id="Group_11077" data-name="Group 11077" transform="translate(177.703 10.57)">
      <path id="Path_10610" data-name="Path 10610" d="M1311.655,651.877a1.33,1.33,0,1,1-1.33-1.33A1.33,1.33,0,0,1,1311.655,651.877Z" transform="translate(-1308.995 -650.547)" fill="#414042"/>
    </g>
    <g id="Group_11078" data-name="Group 11078" transform="translate(77.982 61.834)" opacity="0.3">
      <path id="Path_10611" data-name="Path 10611" d="M1219.079,705.921l-11.034-3.478v34.921h5.66a5.992,5.992,0,0,0,5.974-5.974h.741v-.439a6.722,6.722,0,0,0-5.586-6.616l.628-1.992.706.222,4.365-13.847A2.231,2.231,0,0,0,1219.079,705.921Z" transform="translate(-1208.045 -702.443)" fill="#414042"/>
    </g>
    <g id="Group_11079" data-name="Group 11079" transform="translate(119.771 73.7)" opacity="0.3">
      <path id="Path_10612" data-name="Path 10612" d="M1259.4,743.915v-29.46h-.612v.741h-8.443l.161,32.536,6.82,0A4.55,4.55,0,0,0,1259.4,743.915Z" transform="translate(-1250.349 -714.455)" fill="#414042"/>
    </g>
    <g id="Group_11095" data-name="Group 11095" transform="translate(79.957 23.103)">
      <g id="Group_11080" data-name="Group 11080" transform="translate(0.741 0.741)">
        <rect id="Rectangle_5036" data-name="Rectangle 5036" width="44.917" height="83.133" rx="4.915" fill="#6d6e71"/>
      </g>
      <g id="Group_11081" data-name="Group 11081" transform="translate(7.452 0)">
        <rect id="Rectangle_5037" data-name="Rectangle 5037" width="2.847" height="1.482" fill="#414042"/>
      </g>
      <g id="Group_11082" data-name="Group 11082">
        <path id="Path_10613" data-name="Path 10613" d="M1251.886,747.85H1214.6a4.563,4.563,0,0,1-4.558-4.558v-75.5a4.564,4.564,0,0,1,4.558-4.558h1.083v1.482H1214.6a3.08,3.08,0,0,0-3.076,3.076v75.5a3.08,3.08,0,0,0,3.076,3.076h37.283a3.08,3.08,0,0,0,3.076-3.076V707.47h1.481v35.822A4.563,4.563,0,0,1,1251.886,747.85Z" transform="translate(-1210.045 -663.235)" fill="#414042"/>
      </g>
      <g id="Group_11083" data-name="Group 11083" transform="translate(11.677)">
        <path id="Path_10614" data-name="Path 10614" d="M1256.587,670.464h-1.482v-2.671a3.08,3.08,0,0,0-3.076-3.076h-30.163v-1.482h30.163a4.564,4.564,0,0,1,4.558,4.558Z" transform="translate(-1221.866 -663.235)" fill="#414042"/>
      </g>
      <g id="Group_11084" data-name="Group 11084" transform="translate(16.576 5.5)">
        <rect id="Rectangle_5038" data-name="Rectangle 5038" width="13.246" height="1.482" fill="#414042"/>
      </g>
      <g id="Group_11085" data-name="Group 11085" transform="translate(19.568 75.062)">
        <path id="Path_10615" data-name="Path 10615" d="M1233.485,746.484a3.631,3.631,0,1,1,3.631-3.632A3.636,3.636,0,0,1,1233.485,746.484Zm0-5.781a2.15,2.15,0,1,0,2.15,2.148A2.151,2.151,0,0,0,1233.485,740.7Z" transform="translate(-1229.854 -739.222)" fill="#414042"/>
      </g>
      <g id="Group_11086" data-name="Group 11086" transform="translate(3.125 8.949)">
        <rect id="Rectangle_5039" data-name="Rectangle 5039" width="39.588" height="65.226" fill="#fff"/>
      </g>
      <g id="Group_11087" data-name="Group 11087" transform="translate(7.198 62.342)">
        <rect id="Rectangle_5040" data-name="Rectangle 5040" width="7.563" height="7.563" rx="0.389" fill="#ffb936"/>
      </g>
      <g id="Group_11088" data-name="Group 11088" transform="translate(30.194 62.342)">
        <rect id="Rectangle_5041" data-name="Rectangle 5041" width="7.563" height="7.563" rx="0.389" fill="#ffb936"/>
      </g>
      <g id="Group_11089" data-name="Group 11089" transform="translate(7.426 51.202)">
        <rect id="Rectangle_5042" data-name="Rectangle 5042" width="7.563" height="7.563" rx="0.389" fill="#f7eded"/>
      </g>
      <g id="Group_11090" data-name="Group 11090" transform="translate(18.924 51.202)">
        <rect id="Rectangle_5043" data-name="Rectangle 5043" width="7.563" height="7.563" rx="0.389" fill="#bcbec0"/>
      </g>
      <g id="Group_11091" data-name="Group 11091" transform="translate(30.422 51.202)">
        <rect id="Rectangle_5044" data-name="Rectangle 5044" width="7.563" height="7.563" rx="0.389" fill="#f7eded"/>
      </g>
      <g id="Group_11092" data-name="Group 11092" transform="translate(19.152 40.063)">
        <rect id="Rectangle_5045" data-name="Rectangle 5045" width="7.563" height="7.563" rx="0.389" fill="#f4a698"/>
      </g>
      <g id="Group_11093" data-name="Group 11093" transform="translate(7.426 28.954)">
        <rect id="Rectangle_5046" data-name="Rectangle 5046" width="7.563" height="7.563" rx="0.389" fill="#f7eded"/>
      </g>
      <g id="Group_11094" data-name="Group 11094" transform="translate(18.696 17.845)">
        <rect id="Rectangle_5047" data-name="Rectangle 5047" width="7.563" height="7.563" rx="0.389" fill="#bcbec0"/>
      </g>
    </g>
    <g id="Group_11099" data-name="Group 11099" transform="translate(14.278 106.237)">
      <g id="Group_11096" data-name="Group 11096" transform="translate(4.507)">
        <rect id="Rectangle_5048" data-name="Rectangle 5048" width="161.829" height="1.482" fill="#414042"/>
      </g>
      <g id="Group_11097" data-name="Group 11097">
        <rect id="Rectangle_5049" data-name="Rectangle 5049" width="2.706" height="1.482" fill="#414042"/>
      </g>
      <g id="Group_11098" data-name="Group 11098" transform="translate(167.879)">
        <rect id="Rectangle_5050" data-name="Rectangle 5050" width="5.976" height="1.482" fill="#414042"/>
      </g>
    </g>
    <g id="Group_11100" data-name="Group 11100" transform="translate(111.198 33.038)" opacity="0.3">
      <path id="Path_10616" data-name="Path 10616" d="M1249.2,677.577a18.085,18.085,0,0,0-2.7,21.958l-4.726,9.763a1.047,1.047,0,0,0,1.412,1.393l9.709-4.862a17.977,17.977,0,0,0,3.191,1.447V673.292A17.869,17.869,0,0,0,1249.2,677.577Z" transform="translate(-1241.671 -673.292)" fill="#414042"/>
    </g>
    <g id="Group_11114" data-name="Group 11114" transform="translate(111.692 30.578)">
      <g id="Group_11101" data-name="Group 11101" transform="translate(0.74 0.741)">
        <path id="Path_10617" data-name="Path 10617" d="M1274.593,700.961a17.227,17.227,0,1,0-26.738-2.97l-4.9,10.128a.307.307,0,0,0,.413.408l10.072-5.044A17.231,17.231,0,0,0,1274.593,700.961Z" transform="translate(-1242.92 -671.552)" fill="#ff6846"/>
      </g>
      <g id="Group_11102" data-name="Group 11102">
        <path id="Path_10618" data-name="Path 10618" d="M1243.218,709.291a1.049,1.049,0,0,1-.943-1.5l4.727-9.764a18.085,18.085,0,0,1,2.7-21.959,17.966,17.966,0,0,1,25.41,0,18.152,18.152,0,0,1,1.908,2.244l-1.2.864a16.777,16.777,0,0,0-1.751-2.062,16.486,16.486,0,0,0-23.315,0,16.589,16.589,0,0,0-2.274,20.472l.221.348-4.527,9.351,9.3-4.657.35.215a16.432,16.432,0,0,0,20.247-2.413,16.726,16.726,0,0,0,2-2.426l1.227.832a18.216,18.216,0,0,1-2.183,2.641,17.9,17.9,0,0,1-21.712,2.842l-9.709,4.862A1.054,1.054,0,0,1,1243.218,709.291Z" transform="translate(-1242.171 -670.802)" fill="#414042"/>
      </g>
      <g id="Group_11103" data-name="Group 11103" transform="translate(8.176 9.736)">
        <rect id="Rectangle_5051" data-name="Rectangle 5051" width="5.056" height="1.482" fill="#414042"/>
      </g>
      <g id="Group_11104" data-name="Group 11104" transform="translate(14.463 9.736)">
        <rect id="Rectangle_5052" data-name="Rectangle 5052" width="25.632" height="1.482" fill="#414042"/>
      </g>
      <g id="Group_11105" data-name="Group 11105" transform="translate(11.221 13.255)">
        <rect id="Rectangle_5053" data-name="Rectangle 5053" width="9.019" height="1.482" fill="#414042"/>
      </g>
      <g id="Group_11106" data-name="Group 11106" transform="translate(9.21 16.761)">
        <rect id="Rectangle_5054" data-name="Rectangle 5054" width="6.521" height="1.482" fill="#414042"/>
      </g>
      <g id="Group_11107" data-name="Group 11107" transform="translate(17.591 16.761)">
        <rect id="Rectangle_5055" data-name="Rectangle 5055" width="24.012" height="1.482" fill="#414042"/>
      </g>
      <g id="Group_11108" data-name="Group 11108" transform="translate(10.08 20.497)">
        <rect id="Rectangle_5056" data-name="Rectangle 5056" width="13.011" height="1.482" fill="#414042"/>
      </g>
      <g id="Group_11109" data-name="Group 11109" transform="translate(10.08 24.52)">
        <rect id="Rectangle_5057" data-name="Rectangle 5057" width="5.651" height="1.482" fill="#414042"/>
      </g>
      <g id="Group_11110" data-name="Group 11110" transform="translate(17.591 24.52)">
        <rect id="Rectangle_5058" data-name="Rectangle 5058" width="29.888" height="1.482" fill="#414042"/>
      </g>
      <g id="Group_11111" data-name="Group 11111" transform="translate(24.599 20.497)">
        <rect id="Rectangle_5059" data-name="Rectangle 5059" width="7.169" height="1.482" fill="#414042"/>
      </g>
      <g id="Group_11112" data-name="Group 11112" transform="translate(21.779 13.255)">
        <rect id="Rectangle_5060" data-name="Rectangle 5060" width="4.51" height="1.482" fill="#414042"/>
      </g>
      <g id="Group_11113" data-name="Group 11113" transform="translate(41.603 9.736)">
        <rect id="Rectangle_5061" data-name="Rectangle 5061" width="5.876" height="1.482" fill="#414042"/>
      </g>
    </g>
    <g id="Group_11127" data-name="Group 11127" transform="translate(23.95 92.625)">
      <g id="Group_11115" data-name="Group 11115" transform="translate(0.741 0.741)">
        <rect id="Rectangle_5062" data-name="Rectangle 5062" width="13.262" height="60.318" rx="1.405" transform="translate(60.318) rotate(90)" fill="#ffb936"/>
      </g>
      <g id="Group_11116" data-name="Group 11116" transform="translate(0.741 0.741)">
        <path id="Path_10619" data-name="Path 10619" d="M1213.028,734.363h-57.542a1.388,1.388,0,0,0-1.388,1.388v4.466h60.318v-4.466A1.388,1.388,0,0,0,1213.028,734.363Z" transform="translate(-1154.098 -734.363)" fill="#ffd586"/>
      </g>
      <g id="Group_11117" data-name="Group 11117">
        <path id="Path_10620" data-name="Path 10620" d="M1213.019,748.357h-57.543a2.131,2.131,0,0,1-2.128-2.129V735.742a2.131,2.131,0,0,1,2.129-2.129h57.542a2.131,2.131,0,0,1,2.129,2.128v10.488A2.132,2.132,0,0,1,1213.019,748.357Zm-57.542-13.263a.648.648,0,0,0-.647.647v10.487a.648.648,0,0,0,.646.647h57.543a.648.648,0,0,0,.647-.647V735.741a.648.648,0,0,0-.647-.646Z" transform="translate(-1153.348 -733.613)" fill="#414042"/>
      </g>
      <g id="Group_11118" data-name="Group 11118" transform="translate(6.784 0.741)">
        <rect id="Rectangle_5063" data-name="Rectangle 5063" width="1.482" height="8.107" fill="#414042"/>
      </g>
      <g id="Group_11119" data-name="Group 11119" transform="translate(12.487 0.741)">
        <rect id="Rectangle_5064" data-name="Rectangle 5064" width="1.482" height="4.054" fill="#414042"/>
      </g>
      <g id="Group_11120" data-name="Group 11120" transform="translate(18.191 0.741)">
        <rect id="Rectangle_5065" data-name="Rectangle 5065" width="1.482" height="4.054" fill="#414042"/>
      </g>
      <g id="Group_11121" data-name="Group 11121" transform="translate(23.894 0.741)">
        <rect id="Rectangle_5066" data-name="Rectangle 5066" width="1.482" height="4.054" fill="#414042"/>
      </g>
      <g id="Group_11122" data-name="Group 11122" transform="translate(29.597 0.741)">
        <rect id="Rectangle_5067" data-name="Rectangle 5067" width="1.482" height="8.107" fill="#414042"/>
      </g>
      <g id="Group_11123" data-name="Group 11123" transform="translate(35.301 0.741)">
        <rect id="Rectangle_5068" data-name="Rectangle 5068" width="1.482" height="4.054" fill="#414042"/>
      </g>
      <g id="Group_11124" data-name="Group 11124" transform="translate(41.004 0.741)">
        <rect id="Rectangle_5069" data-name="Rectangle 5069" width="1.482" height="4.054" fill="#414042"/>
      </g>
      <g id="Group_11125" data-name="Group 11125" transform="translate(46.708 0.741)">
        <rect id="Rectangle_5070" data-name="Rectangle 5070" width="1.482" height="4.054" fill="#414042"/>
      </g>
      <g id="Group_11126" data-name="Group 11126" transform="translate(52.411 0.741)">
        <rect id="Rectangle_5071" data-name="Rectangle 5071" width="1.482" height="8.107" fill="#414042"/>
      </g>
    </g>
    <g id="Group_11135" data-name="Group 11135" transform="translate(164.971 56.227)">
      <g id="Group_11128" data-name="Group 11128" transform="translate(0.741 1.025)">
        <path id="Path_10621" data-name="Path 10621" d="M1301.234,697.8s4.377,4.189,4.377,7.861-4.377,7.861-4.377,7.861-4.378-4.189-4.378-7.861S1301.234,697.8,1301.234,697.8Z" transform="translate(-1296.856 -697.805)" fill="#ffb936"/>
      </g>
      <g id="Group_11129" data-name="Group 11129">
        <path id="Path_10622" data-name="Path 10622" d="M1301.225,714.54l-.513-.49c-.188-.181-4.606-4.453-4.606-8.4s4.419-8.216,4.606-8.4l.513-.491.513.491c.188.18,4.606,4.452,4.606,8.4s-4.419,8.216-4.606,8.4Zm0-15.683c-1.109,1.2-3.637,4.2-3.637,6.8s2.528,5.6,3.637,6.8c1.11-1.2,3.637-4.2,3.637-6.8S1302.335,700.052,1301.225,698.857Z" transform="translate(-1296.106 -696.767)" fill="#414042"/>
      </g>
      <g id="Group_11130" data-name="Group 11130" transform="translate(4.378 1.026)">
        <rect id="Rectangle_5072" data-name="Rectangle 5072" width="1.482" height="49.367" fill="#414042"/>
      </g>
      <g id="Group_11131" data-name="Group 11131" transform="translate(1.243 4.277)">
        <rect id="Rectangle_5073" data-name="Rectangle 5073" width="1.482" height="4.832" transform="translate(0 1.024) rotate(-43.733)" fill="#414042"/>
      </g>
      <g id="Group_11132" data-name="Group 11132" transform="translate(0.191 7.784)">
        <rect id="Rectangle_5074" data-name="Rectangle 5074" width="1.482" height="6.384" transform="translate(0 0.993) rotate(-42.072)" fill="#414042"/>
      </g>
      <g id="Group_11133" data-name="Group 11133" transform="translate(4.448 4.277)">
        <rect id="Rectangle_5075" data-name="Rectangle 5075" width="4.832" height="1.482" transform="matrix(0.691, -0.723, 0.723, 0.691, 0, 3.491)" fill="#414042"/>
      </g>
      <g id="Group_11134" data-name="Group 11134" transform="translate(4.533 7.784)">
        <rect id="Rectangle_5076" data-name="Rectangle 5076" width="6.384" height="1.482" transform="translate(0 4.737) rotate(-47.904)" fill="#414042"/>
      </g>
    </g>
    <g id="Group_11143" data-name="Group 11143" transform="translate(172.38 74.996)">
      <g id="Group_11136" data-name="Group 11136" transform="translate(0.741 1.025)">
        <path id="Path_10623" data-name="Path 10623" d="M1308.734,716.8s4.377,4.189,4.377,7.861-4.377,7.861-4.377,7.861-4.378-4.189-4.378-7.861S1308.734,716.8,1308.734,716.8Z" transform="translate(-1304.356 -716.805)" fill="#ffb936"/>
      </g>
      <g id="Group_11137" data-name="Group 11137">
        <path id="Path_10624" data-name="Path 10624" d="M1308.725,733.54l-.513-.49c-.188-.181-4.606-4.453-4.606-8.4s4.418-8.216,4.606-8.4l.513-.491.512.491c.188.18,4.606,4.452,4.606,8.4s-4.419,8.216-4.606,8.4Zm0-15.683c-1.109,1.2-3.637,4.2-3.637,6.8s2.528,5.6,3.637,6.8c1.11-1.2,3.637-4.2,3.637-6.8S1309.835,719.053,1308.725,717.857Z" transform="translate(-1303.606 -715.767)" fill="#414042"/>
      </g>
      <g id="Group_11138" data-name="Group 11138" transform="translate(4.378 1.026)">
        <rect id="Rectangle_5077" data-name="Rectangle 5077" width="1.482" height="30.956" fill="#414042"/>
      </g>
      <g id="Group_11139" data-name="Group 11139" transform="translate(1.243 4.277)">
        <rect id="Rectangle_5078" data-name="Rectangle 5078" width="1.482" height="4.832" transform="translate(0 1.024) rotate(-43.733)" fill="#414042"/>
      </g>
      <g id="Group_11140" data-name="Group 11140" transform="translate(0.191 7.784)">
        <rect id="Rectangle_5079" data-name="Rectangle 5079" width="1.482" height="6.384" transform="translate(0 0.993) rotate(-42.072)" fill="#414042"/>
      </g>
      <g id="Group_11141" data-name="Group 11141" transform="translate(4.448 4.277)">
        <rect id="Rectangle_5080" data-name="Rectangle 5080" width="4.832" height="1.482" transform="matrix(0.691, -0.723, 0.723, 0.691, 0, 3.491)" fill="#414042"/>
      </g>
      <g id="Group_11142" data-name="Group 11142" transform="translate(4.533 7.784)">
        <rect id="Rectangle_5081" data-name="Rectangle 5081" width="6.384" height="1.482" transform="translate(0 4.737) rotate(-47.904)" fill="#414042"/>
      </g>
    </g>
  </g>
</svg>
