<svg xmlns="http://www.w3.org/2000/svg" width="207.614" height="96.447" viewBox="0 0 207.614 96.447">
  <g id="Group_11713" data-name="Group 11713" transform="translate(0)">
    <g id="Group_11557" data-name="Group 11557" transform="translate(0 8.741)">
      <path id="Path_10785" data-name="Path 10785" d="M863.168,736.307h178.8a8.476,8.476,0,0,1,8.476,8.476h0a8.476,8.476,0,0,1-8.476,8.476H1007.03a7.381,7.381,0,0,0-7.381,7.381h0a7.382,7.382,0,0,0,7.381,7.382h42.762a8.159,8.159,0,0,1,8.159,8.159h0a8.16,8.16,0,0,1-8.159,8.16h-21.425a14.787,14.787,0,0,1-14.787,14.786h0a6.529,6.529,0,0,0-6.53,6.529v17.409H913.183v-1.434A15.841,15.841,0,0,0,897.5,805.79l-27.079-.323a9.047,9.047,0,0,1-8.957-9.047h0a9.047,9.047,0,0,1,9.047-9.047h27.019a14.916,14.916,0,0,1,14.917-14.916h1.264a9.081,9.081,0,0,0,9.08-9.08h0a9.081,9.081,0,0,0-9.08-9.08h-50.54a8.995,8.995,0,0,1-9-9h0A9,9,0,0,1,863.168,736.307Z" transform="translate(-854.173 -736.307)" fill="#f7eded"/>
    </g>
    <g id="Group_11566" data-name="Group 11566" transform="translate(137.568 55.347)">
      <g id="Group_11565" data-name="Group 11565">
        <g id="Group_11558" data-name="Group 11558" transform="translate(0.731 0.731)">
          <rect id="Rectangle_5213" data-name="Rectangle 5213" width="24.906" height="39.636" rx="1.987" fill="#fff"/>
        </g>
        <g id="Group_11559" data-name="Group 11559" transform="translate(0 0)">
          <path id="Path_10786" data-name="Path 10786" d="M996.764,801.3H995.3V787.078a2.962,2.962,0,0,1,2.959-2.958h2.122v1.462h-2.122a1.5,1.5,0,0,0-1.5,1.5Z" transform="translate(-995.302 -784.12)" fill="#414042"/>
        </g>
        <g id="Group_11560" data-name="Group 11560" transform="translate(13.11 0)">
          <path id="Path_10787" data-name="Path 10787" d="M1019.05,825.218v-1.462a1.5,1.5,0,0,0,1.5-1.5v-35.18a1.5,1.5,0,0,0-1.5-1.5h-10.3V784.12h10.3a2.962,2.962,0,0,1,2.958,2.958v35.18A2.963,2.963,0,0,1,1019.05,825.218Z" transform="translate(-1008.751 -784.12)" fill="#414042"/>
        </g>
        <g id="Group_11561" data-name="Group 11561" transform="translate(7.136)">
          <rect id="Rectangle_5214" data-name="Rectangle 5214" width="3.523" height="1.462" fill="#414042"/>
        </g>
        <g id="Group_11562" data-name="Group 11562" transform="translate(9.498 2.986)">
          <rect id="Rectangle_5215" data-name="Rectangle 5215" width="7.372" height="1.462" fill="#414042"/>
        </g>
        <g id="Group_11563" data-name="Group 11563" transform="translate(11.258 35.199)">
          <path id="Path_10788" data-name="Path 10788" d="M1008.777,824.083a1.927,1.927,0,1,1,1.926-1.927A1.929,1.929,0,0,1,1008.777,824.083Zm0-2.391a.464.464,0,1,0,.464.464A.464.464,0,0,0,1008.777,821.692Z" transform="translate(-1006.851 -820.23)" fill="#414042"/>
        </g>
        <g id="Group_11564" data-name="Group 11564" transform="translate(3.222 6.451)">
          <rect id="Rectangle_5216" data-name="Rectangle 5216" width="19.925" height="28.077" fill="#ff6846"/>
        </g>
      </g>
    </g>
    <g id="Group_11586" data-name="Group 11586" transform="translate(148.558 13.15)">
      <g id="Group_11585" data-name="Group 11585">
        <g id="Group_11567" data-name="Group 11567" transform="translate(17.452 0.731)">
          <path id="Path_10789" data-name="Path 10789" d="M1028.462,823.414h-3.982V743.572a1.99,1.99,0,0,1,1.99-1.992h0a1.991,1.991,0,0,1,1.991,1.992Z" transform="translate(-1024.48 -741.581)" fill="#fff"/>
        </g>
        <g id="Group_11568" data-name="Group 11568" transform="translate(16.721)">
          <path id="Path_10790" data-name="Path 10790" d="M1029.174,823.395h-1.462v-80.01a1.093,1.093,0,0,0-1.092-1.092h-.336a1.093,1.093,0,0,0-1.092,1.092v80.01h-1.462v-80.01a2.556,2.556,0,0,1,2.554-2.554h.336a2.556,2.556,0,0,1,2.554,2.554Z" transform="translate(-1023.73 -740.831)" fill="#414042"/>
        </g>
        <g id="Group_11569" data-name="Group 11569" transform="translate(5.491 8.893)">
          <rect id="Rectangle_5217" data-name="Rectangle 5217" width="27.904" height="1.462" fill="#414042"/>
        </g>
        <g id="Group_11570" data-name="Group 11570" transform="translate(15.283 5.195)">
          <path id="Path_10791" data-name="Path 10791" d="M1030.621,750.343a4.183,4.183,0,1,1-4.183-4.183A4.183,4.183,0,0,1,1030.621,750.343Z" transform="translate(-1022.255 -746.16)" fill="#58595b"/>
        </g>
        <g id="Group_11571" data-name="Group 11571" transform="translate(14.552 4.463)">
          <path id="Path_10792" data-name="Path 10792" d="M1026.419,755.238a4.914,4.914,0,1,1,4.914-4.914A4.92,4.92,0,0,1,1026.419,755.238Zm0-8.365a3.452,3.452,0,1,0,3.452,3.452A3.456,3.456,0,0,0,1026.419,746.872Z" transform="translate(-1021.505 -745.41)" fill="#414042"/>
        </g>
        <g id="Group_11572" data-name="Group 11572" transform="translate(30.278 8.057)">
          <rect id="Rectangle_5218" data-name="Rectangle 5218" width="1.462" height="15.947" transform="translate(0 0.493) rotate(-19.713)" fill="#414042"/>
        </g>
        <g id="Group_11573" data-name="Group 11573" transform="translate(25.915 8.038)">
          <rect id="Rectangle_5219" data-name="Rectangle 5219" width="16.106" height="1.462" transform="translate(0 15.014) rotate(-68.779)" fill="#414042"/>
        </g>
        <g id="Group_11574" data-name="Group 11574" transform="translate(24.827 22.722)">
          <path id="Path_10793" data-name="Path 10793" d="M1045.415,764.141a6.684,6.684,0,1,1-13.369,0Z" transform="translate(-1032.046 -764.141)" fill="#ffb936"/>
        </g>
        <g id="Group_11575" data-name="Group 11575" transform="translate(1.895 8.056)">
          <rect id="Rectangle_5220" data-name="Rectangle 5220" width="15.947" height="1.462" transform="translate(0 15.013) rotate(-70.293)" fill="#414042"/>
        </g>
        <g id="Group_11576" data-name="Group 11576" transform="translate(5.818 8.038)">
          <rect id="Rectangle_5221" data-name="Rectangle 5221" width="1.462" height="16.106" transform="translate(0 0.53) rotate(-21.236)" fill="#414042"/>
        </g>
        <g id="Group_11577" data-name="Group 11577" transform="translate(0.732 22.722)">
          <path id="Path_10794" data-name="Path 10794" d="M1007.327,764.141a6.684,6.684,0,1,0,13.369,0Z" transform="translate(-1007.327 -764.141)" fill="#ffb936"/>
        </g>
        <g id="Group_11578" data-name="Group 11578" transform="translate(36.018 25.31)">
          <path id="Path_10795" data-name="Path 10795" d="M1044.631,769.056l-1.105-.956a5.959,5.959,0,0,0,.858-1.3l1.317.636A7.414,7.414,0,0,1,1044.631,769.056Z" transform="translate(-1043.526 -766.796)" fill="#414042"/>
        </g>
        <g id="Group_11579" data-name="Group 11579" transform="translate(24.096 21.992)">
          <path id="Path_10796" data-name="Path 10796" d="M1038.712,771.538a7.424,7.424,0,0,1-7.416-7.415v-.731h14.831v.731a7.391,7.391,0,0,1-.481,2.631l-1.367-.519a5.889,5.889,0,0,0,.341-1.381H1032.8a5.961,5.961,0,0,0,7.448,5.021,5.9,5.9,0,0,0,1.844-.854l.833,1.2a7.389,7.389,0,0,1-4.216,1.315Z" transform="translate(-1031.296 -763.392)" fill="#414042"/>
        </g>
        <g id="Group_11580" data-name="Group 11580" transform="translate(0 21.992)">
          <path id="Path_10797" data-name="Path 10797" d="M1013.992,771.538a7.424,7.424,0,0,1-7.416-7.415v-.731h14.832v.731A7.424,7.424,0,0,1,1013.992,771.538Zm-5.909-6.684a5.954,5.954,0,0,0,11.818,0Z" transform="translate(-1006.576 -763.392)" fill="#414042"/>
        </g>
        <g id="Group_11581" data-name="Group 11581" transform="translate(29.771 7.867)">
          <path id="Path_10798" data-name="Path 10798" d="M1040.632,750.659a1.757,1.757,0,1,1-1.757-1.757A1.757,1.757,0,0,1,1040.632,750.659Z" transform="translate(-1037.118 -748.902)" fill="#58595b"/>
        </g>
        <g id="Group_11582" data-name="Group 11582" transform="translate(29.04 7.136)">
          <path id="Path_10799" data-name="Path 10799" d="M1038.856,753.128a2.488,2.488,0,1,1,2.489-2.488A2.491,2.491,0,0,1,1038.856,753.128Zm0-3.514a1.026,1.026,0,1,0,1.026,1.026A1.027,1.027,0,0,0,1038.856,749.614Z" transform="translate(-1036.368 -748.152)" fill="#414042"/>
        </g>
        <g id="Group_11583" data-name="Group 11583" transform="translate(5.66 7.867)">
          <path id="Path_10800" data-name="Path 10800" d="M1015.9,750.659a1.757,1.757,0,1,1-1.757-1.757A1.757,1.757,0,0,1,1015.9,750.659Z" transform="translate(-1012.382 -748.902)" fill="#58595b"/>
        </g>
        <g id="Group_11584" data-name="Group 11584" transform="translate(4.928 7.136)">
          <path id="Path_10801" data-name="Path 10801" d="M1014.12,753.128a2.488,2.488,0,1,1,2.489-2.488A2.491,2.491,0,0,1,1014.12,753.128Zm0-3.514a1.026,1.026,0,1,0,1.026,1.026A1.027,1.027,0,0,0,1014.12,749.614Z" transform="translate(-1011.632 -748.152)" fill="#414042"/>
        </g>
      </g>
    </g>
    <g id="Group_11605" data-name="Group 11605" transform="translate(43.021 48.22)">
      <g id="Group_11587" data-name="Group 11587" transform="translate(0.731 0.731)">
        <rect id="Rectangle_5222" data-name="Rectangle 5222" width="28.912" height="46.763" fill="#6d6e71"/>
      </g>
      <g id="Group_11588" data-name="Group 11588">
        <path id="Path_10802" data-name="Path 10802" d="M899.769,824.3h-1.462V776.809h23.78v1.462H899.769Z" transform="translate(-898.307 -776.809)" fill="#414042"/>
      </g>
      <g id="Group_11589" data-name="Group 11589" transform="translate(2.709 7.571)">
        <rect id="Rectangle_5223" data-name="Rectangle 5223" width="24.956" height="39.923" fill="#f7eded"/>
      </g>
      <g id="Group_11590" data-name="Group 11590" transform="translate(1.978 6.839)">
        <path id="Path_10803" data-name="Path 10803" d="M926.755,825.211H900.337V783.825h26.418ZM901.8,823.749h23.494V785.287H901.8Z" transform="translate(-900.337 -783.825)" fill="#414042"/>
      </g>
      <g id="Group_11591" data-name="Group 11591" transform="translate(6.143 7.571)">
        <rect id="Rectangle_5224" data-name="Rectangle 5224" width="1.462" height="39.923" fill="#414042"/>
      </g>
      <g id="Group_11592" data-name="Group 11592" transform="translate(10.248 7.571)">
        <rect id="Rectangle_5225" data-name="Rectangle 5225" width="1.462" height="39.923" fill="#414042"/>
      </g>
      <g id="Group_11593" data-name="Group 11593" transform="translate(14.353 7.571)">
        <rect id="Rectangle_5226" data-name="Rectangle 5226" width="1.462" height="39.923" fill="#414042"/>
      </g>
      <g id="Group_11594" data-name="Group 11594" transform="translate(18.457 7.571)">
        <rect id="Rectangle_5227" data-name="Rectangle 5227" width="1.462" height="39.923" fill="#414042"/>
      </g>
      <g id="Group_11595" data-name="Group 11595" transform="translate(22.562 7.571)">
        <rect id="Rectangle_5228" data-name="Rectangle 5228" width="1.462" height="39.923" fill="#414042"/>
      </g>
      <g id="Group_11596" data-name="Group 11596" transform="translate(2.709 27.718)">
        <rect id="Rectangle_5229" data-name="Rectangle 5229" width="24.956" height="1.462" fill="#414042"/>
      </g>
      <g id="Group_11597" data-name="Group 11597" transform="translate(2.709 23.613)">
        <rect id="Rectangle_5230" data-name="Rectangle 5230" width="24.956" height="1.462" fill="#414042"/>
      </g>
      <g id="Group_11598" data-name="Group 11598" transform="translate(2.709 31.822)">
        <rect id="Rectangle_5231" data-name="Rectangle 5231" width="24.956" height="1.462" fill="#414042"/>
      </g>
      <g id="Group_11599" data-name="Group 11599" transform="translate(2.709 35.927)">
        <rect id="Rectangle_5232" data-name="Rectangle 5232" width="24.956" height="1.462" fill="#414042"/>
      </g>
      <g id="Group_11600" data-name="Group 11600" transform="translate(2.709 40.031)">
        <rect id="Rectangle_5233" data-name="Rectangle 5233" width="24.956" height="1.462" fill="#414042"/>
      </g>
      <g id="Group_11601" data-name="Group 11601" transform="translate(2.709 44.135)">
        <rect id="Rectangle_5234" data-name="Rectangle 5234" width="24.956" height="1.462" fill="#414042"/>
      </g>
      <g id="Group_11602" data-name="Group 11602" transform="translate(2.709 19.508)">
        <rect id="Rectangle_5235" data-name="Rectangle 5235" width="24.956" height="1.462" fill="#414042"/>
      </g>
      <g id="Group_11603" data-name="Group 11603" transform="translate(2.709 15.404)">
        <rect id="Rectangle_5236" data-name="Rectangle 5236" width="24.956" height="1.462" fill="#414042"/>
      </g>
      <g id="Group_11604" data-name="Group 11604" transform="translate(2.709 11.299)">
        <rect id="Rectangle_5237" data-name="Rectangle 5237" width="24.956" height="1.462" fill="#414042"/>
      </g>
    </g>
    <g id="Group_11616" data-name="Group 11616" transform="translate(68.569 0)">
      <g id="Group_11606" data-name="Group 11606" transform="translate(3.781 12.454)">
        <rect id="Rectangle_5238" data-name="Rectangle 5238" width="14.834" height="6.798" fill="#ff6846"/>
      </g>
      <g id="Group_11607" data-name="Group 11607" transform="translate(3.05 11.722)">
        <path id="Path_10804" data-name="Path 10804" d="M943.941,747.626h-16.3v-8.26h16.3Zm-14.834-1.462h13.372v-5.336H929.107Z" transform="translate(-927.645 -739.366)" fill="#414042"/>
      </g>
      <g id="Group_11608" data-name="Group 11608" transform="translate(0.731 17.136)">
        <rect id="Rectangle_5239" data-name="Rectangle 5239" width="20.933" height="78.578" fill="#ff6846"/>
      </g>
      <g id="Group_11609" data-name="Group 11609" transform="translate(5.062 17.136)">
        <rect id="Rectangle_5240" data-name="Rectangle 5240" width="11.506" height="78.578" fill="#f4a698"/>
      </g>
      <g id="Group_11610" data-name="Group 11610" transform="translate(3.049)">
        <rect id="Rectangle_5241" data-name="Rectangle 5241" width="1.462" height="13.023" fill="#414042"/>
      </g>
      <g id="Group_11611" data-name="Group 11611" transform="translate(17.883)">
        <rect id="Rectangle_5242" data-name="Rectangle 5242" width="1.462" height="13.023" fill="#414042"/>
      </g>
      <g id="Group_11612" data-name="Group 11612" transform="translate(10.407 3.924)">
        <rect id="Rectangle_5243" data-name="Rectangle 5243" width="1.462" height="8.501" fill="#414042"/>
      </g>
      <g id="Group_11613" data-name="Group 11613" transform="translate(0 16.405)">
        <path id="Path_10805" data-name="Path 10805" d="M925.978,823.479h-1.462V744.17h22.4v20.912H945.45v-19.45H925.978Z" transform="translate(-924.516 -744.17)" fill="#414042"/>
      </g>
      <g id="Group_11614" data-name="Group 11614" transform="translate(4.33 17.136)">
        <rect id="Rectangle_5244" data-name="Rectangle 5244" width="1.462" height="78.292" fill="#414042"/>
      </g>
      <g id="Group_11615" data-name="Group 11615" transform="translate(16.136 17.136)">
        <rect id="Rectangle_5245" data-name="Rectangle 5245" width="1.462" height="21.321" fill="#414042"/>
      </g>
    </g>
    <g id="Group_11619" data-name="Group 11619" transform="translate(30.496 32.774)">
      <g id="Group_11617" data-name="Group 11617" transform="translate(0 2.084)">
        <path id="Path_10806" data-name="Path 10806" d="M890.355,764.563h-4.166a.731.731,0,0,1,0-1.462h4.166a.731.731,0,1,1,0,1.462Z" transform="translate(-885.458 -763.101)" fill="#414042"/>
      </g>
      <g id="Group_11618" data-name="Group 11618" transform="translate(2.082)">
        <path id="Path_10807" data-name="Path 10807" d="M888.325,766.591a.731.731,0,0,1-.731-.731v-4.166a.731.731,0,1,1,1.462,0v4.166A.731.731,0,0,1,888.325,766.591Z" transform="translate(-887.594 -760.963)" fill="#414042"/>
      </g>
    </g>
    <g id="Group_11622" data-name="Group 11622" transform="translate(175.255 59.491)">
      <g id="Group_11620" data-name="Group 11620" transform="translate(0 2.082)">
        <path id="Path_10808" data-name="Path 10808" d="M1038.862,791.969H1034.7a.731.731,0,0,1,0-1.462h4.167a.731.731,0,0,1,0,1.462Z" transform="translate(-1033.964 -790.507)" fill="#414042"/>
      </g>
      <g id="Group_11621" data-name="Group 11621" transform="translate(2.083)">
        <path id="Path_10809" data-name="Path 10809" d="M1036.832,794a.731.731,0,0,1-.731-.731V789.1a.731.731,0,1,1,1.462,0v4.165A.731.731,0,0,1,1036.832,794Z" transform="translate(-1036.101 -788.371)" fill="#414042"/>
      </g>
    </g>
    <g id="Group_11625" data-name="Group 11625" transform="translate(121.09 26.146)">
      <g id="Group_11623" data-name="Group 11623" transform="translate(0 2.083)">
        <path id="Path_10810" data-name="Path 10810" d="M983.294,757.762h-4.166a.731.731,0,0,1,0-1.462h4.166a.731.731,0,1,1,0,1.462Z" transform="translate(-978.397 -756.3)" fill="#414042"/>
      </g>
      <g id="Group_11624" data-name="Group 11624" transform="translate(2.083)">
        <path id="Path_10811" data-name="Path 10811" d="M981.265,759.791a.731.731,0,0,1-.731-.731v-4.166a.731.731,0,1,1,1.462,0v4.166A.731.731,0,0,1,981.265,759.791Z" transform="translate(-980.534 -754.163)" fill="#414042"/>
      </g>
    </g>
    <g id="Group_11628" data-name="Group 11628" transform="translate(139.396 14.932)">
      <g id="Group_11626" data-name="Group 11626">
        <path id="Path_10812" data-name="Path 10812" d="M997.908,747.067a.732.732,0,0,1-.517-1.249l2.947-2.946a.731.731,0,1,1,1.033,1.034l-2.946,2.946A.734.734,0,0,1,997.908,747.067Z" transform="translate(-997.177 -742.658)" fill="#414042"/>
      </g>
      <g id="Group_11627" data-name="Group 11627">
        <path id="Path_10813" data-name="Path 10813" d="M1000.855,747.067a.729.729,0,0,1-.517-.214l-2.947-2.946a.731.731,0,0,1,1.034-1.034l2.946,2.946a.732.732,0,0,1-.517,1.249Z" transform="translate(-997.177 -742.658)" fill="#414042"/>
      </g>
    </g>
    <g id="Group_11631" data-name="Group 11631" transform="translate(188.656 29.138)">
      <g id="Group_11629" data-name="Group 11629">
        <path id="Path_10814" data-name="Path 10814" d="M1048.444,761.641a.731.731,0,0,1-.518-1.248l2.947-2.947a.731.731,0,0,1,1.033,1.034l-2.946,2.946A.727.727,0,0,1,1048.444,761.641Z" transform="translate(-1047.712 -757.232)" fill="#414042"/>
      </g>
      <g id="Group_11630" data-name="Group 11630">
        <path id="Path_10815" data-name="Path 10815" d="M1051.39,761.641a.725.725,0,0,1-.517-.214l-2.947-2.946a.731.731,0,0,1,1.034-1.034l2.946,2.947a.731.731,0,0,1-.517,1.248Z" transform="translate(-1047.712 -757.232)" fill="#414042"/>
      </g>
    </g>
    <g id="Group_11634" data-name="Group 11634" transform="translate(35.005 78.569)">
      <g id="Group_11632" data-name="Group 11632">
        <path id="Path_10816" data-name="Path 10816" d="M890.815,812.351a.731.731,0,0,1-.517-1.248l2.946-2.946a.731.731,0,0,1,1.034,1.033l-2.947,2.947A.728.728,0,0,1,890.815,812.351Z" transform="translate(-890.084 -807.943)" fill="#414042"/>
      </g>
      <g id="Group_11633" data-name="Group 11633">
        <path id="Path_10817" data-name="Path 10817" d="M893.762,812.351a.732.732,0,0,1-.518-.214l-2.946-2.947a.731.731,0,0,1,1.033-1.033l2.947,2.946a.731.731,0,0,1-.517,1.248Z" transform="translate(-890.084 -807.943)" fill="#414042"/>
      </g>
    </g>
    <g id="Group_11635" data-name="Group 11635" transform="translate(97.419 16.405)">
      <rect id="Rectangle_5246" data-name="Rectangle 5246" width="39.69" height="1.462" fill="#414042"/>
    </g>
    <g id="Group_11636" data-name="Group 11636" transform="translate(126.62 3.193)">
      <rect id="Rectangle_5247" data-name="Rectangle 5247" width="39.69" height="1.462" fill="#414042"/>
    </g>
    <g id="Group_11637" data-name="Group 11637" transform="translate(185.61 61.573)">
      <rect id="Rectangle_5248" data-name="Rectangle 5248" width="22.004" height="1.462" transform="translate(0)" fill="#414042"/>
    </g>
    <g id="Group_11638" data-name="Group 11638" transform="translate(43.276 34.858)">
      <rect id="Rectangle_5249" data-name="Rectangle 5249" width="16.957" height="1.462" fill="#414042"/>
    </g>
    <g id="Group_11639" data-name="Group 11639" transform="translate(38.334 34.858)">
      <rect id="Rectangle_5250" data-name="Rectangle 5250" width="3.48" height="1.462" fill="#414042"/>
    </g>
    <g id="Group_11640" data-name="Group 11640" transform="translate(25.346 46.602)">
      <path id="Path_10818" data-name="Path 10818" d="M882.557,776.339a1.191,1.191,0,1,1-1.191-1.191A1.191,1.191,0,0,1,882.557,776.339Z" transform="translate(-880.175 -775.148)" fill="#414042"/>
    </g>
    <g id="Group_11641" data-name="Group 11641" transform="translate(111.182 28.96)">
      <path id="Path_10819" data-name="Path 10819" d="M970.615,758.241a1.191,1.191,0,1,1-1.191-1.191A1.192,1.192,0,0,1,970.615,758.241Z" transform="translate(-968.233 -757.05)" fill="#414042"/>
    </g>
    <g id="Group_11642" data-name="Group 11642" transform="translate(178.962 76.542)">
      <path id="Path_10820" data-name="Path 10820" d="M1040.148,807.054a1.191,1.191,0,1,1-1.191-1.191A1.19,1.19,0,0,1,1040.148,807.054Z" transform="translate(-1037.767 -805.863)" fill="#0686d8"/>
    </g>
    <g id="Group_11643" data-name="Group 11643" transform="translate(34.682 70.435)">
      <path id="Path_10821" data-name="Path 10821" d="M891.173,800.309a.71.71,0,1,1-.71-.711A.71.71,0,0,1,891.173,800.309Z" transform="translate(-889.753 -799.598)" fill="#414042"/>
    </g>
    <g id="Group_11644" data-name="Group 11644" transform="translate(129.928 11.715)">
      <path id="Path_10822" data-name="Path 10822" d="M988.884,740.069a.71.71,0,1,1-.71-.71A.711.711,0,0,1,988.884,740.069Z" transform="translate(-987.464 -739.359)" fill="#414042"/>
    </g>
    <g id="Group_11645" data-name="Group 11645" transform="translate(198.858 32.57)">
      <path id="Path_10823" data-name="Path 10823" d="M1059.6,761.463a.71.71,0,1,1-.71-.71A.71.71,0,0,1,1059.6,761.463Z" transform="translate(-1058.178 -760.753)" fill="#414042"/>
    </g>
    <g id="Group_11646" data-name="Group 11646" transform="translate(45.729 13.172)">
      <path id="Path_10824" data-name="Path 10824" d="M902.506,741.563a.71.71,0,1,1-.71-.71A.71.71,0,0,1,902.506,741.563Z" transform="translate(-901.086 -740.853)" fill="#414042"/>
    </g>
    <g id="Group_11647" data-name="Group 11647" transform="translate(77.868 38.292)" opacity="0.3">
      <path id="Path_10825" data-name="Path 10825" d="M944.945,766.623a10.9,10.9,0,0,0-10.889,10.889v33.537a10.9,10.9,0,0,0,6.8,10.086v2.911h5.565V766.623Z" transform="translate(-934.056 -766.623)" fill="#231f20"/>
    </g>
    <g id="Group_11699" data-name="Group 11699" transform="translate(79.817 38.292)">
      <g id="Group_11648" data-name="Group 11648" transform="translate(7.532 52.057)">
        <rect id="Rectangle_5251" data-name="Rectangle 5251" width="6.984" height="5.365" fill="#6d6e71"/>
      </g>
      <g id="Group_11649" data-name="Group 11649" transform="translate(6.801 51.327)">
        <path id="Path_10826" data-name="Path 10826" d="M951.479,826.105h-8.446v-6.827h8.446Zm-6.984-1.462h5.522v-3.9H944.5Z" transform="translate(-943.033 -819.278)" fill="#414042"/>
      </g>
      <g id="Group_11650" data-name="Group 11650" transform="translate(0.731 0.731)">
        <rect id="Rectangle_5252" data-name="Rectangle 5252" width="53.854" height="53.854" rx="10.422" fill="#f1f2f2"/>
      </g>
      <g id="Group_11651" data-name="Group 11651" transform="translate(5.326 5.326)">
        <rect id="Rectangle_5253" data-name="Rectangle 5253" width="44.664" height="44.664" rx="6.749" fill="#58595b"/>
      </g>
      <g id="Group_11652" data-name="Group 11652" transform="translate(4.595 4.595)">
        <path id="Path_10827" data-name="Path 10827" d="M980.11,817.462H947.555a6.793,6.793,0,0,1-6.785-6.785V778.122a6.793,6.793,0,0,1,6.785-6.785H980.11a6.793,6.793,0,0,1,6.785,6.785v32.554A6.793,6.793,0,0,1,980.11,817.462ZM947.555,772.8a5.329,5.329,0,0,0-5.323,5.323v32.554A5.33,5.33,0,0,0,947.555,816H980.11a5.33,5.33,0,0,0,5.323-5.323V778.122a5.329,5.329,0,0,0-5.323-5.323Z" transform="translate(-940.77 -771.337)" fill="#414042"/>
      </g>
      <g id="Group_11653" data-name="Group 11653">
        <path id="Path_10828" data-name="Path 10828" d="M980.482,821.938H946.945a10.9,10.9,0,0,1-10.889-10.889V777.512a10.9,10.9,0,0,1,10.889-10.889h33.537a10.9,10.9,0,0,1,10.889,10.889v33.537A10.9,10.9,0,0,1,980.482,821.938Zm-33.537-53.853a9.437,9.437,0,0,0-9.427,9.427v33.537a9.437,9.437,0,0,0,9.427,9.427h33.537a9.437,9.437,0,0,0,9.427-9.427V777.512a9.437,9.437,0,0,0-9.427-9.427Z" transform="translate(-936.056 -766.623)" fill="#414042"/>
      </g>
      <g id="Group_11654" data-name="Group 11654" transform="translate(38.725 53.142)">
        <rect id="Rectangle_5254" data-name="Rectangle 5254" width="12.702" height="4.02" rx="0.248" fill="#ffb936"/>
      </g>
      <g id="Group_11655" data-name="Group 11655" transform="translate(38.734 52.88)">
        <path id="Path_10829" data-name="Path 10829" d="M987.5,825.884H976.766a.974.974,0,0,1-.973-.973v-3.067a.974.974,0,0,1,.973-.973H987.5a.974.974,0,0,1,.973.973v3.067A.974.974,0,0,1,987.5,825.884Zm-10.248-1.462h9.758v-2.088h-9.758Z" transform="translate(-975.793 -820.872)" fill="#414042"/>
      </g>
      <g id="Group_11656" data-name="Group 11656" transform="translate(38.477 50.06)">
        <rect id="Rectangle_5255" data-name="Rectangle 5255" width="11.22" height="3.551" rx="0.248" fill="#f7eded"/>
      </g>
      <g id="Group_11657" data-name="Group 11657" transform="translate(37.746 49.329)">
        <path id="Path_10830" data-name="Path 10830" d="M986.488,822.242H975.752a.974.974,0,0,1-.973-.974V818.2a.974.974,0,0,1,.973-.973h10.736a.974.974,0,0,1,.973.973v3.067A.974.974,0,0,1,986.488,822.242Zm-10.247-1.462H986v-2.089h-9.758Z" transform="translate(-974.779 -817.229)" fill="#414042"/>
      </g>
      <g id="Group_11658" data-name="Group 11658" transform="translate(39.205 46.51)">
        <rect id="Rectangle_5256" data-name="Rectangle 5256" width="11.22" height="3.551" rx="0.248" fill="#f4a698"/>
      </g>
      <g id="Group_11659" data-name="Group 11659" transform="translate(38.474 45.778)">
        <path id="Path_10831" data-name="Path 10831" d="M987.236,818.6H976.5a.974.974,0,0,1-.973-.973v-3.068a.974.974,0,0,1,.973-.973h10.737a.974.974,0,0,1,.973.973v3.068A.974.974,0,0,1,987.236,818.6Zm-10.248-1.462h9.758v-2.089h-9.758Z" transform="translate(-975.526 -813.586)" fill="#414042"/>
      </g>
      <g id="Group_11660" data-name="Group 11660" transform="translate(39.505 42.959)">
        <rect id="Rectangle_5257" data-name="Rectangle 5257" width="11.22" height="3.551" rx="0.248" fill="#f7eded"/>
      </g>
      <g id="Group_11661" data-name="Group 11661" transform="translate(38.773 42.228)">
        <path id="Path_10832" data-name="Path 10832" d="M987.542,814.956H976.806a.974.974,0,0,1-.973-.973v-3.067a.974.974,0,0,1,.973-.973h10.736a.975.975,0,0,1,.974.973v3.067A.974.974,0,0,1,987.542,814.956ZM977.3,813.494h9.759v-2.088H977.3Z" transform="translate(-975.833 -809.944)" fill="#414042"/>
      </g>
      <g id="Group_11662" data-name="Group 11662" transform="translate(37.227 39.408)">
        <rect id="Rectangle_5258" data-name="Rectangle 5258" width="11.22" height="3.551" rx="0.248" fill="#f4a698"/>
      </g>
      <g id="Group_11663" data-name="Group 11663" transform="translate(36.495 38.677)">
        <path id="Path_10833" data-name="Path 10833" d="M985.206,811.314H974.47a.975.975,0,0,1-.974-.973v-3.068a.974.974,0,0,1,.974-.973h10.736a.974.974,0,0,1,.973.973v3.068A.974.974,0,0,1,985.206,811.314Zm-10.248-1.462h9.758v-2.089h-9.758Z" transform="translate(-973.496 -806.301)" fill="#414042"/>
      </g>
      <g id="Group_11664" data-name="Group 11664" transform="translate(37.526 35.858)">
        <rect id="Rectangle_5259" data-name="Rectangle 5259" width="11.22" height="3.551" rx="0.248" fill="#f7eded"/>
      </g>
      <g id="Group_11665" data-name="Group 11665" transform="translate(36.795 35.127)">
        <path id="Path_10834" data-name="Path 10834" d="M985.513,807.671H974.777a.974.974,0,0,1-.974-.973v-3.067a.974.974,0,0,1,.974-.973h10.736a.974.974,0,0,1,.973.973V806.7A.974.974,0,0,1,985.513,807.671Zm-10.248-1.462h9.758v-2.088h-9.758Z" transform="translate(-973.803 -802.659)" fill="#414042"/>
      </g>
      <g id="Group_11666" data-name="Group 11666" transform="translate(34.819 32.307)">
        <rect id="Rectangle_5260" data-name="Rectangle 5260" width="11.22" height="3.551" rx="0.248" fill="#ffb936"/>
      </g>
      <g id="Group_11667" data-name="Group 11667" transform="translate(34.089 31.576)">
        <path id="Path_10835" data-name="Path 10835" d="M982.736,804.029H972a.974.974,0,0,1-.973-.973v-3.068a.974.974,0,0,1,.973-.973h10.736a.974.974,0,0,1,.973.973v3.068A.974.974,0,0,1,982.736,804.029Zm-10.247-1.462h9.757v-2.089h-9.757Z" transform="translate(-971.027 -799.016)" fill="#414042"/>
      </g>
      <g id="Group_11668" data-name="Group 11668" transform="translate(51.68 53.611)">
        <rect id="Rectangle_5261" data-name="Rectangle 5261" width="11.22" height="3.551" rx="0.248" fill="#f7eded"/>
      </g>
      <g id="Group_11669" data-name="Group 11669" transform="translate(50.949 52.88)">
        <path id="Path_10836" data-name="Path 10836" d="M1000.033,825.884H989.3a.974.974,0,0,1-.973-.973v-3.067a.974.974,0,0,1,.973-.973h10.736a.974.974,0,0,1,.973.973v3.067A.974.974,0,0,1,1000.033,825.884Zm-10.247-1.462h9.757v-2.088h-9.757Z" transform="translate(-988.324 -820.872)" fill="#414042"/>
      </g>
      <g id="Group_11670" data-name="Group 11670" transform="translate(51.68 50.06)">
        <rect id="Rectangle_5262" data-name="Rectangle 5262" width="11.22" height="3.551" rx="0.248" fill="#f4a698"/>
      </g>
      <g id="Group_11671" data-name="Group 11671" transform="translate(50.949 49.329)">
        <path id="Path_10837" data-name="Path 10837" d="M1000.033,822.242H989.3a.975.975,0,0,1-.973-.974V818.2a.974.974,0,0,1,.973-.973h10.736a.974.974,0,0,1,.973.973v3.067A.974.974,0,0,1,1000.033,822.242Zm-10.247-1.462h9.757v-2.089h-9.757Z" transform="translate(-988.324 -817.229)" fill="#414042"/>
      </g>
      <g id="Group_11672" data-name="Group 11672" transform="translate(50.821 46.51)">
        <rect id="Rectangle_5263" data-name="Rectangle 5263" width="11.22" height="3.551" rx="0.248" fill="#f7eded"/>
      </g>
      <g id="Group_11673" data-name="Group 11673" transform="translate(50.09 45.778)">
        <path id="Path_10838" data-name="Path 10838" d="M999.152,818.6H988.416a.974.974,0,0,1-.973-.973v-3.068a.974.974,0,0,1,.973-.973h10.736a.974.974,0,0,1,.973.973v3.068A.974.974,0,0,1,999.152,818.6Zm-10.247-1.462h9.757v-2.089h-9.757Z" transform="translate(-987.443 -813.586)" fill="#414042"/>
      </g>
      <g id="Group_11674" data-name="Group 11674" transform="translate(51.68 42.959)">
        <rect id="Rectangle_5264" data-name="Rectangle 5264" width="11.22" height="3.551" rx="0.248" fill="#ffb936"/>
      </g>
      <g id="Group_11675" data-name="Group 11675" transform="translate(50.949 42.228)">
        <path id="Path_10839" data-name="Path 10839" d="M1000.033,814.956H989.3a.974.974,0,0,1-.973-.973v-3.067a.974.974,0,0,1,.973-.973h10.736a.974.974,0,0,1,.973.973v3.067A.974.974,0,0,1,1000.033,814.956Zm-10.247-1.462h9.757v-2.088h-9.757Z" transform="translate(-988.324 -809.944)" fill="#414042"/>
      </g>
      <g id="Group_11676" data-name="Group 11676" transform="translate(50.392 39.408)">
        <rect id="Rectangle_5265" data-name="Rectangle 5265" width="11.22" height="3.551" rx="0.248" fill="#ffb936"/>
      </g>
      <g id="Group_11677" data-name="Group 11677" transform="translate(49.661 38.677)">
        <path id="Path_10840" data-name="Path 10840" d="M998.711,811.314H987.975a.974.974,0,0,1-.973-.973v-3.068a.974.974,0,0,1,.973-.973h10.736a.974.974,0,0,1,.973.973v3.068A.974.974,0,0,1,998.711,811.314Zm-10.247-1.462h9.757v-2.089h-9.757Z" transform="translate(-987.002 -806.301)" fill="#414042"/>
      </g>
      <g id="Group_11678" data-name="Group 11678" transform="translate(46.475 31.258)">
        <rect id="Rectangle_5266" data-name="Rectangle 5266" width="11.22" height="3.551" rx="0.248" transform="translate(1.615 0) rotate(27.062)" fill="#f7eded"/>
      </g>
      <g id="Group_11679" data-name="Group 11679" transform="translate(45.827 30.61)">
        <path id="Path_10841" data-name="Path 10841" d="M993.6,807.588a.972.972,0,0,1-.44-.106h0L983.6,802.6a.971.971,0,0,1-.423-1.31l1.394-2.73a.974.974,0,0,1,1.31-.423l9.561,4.884a.972.972,0,0,1,.423,1.31l-1.395,2.73a.974.974,0,0,1-.868.531Zm-8.9-6.071,8.689,4.439.951-1.86-8.69-4.439Z" transform="translate(-983.069 -798.025)" fill="#414042"/>
      </g>
      <g id="Group_11698" data-name="Group 11698" transform="translate(3.109 0.233)">
        <g id="Group_11680" data-name="Group 11680" transform="translate(9.06 8.18)">
          <path id="Path_10842" data-name="Path 10842" d="M973.5,812.148l-21.376-1.889c-2-.176-3.582-1.609-3.582-3.2V780.372c0-1.595,1.587-3.028,3.582-3.2l21.376-1.889c2.534-.223,4.634,1.092,4.634,2.943v30.984C978.132,811.056,976.032,812.371,973.5,812.148Z" transform="translate(-948.54 -775.254)" fill="#58595b"/>
        </g>
        <g id="Group_11681" data-name="Group 11681" transform="translate(8.329 7.45)">
          <path id="Path_10843" data-name="Path 10843" d="M974.026,812.884c-.2,0-.406-.009-.611-.026l-21.376-1.889c-2.383-.212-4.249-1.938-4.249-3.932V780.352c0-1.993,1.866-3.721,4.249-3.931l21.376-1.889a5.727,5.727,0,0,1,4.321,1.259,3.263,3.263,0,0,1,1.108,2.412v30.984a3.263,3.263,0,0,1-1.109,2.413A5.524,5.524,0,0,1,974.026,812.884Zm.012-36.917c-.163,0-.328.007-.494.021l-21.376,1.889c-1.607.142-2.916,1.253-2.916,2.475v26.684c0,1.222,1.308,2.333,2.916,2.475l21.376,1.889a4.236,4.236,0,0,0,3.205-.88,1.812,1.812,0,0,0,.634-1.333V778.2a1.814,1.814,0,0,0-.634-1.333A4.04,4.04,0,0,0,974.038,775.966Z" transform="translate(-947.79 -774.505)" fill="#414042"/>
        </g>
        <g id="Group_11682" data-name="Group 11682" transform="translate(4.783 0.732)">
          <path id="Path_10844" data-name="Path 10844" d="M969.11,819.754l-21.376-2.67a4.476,4.476,0,0,1-3.582-4.527V774.845a4.476,4.476,0,0,1,3.582-4.527l21.376-2.67a4.061,4.061,0,0,1,4.635,4.158V815.6A4.061,4.061,0,0,1,969.11,819.754Z" transform="translate(-944.152 -767.613)" fill="#6d6e71"/>
        </g>
        <g id="Group_11683" data-name="Group 11683" transform="translate(4.052)">
          <path id="Path_10845" data-name="Path 10845" d="M969.657,820.5a5.357,5.357,0,0,1-.657-.041l-21.376-2.67a5.178,5.178,0,0,1-4.223-5.253V774.826a5.176,5.176,0,0,1,4.223-5.252L969,766.9a4.8,4.8,0,0,1,3.825,1.141,4.906,4.906,0,0,1,1.631,3.743v43.79a4.906,4.906,0,0,1-1.631,3.743A4.735,4.735,0,0,1,969.657,820.5Zm-.476-1.492a3.353,3.353,0,0,0,2.676-.787,3.462,3.462,0,0,0,1.137-2.646v-43.79a3.462,3.462,0,0,0-1.137-2.646,3.357,3.357,0,0,0-2.676-.787l-21.376,2.67a3.749,3.749,0,0,0-2.942,3.8v37.713a3.751,3.751,0,0,0,2.942,3.8Z" transform="translate(-943.402 -766.862)" fill="#414042"/>
        </g>
        <g id="Group_11684" data-name="Group 11684" transform="translate(2.218 0.732)">
          <path id="Path_10846" data-name="Path 10846" d="M966.478,819.754l-21.377-2.67a4.475,4.475,0,0,1-3.581-4.527V774.845a4.475,4.475,0,0,1,3.581-4.527l21.377-2.67a4.061,4.061,0,0,1,4.634,4.158V815.6A4.061,4.061,0,0,1,966.478,819.754Z" transform="translate(-941.52 -767.613)" fill="#f1f2f2"/>
        </g>
        <g id="Group_11685" data-name="Group 11685" transform="translate(2.218 11.656)">
          <path id="Path_10847" data-name="Path 10847" d="M971.112,815.879V778.82L941.52,808.413v4.427a4.475,4.475,0,0,0,3.581,4.527l21.377,2.67A4.061,4.061,0,0,0,971.112,815.879Z" transform="translate(-941.52 -778.82)" fill="#d1d3d4"/>
        </g>
        <g id="Group_11686" data-name="Group 11686" transform="translate(1.487)">
          <path id="Path_10848" data-name="Path 10848" d="M967.025,820.5a5.345,5.345,0,0,1-.657-.041l-21.376-2.67a5.178,5.178,0,0,1-4.223-5.253V774.826a5.176,5.176,0,0,1,4.223-5.252l21.376-2.671a4.8,4.8,0,0,1,3.824,1.141,4.9,4.9,0,0,1,1.632,3.743v43.79a4.9,4.9,0,0,1-1.632,3.743A4.731,4.731,0,0,1,967.025,820.5Zm-.007-52.178a3.842,3.842,0,0,0-.469.03l-21.377,2.67a3.749,3.749,0,0,0-2.941,3.8v37.713a3.752,3.752,0,0,0,2.941,3.8l21.377,2.669a3.348,3.348,0,0,0,2.676-.787,3.462,3.462,0,0,0,1.137-2.646v-43.79a3.462,3.462,0,0,0-1.137-2.646A3.292,3.292,0,0,0,967.019,768.324Z" transform="translate(-940.77 -766.862)" fill="#414042"/>
        </g>
        <g id="Group_11687" data-name="Group 11687" transform="translate(0.731 11.488)">
          <rect id="Rectangle_5267" data-name="Rectangle 5267" width="3.067" height="7.324" rx="0.859" fill="#fff"/>
        </g>
        <g id="Group_11688" data-name="Group 11688" transform="translate(2.208 11.489)">
          <path id="Path_10849" data-name="Path 10849" d="M942.677,778.648H941.51v7.324h1.167c.234,0,.423-.255.423-.571v-6.182C943.1,778.9,942.911,778.648,942.677,778.648Z" transform="translate(-941.51 -778.648)" fill="#bcbec0"/>
        </g>
        <g id="Group_11689" data-name="Group 11689" transform="translate(0 10.756)">
          <path id="Path_10850" data-name="Path 10850" d="M942.205,786.684h-1.392a1.571,1.571,0,0,1-1.568-1.569v-5.648a1.571,1.571,0,0,1,1.568-1.569h1.392a1.571,1.571,0,0,1,1.568,1.569v5.648A1.571,1.571,0,0,1,942.205,786.684Zm-1.392-7.324a.107.107,0,0,0-.106.107v5.648a.107.107,0,0,0,.106.107h1.392a.106.106,0,0,0,.106-.107v-5.648a.107.107,0,0,0-.106-.107Z" transform="translate(-939.245 -777.897)" fill="#414042"/>
        </g>
        <g id="Group_11690" data-name="Group 11690" transform="translate(0.731 33.728)">
          <rect id="Rectangle_5268" data-name="Rectangle 5268" width="3.067" height="7.324" rx="0.859" fill="#fff"/>
        </g>
        <g id="Group_11691" data-name="Group 11691" transform="translate(2.208 33.728)">
          <path id="Path_10851" data-name="Path 10851" d="M942.677,801.463H941.51v7.324h1.167c.234,0,.423-.256.423-.571v-6.182C943.1,801.719,942.911,801.463,942.677,801.463Z" transform="translate(-941.51 -801.463)" fill="#bcbec0"/>
        </g>
        <g id="Group_11692" data-name="Group 11692" transform="translate(0 32.997)">
          <path id="Path_10852" data-name="Path 10852" d="M942.205,809.5h-1.392a1.571,1.571,0,0,1-1.568-1.569v-5.648a1.571,1.571,0,0,1,1.568-1.569h1.392a1.571,1.571,0,0,1,1.568,1.569v5.648A1.571,1.571,0,0,1,942.205,809.5Zm-1.392-7.324a.107.107,0,0,0-.106.107v5.648a.107.107,0,0,0,.106.107h1.392a.106.106,0,0,0,.106-.107v-5.648a.106.106,0,0,0-.106-.107Z" transform="translate(-939.245 -800.713)" fill="#414042"/>
        </g>
        <g id="Group_11693" data-name="Group 11693" transform="translate(12.978 21.891)">
          <path id="Path_10853" data-name="Path 10853" d="M960.76,794.244c0,3.264-2.408,5.378-4.841,4.842-1.992-.44-3.36-2.577-3.36-4.842s1.368-4.4,3.36-4.841C958.352,788.867,960.76,790.981,960.76,794.244Z" transform="translate(-952.559 -789.32)" fill="#58595b"/>
        </g>
        <g id="Group_11694" data-name="Group 11694" transform="translate(12.247 21.162)">
          <path id="Path_10854" data-name="Path 10854" d="M956.647,799.878a4.192,4.192,0,0,1-.9-.1,5.889,5.889,0,0,1,0-11.11,4.355,4.355,0,0,1,3.672.9,6.3,6.3,0,0,1,0,9.316A4.419,4.419,0,0,1,956.647,799.878Zm.012-9.846a2.747,2.747,0,0,0-.6.066,4.449,4.449,0,0,0,0,8.253,2.859,2.859,0,0,0,2.442-.609,4.851,4.851,0,0,0,0-7.036A2.929,2.929,0,0,0,956.658,790.032Z" transform="translate(-951.809 -788.572)" fill="#414042"/>
        </g>
        <g id="Group_11695" data-name="Group 11695" transform="translate(14.153 22.901)">
          <path id="Path_10855" data-name="Path 10855" d="M959.486,794.251c0-2.131-1.2-3.737-2.644-3.884v-.011h-1.279v.283a4.526,4.526,0,0,0,0,7.225v.3h1.279v-.026C958.288,797.989,959.486,796.382,959.486,794.251Z" transform="translate(-953.764 -790.356)" fill="#6d6e71"/>
        </g>
        <g id="Group_11696" data-name="Group 11696" transform="translate(12.438 23.337)">
          <path id="Path_10856" data-name="Path 10856" d="M957.727,794.281c0,2.1-1.465,3.642-3.114,3.464a3.6,3.6,0,0,1,0-6.929C956.262,790.64,957.727,792.183,957.727,794.281Z" transform="translate(-952.005 -790.803)" fill="#9c999b"/>
        </g>
        <g id="Group_11697" data-name="Group 11697" transform="translate(11.707 22.606)">
          <path id="Path_10857" data-name="Path 10857" d="M957.727,794.281c0,2.1-1.465,3.642-3.114,3.464a3.6,3.6,0,0,1,0-6.929C956.262,790.64,957.727,792.183,957.727,794.281Z" transform="translate(-951.274 -790.072)" fill="#f1f2f2"/>
          <path id="Path_10858" data-name="Path 10858" d="M954.854,798.472a3.012,3.012,0,0,1-.337-.018,4.323,4.323,0,0,1,0-8.382,3.222,3.222,0,0,1,2.529.85,4.7,4.7,0,0,1,0,6.682A3.266,3.266,0,0,1,954.854,798.472Zm-.006-6.957c-.057,0-.116,0-.175.01a2.894,2.894,0,0,0,0,5.475,1.8,1.8,0,0,0,1.395-.484,3.246,3.246,0,0,0,0-4.506A1.828,1.828,0,0,0,954.848,791.515Z" transform="translate(-951.255 -790.053)" fill="#414042"/>
        </g>
      </g>
    </g>
    <g id="Group_11707" data-name="Group 11707" transform="translate(137.568 79.439)">
      <g id="Group_11700" data-name="Group 11700" transform="translate(0.734 0.728)">
        <path id="Path_10859" data-name="Path 10859" d="M996.9,813.838a7.772,7.772,0,1,0,10.448-3.412A7.771,7.771,0,0,0,996.9,813.838Z" transform="translate(-996.054 -809.582)" fill="#ffb936"/>
      </g>
      <g id="Group_11701" data-name="Group 11701" transform="translate(3.057 3.051)">
        <path id="Path_10860" data-name="Path 10860" d="M999.029,814.949a5.45,5.45,0,1,0,7.326-2.392A5.451,5.451,0,0,0,999.029,814.949Z" transform="translate(-998.438 -811.965)" fill="#ffd586"/>
      </g>
      <g id="Group_11702" data-name="Group 11702">
        <path id="Path_10861" data-name="Path 10861" d="M1003.8,825.844a8.5,8.5,0,1,1,6.242-14.3l-1.071,1a7.043,7.043,0,1,0,1.873,4.43l1.46-.078a8.52,8.52,0,0,1-8.5,8.949Z" transform="translate(-995.302 -808.836)" fill="#414042"/>
      </g>
      <g id="Group_11703" data-name="Group 11703" transform="translate(14.496 4.027)">
        <path id="Path_10862" data-name="Path 10862" d="M1010.872,815.239a7.1,7.1,0,0,0-.7-1.5l1.244-.769a8.527,8.527,0,0,1,.844,1.816Z" transform="translate(-1010.173 -812.967)" fill="#414042"/>
      </g>
      <g id="Group_11706" data-name="Group 11706" transform="translate(5.394 3.125)">
        <g id="Group_11704" data-name="Group 11704" transform="translate(0 1.702)">
          <path id="Path_10863" data-name="Path 10863" d="M1004.8,821.136h-3.962v-1.462h3.962a.74.74,0,0,0,0-1.481h-1.584a2.2,2.2,0,1,1,0-4.4h3.847v1.462h-3.847a.74.74,0,1,0,0,1.481h1.584a2.2,2.2,0,0,1,0,4.4Z" transform="translate(-1000.836 -813.788)" fill="#414042"/>
        </g>
        <g id="Group_11705" data-name="Group 11705" transform="translate(2.381)">
          <rect id="Rectangle_5269" data-name="Rectangle 5269" width="1.462" height="10.752" fill="#414042"/>
        </g>
      </g>
    </g>
    <g id="Group_11711" data-name="Group 11711" transform="translate(25.202 94.983)">
      <g id="Group_11708" data-name="Group 11708">
        <rect id="Rectangle_5270" data-name="Rectangle 5270" width="2.67" height="1.462" fill="#414042"/>
      </g>
      <g id="Group_11709" data-name="Group 11709" transform="translate(165.659)">
        <rect id="Rectangle_5271" data-name="Rectangle 5271" width="5.897" height="1.462" fill="#414042"/>
      </g>
      <g id="Group_11710" data-name="Group 11710" transform="translate(4.447)">
        <rect id="Rectangle_5272" data-name="Rectangle 5272" width="159.689" height="1.462" fill="#414042"/>
      </g>
    </g>
    <g id="Group_11712" data-name="Group 11712" transform="translate(173.941 68.376)">
      <path id="Path_10864" data-name="Path 10864" d="M1049.95,814.072h-9.041a8.293,8.293,0,0,1-8.293-8.292h0a8.293,8.293,0,0,1,8.293-8.293h9.041a8.293,8.293,0,0,1,8.292,8.293h0A8.293,8.293,0,0,1,1049.95,814.072Z" transform="translate(-1032.616 -797.486)" fill="#f7eded"/>
    </g>
  </g>
</svg>
