<svg xmlns="http://www.w3.org/2000/svg" width="207.536" height="93.486" viewBox="0 0 207.536 93.486">
  <g id="Group_11018" data-name="Group 11018" transform="translate(0)">
    <g id="Group_10893" data-name="Group 10893" transform="translate(0 14.784)">
      <path id="Path_10520" data-name="Path 10520" d="M487.6,428.038l171.263.512a7.559,7.559,0,0,1,7.536,7.558h0a7.559,7.559,0,0,1-7.559,7.559H621.636a5.969,5.969,0,0,0-5.97,5.969h0a5.97,5.97,0,0,0,5.97,5.97h23.972A7.387,7.387,0,0,1,653,462.994h0a7.388,7.388,0,0,1-7.387,7.388h-44.4v20.761h62.052a7.412,7.412,0,0,1,7.412,7.413h0a7.412,7.412,0,0,1-7.411,7.412L501.524,506a7.038,7.038,0,0,1-7.04-7.039h0a7.038,7.038,0,0,1,7.039-7.039H538.34V481.009H472.254a9.114,9.114,0,0,1-9.114-9.114h0a9.114,9.114,0,0,1,9.114-9.115h54.26a5.894,5.894,0,0,0,5.894-5.894h0a5.893,5.893,0,0,0-5.894-5.894H518.5a9.7,9.7,0,0,1-9.7-9.7H487.584a6.629,6.629,0,0,1-6.628-6.629h0A6.628,6.628,0,0,1,487.6,428.038Z" transform="translate(-463.14 -428.038)" fill="#f7eded"/>
    </g>
    <g id="Group_10903" data-name="Group 10903" transform="translate(95.736 33.863)">
      <g id="Group_10902" data-name="Group 10902">
        <g id="Group_10894" data-name="Group 10894" transform="translate(4.388 0.743)">
          <rect id="Rectangle_4971" data-name="Rectangle 4971" width="76.629" height="55.08" rx="1" fill="#58595b"/>
        </g>
        <g id="Group_10895" data-name="Group 10895" transform="translate(13.218 0)">
          <rect id="Rectangle_4972" data-name="Rectangle 4972" width="4.303" height="1.484" fill="#414042"/>
        </g>
        <g id="Group_10896" data-name="Group 10896" transform="translate(3.646)">
          <path id="Path_10521" data-name="Path 10521" d="M639.035,503.883H566.214a2.65,2.65,0,0,1-2.647-2.646V449.964a2.65,2.65,0,0,1,2.647-2.646h4.6V448.8h-4.6a1.164,1.164,0,0,0-1.163,1.162v51.272a1.164,1.164,0,0,0,1.163,1.162h72.821a1.163,1.163,0,0,0,1.162-1.162h1.484A2.65,2.65,0,0,1,639.035,503.883Z" transform="translate(-563.567 -447.318)" fill="#414042"/>
        </g>
        <g id="Group_10897" data-name="Group 10897" transform="translate(44.836)">
          <path id="Path_10522" data-name="Path 10522" d="M642.115,454.906H640.63v-4.942a1.163,1.163,0,0,0-1.162-1.162H605.191v-1.484h34.277a2.65,2.65,0,0,1,2.646,2.646Z" transform="translate(-605.191 -447.318)" fill="#414042"/>
        </g>
        <g id="Group_10898" data-name="Group 10898" transform="translate(8.11 5.076)">
          <rect id="Rectangle_4973" data-name="Rectangle 4973" width="68.771" height="44.697" fill="#fff"/>
        </g>
        <g id="Group_10899" data-name="Group 10899" transform="translate(0.732 52.558)">
          <path id="Path_10523" data-name="Path 10523" d="M639.569,506.751h-74.8a3.664,3.664,0,0,1-3.617-3.073l-.533-3.25h34.666l1.327,1.9H606.2l1.433-1.9h36.521l-.464,2.826A4.171,4.171,0,0,1,639.569,506.751Z" transform="translate(-560.623 -500.429)" fill="#fff"/>
        </g>
        <g id="Group_10900" data-name="Group 10900" transform="translate(0 52.438)">
          <path id="Path_10524" data-name="Path 10524" d="M639.562,507.492h-74.8a4.393,4.393,0,0,1-4.35-3.7l-.532-3.249,1.465-.24.533,3.249a2.913,2.913,0,0,0,2.885,2.451h74.8Z" transform="translate(-559.883 -500.308)" fill="#414042"/>
        </g>
        <g id="Group_10901" data-name="Group 10901" transform="translate(44.642 51.816)">
          <path id="Path_10525" data-name="Path 10525" d="M607.027,503.068h-2.032v-1.484h1.292l1.434-1.9h29.963v1.484H608.461Z" transform="translate(-604.995 -499.679)" fill="#414042"/>
        </g>
      </g>
    </g>
    <g id="Group_10904" data-name="Group 10904" transform="translate(95.736 33.863)" opacity="0.3">
      <path id="Path_10526" data-name="Path 10526" d="M603.874,506.2v.032h1.484V447.318h-.639v.742H577.4v-.742h-4.3v.742h-2.327v-.742h-4.6a2.65,2.65,0,0,0-2.647,2.646v49.912h-2.161l-.02-.12-.732.12h0l-.732.121.532,3.249a4.38,4.38,0,0,0,1.92,2.953h41.539Z" transform="translate(-559.883 -447.318)" fill="#414042"/>
    </g>
    <g id="Group_10921" data-name="Group 10921" transform="translate(73.863 10.779)">
      <g id="Group_10920" data-name="Group 10920">
        <g id="Group_10905" data-name="Group 10905" transform="translate(0.742 0.742)">
          <path id="Path_10527" data-name="Path 10527" d="M602.415,505.963V428.548a3.807,3.807,0,0,0-3.807-3.807H542.337a3.807,3.807,0,0,0-3.807,3.808v77.414Z" transform="translate(-538.53 -424.741)" fill="#bcbec0"/>
        </g>
        <g id="Group_10906" data-name="Group 10906" transform="translate(5.245 0.742)">
          <path id="Path_10528" data-name="Path 10528" d="M597.245,505.963V428.548a3.553,3.553,0,0,0-3.228-3.807H546.308a3.555,3.555,0,0,0-3.228,3.808v77.414Z" transform="translate(-543.08 -424.741)" fill="#fff"/>
        </g>
        <g id="Group_10907" data-name="Group 10907" transform="translate(0.742 0.742)">
          <path id="Path_10529" data-name="Path 10529" d="M538.53,434.61v-6.668a3.2,3.2,0,0,1,3.2-3.2h57.482a3.2,3.2,0,0,1,3.2,3.2v6.668Z" transform="translate(-538.53 -424.741)" fill="#bcbec0"/>
        </g>
        <g id="Group_10908" data-name="Group 10908" transform="translate(0 0)">
          <path id="Path_10530" data-name="Path 10530" d="M539.264,460.592H537.78V427.935a3.947,3.947,0,0,1,3.944-3.944h8.483v1.484h-8.483a2.462,2.462,0,0,0-2.459,2.459Z" transform="translate(-537.78 -423.991)" fill="#414042"/>
        </g>
        <g id="Group_10909" data-name="Group 10909" transform="translate(23.525 0)">
          <path id="Path_10531" data-name="Path 10531" d="M603.4,505.987h-1.484V427.935a2.462,2.462,0,0,0-2.459-2.459h-37.9v-1.484h37.9a3.948,3.948,0,0,1,3.943,3.944Z" transform="translate(-561.553 -423.991)" fill="#414042"/>
        </g>
        <g id="Group_10910" data-name="Group 10910" transform="translate(15.525)">
          <rect id="Rectangle_4974" data-name="Rectangle 4974" width="4.388" height="1.484" fill="#414042"/>
        </g>
        <g id="Group_10911" data-name="Group 10911" transform="translate(0.742 10.042)">
          <rect id="Rectangle_4975" data-name="Rectangle 4975" width="63.885" height="1.484" fill="#414042"/>
        </g>
        <g id="Group_10912" data-name="Group 10912" transform="translate(8.079 5.478)">
          <rect id="Rectangle_4976" data-name="Rectangle 4976" width="1.487" height="1.484" fill="#414042"/>
        </g>
        <g id="Group_10913" data-name="Group 10913" transform="translate(12.392 5.478)">
          <rect id="Rectangle_4977" data-name="Rectangle 4977" width="1.487" height="1.484" fill="#414042"/>
        </g>
        <g id="Group_10914" data-name="Group 10914" transform="translate(16.707 5.478)">
          <rect id="Rectangle_4978" data-name="Rectangle 4978" width="1.487" height="1.484" fill="#414042"/>
        </g>
        <g id="Group_10915" data-name="Group 10915" transform="translate(9.3 18.155)">
          <rect id="Rectangle_4979" data-name="Rectangle 4979" width="46.768" height="18.447" fill="#ff6846"/>
        </g>
        <g id="Group_10916" data-name="Group 10916" transform="translate(9.305 48.315)">
          <rect id="Rectangle_4980" data-name="Rectangle 4980" width="14.22" height="18.447" fill="#e6e7e8"/>
        </g>
        <g id="Group_10917" data-name="Group 10917" transform="translate(25.579 48.315)">
          <rect id="Rectangle_4981" data-name="Rectangle 4981" width="14.22" height="18.447" fill="#f1f2f2"/>
        </g>
        <g id="Group_10918" data-name="Group 10918" transform="translate(41.854 48.315)">
          <rect id="Rectangle_4982" data-name="Rectangle 4982" width="14.22" height="18.447" fill="#e6e7e8"/>
        </g>
        <g id="Group_10919" data-name="Group 10919" transform="translate(22.746 41.696)">
          <rect id="Rectangle_4983" data-name="Rectangle 4983" width="19.886" height="1.484" fill="#414042"/>
        </g>
      </g>
    </g>
    <g id="Group_10938" data-name="Group 10938" transform="translate(144.296 42.715)">
      <g id="Group_10930" data-name="Group 10930" transform="translate(18.669)">
        <g id="Group_10922" data-name="Group 10922" transform="translate(13.772 27.58)">
          <rect id="Rectangle_4984" data-name="Rectangle 4984" width="1.484" height="5.706" fill="#414042"/>
        </g>
        <g id="Group_10923" data-name="Group 10923" transform="translate(0.743 0.742)">
          <path id="Path_10532" data-name="Path 10532" d="M642.342,457.013a13.772,13.772,0,1,0,13.772,13.771A13.77,13.77,0,0,0,642.342,457.013Zm0,24.234A10.463,10.463,0,1,1,652.8,470.784,10.463,10.463,0,0,1,642.342,481.247Z" transform="translate(-628.571 -457.013)" fill="#6d6e71"/>
        </g>
        <g id="Group_10924" data-name="Group 10924">
          <path id="Path_10533" data-name="Path 10533" d="M642.335,485.291a14.514,14.514,0,1,1,14.513-14.514A14.531,14.531,0,0,1,642.335,485.291Zm0-27.543a13.029,13.029,0,1,0,13.03,13.029A13.044,13.044,0,0,0,642.334,457.747Z" transform="translate(-627.82 -456.263)" fill="#414042"/>
        </g>
        <g id="Group_10925" data-name="Group 10925" transform="translate(13.2 5)">
          <path id="Path_10534" data-name="Path 10534" d="M651.36,471.518h-1.484a8.728,8.728,0,0,0-8.716-8.717v-1.484A10.213,10.213,0,0,1,651.36,471.518Z" transform="translate(-641.159 -461.316)" fill="#414042"/>
        </g>
        <g id="Group_10926" data-name="Group 10926" transform="translate(11.794 31.604)">
          <rect id="Rectangle_4985" data-name="Rectangle 4985" width="5.441" height="18.238" fill="#ff6846"/>
        </g>
        <g id="Group_10927" data-name="Group 10927" transform="translate(11.052 30.862)">
          <path id="Path_10535" data-name="Path 10535" d="M643.78,507.171h-2.657a2.137,2.137,0,0,1-2.135-2.134V487.45h6.925v9.678h-1.484v-8.194h-3.956v16.1a.65.65,0,0,0,.65.649h2.657a.65.65,0,0,0,.649-.649V502.49h1.484v2.548A2.136,2.136,0,0,1,643.78,507.171Z" transform="translate(-638.988 -487.45)" fill="#414042"/>
        </g>
        <g id="Group_10928" data-name="Group 10928" transform="translate(16.493 41.92)">
          <rect id="Rectangle_4986" data-name="Rectangle 4986" width="1.484" height="2.857" fill="#414042"/>
        </g>
        <g id="Group_10929" data-name="Group 10929" transform="translate(11.662 34.778)">
          <rect id="Rectangle_4987" data-name="Rectangle 4987" width="5.706" height="1.484" fill="#414042"/>
        </g>
      </g>
      <g id="Group_10931" data-name="Group 10931" transform="translate(10.422 4.294)">
        <rect id="Rectangle_4988" data-name="Rectangle 4988" width="8.599" height="1.484" fill="#414042"/>
      </g>
      <g id="Group_10932" data-name="Group 10932" transform="translate(10.422 9.024)">
        <rect id="Rectangle_4989" data-name="Rectangle 4989" width="6.826" height="1.484" fill="#414042"/>
      </g>
      <g id="Group_10933" data-name="Group 10933" transform="translate(0.111 13.753)">
        <rect id="Rectangle_4990" data-name="Rectangle 4990" width="17.137" height="1.484" fill="#414042"/>
      </g>
      <g id="Group_10934" data-name="Group 10934" transform="translate(0 18.482)">
        <rect id="Rectangle_4991" data-name="Rectangle 4991" width="17.248" height="1.484" fill="#414042"/>
      </g>
      <g id="Group_10935" data-name="Group 10935" transform="translate(0 23.212)">
        <rect id="Rectangle_4992" data-name="Rectangle 4992" width="19.022" height="1.484" fill="#414042"/>
      </g>
      <g id="Group_10936" data-name="Group 10936" transform="translate(0 27.941)">
        <rect id="Rectangle_4993" data-name="Rectangle 4993" width="25.03" height="1.484" fill="#414042"/>
      </g>
      <g id="Group_10937" data-name="Group 10937" transform="translate(0.237 2.943)">
        <path id="Path_10536" data-name="Path 10536" d="M616.027,467.346l-.754-1.752h-3.4l-.754,1.752h-1.926l3.5-8.109h1.752l3.5,8.109Zm-2.447-5.7L612.559,464h2.031Z" transform="translate(-609.194 -459.237)" fill="#ffb936"/>
      </g>
    </g>
    <g id="Group_10958" data-name="Group 10958" transform="translate(106.835 65.761)">
      <g id="Group_10940" data-name="Group 10940" transform="translate(0.742 3.673)">
        <g id="Group_10939" data-name="Group 10939">
          <path id="Path_10537" data-name="Path 10537" d="M571.925,494.61a4.909,4.909,0,0,1-.071-1.083c0-.088,0-.192,0-.337a12.81,12.81,0,0,1,3.763-9.083c.088-.088.148-.152.2-.207a4.8,4.8,0,0,1,.714-.635l2.1,2.767a1.667,1.667,0,0,0-.289.254c-.067.072-.149.158-.268.277a9.331,9.331,0,0,0-2.746,6.627c0,.187,0,.323-.007.434a1.707,1.707,0,0,0,.032.453Z" transform="translate(-571.849 -483.264)" fill="#a7a9ac"/>
        </g>
      </g>
      <g id="Group_10942" data-name="Group 10942" transform="translate(1.281 16.267)">
        <g id="Group_10941" data-name="Group 10941">
          <path id="Path_10538" data-name="Path 10538" d="M584.711,506.169a12.863,12.863,0,0,1-11.836-7.844,12.939,12.939,0,0,1-.481-1.347l3.33-.988a9.5,9.5,0,0,0,.351.981,9.424,9.424,0,0,0,4.989,4.989,9.456,9.456,0,0,0,7.3,0,9.422,9.422,0,0,0,4.989-4.99l3.2,1.354a12.835,12.835,0,0,1-11.836,7.845Z" transform="translate(-572.394 -495.99)" fill="#ffb936"/>
        </g>
      </g>
      <g id="Group_10944" data-name="Group 10944" transform="translate(7.435 0.758)">
        <g id="Group_10943" data-name="Group 10943">
          <path id="Path_10539" data-name="Path 10539" d="M597.346,495.82l-3.4-.717a9.447,9.447,0,0,0,.2-1.944,9.391,9.391,0,0,0-5.725-8.636,9.459,9.459,0,0,0-7.3,0c-.157.067-.272.112-.366.148a1.648,1.648,0,0,0-.36.181l-1.788-2.979a4.834,4.834,0,0,1,.883-.437c.072-.028.159-.062.279-.113a12.937,12.937,0,0,1,10,0,12.835,12.835,0,0,1,7.845,11.835A12.945,12.945,0,0,1,597.346,495.82Z" transform="translate(-578.613 -480.318)" fill="#ff6846"/>
        </g>
      </g>
      <g id="Group_10946" data-name="Group 10946" transform="translate(0 3.104)">
        <g id="Group_10945" data-name="Group 10945">
          <path id="Path_10540" data-name="Path 10540" d="M572.269,495.286a1.15,1.15,0,0,1-1.146-1.045,5.433,5.433,0,0,1-.019-.742c0-.084,0-.181,0-.316a13.522,13.522,0,0,1,2.165-7.371,13.939,13.939,0,0,1,1.852-2.273l.114-.119a6.033,6.033,0,0,1,.462-.451,1.175,1.175,0,0,1,.877-.275,1.155,1.155,0,0,1,.794.448l1.622,2.136a1.152,1.152,0,0,1-.114,1.517l-.281.285a8.585,8.585,0,0,0-2.531,6.1l-.006.4a1.421,1.421,0,0,0,.022.375l.115.733-3.756.583A1.151,1.151,0,0,1,572.269,495.286Zm4.147-10.949c-.02.022-.04.043-.062.065l-.173.18a12.452,12.452,0,0,0-1.655,2.028,12.057,12.057,0,0,0-1.933,6.573c0,.156,0,.268-.006.361,0,.072,0,.138,0,.2l2-.31,0-.255a10.073,10.073,0,0,1,2.964-7.153l.088-.087Z" transform="translate(-571.1 -482.689)" fill="#414042"/>
        </g>
      </g>
      <g id="Group_10948" data-name="Group 10948" transform="translate(0.628 15.608)">
        <g id="Group_10947" data-name="Group 10947">
          <path id="Path_10541" data-name="Path 10541" d="M584.7,506.9a13.6,13.6,0,0,1-12.519-8.3c-.146-.347-.28-.7-.4-1.06a1.087,1.087,0,0,1,.071-.846,1.112,1.112,0,0,1,.663-.544l2.655-.788a1.091,1.091,0,0,1,1.346.7q.1.307.229.6a8.686,8.686,0,0,0,6.207,5.1,8.306,8.306,0,0,0,3.488,0,8.7,8.7,0,0,0,6.073-4.8,1.115,1.115,0,0,1,1.447-.559l2.5,1.059a1.136,1.136,0,0,1,.612.629,1.124,1.124,0,0,1-.025.87A13.579,13.579,0,0,1,584.7,506.9Zm-11.373-9.44q.1.285.221.564a12.112,12.112,0,0,0,21.995.674l-1.837-.777a10.189,10.189,0,0,1-6.948,5.3,9.762,9.762,0,0,1-4.119,0,10.167,10.167,0,0,1-7.259-5.975c-.049-.117-.1-.236-.141-.354Z" transform="translate(-571.734 -495.324)" fill="#414042"/>
        </g>
      </g>
      <g id="Group_10951" data-name="Group 10951" transform="translate(6.834)">
        <g id="Group_10949" data-name="Group 10949">
          <path id="Path_10542" data-name="Path 10542" d="M597.045,496.484a1.108,1.108,0,0,1-.228-.024l-2.68-.565a1.109,1.109,0,0,1-.862-1.277,8.632,8.632,0,0,0-11.865-9.42l-.423.179a1.112,1.112,0,0,1-1.4-.441l-1.42-2.367a1.107,1.107,0,0,1,.424-1.548,5.344,5.344,0,0,1,.631-.285l.172-.068a14.522,14.522,0,0,1,5.116-1.116l.041,1.483a13.068,13.068,0,0,0-4.6,1.007l-.2.078-.1.042,1.037,1.729.037-.016.106-.044a10.172,10.172,0,0,1,7.875,0,10.108,10.108,0,0,1,6.179,9.32,10.308,10.308,0,0,1-.092,1.365l1.951.412a12.275,12.275,0,0,0,.13-1.776A12.118,12.118,0,0,0,589.485,482l.578-1.367a13.577,13.577,0,0,1,8.295,12.517,13.73,13.73,0,0,1-.216,2.422,1.1,1.1,0,0,1-.471.72A1.126,1.126,0,0,1,597.045,496.484Z" transform="translate(-578.005 -479.552)" fill="#414042"/>
        </g>
        <g id="Group_10950" data-name="Group 10950" transform="translate(8.884 0.209)">
          <path id="Path_10543" data-name="Path 10543" d="M588.469,481.595a13.139,13.139,0,0,0-1.487-.373l.276-1.459a14.359,14.359,0,0,1,1.658.417Z" transform="translate(-586.982 -479.763)" fill="#414042"/>
        </g>
      </g>
      <g id="Group_10952" data-name="Group 10952" transform="translate(7.529 13.234)">
        <rect id="Rectangle_4994" data-name="Rectangle 4994" width="2.657" height="5.185" fill="#fff"/>
      </g>
      <g id="Group_10953" data-name="Group 10953" transform="translate(12.028 11.188)">
        <rect id="Rectangle_4995" data-name="Rectangle 4995" width="2.657" height="7.231" fill="#fff"/>
      </g>
      <g id="Group_10954" data-name="Group 10954" transform="translate(16.527 8.199)">
        <rect id="Rectangle_4996" data-name="Rectangle 4996" width="2.656" height="10.22" fill="#fff"/>
      </g>
      <g id="Group_10955" data-name="Group 10955" transform="translate(6.787 12.492)">
        <path id="Path_10544" data-name="Path 10544" d="M582.1,498.845h-4.141v-6.67H582.1Zm-2.657-1.484h1.173v-3.7h-1.173Z" transform="translate(-577.958 -492.175)" fill="#414042"/>
      </g>
      <g id="Group_10956" data-name="Group 10956" transform="translate(11.286 10.446)">
        <path id="Path_10545" data-name="Path 10545" d="M586.645,498.823H582.5v-8.715h4.141Zm-2.657-1.484h1.173v-5.747h-1.173Z" transform="translate(-582.504 -490.108)" fill="#414042"/>
      </g>
      <g id="Group_10957" data-name="Group 10957" transform="translate(15.785 7.457)">
        <path id="Path_10546" data-name="Path 10546" d="M591.191,498.792h-4.14v-11.7h4.14Zm-2.656-1.484h1.172v-8.736h-1.172Z" transform="translate(-587.051 -487.087)" fill="#414042"/>
      </g>
    </g>
    <g id="Group_10959" data-name="Group 10959" transform="translate(74.605 48.744)" opacity="0.3">
      <path id="Path_10547" data-name="Path 10547" d="M552.488,506.355h.742a19.948,19.948,0,0,0-3.378-11.124h2.163v.742h.913a3.108,3.108,0,0,0,3.1-3.105V465.461a3.108,3.108,0,0,0-3.1-3.105H545.9v.742h-2.687v-.742H538.53v44h13.958Z" transform="translate(-538.53 -462.356)" fill="#414042"/>
    </g>
    <g id="Group_10990" data-name="Group 10990" transform="translate(44.301 48.744)">
      <g id="Group_10960" data-name="Group 10960" transform="translate(0.742 0.742)">
        <rect id="Rectangle_4997" data-name="Rectangle 4997" width="44.345" height="32.132" rx="2.024" fill="#6d6e71"/>
      </g>
      <g id="Group_10961" data-name="Group 10961" transform="translate(0.742 0.742)">
        <path id="Path_10548" data-name="Path 10548" d="M508.657,469.957v-4.628a2.223,2.223,0,0,1,2.223-2.223h39.9A2.222,2.222,0,0,1,553,465.329v4.628Z" transform="translate(-508.657 -463.106)" fill="#bcbec0"/>
      </g>
      <g id="Group_10962" data-name="Group 10962" transform="translate(0.743 6.971)">
        <rect id="Rectangle_4998" data-name="Rectangle 4998" width="44.344" height="1.484" fill="#414042"/>
      </g>
      <g id="Group_10963" data-name="Group 10963" transform="translate(5.835 3.802)">
        <rect id="Rectangle_4999" data-name="Rectangle 4999" width="1.774" height="1.484" fill="#414042"/>
      </g>
      <g id="Group_10964" data-name="Group 10964" transform="translate(9.943 3.802)">
        <rect id="Rectangle_5000" data-name="Rectangle 5000" width="1.775" height="1.484" fill="#414042"/>
      </g>
      <g id="Group_10965" data-name="Group 10965" transform="translate(14.051 3.802)">
        <rect id="Rectangle_5001" data-name="Rectangle 5001" width="1.774" height="1.484" fill="#414042"/>
      </g>
      <g id="Group_10966" data-name="Group 10966" transform="translate(35.698)">
        <path id="Path_10549" data-name="Path 10549" d="M551.007,495.973h-.913v-1.484h.913a1.623,1.623,0,0,0,1.62-1.621V465.461a1.623,1.623,0,0,0-1.62-1.621h-7.026v-1.484h7.026a3.108,3.108,0,0,1,3.1,3.105v27.407A3.108,3.108,0,0,1,551.007,495.973Z" transform="translate(-543.981 -462.356)" fill="#414042"/>
      </g>
      <g id="Group_10967" data-name="Group 10967" transform="translate(27.408 0)">
        <rect id="Rectangle_5002" data-name="Rectangle 5002" width="5.604" height="1.484" fill="#414042"/>
      </g>
      <g id="Group_10968" data-name="Group 10968">
        <path id="Path_10550" data-name="Path 10550" d="M511.709,495.973h-.7a3.109,3.109,0,0,1-3.105-3.105V465.461a3.109,3.109,0,0,1,3.105-3.105h23.2v1.484h-23.2a1.623,1.623,0,0,0-1.621,1.621v27.407a1.623,1.623,0,0,0,1.621,1.621h.7Z" transform="translate(-507.907 -462.356)" fill="#414042"/>
      </g>
      <g id="Group_10969" data-name="Group 10969" transform="translate(3.63 24.672)">
        <path id="Path_10551" data-name="Path 10551" d="M550.228,506.615a19.327,19.327,0,1,0-38.653,0Z" transform="translate(-511.575 -487.288)" fill="#a7a9ac"/>
      </g>
      <g id="Group_10970" data-name="Group 10970" transform="translate(2.888 23.93)">
        <path id="Path_10552" data-name="Path 10552" d="M550.963,506.607h-1.484a18.584,18.584,0,0,0-37.169,0h-1.484a20.069,20.069,0,1,1,40.138,0Z" transform="translate(-510.825 -486.538)" fill="#414042"/>
      </g>
      <g id="Group_10971" data-name="Group 10971" transform="translate(6.593 27.635)">
        <path id="Path_10553" data-name="Path 10553" d="M547.3,506.646a16.364,16.364,0,0,0-32.728,0Z" transform="translate(-514.569 -490.282)" fill="#ffb936"/>
      </g>
      <g id="Group_10972" data-name="Group 10972" transform="translate(14.049 35.092)">
        <path id="Path_10554" data-name="Path 10554" d="M539.919,506.724a8.907,8.907,0,1,0-17.815,0Z" transform="translate(-522.104 -497.817)" fill="#fff"/>
      </g>
      <g id="Group_10973" data-name="Group 10973" transform="translate(20.926 41.968)">
        <path id="Path_10555" data-name="Path 10555" d="M533.114,506.8a2.031,2.031,0,0,0-4.061,0Z" transform="translate(-529.053 -504.766)" fill="#414042"/>
      </g>
      <g id="Group_10974" data-name="Group 10974" transform="translate(5.85 26.893)">
        <path id="Path_10556" data-name="Path 10556" d="M548.031,506.638h-1.484a15.622,15.622,0,1,0-31.243,0h-1.484a17.106,17.106,0,0,1,34.212,0Z" transform="translate(-513.819 -489.532)" fill="#414042"/>
      </g>
      <g id="Group_10975" data-name="Group 10975" transform="translate(22.175 27.374)">
        <rect id="Rectangle_5003" data-name="Rectangle 5003" width="3.131" height="1.484" transform="translate(0 3.131) rotate(-89.293)" fill="#414042"/>
      </g>
      <g id="Group_10976" data-name="Group 10976" transform="translate(28.296 29.272)">
        <rect id="Rectangle_5004" data-name="Rectangle 5004" width="3.018" height="1.485" transform="translate(0 2.594) rotate(-59.28)" fill="#414042"/>
      </g>
      <g id="Group_10977" data-name="Group 10977" transform="translate(33.902 35.174)">
        <rect id="Rectangle_5005" data-name="Rectangle 5005" width="3.284" height="1.484" transform="translate(0 1.606) rotate(-29.268)" fill="#414042"/>
      </g>
      <g id="Group_10978" data-name="Group 10978" transform="translate(8.416 35.16)">
        <rect id="Rectangle_5006" data-name="Rectangle 5006" width="1.485" height="3.284" transform="translate(0 1.275) rotate(-59.212)" fill="#414042"/>
      </g>
      <g id="Group_10979" data-name="Group 10979" transform="translate(14.81 29.276)">
        <rect id="Rectangle_5007" data-name="Rectangle 5007" width="1.484" height="3.017" transform="translate(0 0.724) rotate(-29.205)" fill="#414042"/>
      </g>
      <g id="Group_10980" data-name="Group 10980" transform="translate(22.976 35.619)">
        <path id="Path_10557" data-name="Path 10557" d="M531.124,505.192l7.414-6.843.41.406-6.77,7.481Z" transform="translate(-531.124 -498.349)" fill="#414042"/>
      </g>
      <g id="Group_10981" data-name="Group 10981" transform="translate(22.214 21.085)">
        <rect id="Rectangle_5008" data-name="Rectangle 5008" width="1.484" height="3.587" fill="#414042"/>
      </g>
      <g id="Group_10982" data-name="Group 10982" transform="translate(19.001 18.736)">
        <rect id="Rectangle_5009" data-name="Rectangle 5009" width="7.828" height="3.866" rx="0.803" fill="#e6e7e8"/>
      </g>
      <g id="Group_10983" data-name="Group 10983" transform="translate(18.258 17.994)">
        <path id="Path_10558" data-name="Path 10558" d="M534.133,485.89h-6.238a1.539,1.539,0,0,1-1.538-1.537v-2.277a1.539,1.539,0,0,1,1.538-1.537h6.238a1.539,1.539,0,0,1,1.537,1.537v2.277A1.539,1.539,0,0,1,534.133,485.89Zm-6.238-3.866-.053,2.329,6.292.052a.053.053,0,0,0,.052-.052v-2.277Z" transform="translate(-526.357 -480.539)" fill="#414042"/>
      </g>
      <g id="Group_10984" data-name="Group 10984" transform="translate(32.719 24.48)">
        <rect id="Rectangle_5010" data-name="Rectangle 5010" width="2.755" height="1.484" transform="translate(0 2.386) rotate(-59.995)" fill="#414042"/>
      </g>
      <g id="Group_10985" data-name="Group 10985" transform="translate(31.526 21.77)">
        <rect id="Rectangle_5011" data-name="Rectangle 5011" width="6.013" height="2.969" rx="0.803" transform="translate(1.485 0) rotate(30.01)" fill="#e6e7e8"/>
      </g>
      <g id="Group_10986" data-name="Group 10986" transform="translate(31.075 21.318)">
        <path id="Path_10559" data-name="Path 10559" d="M544.674,490.379a1.528,1.528,0,0,1-.767-.206l-3.83-2.212a1.538,1.538,0,0,1-.562-2.1l.69-1.194a1.536,1.536,0,0,1,2.1-.562l3.83,2.212a1.539,1.539,0,0,1,.562,2.1l-.69,1.194A1.536,1.536,0,0,1,544.674,490.379Zm-.025-1.491a.053.053,0,0,0,.072-.019l.691-1.194-3.85-2.285L540.8,486.6Z" transform="translate(-539.309 -483.898)" fill="#414042"/>
      </g>
      <g id="Group_10987" data-name="Group 10987" transform="translate(10.235 24.48)">
        <rect id="Rectangle_5012" data-name="Rectangle 5012" width="1.484" height="2.755" transform="matrix(0.866, -0.5, 0.5, 0.866, 0, 0.742)" fill="#414042"/>
      </g>
      <g id="Group_10988" data-name="Group 10988" transform="translate(7.4 21.769)">
        <rect id="Rectangle_5013" data-name="Rectangle 5013" width="6.013" height="2.969" rx="0.803" transform="matrix(-0.866, 0.5, -0.5, -0.866, 6.692, 2.571)" fill="#e6e7e8"/>
      </g>
      <g id="Group_10989" data-name="Group 10989" transform="translate(6.948 21.32)">
        <path id="Path_10560" data-name="Path 10560" d="M517.159,490.38a1.544,1.544,0,0,1-.4-.052,1.522,1.522,0,0,1-.932-.716l-.691-1.194a1.538,1.538,0,0,1,.562-2.1l3.831-2.212a1.541,1.541,0,0,1,2.1.561l.691,1.2a1.537,1.537,0,0,1-.561,2.1l-3.832,2.213A1.519,1.519,0,0,1,517.159,490.38Zm3.183-4.971-3.9,2.193.671,1.267.072.019,3.831-2.212Z" transform="translate(-514.928 -483.9)" fill="#414042"/>
      </g>
    </g>
    <g id="Group_10991" data-name="Group 10991" transform="translate(31.115 92.001)">
      <rect id="Rectangle_5014" data-name="Rectangle 5014" width="162.116" height="1.484" fill="#414042"/>
    </g>
    <g id="Group_10992" data-name="Group 10992" transform="translate(26.6 92.001)">
      <rect id="Rectangle_5015" data-name="Rectangle 5015" width="2.711" height="1.484" fill="#414042"/>
    </g>
    <g id="Group_10993" data-name="Group 10993" transform="translate(194.777 92.001)">
      <rect id="Rectangle_5016" data-name="Rectangle 5016" width="5.986" height="1.484" fill="#414042"/>
    </g>
    <g id="Group_10996" data-name="Group 10996" transform="translate(150.778 11.267)">
      <g id="Group_10994" data-name="Group 10994" transform="translate(0 2.115)">
        <path id="Path_10561" data-name="Path 10561" d="M620.477,428.105h-4.229a.742.742,0,0,1,0-1.484h4.229a.742.742,0,1,1,0,1.484Z" transform="translate(-615.505 -426.621)" fill="#414042"/>
      </g>
      <g id="Group_10995" data-name="Group 10995" transform="translate(2.115)">
        <path id="Path_10562" data-name="Path 10562" d="M618.384,430.2a.742.742,0,0,1-.742-.742v-4.229a.742.742,0,1,1,1.484,0v4.229A.743.743,0,0,1,618.384,430.2Z" transform="translate(-617.642 -424.484)" fill="#414042"/>
      </g>
    </g>
    <g id="Group_10999" data-name="Group 10999" transform="translate(23.743 39.483)">
      <g id="Group_10997" data-name="Group 10997" transform="translate(0 2.115)">
        <path id="Path_10563" data-name="Path 10563" d="M492.1,456.618h-4.23a.742.742,0,0,1,0-1.484h4.23a.742.742,0,1,1,0,1.484Z" transform="translate(-487.133 -455.134)" fill="#414042"/>
      </g>
      <g id="Group_10998" data-name="Group 10998" transform="translate(2.115)">
        <path id="Path_10564" data-name="Path 10564" d="M490.012,458.711a.743.743,0,0,1-.742-.742v-4.229a.742.742,0,1,1,1.484,0v4.229A.743.743,0,0,1,490.012,458.711Z" transform="translate(-489.27 -452.997)" fill="#414042"/>
      </g>
    </g>
    <g id="Group_11002" data-name="Group 11002" transform="translate(59.753 2.581)">
      <g id="Group_11000" data-name="Group 11000">
        <path id="Path_10565" data-name="Path 10565" d="M524.264,420.183a.743.743,0,0,1-.524-1.268l2.991-2.991a.742.742,0,1,1,1.049,1.05l-2.991,2.991A.741.741,0,0,1,524.264,420.183Z" transform="translate(-523.522 -415.707)" fill="#414042"/>
      </g>
      <g id="Group_11001" data-name="Group 11001">
        <path id="Path_10566" data-name="Path 10566" d="M527.255,420.183a.741.741,0,0,1-.525-.218l-2.991-2.991a.742.742,0,1,1,1.049-1.05l2.991,2.991a.743.743,0,0,1-.524,1.268Z" transform="translate(-523.522 -415.707)" fill="#414042"/>
      </g>
    </g>
    <g id="Group_11005" data-name="Group 11005" transform="translate(195.533 65.243)">
      <g id="Group_11003" data-name="Group 11003">
        <path id="Path_10567" data-name="Path 10567" d="M661.473,483.5a.742.742,0,0,1-.525-1.267l2.991-2.991a.742.742,0,0,1,1.05,1.05L662,483.286A.743.743,0,0,1,661.473,483.5Z" transform="translate(-660.73 -479.028)" fill="#414042"/>
      </g>
      <g id="Group_11004" data-name="Group 11004">
        <path id="Path_10568" data-name="Path 10568" d="M664.464,483.5a.743.743,0,0,1-.525-.217l-2.991-2.991a.742.742,0,0,1,1.05-1.05l2.991,2.991a.742.742,0,0,1-.525,1.267Z" transform="translate(-660.73 -479.028)" fill="#414042"/>
      </g>
    </g>
    <g id="Group_11006" data-name="Group 11006" transform="translate(70.565 4.077)">
      <rect id="Rectangle_5017" data-name="Rectangle 5017" width="17.214" height="1.484" fill="#414042"/>
    </g>
    <g id="Group_11007" data-name="Group 11007" transform="translate(84.19 0)">
      <rect id="Rectangle_5018" data-name="Rectangle 5018" width="45.746" height="1.484" fill="#414042"/>
    </g>
    <g id="Group_11008" data-name="Group 11008" transform="translate(20.128 72.854)">
      <rect id="Rectangle_5019" data-name="Rectangle 5019" width="21.491" height="1.484" fill="#414042"/>
    </g>
    <g id="Group_11009" data-name="Group 11009" transform="translate(178.508 33.863)">
      <rect id="Rectangle_5020" data-name="Rectangle 5020" width="17.283" height="1.484" fill="#414042"/>
    </g>
    <g id="Group_11010" data-name="Group 11010" transform="translate(197.771 33.863)">
      <rect id="Rectangle_5021" data-name="Rectangle 5021" width="2.993" height="1.484" fill="#414042"/>
    </g>
    <g id="Group_11011" data-name="Group 11011" transform="translate(89.264 4.077)">
      <rect id="Rectangle_5022" data-name="Rectangle 5022" width="3.533" height="1.484" fill="#414042"/>
    </g>
    <g id="Group_11012" data-name="Group 11012" transform="translate(33.927 41.598)">
      <rect id="Rectangle_5023" data-name="Rectangle 5023" width="17.215" height="1.484" fill="#414042"/>
    </g>
    <g id="Group_11013" data-name="Group 11013" transform="translate(52.626 41.598)">
      <rect id="Rectangle_5024" data-name="Rectangle 5024" width="3.533" height="1.484" fill="#414042"/>
    </g>
    <g id="Group_11014" data-name="Group 11014" transform="translate(142.227 5.429)">
      <path id="Path_10569" data-name="Path 10569" d="M608.987,419.647a1.061,1.061,0,1,1-1.062-1.062A1.061,1.061,0,0,1,608.987,419.647Z" transform="translate(-606.864 -418.585)" fill="#414042"/>
    </g>
    <g id="Group_11015" data-name="Group 11015" transform="translate(38.5 15.937)">
      <path id="Path_10570" data-name="Path 10570" d="M504.168,430.265a1.061,1.061,0,1,1-1.062-1.062A1.062,1.062,0,0,1,504.168,430.265Z" transform="translate(-502.045 -429.203)" fill="#414042"/>
    </g>
    <g id="Group_11016" data-name="Group 11016" transform="translate(162.647 27.872)">
      <path id="Path_10571" data-name="Path 10571" d="M629.621,442.325a1.061,1.061,0,1,1-1.062-1.061A1.061,1.061,0,0,1,629.621,442.325Z" transform="translate(-627.498 -441.264)" fill="#414042"/>
    </g>
    <g id="Group_11017" data-name="Group 11017" transform="translate(194.73 47.397)">
      <path id="Path_10572" data-name="Path 10572" d="M662.042,462.056a1.061,1.061,0,1,1-1.061-1.062A1.062,1.062,0,0,1,662.042,462.056Z" transform="translate(-659.919 -460.994)" fill="#414042"/>
    </g>
  </g>
</svg>
