<svg xmlns="http://www.w3.org/2000/svg" width="208.155" height="104.967" viewBox="0 0 208.155 104.967">
  <g id="_-e-Icon_Container" data-name=" -e-Icon Container" transform="translate(0 0)">
    <g id="Vector_Smart_Object" data-name="Vector Smart Object" transform="translate(0 0)">
      <g id="Group_400" data-name="Group 400">
        <g id="Group_269" data-name="Group 269" transform="translate(0 17.618)">
          <g id="Group_267" data-name="Group 267">
            <path id="Path_115" data-name="Path 115" d="M563.073,729.121H730.71a8.848,8.848,0,0,1,8.833,8.862h0a8.847,8.847,0,0,1-8.833,8.862H695.682a6.665,6.665,0,0,0-6.655,6.672h0a6.664,6.664,0,0,0,6.656,6.672h.031l22.423-.109a6.814,6.814,0,0,1,6.836,6.792v.033h0a6.814,6.814,0,0,1-6.679,6.823l-26.619.489a7.642,7.642,0,0,0-7.488,7.65h0a7.64,7.64,0,0,0,7.629,7.65h20.432a5.827,5.827,0,0,1,5.819,5.836h0a5.828,5.828,0,0,1-5.819,5.836h-7.494a9.85,9.85,0,0,0-9.833,9.866v4.282H574.249v-3.758a11.079,11.079,0,0,0-10.919-11.093l-18.479-.234A8.978,8.978,0,0,1,536,791.261h0a8.977,8.977,0,0,1,8.962-8.991h17.873a16.078,16.078,0,0,1,16.052-16.1h6.126a8.565,8.565,0,0,0,8.549-8.578h0a8.564,8.564,0,0,0-8.549-8.578H563.073a9.929,9.929,0,0,1-9.917-9.942v-.006h0a9.929,9.929,0,0,1,9.913-9.945Z" transform="translate(-536.002 -729.121)" fill="#f7eded"/>
          </g>
          <g id="Group_268" data-name="Group 268" transform="translate(185.32 49.785)">
            <path id="Path_116" data-name="Path 116" d="M761.878,795.7H749.621a5.3,5.3,0,0,1-5.289-5.306h0a5.3,5.3,0,0,1,5.289-5.306h12.256a5.3,5.3,0,0,1,5.289,5.306h0A5.3,5.3,0,0,1,761.878,795.7Z" transform="translate(-744.332 -785.088)" fill="#f7eded"/>
          </g>
        </g>
        <g id="Group_295" data-name="Group 295" transform="translate(143.331 62.029)">
          <g id="Group_270" data-name="Group 270" transform="translate(2.666 5.594)">
            <rect id="Rectangle_138" data-name="Rectangle 138" width="9.349" height="5.743" fill="#fff"/>
          </g>
          <g id="Group_271" data-name="Group 271" transform="translate(1.91 4.835)">
            <path id="Path_117" data-name="Path 117" d="M700.788,790.983h-1.512v-6.5h6.414V786h-4.9Z" transform="translate(-699.276 -784.481)" fill="#414042"/>
          </g>
          <g id="Group_272" data-name="Group 272" transform="translate(0 8.848)">
            <path id="Rectangle_139" data-name="Rectangle 139" d="M698.534,788.992h12.032a1.4,1.4,0,0,1,1.4,1.4h0v31.547H697.129V790.4A1.4,1.4,0,0,1,698.534,788.992Z" transform="translate(-697.129 -788.992)" fill="#fff"/>
          </g>
          <g id="Group_273" data-name="Group 273" transform="translate(1.056 8.089)">
            <rect id="Rectangle_140" data-name="Rectangle 140" width="7.268" height="1.518" fill="#414042"/>
          </g>
          <g id="Group_274" data-name="Group 274" transform="translate(6.754)">
            <rect id="Rectangle_141" data-name="Rectangle 141" width="1.512" height="5.087" fill="#414042"/>
          </g>
          <g id="Group_275" data-name="Group 275" transform="translate(2.709 12.688)">
            <rect id="Rectangle_142" data-name="Rectangle 142" width="1.512" height="27.22" fill="#414042"/>
          </g>
          <g id="Group_276" data-name="Group 276" transform="translate(6.664 12.688)">
            <rect id="Rectangle_143" data-name="Rectangle 143" width="1.512" height="27.22" fill="#414042"/>
          </g>
          <g id="Group_277" data-name="Group 277" transform="translate(10.621 12.688)">
            <rect id="Rectangle_144" data-name="Rectangle 144" width="1.512" height="27.22" fill="#0686d8"/>
          </g>
          <g id="Group_288" data-name="Group 288" transform="translate(9.717 3.378)">
            <g id="Group_278" data-name="Group 278" transform="translate(0.756 0.758)">
              <rect id="Rectangle_145" data-name="Rectangle 145" width="19.494" height="37.164" rx="2.203" fill="#ff6846"/>
            </g>
            <g id="Group_279" data-name="Group 279">
              <path id="Path_118" data-name="Path 118" d="M720.576,821.523H710.92a2.875,2.875,0,0,1-2.867-2.877V785.719a2.874,2.874,0,0,1,2.867-2.876h15.272a2.874,2.874,0,0,1,2.867,2.876v20.536h-1.512V785.719a1.358,1.358,0,0,0-1.355-1.36H710.92a1.358,1.358,0,0,0-1.355,1.358v32.928A1.359,1.359,0,0,0,710.92,820h9.656Z" transform="translate(-708.053 -782.843)" fill="#414042"/>
            </g>
            <g id="Group_280" data-name="Group 280" transform="translate(3.852 12.687)">
              <path id="Path_119" data-name="Path 119" d="M725.507,803.821a6.563,6.563,0,1,1-6.431-6.714,6.563,6.563,0,0,1,6.431,6.714Z" transform="translate(-712.383 -797.105)" fill="#fff"/>
            </g>
            <g id="Group_281" data-name="Group 281" transform="translate(8.461 7.226)">
              <path id="Path_120" data-name="Path 120" d="M721.1,792.776a1.768,1.768,0,1,1-1.733-1.809,1.769,1.769,0,0,1,1.733,1.809Z" transform="translate(-717.564 -790.967)" fill="#fff"/>
            </g>
            <g id="Group_282" data-name="Group 282" transform="translate(8.461 28.167)">
              <path id="Path_121" data-name="Path 121" d="M721.1,816.317a1.768,1.768,0,1,1-1.733-1.809A1.769,1.769,0,0,1,721.1,816.317Z" transform="translate(-717.564 -814.508)" fill="#fff"/>
            </g>
            <g id="Group_285" data-name="Group 285" transform="translate(5.874 16.554)">
              <g id="Group_283" data-name="Group 283" transform="translate(1.299)">
                <path id="Path_122" data-name="Path 122" d="M722.6,806.808h-1.512v-3.357a.487.487,0,1,0-.974,0h0v1.342a2,2,0,0,1-4,.009v-3.266h1.512V804.8a.487.487,0,1,0,.973,0v-1.345a2,2,0,0,1,4,0Z" transform="translate(-716.116 -801.452)" fill="#414042"/>
              </g>
              <g id="Group_284" data-name="Group 284" transform="translate(0 1.959)">
                <rect id="Rectangle_146" data-name="Rectangle 146" width="9.081" height="1.518" fill="#414042"/>
              </g>
            </g>
            <g id="Group_286" data-name="Group 286" transform="translate(2.958 2.83)">
              <path id="Path_123" data-name="Path 123" d="M726.295,793.969h-1.512V791.01a4.271,4.271,0,0,1-3.456-3.469h-4.981a4.258,4.258,0,0,1-3.455,3.469v2.418h-1.512v-2.837a1.042,1.042,0,0,1,.973-1.043,2.789,2.789,0,0,0,2.54-2.534,1.061,1.061,0,0,1,1.055-.99h5.782a1.061,1.061,0,0,1,1.055.988,2.758,2.758,0,0,0,2.517,2.536,1.076,1.076,0,0,1,1,1.072Z" transform="translate(-711.378 -786.024)" fill="#414042"/>
            </g>
            <g id="Group_287" data-name="Group 287" transform="translate(1.91 28.713)">
              <path id="Path_124" data-name="Path 124" d="M721.2,822.527h-6.437a1.061,1.061,0,0,1-1.055-.987,2.758,2.758,0,0,0-2.54-2.538,1.043,1.043,0,0,1-.973-1.043v-2.839h1.512v2.421a4.258,4.258,0,0,1,3.455,3.469H721.2Z" transform="translate(-710.2 -815.121)" fill="#414042"/>
            </g>
          </g>
          <g id="Group_289" data-name="Group 289" transform="translate(23.919 38.317)">
            <path id="Path_125" data-name="Path 125" d="M724.018,825.969v-3.315a.534.534,0,0,1,.534-.534h12.762a.534.534,0,0,1,.534.534h0v3.315Z" transform="translate(-724.018 -822.12)" fill="#ffb936"/>
          </g>
          <g id="Group_290" data-name="Group 290" transform="translate(23.163 37.561)">
            <path id="Path_126" data-name="Path 126" d="M738.5,825.875h-1.512v-3.088H724.68v3.088h-1.512V822.56a1.289,1.289,0,0,1,1.285-1.29h12.762a1.289,1.289,0,0,1,1.285,1.29Z" transform="translate(-723.168 -821.27)" fill="#414042"/>
          </g>
          <g id="Group_291" data-name="Group 291" transform="translate(24.667 33.378)">
            <rect id="Rectangle_147" data-name="Rectangle 147" width="13.821" height="4.377" rx="0.441" fill="#f7eded"/>
          </g>
          <g id="Group_292" data-name="Group 292" transform="translate(23.911 32.615)">
            <path id="Path_127" data-name="Path 127" d="M738.194,821.609H725.157a1.157,1.157,0,0,1-1.148-1.156v-3.592a1.15,1.15,0,0,1,1.148-1.151h13.036a1.151,1.151,0,0,1,1.148,1.151v3.6A1.157,1.157,0,0,1,738.194,821.609Zm-12.673-1.518H737.83v-2.861H725.521Z" transform="translate(-724.009 -815.71)" fill="#414042"/>
          </g>
          <g id="Group_293" data-name="Group 293" transform="translate(24.052 28.434)">
            <rect id="Rectangle_148" data-name="Rectangle 148" width="13.821" height="4.377" rx="0.441" fill="#ffb936"/>
          </g>
          <g id="Group_294" data-name="Group 294" transform="translate(23.296 27.668)">
            <path id="Path_128" data-name="Path 128" d="M737.5,816.052H724.465a1.151,1.151,0,0,1-1.148-1.155v-3.592a1.151,1.151,0,0,1,1.146-1.156H737.5a1.156,1.156,0,0,1,1.148,1.156v3.59A1.157,1.157,0,0,1,737.5,816.052Zm-12.673-1.518H737.14v-2.861H724.831Z" transform="translate(-723.318 -810.149)" fill="#414042"/>
          </g>
        </g>
        <g id="Group_298" data-name="Group 298" transform="translate(111.541 2.908)">
          <g id="Group_296" data-name="Group 296" transform="translate(0 2.161)">
            <path id="Path_129" data-name="Path 129" d="M666.457,716.531h-4.308a.759.759,0,0,1,0-1.518h4.308a.759.759,0,0,1,0,1.518Z" transform="translate(-661.392 -715.013)" fill="#414042"/>
          </g>
          <g id="Group_297" data-name="Group 297" transform="translate(2.155)">
            <path id="Path_130" data-name="Path 130" d="M664.571,718.422a.758.758,0,0,1-.756-.759V713.34a.756.756,0,1,1,1.512,0v4.323A.758.758,0,0,1,664.571,718.422Z" transform="translate(-663.815 -712.584)" fill="#414042"/>
          </g>
        </g>
        <g id="Group_301" data-name="Group 301" transform="translate(52.352 19.966)">
          <g id="Group_299" data-name="Group 299" transform="translate(0 2.159)">
            <path id="Path_131" data-name="Path 131" d="M599.92,735.7h-4.309a.759.759,0,0,1,0-1.518h4.309a.759.759,0,0,1,0,1.518Z" transform="translate(-594.854 -734.187)" fill="#414042"/>
          </g>
          <g id="Group_300" data-name="Group 300" transform="translate(2.155)">
            <path id="Path_132" data-name="Path 132" d="M598.033,737.6a.758.758,0,0,1-.756-.759v-4.323a.756.756,0,1,1,1.512,0v4.323A.758.758,0,0,1,598.033,737.6Z" transform="translate(-597.277 -731.76)" fill="#414042"/>
          </g>
        </g>
        <g id="Group_304" data-name="Group 304" transform="translate(201.26 38.222)">
          <g id="Group_302" data-name="Group 302">
            <path id="Path_133" data-name="Path 133" d="M763.008,756.835a.759.759,0,0,1-.534-1.3l3.048-3.056a.757.757,0,0,1,1.067,1.072l-3.047,3.057A.758.758,0,0,1,763.008,756.835Z" transform="translate(-762.251 -752.283)" fill="#414042"/>
          </g>
          <g id="Group_303" data-name="Group 303" transform="translate(0.022 0.001)">
            <path id="Path_134" data-name="Path 134" d="M766.058,756.835a.753.753,0,0,1-.534-.222l-3.048-3.057a.757.757,0,0,1,1.067-1.072l3.047,3.056a.759.759,0,0,1-.534,1.3Z" transform="translate(-762.275 -752.284)" fill="#414042"/>
          </g>
        </g>
        <g id="Group_307" data-name="Group 307" transform="translate(18.933 59.723)">
          <g id="Group_305" data-name="Group 305" transform="translate(0.02 0)">
            <path id="Path_135" data-name="Path 135" d="M558.063,781.048a.758.758,0,0,1-.534-1.294l3.047-3.057a.757.757,0,1,1,1.111,1.028l-.044.044-3.048,3.057A.754.754,0,0,1,558.063,781.048Z" transform="translate(-557.308 -776.454)" fill="#414042"/>
          </g>
          <g id="Group_306" data-name="Group 306">
            <path id="Path_136" data-name="Path 136" d="M561.111,781.048a.755.755,0,0,1-.534-.221l-3.047-3.057a.757.757,0,0,1,1.024-1.116l.044.044,3.048,3.057a.758.758,0,0,1-.534,1.294Z" transform="translate(-557.286 -776.454)" fill="#414042"/>
          </g>
        </g>
        <g id="Group_308" data-name="Group 308" transform="translate(26.51 47.764)">
          <rect id="Rectangle_149" data-name="Rectangle 149" width="17.539" height="1.518" fill="#414042"/>
        </g>
        <g id="Group_309" data-name="Group 309" transform="translate(65.522 5.069)">
          <rect id="Rectangle_150" data-name="Rectangle 150" width="19.83" height="1.518" fill="#414042"/>
        </g>
        <g id="Group_310" data-name="Group 310" transform="translate(161.981 39.727)">
          <rect id="Rectangle_151" data-name="Rectangle 151" width="38.117" height="1.518" fill="#414042"/>
        </g>
        <g id="Group_311" data-name="Group 311" transform="translate(45.561 47.764)">
          <rect id="Rectangle_152" data-name="Rectangle 152" width="3.6" height="1.518" fill="#414042"/>
        </g>
        <g id="Group_312" data-name="Group 312" transform="translate(111.073 11.197)">
          <rect id="Rectangle_153" data-name="Rectangle 153" width="17.54" height="1.518" fill="#414042"/>
        </g>
        <g id="Group_313" data-name="Group 313" transform="translate(130.125 11.197)">
          <rect id="Rectangle_154" data-name="Rectangle 154" width="3.6" height="1.518" fill="#414042"/>
        </g>
        <g id="Group_314" data-name="Group 314" transform="translate(141.973 33.693)">
          <path id="Path_137" data-name="Path 137" d="M698.318,748.554a1.357,1.357,0,1,1-1.358-1.363,1.357,1.357,0,0,1,1.358,1.363Z" transform="translate(-695.603 -747.191)" fill="#414042"/>
        </g>
        <g id="Group_315" data-name="Group 315" transform="translate(72.393 54.82)">
          <path id="Path_138" data-name="Path 138" d="M620.1,772.3a1.358,1.358,0,1,1-1.358-1.363A1.359,1.359,0,0,1,620.1,772.3Z" transform="translate(-617.384 -770.942)" fill="#414042"/>
        </g>
        <g id="Group_316" data-name="Group 316" transform="translate(163.251 20.029)">
          <path id="Path_139" data-name="Path 139" d="M721.035,732.591a.756.756,0,1,1-.756-.76.757.757,0,0,1,.756.76Z" transform="translate(-719.523 -731.831)" fill="#414042"/>
        </g>
        <g id="Group_317" data-name="Group 317" transform="translate(70.223)">
          <path id="Path_140" data-name="Path 140" d="M617,710.343a1.026,1.026,0,1,1-1.026-1.028A1.026,1.026,0,0,1,617,710.343Z" transform="translate(-614.944 -709.315)" fill="#414042"/>
        </g>
        <g id="Group_368" data-name="Group 368" transform="translate(44.813 2.173)">
          <g id="Group_318" data-name="Group 318" transform="translate(10.096 86.46)">
            <rect id="Rectangle_155" data-name="Rectangle 155" width="90.538" height="15.563" rx="7.781" fill="#fff"/>
          </g>
          <g id="Group_319" data-name="Group 319" transform="translate(12.206 57.846)">
            <ellipse id="Ellipse_1" data-name="Ellipse 1" cx="11.84" cy="11.878" rx="11.84" ry="11.878" transform="translate(0 16.081) rotate(-42.771)" fill="#fff"/>
          </g>
          <g id="Group_320" data-name="Group 320" transform="translate(11.336 71.678)">
            <path id="Path_141" data-name="Path 141" d="M608.5,797.036a4.687,4.687,0,1,1-4.686-4.7A4.687,4.687,0,0,1,608.5,797.036Z" transform="translate(-599.122 -792.335)" fill="#fff"/>
          </g>
          <g id="Group_321" data-name="Group 321" transform="translate(4.607 74.804)">
            <path id="Path_142" data-name="Path 142" d="M605.371,802.778a6.906,6.906,0,1,1-6.906-6.929,6.906,6.906,0,0,1,6.906,6.929Z" transform="translate(-591.558 -795.849)" fill="#fff"/>
          </g>
          <g id="Group_322" data-name="Group 322" transform="translate(0.752 83.29)">
            <path id="Path_143" data-name="Path 143" d="M605.9,814.756a9.34,9.34,0,1,1-9.34-9.367,9.341,9.341,0,0,1,9.34,9.367Z" transform="translate(-587.224 -805.389)" fill="#fff"/>
          </g>
          <g id="Group_323" data-name="Group 323" transform="translate(0 84.364)">
            <path id="Path_144" data-name="Path 144" d="M596.474,825.015a10.132,10.132,0,0,1-5.793-18.419l.868,1.245a8.614,8.614,0,0,0,4.924,15.656Z" transform="translate(-586.379 -806.596)" fill="#414042"/>
          </g>
          <g id="Group_324" data-name="Group 324" transform="translate(35.593 80.121)">
            <path id="Path_145" data-name="Path 145" d="M634.228,805.759a3.918,3.918,0,1,1-3.914-3.932A3.918,3.918,0,0,1,634.228,805.759Z" transform="translate(-626.391 -801.827)" fill="#fff"/>
          </g>
          <g id="Group_325" data-name="Group 325" transform="translate(69.541 63.178)">
            <ellipse id="Ellipse_2" data-name="Ellipse 2" cx="10.78" cy="10.812" rx="10.78" ry="10.812" transform="translate(0 0.193) rotate(-0.513)" fill="#fff"/>
          </g>
          <g id="Group_326" data-name="Group 326" transform="translate(79.267 73.203)">
            <path id="Path_146" data-name="Path 146" d="M689.3,800.968c-.345,3.832-3.088,6.92-6.9,6.92a6.919,6.919,0,0,1,0-13.838C686.215,794.047,689.645,797.161,689.3,800.968Z" transform="translate(-675.488 -794.05)" fill="#fff"/>
          </g>
          <g id="Group_327" data-name="Group 327" transform="translate(72.358 77.982)">
            <path id="Path_147" data-name="Path 147" d="M681.537,806.34c-.346,3.832-3.089,6.92-6.9,6.92a6.919,6.919,0,0,1,0-13.838C678.448,799.422,681.879,802.534,681.537,806.34Z" transform="translate(-667.721 -799.422)" fill="#fff"/>
          </g>
          <g id="Group_328" data-name="Group 328" transform="translate(12.425 78.07)">
            <path id="Path_148" data-name="Path 148" d="M626.653,806.441c-.658,3.831-5.888,6.918-13.153,6.918s-13.153-3.1-13.153-6.918,5.889-6.92,13.153-6.92S627.307,802.634,626.653,806.441Z" transform="translate(-600.347 -799.521)" fill="#fff"/>
          </g>
          <g id="Group_329" data-name="Group 329" transform="translate(86.649 71.678)">
            <path id="Path_149" data-name="Path 149" d="M703.984,802.451c-.5,5.6-4.514,10.114-10.082,10.114a10.115,10.115,0,1,1,0-20.23C699.47,792.335,704.486,796.887,703.984,802.451Z" transform="translate(-683.787 -792.335)" fill="#fff"/>
          </g>
          <g id="Group_330" data-name="Group 330" transform="translate(84.61 82.507)">
            <path id="Path_150" data-name="Path 150" d="M700.981,814.267c-.487,5.4-4.359,9.758-9.727,9.758a9.758,9.758,0,0,1,0-19.517C696.625,804.509,701.464,808.9,700.981,814.267Z" transform="translate(-681.495 -804.509)" fill="#fff"/>
          </g>
          <g id="Group_331" data-name="Group 331" transform="translate(64.924 74.899)">
            <path id="Path_151" data-name="Path 151" d="M672.026,802.306a6.331,6.331,0,1,1-6.332-6.351A6.331,6.331,0,0,1,672.026,802.306Z" transform="translate(-659.364 -795.956)" fill="#fff"/>
          </g>
          <g id="Group_332" data-name="Group 332" transform="translate(62.029 83.114)">
            <path id="Path_152" data-name="Path 152" d="M663.5,808.9a3.694,3.694,0,1,1-3.694-3.706A3.694,3.694,0,0,1,663.5,808.9Z" transform="translate(-656.11 -805.191)" fill="#fff"/>
          </g>
          <g id="Group_333" data-name="Group 333" transform="translate(60.963 82.702)">
            <path id="Path_153" data-name="Path 153" d="M656.423,809.193h-1.512a4.463,4.463,0,0,1,4.448-4.465v1.518A2.945,2.945,0,0,0,656.423,809.193Z" transform="translate(-654.911 -804.728)" fill="#414042"/>
          </g>
          <g id="Group_334" data-name="Group 334" transform="translate(39.511 84.899)">
            <path id="Path_154" data-name="Path 154" d="M645.526,811.483c0,2.366-3.3,4.284-7.365,4.284s-7.365-1.919-7.365-4.284,3.3-4.285,7.365-4.285S645.526,809.117,645.526,811.483Z" transform="translate(-630.796 -807.198)" fill="#fff"/>
          </g>
          <g id="Group_335" data-name="Group 335" transform="translate(87.361 68.751)">
            <path id="Path_155" data-name="Path 155" d="M694.193,792.286c0,2.748-4.648,10.079-4.648,6.709,0-2.747-4.958-2.224-4.958-4.974a4.967,4.967,0,0,1,4.958-4.975C692.286,789.047,694.193,789.539,694.193,792.286Z" transform="translate(-684.587 -789.045)" fill="#fff"/>
          </g>
          <g id="Group_336" data-name="Group 336" transform="translate(90.035 67.991)">
            <path id="Path_156" data-name="Path 156" d="M693.71,792.19a4.211,4.211,0,0,0-3.832-2.481,4.159,4.159,0,0,0-1.68.349l-.6-1.39a5.713,5.713,0,0,1,7.5,2.9Z" transform="translate(-687.593 -788.191)" fill="#414042"/>
          </g>
          <g id="Group_337" data-name="Group 337" transform="translate(68.844 62.508)">
            <path id="Path_157" data-name="Path 157" d="M667.189,801.787a11.556,11.556,0,1,1,19.695-8.184h-1.512a10.024,10.024,0,1,0-17.113,7.112Z" transform="translate(-663.771 -782.027)" fill="#414042"/>
          </g>
          <g id="Group_351" data-name="Group 351" transform="translate(33.847)">
            <g id="Group_338" data-name="Group 338" transform="translate(13.763 43.921)">
              <rect id="Rectangle_156" data-name="Rectangle 156" width="12.55" height="5.303" fill="#fff"/>
            </g>
            <g id="Group_339" data-name="Group 339" transform="translate(13.006 43.162)">
              <path id="Path_158" data-name="Path 158" d="M653.111,767.1H639.049v-6.821h14.062Zm-12.55-1.518H651.6V761.8H640.561Z" transform="translate(-639.049 -760.279)" fill="#414042"/>
            </g>
            <g id="Group_340" data-name="Group 340" transform="translate(0.756 18.049)">
              <path id="Path_159" data-name="Path 159" d="M625.278,757.994h11.874V732.047l-4.383,5.947a38.67,38.67,0,0,1-4.264,4.715,10.674,10.674,0,0,0-3.226,7.65Z" transform="translate(-625.278 -732.047)" fill="#ff6846"/>
            </g>
            <g id="Group_341" data-name="Group 341" transform="translate(8.834 18.053)" opacity="0.3">
              <path id="Path_160" data-name="Path 160" d="M634.359,737.2v20.793h3.8V732.052Z" transform="translate(-634.359 -732.052)" fill="#414042"/>
            </g>
            <g id="Group_342" data-name="Group 342" transform="translate(26.87 18.549)">
              <path id="Path_161" data-name="Path 161" d="M666.511,758.553H654.634V732.61l4.382,5.947a38.82,38.82,0,0,0,4.265,4.715,10.674,10.674,0,0,1,3.227,7.65Z" transform="translate(-654.634 -732.61)" fill="#ff6846"/>
            </g>
            <g id="Group_343" data-name="Group 343" transform="translate(27.235 17.644)" opacity="0.3">
              <path id="Path_162" data-name="Path 162" d="M658.841,736.742v20.793h-3.8V731.592Z" transform="translate(-655.045 -731.592)" fill="#414042"/>
            </g>
            <g id="Group_344" data-name="Group 344" transform="translate(0 15.747)">
              <path id="Path_163" data-name="Path 163" d="M637.813,758.467H624.428v-8.391a11.5,11.5,0,0,1,3.456-8.194,38.382,38.382,0,0,0,4.181-4.626l5.745-7.8ZM625.94,756.95H636.3V734.069l-3.017,4.092a39.717,39.717,0,0,1-4.346,4.8,9.969,9.969,0,0,0-3,7.107Z" transform="translate(-624.428 -729.46)" fill="#414042"/>
            </g>
            <g id="Group_345" data-name="Group 345" transform="translate(26.115 15.755)">
              <path id="Path_164" data-name="Path 164" d="M667.169,758.468H653.786v-29l5.747,7.8a37.946,37.946,0,0,0,4.181,4.626,11.5,11.5,0,0,1,3.455,8.195ZM655.3,756.951h10.361v-6.874a9.972,9.972,0,0,0-3-7.107,39.661,39.661,0,0,1-4.346-4.8l-3.017-4.092Z" transform="translate(-653.786 -729.469)" fill="#414042"/>
            </g>
            <g id="Group_346" data-name="Group 346" transform="translate(11.705 0.759)">
              <path id="Path_165" data-name="Path 165" d="M653.928,758.433H637.586V724.467a12.809,12.809,0,0,1,4.957-10.126L644,713.211a2.864,2.864,0,0,1,3.508,0l1.591,1.234a12.463,12.463,0,0,1,4.824,9.854Z" transform="translate(-637.586 -712.611)" fill="#fff"/>
            </g>
            <g id="Group_347" data-name="Group 347" transform="translate(15.697 1.209)">
              <path id="Path_166" data-name="Path 166" d="M642.074,715.424l1.946-1.507a3.813,3.813,0,0,1,4.677,0l2.123,1.645Z" transform="translate(-642.074 -713.116)" fill="#58595b"/>
            </g>
            <g id="Group_348" data-name="Group 348" transform="translate(11.708 0.759)" opacity="0.31">
              <path id="Path_167" data-name="Path 167" d="M646.136,714.341l1.418-1.1-.041-.032a2.864,2.864,0,0,0-3.508,0l-1.459,1.131a12.809,12.809,0,0,0-4.956,10.126v33.966h3.59V724.467A12.808,12.808,0,0,1,646.136,714.341Z" transform="translate(-637.59 -712.611)" fill="#414042"/>
            </g>
            <g id="Group_349" data-name="Group 349" transform="translate(14.965 14.739)">
              <path id="Path_168" data-name="Path 168" d="M651.073,733.244h-1.512a3.4,3.4,0,1,0-6.8,0v0h-1.512a4.911,4.911,0,1,1,9.822-.012v.012Z" transform="translate(-641.251 -728.327)" fill="#414042"/>
            </g>
            <g id="Group_350" data-name="Group 350" transform="translate(10.951)">
              <path id="Path_169" data-name="Path 169" d="M654.59,759.1H636.739V724.373a13.656,13.656,0,0,1,5.248-10.726l1.46-1.13a3.615,3.615,0,0,1,4.433,0l1.59,1.233a13.308,13.308,0,0,1,5.119,10.456Zm-16.338-1.518h14.825V724.2a11.783,11.783,0,0,0-4.531-9.251l-1.59-1.233a2.1,2.1,0,0,0-2.58,0l-1.46,1.131a12.126,12.126,0,0,0-4.662,9.525Z" transform="translate(-636.739 -711.757)" fill="#414042"/>
            </g>
          </g>
          <g id="Group_352" data-name="Group 352" transform="translate(64.185 74.374)">
            <path id="Path_170" data-name="Path 170" d="M665.6,809.351a7.116,7.116,0,0,1-1.811-13.985l.386,1.468a5.6,5.6,0,0,0,1.423,11Z" transform="translate(-658.534 -795.366)" fill="#414042"/>
          </g>
          <g id="Group_353" data-name="Group 353" transform="translate(16.343 62.023)">
            <path id="Path_171" data-name="Path 171" d="M623.588,805.024l-.748-1.321a11.111,11.111,0,1,0-16.577-9.663h-1.512a12.6,12.6,0,1,1,18.837,10.984Z" transform="translate(-604.751 -781.482)" fill="#414042"/>
          </g>
          <g id="Group_354" data-name="Group 354" transform="translate(13.459 70.925)">
            <path id="Path_172" data-name="Path 172" d="M602.221,793.466l-.712-1.334a5.483,5.483,0,0,1,4.173-.4l-.445,1.451A3.932,3.932,0,0,0,602.221,793.466Z" transform="translate(-601.509 -791.489)" fill="#414042"/>
          </g>
          <g id="Group_355" data-name="Group 355" transform="translate(39.512 79.363)">
            <path id="Path_173" data-name="Path 173" d="M630.8,810.355v-1.518a3.173,3.173,0,0,0,0-6.345h0v-1.518a4.69,4.69,0,0,1,0,9.379Z" transform="translate(-630.797 -800.975)" fill="#414042"/>
          </g>
          <g id="Group_356" data-name="Group 356" transform="translate(41.459 50.33)">
            <path id="Path_174" data-name="Path 174" d="M660.9,811.183h-27.91l8.077-9.123V768.337h8.651l-.372,30.786a5.957,5.957,0,0,0,2.267,4.751Z" transform="translate(-632.986 -768.337)" fill="#fff"/>
          </g>
          <g id="Group_357" data-name="Group 357" transform="translate(57.284 50.331)">
            <path id="Path_175" data-name="Path 175" d="M655.772,804.6h-.9a4.157,4.157,0,0,1-4.1-4.148V768.338h1.512v32.113a2.635,2.635,0,0,0,2.6,2.63h.89Z" transform="translate(-650.775 -768.338)" fill="#414042"/>
          </g>
          <g id="Group_358" data-name="Group 358" transform="translate(43.422 50.33)">
            <path id="Path_176" data-name="Path 176" d="M638.258,803.755h-3.066v-1.518h3.066a2.3,2.3,0,0,0,2.292-2.3v-31.6h1.512v31.6A3.815,3.815,0,0,1,638.258,803.755Z" transform="translate(-635.192 -768.337)" fill="#414042"/>
          </g>
          <g id="Group_359" data-name="Group 359" transform="translate(44.986 93.724)">
            <path id="Path_177" data-name="Path 177" d="M636.951,822.988a5.8,5.8,0,0,1,5.724-5.869,6.017,6.017,0,0,1,2.181.4,5.8,5.8,0,0,1,1.868,1.2l-1.042,1.1a4.276,4.276,0,0,0-7.222,3.154Z" transform="translate(-636.951 -817.119)" fill="#414042"/>
          </g>
          <g id="Group_360" data-name="Group 360" transform="translate(19.952 81.59)">
            <path id="Path_178" data-name="Path 178" d="M608.809,809.348a5.8,5.8,0,0,1,3.478-5.386,5.73,5.73,0,0,1,2.246-.484,5.876,5.876,0,0,1,2.181.4,5.771,5.771,0,0,1,1.868,1.2l-1.042,1.1a4.252,4.252,0,0,0-1.383-.883,4.065,4.065,0,0,0-1.611-.3,4.269,4.269,0,0,0-3.93,2.719,4.314,4.314,0,0,0-.3,1.617Z" transform="translate(-608.809 -803.478)" fill="#414042"/>
          </g>
          <g id="Group_361" data-name="Group 361" transform="translate(77.286 76.913)">
            <path id="Path_179" data-name="Path 179" d="M681.007,806.06l-1.415-.534a4.287,4.287,0,0,0-2.507-5.517,4.079,4.079,0,0,0-1.617-.267,4.212,4.212,0,0,0-1.6.356l-.606-1.39a5.744,5.744,0,0,1,2.163-.486,5.885,5.885,0,0,1,2.188.363,5.815,5.815,0,0,1,3.4,7.472Z" transform="translate(-673.261 -798.22)" fill="#414042"/>
          </g>
          <g id="Group_362" data-name="Group 362" transform="translate(50.663 89.524)">
            <path id="Path_180" data-name="Path 180" d="M644.831,817.635l-1.5-.2a5.789,5.789,0,0,1,6.5-4.983l.013,0-.2,1.5a4.288,4.288,0,0,0-4.809,3.677Z" transform="translate(-643.332 -812.397)" fill="#414042"/>
          </g>
          <g id="Group_363" data-name="Group 363" transform="translate(83.891 90.558)">
            <path id="Path_181" data-name="Path 181" d="M682.185,818.8l-1.5-.2a5.788,5.788,0,0,1,6.5-4.983l.015,0-.2,1.5a4.183,4.183,0,0,0-1.638.1,4.293,4.293,0,0,0-3.172,3.58Z" transform="translate(-680.686 -813.559)" fill="#414042"/>
          </g>
          <g id="Group_364" data-name="Group 364" transform="translate(64.165 94.701)">
            <path id="Path_182" data-name="Path 182" d="M662.492,825.545a5.822,5.822,0,0,1-3.692-7.328l1.438.472a4.291,4.291,0,0,0,1.252,4.57,4.242,4.242,0,0,0,1.474.842Z" transform="translate(-658.511 -818.217)" fill="#414042"/>
          </g>
          <g id="Group_365" data-name="Group 365" transform="translate(3.854 74.072)">
            <path id="Path_183" data-name="Path 183" d="M592.949,808.121a7.677,7.677,0,0,1,10.282-11.374l-.962,1.172a6.163,6.163,0,0,0-8.251,9.134Z" transform="translate(-590.711 -795.026)" fill="#414042"/>
          </g>
          <g id="Group_366" data-name="Group 366" transform="translate(94.207 70.942)">
            <path id="Path_184" data-name="Path 184" d="M699.4,812.191l-.666-1.364a10.416,10.416,0,0,0,5.435-8.54,7.976,7.976,0,0,0-2.144-6.125,9.882,9.882,0,0,0-9.388-2.9l-.356-1.476a11.428,11.428,0,0,1,10.859,3.353,9.48,9.48,0,0,1,2.533,7.285A11.944,11.944,0,0,1,699.4,812.191Z" transform="translate(-692.283 -791.508)" fill="#414042"/>
          </g>
          <g id="Group_367" data-name="Group 367" transform="translate(94.368 88.899)">
            <path id="Path_185" data-name="Path 185" d="M692.464,825.578v-1.518c4.728,0,8.5-3.813,8.974-9.069a7.355,7.355,0,0,0-.3-2.847l1.443-.45a8.861,8.861,0,0,1,.362,3.436C702.4,821.183,697.992,825.578,692.464,825.578Z" transform="translate(-692.464 -811.695)" fill="#414042"/>
          </g>
        </g>
        <g id="Group_395" data-name="Group 395" transform="translate(27.022 70.697)">
          <g id="Group_369" data-name="Group 369" transform="translate(3.029 10.947)">
            <path id="Rectangle_157" data-name="Rectangle 157" d="M571.218,801.1H598.26a1.5,1.5,0,0,1,1.5,1.505v18.147a2.91,2.91,0,0,1-2.91,2.91H569.784V802.53a1.434,1.434,0,0,1,1.434-1.434Z" transform="translate(-569.784 -801.096)" fill="#bf8b29"/>
          </g>
          <g id="Group_370" data-name="Group 370" transform="translate(2.276 10.192)">
            <path id="Path_186" data-name="Path 186" d="M597.315,824.324H568.938V802.167a1.92,1.92,0,0,1,1.911-1.92h17.673v1.512H570.849a.4.4,0,0,0-.4.406V822.8H597.31a1.6,1.6,0,0,0,1.6-1.6V802.224a.462.462,0,0,0-.462-.463H596.6v-1.514h1.846a1.979,1.979,0,0,1,1.974,1.98v18.98A3.119,3.119,0,0,1,597.315,824.324Z" transform="translate(-568.938 -800.247)" fill="#414042"/>
          </g>
          <g id="Group_373" data-name="Group 373" transform="translate(6.235 1.745)">
            <g id="Group_371" data-name="Group 371" transform="translate(0.761 0.758)">
              <path id="Path_187" data-name="Path 187" d="M589.517,791.6l5.972,5.991v20.912a1.711,1.711,0,0,1-1.708,1.714H575.951a1.711,1.711,0,0,1-1.708-1.713h0V793.317a1.71,1.71,0,0,1,1.708-1.713h13.566Z" transform="translate(-574.243 -791.604)" fill="#fff"/>
            </g>
            <g id="Group_372" data-name="Group 372">
              <path id="Path_188" data-name="Path 188" d="M593.685,820.888H575.857v-1.518h17.827a.955.955,0,0,0,.953-.955v-20.6l-5.529-5.545H575.854a.954.954,0,0,0-.954.954V801.3h-1.512v-8.073a2.47,2.47,0,0,1,2.466-2.472h13.877l6.415,6.435v21.226A2.473,2.473,0,0,1,593.685,820.888Z" transform="translate(-573.388 -790.752)" fill="#414042"/>
            </g>
          </g>
          <g id="Group_382" data-name="Group 382" transform="translate(9.716)">
            <g id="Group_374" data-name="Group 374" transform="translate(0.758 0.759)">
              <path id="Path_189" data-name="Path 189" d="M593.427,789.646l5.972,5.991v20.914a1.711,1.711,0,0,1-1.709,1.714H579.861a1.711,1.711,0,0,1-1.708-1.713h0v-25.2a1.709,1.709,0,0,1,1.706-1.713h0Z" transform="translate(-578.153 -789.643)" fill="#d1d3d4"/>
            </g>
            <g id="Group_375" data-name="Group 375" transform="translate(16.031 0.762)">
              <path id="Path_190" data-name="Path 190" d="M595.323,795.634v-5.987l5.972,5.991Z" transform="translate(-595.323 -789.647)" fill="#ffb936"/>
            </g>
            <g id="Group_376" data-name="Group 376" transform="translate(15.276 0.762)">
              <path id="Path_191" data-name="Path 191" d="M601.2,796.392h-5.375a1.356,1.356,0,0,1-1.353-1.357v-5.388h1.512v5.232H601.2Z" transform="translate(-594.474 -789.647)" fill="#414042"/>
            </g>
            <g id="Group_377" data-name="Group 377" transform="translate(3.943 8.913)">
              <rect id="Rectangle_158" data-name="Rectangle 158" width="15.194" height="1.518" fill="#414042"/>
            </g>
            <g id="Group_378" data-name="Group 378" transform="translate(3.943 12.312)">
              <rect id="Rectangle_159" data-name="Rectangle 159" width="15.194" height="1.518" fill="#414042"/>
            </g>
            <g id="Group_379" data-name="Group 379" transform="translate(3.943 15.71)">
              <rect id="Rectangle_160" data-name="Rectangle 160" width="15.194" height="1.518" fill="#414042"/>
            </g>
            <g id="Group_380" data-name="Group 380" transform="translate(3.943 19.109)">
              <rect id="Rectangle_161" data-name="Rectangle 161" width="15.194" height="1.518" fill="#414042"/>
            </g>
            <g id="Group_381" data-name="Group 381">
              <path id="Path_192" data-name="Path 192" d="M597.6,818.926h-.786v-1.518h.786a.956.956,0,0,0,.952-.954v-20.6l-5.529-5.545H579.765a.954.954,0,0,0-.952.955v12.089H577.3V791.262a2.47,2.47,0,0,1,2.464-2.472h13.877l6.415,6.435v21.229A2.473,2.473,0,0,1,597.6,818.926Z" transform="translate(-577.301 -788.79)" fill="#414042"/>
            </g>
          </g>
          <g id="Group_391" data-name="Group 391" transform="translate(13.198 2.616)">
            <g id="Group_383" data-name="Group 383" transform="translate(0.755 0.759)">
              <path id="Path_193" data-name="Path 193" d="M597.337,792.584l5.972,5.991V819.49A1.712,1.712,0,0,1,601.6,821.2H583.774a1.712,1.712,0,0,1-1.709-1.713V794.3a1.711,1.711,0,0,1,1.709-1.713Z" transform="translate(-582.065 -792.584)" fill="#fff"/>
            </g>
            <g id="Group_384" data-name="Group 384" transform="translate(16.027 0.759)">
              <path id="Path_194" data-name="Path 194" d="M599.233,798.575v-5.991l5.973,5.991Z" transform="translate(-599.233 -792.584)" fill="#00d4ff"/>
            </g>
            <g id="Group_385" data-name="Group 385" transform="translate(15.274 0.76)">
              <path id="Path_195" data-name="Path 195" d="M605.111,799.335h-5.375a1.358,1.358,0,0,1-1.35-1.357v-5.392H599.9v5.233h5.215Z" transform="translate(-598.386 -792.585)" fill="#414042"/>
            </g>
            <g id="Group_386" data-name="Group 386" transform="translate(3.938 8.915)">
              <rect id="Rectangle_162" data-name="Rectangle 162" width="15.194" height="1.518" fill="#414042"/>
            </g>
            <g id="Group_387" data-name="Group 387" transform="translate(3.938 12.313)">
              <rect id="Rectangle_163" data-name="Rectangle 163" width="15.194" height="1.518" fill="#414042"/>
            </g>
            <g id="Group_388" data-name="Group 388" transform="translate(3.938 15.711)">
              <rect id="Rectangle_164" data-name="Rectangle 164" width="15.194" height="1.518" fill="#414042"/>
            </g>
            <g id="Group_389" data-name="Group 389" transform="translate(3.938 19.11)">
              <rect id="Rectangle_165" data-name="Rectangle 165" width="15.194" height="1.518" fill="#414042"/>
            </g>
            <g id="Group_390" data-name="Group 390">
              <path id="Path_196" data-name="Path 196" d="M601.507,821.868H598.46V820.35h3.047a.955.955,0,0,0,.952-.955V798.8l-5.524-5.547H583.68a.956.956,0,0,0-.952.954v9.474h-1.512V794.2a2.47,2.47,0,0,1,2.464-2.472h13.877l6.415,6.436v21.227A2.473,2.473,0,0,1,601.507,821.868Z" transform="translate(-581.216 -791.731)" fill="#414042"/>
            </g>
          </g>
          <g id="Group_392" data-name="Group 392" transform="translate(0.753 13.407)">
            <path id="Path_197" data-name="Path 197" d="M597.079,823.965H568.471a1.246,1.246,0,0,1-1.245-1.245V804.9a1.039,1.039,0,0,1,1.037-1.041h4.893a1.034,1.034,0,0,1,.877.487l1.262,2.012h18.194a1.19,1.19,0,0,1,1.188,1.192v14.006a2.356,2.356,0,0,0,2.3,2.406Z" transform="translate(-567.226 -803.862)" fill="#ffb936"/>
          </g>
          <g id="Group_393" data-name="Group 393" transform="translate(0.757 29.074)">
            <path id="Path_198" data-name="Path 198" d="M594.678,823.5v-2.028H567.23v3.19a1.246,1.246,0,0,0,1.245,1.245h28.6a2.354,2.354,0,0,1-2.4-2.307C594.677,823.569,594.677,823.536,594.678,823.5Z" transform="translate(-567.23 -821.474)" fill="#bf8b29"/>
          </g>
          <g id="Group_394" data-name="Group 394" transform="translate(0 12.653)">
            <path id="Path_199" data-name="Path 199" d="M596.986,824.63a3.1,3.1,0,0,1-3.156-3.034c0-.044,0-.088,0-.132V807.459a.432.432,0,0,0-.431-.434H574.786l-1.484-2.367a.283.283,0,0,0-.237-.132h-4.893a.281.281,0,0,0-.281.282V823.77h-1.512V804.813a1.8,1.8,0,0,1,1.793-1.8h4.893a1.784,1.784,0,0,1,1.518.84l1.038,1.659H593.4a1.951,1.951,0,0,1,1.944,1.951v14.006a1.6,1.6,0,0,0,1.553,1.648h.09Z" transform="translate(-566.379 -803.014)" fill="#414042"/>
          </g>
        </g>
        <g id="Group_399" data-name="Group 399" transform="translate(15.108 103.448)">
          <g id="Group_396" data-name="Group 396" transform="translate(4.6)">
            <rect id="Rectangle_166" data-name="Rectangle 166" width="165.172" height="1.518" fill="#414042"/>
          </g>
          <g id="Group_397" data-name="Group 397">
            <rect id="Rectangle_167" data-name="Rectangle 167" width="2.762" height="1.518" fill="#414042"/>
          </g>
          <g id="Group_398" data-name="Group 398" transform="translate(171.347)">
            <rect id="Rectangle_168" data-name="Rectangle 168" width="6.1" height="1.518" fill="#414042"/>
          </g>
        </g>
      </g>
    </g>
  </g>
</svg>
