<svg xmlns="http://www.w3.org/2000/svg" width="207.679" height="95.695" viewBox="0 0 207.679 95.695">
  <g id="Group_11716" data-name="Group 11716" transform="translate(0 0)">
    <g id="Group_11403" data-name="Group 11403" transform="translate(0 7.398)">
      <g id="Group_11402" data-name="Group 11402">
        <path id="Path_10745" data-name="Path 10745" d="M1384.214,529.008h0a11.028,11.028,0,0,1-11.029,11.028h-25.773a15.336,15.336,0,0,1-15.337,15.337h-21.255a8.555,8.555,0,0,0-8.556,8.555h0a8.556,8.556,0,0,0,8.556,8.555h73.721a8.929,8.929,0,0,1,8.929,8.929h0a8.93,8.93,0,0,1-8.929,8.93H1336.5a13.8,13.8,0,0,0-13.8,13.835h0l-93.333.2.275-16.369h-33.158a10.694,10.694,0,0,1-10.693-10.693h0a10.693,10.693,0,0,1,10.693-10.693h25.732a9.862,9.862,0,0,0,9.861-9.861h0a9.861,9.861,0,0,0-9.861-9.861h-2.384a14.459,14.459,0,0,1-14.459-14.46h0a14.459,14.459,0,0,1,14.459-14.459h153.354A11.029,11.029,0,0,1,1384.214,529.008Z" transform="translate(-1185.791 -517.979)" fill="#f7eded"/>
      </g>
    </g>
    <g id="Group_11408" data-name="Group 11408" transform="translate(78.781 15.269)">
      <g id="Group_11405" data-name="Group 11405" transform="translate(0 2.058)">
        <g id="Group_11404" data-name="Group 11404">
          <path id="Path_10746" data-name="Path 10746" d="M1272.47,529.737h-4.114a.722.722,0,0,1,0-1.444h4.114a.722.722,0,0,1,0,1.444Z" transform="translate(-1267.634 -528.293)" fill="#414042"/>
        </g>
      </g>
      <g id="Group_11407" data-name="Group 11407" transform="translate(2.057)">
        <g id="Group_11406" data-name="Group 11406">
          <path id="Path_10747" data-name="Path 10747" d="M1270.493,531.714a.722.722,0,0,1-.722-.722v-4.115a.722.722,0,0,1,1.444,0v4.115A.722.722,0,0,1,1270.493,531.714Z" transform="translate(-1269.771 -526.155)" fill="#414042"/>
        </g>
      </g>
    </g>
    <g id="Group_11413" data-name="Group 11413" transform="translate(177.072 45.508)">
      <g id="Group_11410" data-name="Group 11410" transform="translate(0 2.058)">
        <g id="Group_11409" data-name="Group 11409">
          <path id="Path_10748" data-name="Path 10748" d="M1374.581,561.152h-4.114a.722.722,0,1,1,0-1.444h4.114a.722.722,0,0,1,0,1.444Z" transform="translate(-1369.745 -559.708)" fill="#414042"/>
        </g>
      </g>
      <g id="Group_11412" data-name="Group 11412" transform="translate(2.057)">
        <g id="Group_11411" data-name="Group 11411">
          <path id="Path_10749" data-name="Path 10749" d="M1372.6,563.129a.722.722,0,0,1-.722-.722v-4.115a.722.722,0,1,1,1.444,0v4.115A.722.722,0,0,1,1372.6,563.129Z" transform="translate(-1371.882 -557.57)" fill="#414042"/>
        </g>
      </g>
    </g>
    <g id="Group_11418" data-name="Group 11418" transform="translate(117.868 0.736)">
      <g id="Group_11415" data-name="Group 11415">
        <g id="Group_11414" data-name="Group 11414">
          <path id="Path_10750" data-name="Path 10750" d="M1308.962,515.41a.721.721,0,0,1-.51-1.232l2.909-2.909a.722.722,0,0,1,1.021,1.02l-2.909,2.91A.723.723,0,0,1,1308.962,515.41Z" transform="translate(-1308.24 -511.057)" fill="#414042"/>
        </g>
      </g>
      <g id="Group_11417" data-name="Group 11417">
        <g id="Group_11416" data-name="Group 11416">
          <path id="Path_10751" data-name="Path 10751" d="M1311.871,515.41a.722.722,0,0,1-.51-.211l-2.909-2.91a.722.722,0,0,1,1.021-1.02l2.909,2.909a.721.721,0,0,1-.511,1.232Z" transform="translate(-1308.24 -511.057)" fill="#414042"/>
        </g>
      </g>
    </g>
    <g id="Group_11423" data-name="Group 11423" transform="translate(48.394 35.708)">
      <g id="Group_11420" data-name="Group 11420">
        <g id="Group_11419" data-name="Group 11419">
          <path id="Path_10752" data-name="Path 10752" d="M1236.789,551.742a.721.721,0,0,1-.511-1.232l2.91-2.909a.722.722,0,1,1,1.021,1.02l-2.909,2.91A.721.721,0,0,1,1236.789,551.742Z" transform="translate(-1236.066 -547.389)" fill="#414042"/>
        </g>
      </g>
      <g id="Group_11422" data-name="Group 11422">
        <g id="Group_11421" data-name="Group 11421">
          <path id="Path_10753" data-name="Path 10753" d="M1239.7,551.742a.72.72,0,0,1-.51-.211l-2.91-2.91a.722.722,0,0,1,1.021-1.02l2.909,2.909a.721.721,0,0,1-.51,1.232Z" transform="translate(-1236.066 -547.389)" fill="#414042"/>
        </g>
      </g>
    </g>
    <g id="Group_11425" data-name="Group 11425" transform="translate(52.779 17.327)">
      <g id="Group_11424" data-name="Group 11424">
        <rect id="Rectangle_5181" data-name="Rectangle 5181" width="16.745" height="1.444" fill="#414042"/>
      </g>
    </g>
    <g id="Group_11427" data-name="Group 11427" transform="translate(156.86 47.566)">
      <g id="Group_11426" data-name="Group 11426">
        <rect id="Rectangle_5182" data-name="Rectangle 5182" width="16.745" height="1.444" fill="#414042"/>
      </g>
    </g>
    <g id="Group_11429" data-name="Group 11429" transform="translate(130.806 15.269)">
      <g id="Group_11428" data-name="Group 11428">
        <rect id="Rectangle_5183" data-name="Rectangle 5183" width="31.971" height="1.444" fill="#414042"/>
      </g>
    </g>
    <g id="Group_11431" data-name="Group 11431" transform="translate(71.949 2.19)">
      <g id="Group_11430" data-name="Group 11430">
        <rect id="Rectangle_5184" data-name="Rectangle 5184" width="43.017" height="1.444" fill="#414042"/>
      </g>
    </g>
    <g id="Group_11433" data-name="Group 11433" transform="translate(9.686 37.162)">
      <g id="Group_11432" data-name="Group 11432">
        <rect id="Rectangle_5185" data-name="Rectangle 5185" width="36.959" height="1.444" fill="#414042"/>
      </g>
    </g>
    <g id="Group_11435" data-name="Group 11435" transform="translate(163.339 38.323)">
      <g id="Group_11434" data-name="Group 11434">
        <rect id="Rectangle_5186" data-name="Rectangle 5186" width="33.024" height="1.444" fill="#414042"/>
      </g>
    </g>
    <g id="Group_11437" data-name="Group 11437" transform="translate(70.968 17.327)">
      <g id="Group_11436" data-name="Group 11436">
        <rect id="Rectangle_5187" data-name="Rectangle 5187" width="3.437" height="1.444" fill="#414042"/>
      </g>
    </g>
    <g id="Group_11439" data-name="Group 11439" transform="translate(25.137 65.505)">
      <g id="Group_11438" data-name="Group 11438">
        <path id="Path_10754" data-name="Path 10754" d="M1214.193,579.489a1.144,1.144,0,1,1-1.144-1.145A1.144,1.144,0,0,1,1214.193,579.489Z" transform="translate(-1211.905 -578.344)" fill="#414042"/>
      </g>
    </g>
    <g id="Group_11441" data-name="Group 11441" transform="translate(194.075 46.332)">
      <g id="Group_11440" data-name="Group 11440">
        <path id="Path_10755" data-name="Path 10755" d="M1389.7,559.571a1.144,1.144,0,1,1-1.144-1.145A1.144,1.144,0,0,1,1389.7,559.571Z" transform="translate(-1387.409 -558.426)" fill="#414042"/>
      </g>
    </g>
    <g id="Group_11443" data-name="Group 11443" transform="translate(150.863 23.173)">
      <g id="Group_11442" data-name="Group 11442">
        <path id="Path_10756" data-name="Path 10756" d="M1344.806,535.512a1.144,1.144,0,1,1-1.145-1.145A1.144,1.144,0,0,1,1344.806,535.512Z" transform="translate(-1342.518 -534.367)" fill="#414042"/>
      </g>
    </g>
    <g id="Group_11445" data-name="Group 11445" transform="translate(51.784 3.373)">
      <g id="Group_11444" data-name="Group 11444">
        <path id="Path_10757" data-name="Path 10757" d="M1242.914,515.459a1.663,1.663,0,1,1-1.662-1.662A1.662,1.662,0,0,1,1242.914,515.459Z" transform="translate(-1239.588 -513.797)" fill="#414042"/>
      </g>
    </g>
    <g id="Group_11447" data-name="Group 11447" transform="translate(95.03 10.551)">
      <g id="Group_11446" data-name="Group 11446">
        <path id="Path_10758" data-name="Path 10758" d="M1286.8,522.4a1.144,1.144,0,1,1-1.145-1.144A1.144,1.144,0,0,1,1286.8,522.4Z" transform="translate(-1284.514 -521.254)" fill="#414042"/>
      </g>
    </g>
    <g id="Group_11449" data-name="Group 11449" transform="translate(37.282 44.561)">
      <g id="Group_11448" data-name="Group 11448">
        <path id="Path_10759" data-name="Path 10759" d="M1227.438,558.044a1.458,1.458,0,1,1-1.458-1.458A1.458,1.458,0,0,1,1227.438,558.044Z" transform="translate(-1224.522 -556.586)" fill="#414042"/>
      </g>
    </g>
    <g id="Group_11451" data-name="Group 11451" transform="translate(173.606 66.336)">
      <g id="Group_11450" data-name="Group 11450">
        <path id="Path_10760" data-name="Path 10760" d="M1369.059,580.664a1.457,1.457,0,1,1-1.458-1.457A1.458,1.458,0,0,1,1369.059,580.664Z" transform="translate(-1366.144 -579.207)" fill="#414042"/>
      </g>
    </g>
    <g id="Group_11453" data-name="Group 11453" transform="translate(163.776)">
      <g id="Group_11452" data-name="Group 11452">
        <path id="Path_10761" data-name="Path 10761" d="M1358.847,511.75a1.457,1.457,0,1,1-1.457-1.457A1.457,1.457,0,0,1,1358.847,511.75Z" transform="translate(-1355.932 -510.293)" fill="#414042"/>
      </g>
    </g>
    <g id="Group_11476" data-name="Group 11476" transform="translate(70.095 26.773)">
      <g id="Group_11455" data-name="Group 11455" transform="translate(0.722 0.721)">
        <g id="Group_11454" data-name="Group 11454">
          <path id="Rectangle_5188" data-name="Rectangle 5188" d="M1.974,0H75.889a1.973,1.973,0,0,1,1.973,1.973V46.313a0,0,0,0,1,0,0H0a0,0,0,0,1,0,0V1.974A1.974,1.974,0,0,1,1.974,0Z" fill="#58595b"/>
        </g>
      </g>
      <g id="Group_11457" data-name="Group 11457">
        <g id="Group_11456" data-name="Group 11456">
          <path id="Path_10762" data-name="Path 10762" d="M1260.054,562.039h-1.444V542.594a4.491,4.491,0,0,1,4.486-4.487h18.4v1.444h-18.4a3.046,3.046,0,0,0-3.043,3.043Z" transform="translate(-1258.61 -538.107)" fill="#414042"/>
        </g>
      </g>
      <g id="Group_11459" data-name="Group 11459" transform="translate(58.216)">
        <g id="Group_11458" data-name="Group 11458">
          <path id="Path_10763" data-name="Path 10763" d="M1340.179,564.795h-1.444v-22.2a3.046,3.046,0,0,0-3.043-3.043h-16.6v-1.444h16.6a4.491,4.491,0,0,1,4.487,4.487Z" transform="translate(-1319.089 -538.107)" fill="#414042"/>
        </g>
      </g>
      <g id="Group_11461" data-name="Group 11461" transform="translate(4.947 5.25)">
        <g id="Group_11460" data-name="Group 11460">
          <rect id="Rectangle_5189" data-name="Rectangle 5189" width="69.499" height="36.579" fill="#fff"/>
        </g>
      </g>
      <g id="Group_11463" data-name="Group 11463" transform="translate(27.924 54.053)">
        <g id="Group_11462" data-name="Group 11462">
          <rect id="Rectangle_5190" data-name="Rectangle 5190" width="23.458" height="13.887" fill="#fff"/>
        </g>
      </g>
      <g id="Group_11465" data-name="Group 11465" transform="translate(27.924 54.053)">
        <g id="Group_11464" data-name="Group 11464">
          <rect id="Rectangle_5191" data-name="Rectangle 5191" width="23.458" height="6.944" fill="#d1d3d4"/>
        </g>
      </g>
      <g id="Group_11467" data-name="Group 11467" transform="translate(27.202 53.331)">
        <g id="Group_11466" data-name="Group 11466">
          <path id="Path_10764" data-name="Path 10764" d="M1311.772,608.842h-24.9V593.511h24.9Zm-23.459-1.444h22.015V594.955h-22.015Z" transform="translate(-1286.869 -593.511)" fill="#414042"/>
        </g>
      </g>
      <g id="Group_11469" data-name="Group 11469" transform="translate(0.722 45.334)">
        <g id="Group_11468" data-name="Group 11468">
          <path id="Rectangle_5192" data-name="Rectangle 5192" d="M0,0H77.862a0,0,0,0,1,0,0V8.515a2,2,0,0,1-2,2H2a2,2,0,0,1-2-2V0A0,0,0,0,1,0,0Z" fill="#fff"/>
        </g>
      </g>
      <g id="Group_11471" data-name="Group 11471" transform="translate(21.899 55.127)">
        <g id="Group_11470" data-name="Group 11470">
          <rect id="Rectangle_5193" data-name="Rectangle 5193" width="42.728" height="1.444" fill="#414042"/>
        </g>
      </g>
      <g id="Group_11473" data-name="Group 11473" transform="translate(22.38 44.611)">
        <g id="Group_11472" data-name="Group 11472">
          <rect id="Rectangle_5194" data-name="Rectangle 5194" width="42.728" height="1.444" fill="#414042"/>
        </g>
      </g>
      <g id="Group_11475" data-name="Group 11475" transform="translate(23.363 67.478)">
        <g id="Group_11474" data-name="Group 11474">
          <rect id="Rectangle_5195" data-name="Rectangle 5195" width="32.886" height="1.444" fill="#414042"/>
        </g>
      </g>
    </g>
    <g id="Group_11491" data-name="Group 11491" transform="translate(30.954 51.797)">
      <g id="Group_11478" data-name="Group 11478" transform="translate(3.52 0.722)">
        <g id="Group_11477" data-name="Group 11477">
          <rect id="Rectangle_5196" data-name="Rectangle 5196" width="55.957" height="40.221" rx="1" fill="#58595b"/>
        </g>
      </g>
      <g id="Group_11480" data-name="Group 11480" transform="translate(47.16)">
        <g id="Group_11479" data-name="Group 11479">
          <rect id="Rectangle_5197" data-name="Rectangle 5197" width="3.865" height="1.444" fill="#414042"/>
        </g>
      </g>
      <g id="Group_11482" data-name="Group 11482" transform="translate(2.798 0)">
        <g id="Group_11481" data-name="Group 11481">
          <path id="Path_10765" data-name="Path 10765" d="M1222.3,602.693h-1.444V566.216a2.114,2.114,0,0,1,2.113-2.112h39.772v1.444h-39.772a.669.669,0,0,0-.669.668Z" transform="translate(-1220.855 -564.104)" fill="#414042"/>
        </g>
      </g>
      <g id="Group_11484" data-name="Group 11484" transform="translate(52.655 0)">
        <g id="Group_11483" data-name="Group 11483">
          <path id="Path_10766" data-name="Path 10766" d="M1278.081,605.768v-1.444a.67.67,0,0,0,.669-.668v-37.44a.669.669,0,0,0-.669-.668h-5.432V564.1h5.432a2.115,2.115,0,0,1,2.113,2.112v37.44A2.116,2.116,0,0,1,1278.081,605.768Z" transform="translate(-1272.649 -564.104)" fill="#414042"/>
        </g>
      </g>
      <g id="Group_11486" data-name="Group 11486" transform="translate(6.238 3.886)">
        <g id="Group_11485" data-name="Group 11485">
          <rect id="Rectangle_5198" data-name="Rectangle 5198" width="50.218" height="32.639" fill="#fff"/>
        </g>
      </g>
      <g id="Group_11488" data-name="Group 11488" transform="translate(0.85 38.559)">
        <g id="Group_11487" data-name="Group 11487">
          <path id="Path_10767" data-name="Path 10767" d="M1276.48,608.778h-54.618a2.676,2.676,0,0,1-2.641-2.244l-.39-2.373h25.315l.968,1.391h7l1.046-1.391h26.668l-.339,2.064A3.045,3.045,0,0,1,1276.48,608.778Z" transform="translate(-1218.831 -604.161)" fill="#fff"/>
        </g>
      </g>
      <g id="Group_11490" data-name="Group 11490" transform="translate(0 37.837)">
        <g id="Group_11489" data-name="Group 11489">
          <path id="Path_10768" data-name="Path 10768" d="M1276.446,609.471h-54.617a3.387,3.387,0,0,1-3.355-2.849l-.526-3.211h26.542l.969,1.391h6.258l1.046-1.391h27.878l-.476,2.9A3.754,3.754,0,0,1,1276.446,609.471Zm-56.8-4.617.252,1.534a1.947,1.947,0,0,0,1.929,1.638h54.617a2.317,2.317,0,0,0,2.294-1.947l.2-1.225h-25.458l-1.047,1.391H1244.7l-.968-1.391Z" transform="translate(-1217.948 -603.411)" fill="#414042"/>
        </g>
      </g>
    </g>
    <g id="Group_11504" data-name="Group 11504" transform="translate(136.001 54.637)">
      <g id="Group_11493" data-name="Group 11493" transform="translate(0.722 0.721)">
        <g id="Group_11492" data-name="Group 11492" transform="translate(0)">
          <rect id="Rectangle_5199" data-name="Rectangle 5199" width="39.614" height="28.509" rx="1.913" transform="translate(28.509 0) rotate(90)" fill="#fff"/>
        </g>
      </g>
      <g id="Group_11495" data-name="Group 11495">
        <g id="Group_11494" data-name="Group 11494">
          <path id="Path_10769" data-name="Path 10769" d="M1354.468,608.111h-24.827a2.566,2.566,0,0,1-2.563-2.563V569.616a2.566,2.566,0,0,1,2.563-2.562h24.827a2.566,2.566,0,0,1,2.563,2.562V571.7h-1.444v-2.088a1.12,1.12,0,0,0-1.12-1.118h-24.827a1.12,1.12,0,0,0-1.12,1.118v35.932a1.12,1.12,0,0,0,1.12,1.12h24.827a1.121,1.121,0,0,0,1.12-1.12V581.421h1.444v24.127A2.566,2.566,0,0,1,1354.468,608.111Z" transform="translate(-1327.078 -567.054)" fill="#414042"/>
        </g>
      </g>
      <g id="Group_11497" data-name="Group 11497" transform="translate(28.51 8.556)">
        <g id="Group_11496" data-name="Group 11496">
          <rect id="Rectangle_5200" data-name="Rectangle 5200" width="1.444" height="3.208" fill="#414042"/>
        </g>
      </g>
      <g id="Group_11499" data-name="Group 11499" transform="translate(11.317 3.078)">
        <g id="Group_11498" data-name="Group 11498">
          <rect id="Rectangle_5201" data-name="Rectangle 5201" width="7.32" height="1.444" fill="#414042"/>
        </g>
      </g>
      <g id="Group_11501" data-name="Group 11501" transform="translate(3.161 5.85)">
        <g id="Group_11500" data-name="Group 11500" transform="translate(0)">
          <rect id="Rectangle_5202" data-name="Rectangle 5202" width="28.971" height="23.633" transform="translate(23.633 0) rotate(90)" fill="#d1d3d4"/>
        </g>
      </g>
      <g id="Group_11503" data-name="Group 11503" transform="translate(13.226 34.93)">
        <g id="Group_11502" data-name="Group 11502">
          <path id="Path_10770" data-name="Path 10770" d="M1342.569,606.845a1.751,1.751,0,1,1,1.751-1.752A1.754,1.754,0,0,1,1342.569,606.845Zm0-2.059a.308.308,0,1,0,.307.307A.308.308,0,0,0,1342.569,604.786Z" transform="translate(-1340.818 -603.342)" fill="#414042"/>
        </g>
      </g>
    </g>
    <g id="Group_11517" data-name="Group 11517" transform="translate(49.174 59.147)">
      <g id="Group_11506" data-name="Group 11506" transform="translate(13.126 1.196)">
        <g id="Group_11505" data-name="Group 11505">
          <path id="Path_10771" data-name="Path 10771" d="M1250.512,572.981V584.86l.006.006,8.382,8.4a11.841,11.841,0,0,0,3.489-8.376c0-.011,0-.023,0-.035A11.88,11.88,0,0,0,1250.512,572.981Z" transform="translate(-1250.512 -572.981)" fill="#ff6846"/>
        </g>
      </g>
      <g id="Group_11508" data-name="Group 11508" transform="translate(1.089 1.058)">
        <g id="Group_11507" data-name="Group 11507">
          <path id="Path_10772" data-name="Path 10772" d="M1241.61,576.419a12.217,12.217,0,0,0-3.6,8.659l12.261.03v-12.27A12.222,12.222,0,0,0,1241.61,576.419Z" transform="translate(-1238.007 -572.838)" fill="#f7eded"/>
        </g>
      </g>
      <g id="Group_11510" data-name="Group 11510" transform="translate(1.397 13.865)">
        <g id="Group_11509" data-name="Group 11509">
          <path id="Path_10773" data-name="Path 10773" d="M1249.977,586.172h-.006l-11.643-.028v.022a11.644,11.644,0,0,0,19.867,8.245Z" transform="translate(-1238.327 -586.143)" fill="#ffb936"/>
        </g>
      </g>
      <g id="Group_11512" data-name="Group 11512">
        <g id="Group_11511" data-name="Group 11511">
          <path id="Path_10774" data-name="Path 10774" d="M1250,597.994a13.127,13.127,0,1,1,13.127-13.127A13.141,13.141,0,0,1,1250,597.994Zm0-24.811a11.683,11.683,0,1,0,11.683,11.684A11.7,11.7,0,0,0,1250,573.183Z" transform="translate(-1236.876 -571.739)" fill="#414042"/>
        </g>
      </g>
      <g id="Group_11514" data-name="Group 11514" transform="translate(0.731 12.84)">
        <g id="Group_11513" data-name="Group 11513">
          <path id="Path_10775" data-name="Path 10775" d="M1257.662,594.32l-7.927-7.8h-12.1v-1.444h12.691l8.348,8.211Z" transform="translate(-1237.635 -585.078)" fill="#414042"/>
        </g>
      </g>
      <g id="Group_11516" data-name="Group 11516" transform="translate(11.915 0.487)">
        <g id="Group_11515" data-name="Group 11515">
          <rect id="Rectangle_5203" data-name="Rectangle 5203" width="1.444" height="12.841" fill="#414042"/>
        </g>
      </g>
    </g>
    <g id="Group_11519" data-name="Group 11519" transform="translate(95.029 20.199)">
      <g id="Group_11518" data-name="Group 11518">
        <rect id="Rectangle_5204" data-name="Rectangle 5204" width="8.624" height="48.544" fill="#e6e7e8"/>
      </g>
    </g>
    <g id="Group_11521" data-name="Group 11521" transform="translate(95.029 20.199)">
      <g id="Group_11520" data-name="Group 11520">
        <rect id="Rectangle_5205" data-name="Rectangle 5205" width="4.312" height="48.544" fill="#fff"/>
      </g>
    </g>
    <g id="Group_11523" data-name="Group 11523" transform="translate(94.307 19.477)">
      <g id="Group_11522" data-name="Group 11522">
        <path id="Path_10776" data-name="Path 10776" d="M1293.832,579.792h-1.444V531.971h-7.18v47.821h-1.444V530.527h10.068Z" transform="translate(-1283.763 -530.527)" fill="#414042"/>
      </g>
    </g>
    <g id="Group_11525" data-name="Group 11525" transform="translate(106.24 12.839)">
      <g id="Group_11524" data-name="Group 11524">
        <rect id="Rectangle_5206" data-name="Rectangle 5206" width="8.624" height="55.904" fill="#ffb936"/>
      </g>
    </g>
    <g id="Group_11527" data-name="Group 11527" transform="translate(106.24 12.839)">
      <g id="Group_11526" data-name="Group 11526">
        <rect id="Rectangle_5207" data-name="Rectangle 5207" width="4.312" height="55.904" fill="#ffd586"/>
      </g>
    </g>
    <g id="Group_11529" data-name="Group 11529" transform="translate(105.518 12.117)">
      <g id="Group_11528" data-name="Group 11528">
        <path id="Path_10777" data-name="Path 10777" d="M1305.479,579.506h-1.444V524.325h-7.18v55.181h-1.444V522.881h10.068Z" transform="translate(-1295.411 -522.881)" fill="#414042"/>
      </g>
    </g>
    <g id="Group_11531" data-name="Group 11531" transform="translate(117.889 7.026)">
      <g id="Group_11530" data-name="Group 11530">
        <rect id="Rectangle_5208" data-name="Rectangle 5208" width="8.624" height="61.716" fill="#ff6846"/>
      </g>
    </g>
    <g id="Group_11533" data-name="Group 11533" transform="translate(117.889 7.026)">
      <g id="Group_11532" data-name="Group 11532">
        <rect id="Rectangle_5209" data-name="Rectangle 5209" width="4.312" height="61.716" fill="#f4a698"/>
      </g>
    </g>
    <g id="Group_11535" data-name="Group 11535" transform="translate(117.167 6.304)">
      <g id="Group_11534" data-name="Group 11534">
        <path id="Path_10778" data-name="Path 10778" d="M1317.58,579.281h-1.444V518.286h-7.18v60.995h-1.444V516.842h10.068Z" transform="translate(-1307.512 -516.842)" fill="#414042"/>
      </g>
    </g>
    <g id="Group_11548" data-name="Group 11548" transform="translate(139.179 69.123)">
      <g id="Group_11537" data-name="Group 11537" transform="translate(0 4.759)">
        <g id="Group_11536" data-name="Group 11536">
          <path id="Path_10779" data-name="Path 10779" d="M1330.38,591.314v11.255l5.1-.013v-15.51Z" transform="translate(-1330.38 -587.046)" fill="#ff6846"/>
        </g>
      </g>
      <g id="Group_11539" data-name="Group 11539" transform="translate(9.531 2.365)">
        <g id="Group_11538" data-name="Group 11538">
          <path id="Path_10780" data-name="Path 10780" d="M1340.295,588.913l-.014-.006v13.545l5.849-.015V584.56Z" transform="translate(-1340.281 -584.56)" fill="#ff6846"/>
        </g>
      </g>
      <g id="Group_11541" data-name="Group 11541" transform="translate(5.096 4.727)">
        <g id="Group_11540" data-name="Group 11540">
          <path id="Path_10781" data-name="Path 10781" d="M1335.712,587.013l-.039.032v15.51l4.435-.011V589Z" transform="translate(-1335.673 -587.013)" fill="#f4a698"/>
        </g>
      </g>
      <g id="Group_11543" data-name="Group 11543" transform="translate(19.009 0.457)">
        <g id="Group_11542" data-name="Group 11542">
          <path id="Path_10782" data-name="Path 10782" d="M1354.716,582.578l-4.589,3.952v15.824l4.589-.012Z" transform="translate(-1350.127 -582.578)" fill="#ff6846"/>
        </g>
      </g>
      <g id="Group_11545" data-name="Group 11545" transform="translate(15.38 2.365)">
        <g id="Group_11544" data-name="Group 11544">
          <path id="Path_10783" data-name="Path 10783" d="M1349.986,586.6l-3.629-2.045v17.877l3.629-.009V586.6Z" transform="translate(-1346.357 -584.56)" fill="#f4a698"/>
        </g>
      </g>
      <g id="Group_11547" data-name="Group 11547">
        <g id="Group_11546" data-name="Group 11546">
          <path id="Path_10784" data-name="Path 10784" d="M1331.143,591.494h-.764V590.05h.233l4.74-4.032,4.465,1.967,5.888-4.376,3.6,2.026,4.095-3.526.575-.006.01,1.09.157.182-.154.133v.039h-.047l-4.462,3.844-3.662-2.063L1340,589.645l-4.405-1.94Z" transform="translate(-1330.379 -582.103)" fill="#414042"/>
        </g>
      </g>
    </g>
    <g id="Group_11555" data-name="Group 11555" transform="translate(15.709 94.251)">
      <g id="Group_11550" data-name="Group 11550" transform="translate(4.392)">
        <g id="Group_11549" data-name="Group 11549">
          <rect id="Rectangle_5210" data-name="Rectangle 5210" width="157.693" height="1.444" fill="#414042"/>
        </g>
      </g>
      <g id="Group_11552" data-name="Group 11552">
        <g id="Group_11551" data-name="Group 11551">
          <rect id="Rectangle_5211" data-name="Rectangle 5211" width="2.637" height="1.444" fill="#414042"/>
        </g>
      </g>
      <g id="Group_11554" data-name="Group 11554" transform="translate(163.589)">
        <g id="Group_11553" data-name="Group 11553">
          <rect id="Rectangle_5212" data-name="Rectangle 5212" width="5.823" height="1.444" fill="#414042"/>
        </g>
      </g>
    </g>
  </g>
</svg>