<svg xmlns="http://www.w3.org/2000/svg" width="207.573" height="97.065" viewBox="0 0 207.573 97.065">
  <g id="Group_11715" data-name="Group 11715" transform="translate(0 0)">
    <g id="Group_11145" data-name="Group 11145" transform="translate(0 8.322)">
      <path id="Path_10625" data-name="Path 10625" d="M1329.637,328.836h182.13a8.633,8.633,0,0,1,8.633,8.633h0a8.633,8.633,0,0,1-8.633,8.634h-35.59a7.518,7.518,0,0,0-7.518,7.518h0a7.518,7.518,0,0,0,7.518,7.518h43.559a8.311,8.311,0,0,1,8.311,8.312h0a8.31,8.31,0,0,1-8.311,8.311h-21.824a15.063,15.063,0,0,1-15.063,15.063h0a6.651,6.651,0,0,0-6.651,6.651v17.734h-95.616v-1.461a16.138,16.138,0,0,0-15.977-16.137l-27.583-.328a9.216,9.216,0,0,1-9.124-9.215h0a9.215,9.215,0,0,1,9.215-9.215h27.523a15.194,15.194,0,0,1,15.194-15.195h1.288a9.248,9.248,0,0,0,9.249-9.248h0a9.249,9.249,0,0,0-9.249-9.249h-51.481a9.163,9.163,0,0,1-9.163-9.163h0A9.162,9.162,0,0,1,1329.637,328.836Z" transform="translate(-1320.474 -328.836)" fill="#f7eded"/>
    </g>
    <g id="Group_11153" data-name="Group 11153" transform="translate(140.831 53.815)">
      <g id="Group_11146" data-name="Group 11146" transform="translate(1.525 8.495)">
        <path id="Rectangle_5082" data-name="Rectangle 5082" d="M.6,0h27.87a.6.6,0,0,1,.6.6V29.28a0,0,0,0,1,0,0H0a0,0,0,0,1,0,0V.6A.6.6,0,0,1,.6,0Z" fill="#ffd586"/>
      </g>
      <g id="Group_11147" data-name="Group 11147" transform="translate(0.815 37.774)">
        <path id="Path_10626" data-name="Path 10626" d="M1492.913,412.7h-29.074l-.71,4.731h30.494Z" transform="translate(-1463.129 -412.697)" fill="#ffb936"/>
      </g>
      <g id="Group_11148" data-name="Group 11148" transform="translate(4.149 7.751)">
        <path id="Path_10627" data-name="Path 10627" d="M1493.681,412.483h-1.49V383.948h-25.7v-1.489H1492.3a1.383,1.383,0,0,1,1.382,1.382Z" transform="translate(-1466.487 -382.459)" fill="#414042"/>
      </g>
      <g id="Group_11149" data-name="Group 11149" transform="translate(0 37.03)">
        <path id="Path_10628" data-name="Path 10628" d="M1494.483,418.167h-32.174l.345-3.811,1.484.134-.2,2.188h28.814l-.487-3.241h-20.84v-1.489h22.123Z" transform="translate(-1462.309 -411.947)" fill="#414042"/>
      </g>
      <g id="Group_11150" data-name="Group 11150" transform="translate(5.34 11.662)">
        <path id="Path_10629" data-name="Path 10629" d="M1470.894,388a1.6,1.6,0,1,1-1.6-1.6A1.6,1.6,0,0,1,1470.894,388Z" transform="translate(-1467.687 -386.398)" fill="#bf8b29"/>
      </g>
      <g id="Group_11151" data-name="Group 11151" transform="translate(23.576 11.662)">
        <path id="Path_10630" data-name="Path 10630" d="M1489.259,388a1.6,1.6,0,1,1-1.6-1.6A1.6,1.6,0,0,1,1489.259,388Z" transform="translate(-1486.053 -386.398)" fill="#bf8b29"/>
      </g>
      <g id="Group_11152" data-name="Group 11152" transform="translate(6.199)">
        <path id="Path_10631" data-name="Path 10631" d="M1488.278,387.918h-1.49v-3.4a8.373,8.373,0,1,0-16.747,0v3.4h-1.489v-3.4a9.863,9.863,0,1,1,19.725,0Z" transform="translate(-1468.552 -374.653)" fill="#414042"/>
      </g>
    </g>
    <g id="Group_11171" data-name="Group 11171" transform="translate(37.959 56.654)">
      <g id="Group_11154" data-name="Group 11154" transform="translate(7.915 0.001)">
        <path id="Path_10632" data-name="Path 10632" d="M1375.771,389.912l-.977-.466c-.648-.309-6.362-3.071-7.5-5.052a4.587,4.587,0,1,1,7.944-4.587h0a7.534,7.534,0,0,1,.683,3.037,45.591,45.591,0,0,1-.061,5.988ZM1371.256,379a3.1,3.1,0,0,0-2.678,4.646c.6,1.032,3.586,2.8,5.861,3.96a40.171,40.171,0,0,0-.008-4.652,6.151,6.151,0,0,0-.487-2.406h0A3.1,3.1,0,0,0,1371.256,379Z" transform="translate(-1366.676 -377.513)" fill="#414042"/>
      </g>
      <g id="Group_11155" data-name="Group 11155" transform="translate(16.416)">
        <path id="Path_10633" data-name="Path 10633" d="M1375.878,389.446l-.64-1.345c2.287-1.088,6.168-3.26,6.857-4.451a3.1,3.1,0,1,0-5.367-3.1l-1.289-.746a4.587,4.587,0,1,1,7.944,4.588C1382.239,386.375,1376.526,389.137,1375.878,389.446Z" transform="translate(-1375.237 -377.513)" fill="#414042"/>
      </g>
      <g id="Group_11156" data-name="Group 11156" transform="translate(2.335 13.17)">
        <path id="Rectangle_5083" data-name="Rectangle 5083" d="M0,0H28.454a0,0,0,0,1,0,0V24.51a1.816,1.816,0,0,1-1.816,1.816H1.816A1.816,1.816,0,0,1,0,24.51V0A0,0,0,0,1,0,0Z" fill="#fff"/>
      </g>
      <g id="Group_11157" data-name="Group 11157" transform="translate(1.591 12.425)">
        <path id="Path_10634" data-name="Path 10634" d="M1387.7,417.842h-24.848a2.55,2.55,0,0,1-2.548-2.548V414.3h1.489v.992a1.059,1.059,0,0,0,1.058,1.058H1387.7a1.059,1.059,0,0,0,1.058-1.058V391.515H1361.8v15h-1.489V390.026h29.943v25.268A2.551,2.551,0,0,1,1387.7,417.842Z" transform="translate(-1360.306 -390.026)" fill="#414042"/>
      </g>
      <g id="Group_11158" data-name="Group 11158" transform="translate(1.59 30.722)">
        <rect id="Rectangle_5084" data-name="Rectangle 5084" width="1.489" height="4.434" fill="#414042"/>
      </g>
      <g id="Group_11159" data-name="Group 11159" transform="translate(0.744 10.346)">
        <rect id="Rectangle_5085" data-name="Rectangle 5085" width="31.603" height="5.158" rx="1.091" fill="#e6e7e8"/>
      </g>
      <g id="Group_11160" data-name="Group 11160" transform="translate(0 9.602)">
        <path id="Path_10635" data-name="Path 10635" d="M1386.492,393.831h-25.96A1.83,1.83,0,0,1,1358.7,392v-2.992a1.83,1.83,0,0,1,1.828-1.828h25.96v1.489h-25.96a.339.339,0,0,0-.339.339V392a.339.339,0,0,0,.339.339h25.96Z" transform="translate(-1358.704 -387.183)" fill="#414042"/>
      </g>
      <g id="Group_11161" data-name="Group 11161" transform="translate(13.458 10.346)">
        <rect id="Rectangle_5086" data-name="Rectangle 5086" width="6.781" height="29.15" fill="#ffb936"/>
      </g>
      <g id="Group_11162" data-name="Group 11162" transform="translate(12.713 9.602)">
        <path id="Path_10636" data-name="Path 10636" d="M1379.778,417.822h-8.27V387.183h8.27ZM1373,416.332h5.291v-27.66H1373Z" transform="translate(-1371.508 -387.183)" fill="#414042"/>
      </g>
      <g id="Group_11163" data-name="Group 11163" transform="translate(13.196 10.615)">
        <rect id="Rectangle_5087" data-name="Rectangle 5087" width="7.116" height="1.489" transform="translate(0 3.559) rotate(-30.005)" fill="#414042"/>
      </g>
      <g id="Group_11164" data-name="Group 11164" transform="translate(13.367 14.001)">
        <rect id="Rectangle_5088" data-name="Rectangle 5088" width="7.248" height="1.489" transform="translate(0 3.625) rotate(-30.005)" fill="#414042"/>
      </g>
      <g id="Group_11165" data-name="Group 11165" transform="translate(13.339 17.567)">
        <rect id="Rectangle_5089" data-name="Rectangle 5089" width="7.248" height="1.489" transform="translate(0 3.625) rotate(-30.005)" fill="#414042"/>
      </g>
      <g id="Group_11166" data-name="Group 11166" transform="translate(13.31 21.133)">
        <rect id="Rectangle_5090" data-name="Rectangle 5090" width="7.248" height="1.489" transform="translate(0 3.625) rotate(-30.005)" fill="#414042"/>
      </g>
      <g id="Group_11167" data-name="Group 11167" transform="translate(13.282 24.699)">
        <rect id="Rectangle_5091" data-name="Rectangle 5091" width="7.248" height="1.489" transform="translate(0 3.625) rotate(-30.005)" fill="#414042"/>
      </g>
      <g id="Group_11168" data-name="Group 11168" transform="translate(13.253 28.265)">
        <rect id="Rectangle_5092" data-name="Rectangle 5092" width="7.248" height="1.489" transform="translate(0 3.625) rotate(-30.005)" fill="#414042"/>
      </g>
      <g id="Group_11169" data-name="Group 11169" transform="translate(13.225 31.831)">
        <rect id="Rectangle_5093" data-name="Rectangle 5093" width="7.248" height="1.489" transform="matrix(0.866, -0.5, 0.5, 0.866, 0, 3.624)" fill="#414042"/>
      </g>
      <g id="Group_11170" data-name="Group 11170" transform="translate(13.196 35.397)">
        <rect id="Rectangle_5094" data-name="Rectangle 5094" width="7.248" height="1.489" transform="matrix(0.866, -0.5, 0.5, 0.866, 0, 3.625)" fill="#414042"/>
      </g>
    </g>
    <g id="Group_11174" data-name="Group 11174" transform="translate(62.949 14.168)">
      <g id="Group_11172" data-name="Group 11172" transform="translate(0 2.122)">
        <path id="Path_10637" data-name="Path 10637" d="M1388.862,338.35h-4.245a.745.745,0,1,1,0-1.489h4.245a.745.745,0,1,1,0,1.489Z" transform="translate(-1383.872 -336.861)" fill="#414042"/>
      </g>
      <g id="Group_11173" data-name="Group 11173" transform="translate(2.122)">
        <path id="Path_10638" data-name="Path 10638" d="M1386.754,340.457a.745.745,0,0,1-.745-.745v-4.244a.745.745,0,0,1,1.49,0v4.244A.745.745,0,0,1,1386.754,340.457Z" transform="translate(-1386.009 -334.724)" fill="#414042"/>
      </g>
    </g>
    <g id="Group_11177" data-name="Group 11177" transform="translate(131.996 22.009)">
      <g id="Group_11175" data-name="Group 11175" transform="translate(0 2.122)">
        <path id="Path_10639" data-name="Path 10639" d="M1458.4,346.247h-4.244a.745.745,0,0,1,0-1.489h4.244a.745.745,0,0,1,0,1.489Z" transform="translate(-1453.411 -344.758)" fill="#414042"/>
      </g>
      <g id="Group_11176" data-name="Group 11176" transform="translate(2.122)">
        <path id="Path_10640" data-name="Path 10640" d="M1456.293,348.355a.745.745,0,0,1-.745-.745v-4.245a.745.745,0,1,1,1.489,0v4.245A.745.745,0,0,1,1456.293,348.355Z" transform="translate(-1455.548 -342.621)" fill="#414042"/>
      </g>
    </g>
    <g id="Group_11180" data-name="Group 11180" transform="translate(172.756 31.479)">
      <g id="Group_11178" data-name="Group 11178">
        <path id="Path_10641" data-name="Path 10641" d="M1495.206,356.648a.744.744,0,0,1-.526-1.271l3-3a.744.744,0,0,1,1.053,1.052l-3,3A.746.746,0,0,1,1495.206,356.648Z" transform="translate(-1494.461 -352.158)" fill="#414042"/>
      </g>
      <g id="Group_11179" data-name="Group 11179">
        <path id="Path_10642" data-name="Path 10642" d="M1498.208,356.648a.742.742,0,0,1-.526-.217l-3-3a.745.745,0,0,1,1.053-1.052l3,3a.744.744,0,0,1-.526,1.271Z" transform="translate(-1494.461 -352.158)" fill="#414042"/>
      </g>
    </g>
    <g id="Group_11183" data-name="Group 11183" transform="translate(86.568 0.795)">
      <g id="Group_11181" data-name="Group 11181">
        <path id="Path_10643" data-name="Path 10643" d="M1408.4,325.745a.744.744,0,0,1-.526-1.271l3-3a.745.745,0,1,1,1.054,1.053l-3,3A.745.745,0,0,1,1408.4,325.745Z" transform="translate(-1407.66 -321.255)" fill="#414042"/>
      </g>
      <g id="Group_11182" data-name="Group 11182">
        <path id="Path_10644" data-name="Path 10644" d="M1411.406,325.745a.746.746,0,0,1-.527-.217l-3-3a.745.745,0,1,1,1.053-1.053l3,3a.744.744,0,0,1-.526,1.271Z" transform="translate(-1407.66 -321.255)" fill="#414042"/>
      </g>
    </g>
    <g id="Group_11186" data-name="Group 11186" transform="translate(15.634 47.604)">
      <g id="Group_11184" data-name="Group 11184">
        <path id="Path_10645" data-name="Path 10645" d="M1336.964,372.888a.744.744,0,0,1-.526-1.271l3-3a.745.745,0,0,1,1.053,1.052l-3,3A.745.745,0,0,1,1336.964,372.888Z" transform="translate(-1336.219 -368.398)" fill="#414042"/>
      </g>
      <g id="Group_11185" data-name="Group 11185">
        <path id="Path_10646" data-name="Path 10646" d="M1339.964,372.888a.743.743,0,0,1-.526-.217l-3-3a.745.745,0,0,1,1.053-1.052l3,3a.744.744,0,0,1-.527,1.271Z" transform="translate(-1336.219 -368.398)" fill="#414042"/>
      </g>
    </g>
    <g id="Group_11187" data-name="Group 11187" transform="translate(96.637 2.295)">
      <rect id="Rectangle_5095" data-name="Rectangle 5095" width="40.429" height="1.489" fill="#414042"/>
    </g>
    <g id="Group_11188" data-name="Group 11188" transform="translate(75.968 16.29)">
      <rect id="Rectangle_5096" data-name="Rectangle 5096" width="17.273" height="1.489" fill="#414042"/>
    </g>
    <g id="Group_11189" data-name="Group 11189" transform="translate(16.379 39.762)">
      <rect id="Rectangle_5097" data-name="Rectangle 5097" width="29.285" height="1.489" fill="#414042"/>
    </g>
    <g id="Group_11190" data-name="Group 11190" transform="translate(153.313 32.979)">
      <rect id="Rectangle_5098" data-name="Rectangle 5098" width="17.272" height="1.489" fill="#414042"/>
    </g>
    <g id="Group_11191" data-name="Group 11191" transform="translate(70.934 16.29)">
      <rect id="Rectangle_5099" data-name="Rectangle 5099" width="3.545" height="1.489" fill="#414042"/>
    </g>
    <g id="Group_11192" data-name="Group 11192" transform="translate(25.965 73.996)">
      <path id="Path_10647" data-name="Path 10647" d="M1349.051,396.191a1.213,1.213,0,1,1-1.214-1.213A1.213,1.213,0,0,1,1349.051,396.191Z" transform="translate(-1346.624 -394.978)" fill="#414042"/>
    </g>
    <g id="Group_11193" data-name="Group 11193" transform="translate(47.006 38.835)">
      <path id="Path_10648" data-name="Path 10648" d="M1371.157,361.238a1.671,1.671,0,1,1-1.671-1.671A1.67,1.67,0,0,1,1371.157,361.238Z" transform="translate(-1367.815 -359.567)" fill="#414042"/>
    </g>
    <g id="Group_11194" data-name="Group 11194" transform="translate(135.395 12.362)">
      <path id="Path_10649" data-name="Path 10649" d="M1460.176,334.577a1.671,1.671,0,1,1-1.671-1.672A1.67,1.67,0,0,1,1460.176,334.577Z" transform="translate(-1456.834 -332.905)" fill="#414042"/>
    </g>
    <g id="Group_11195" data-name="Group 11195" transform="translate(191.127 33.553)">
      <path id="Path_10650" data-name="Path 10650" d="M1516.305,355.918a1.671,1.671,0,1,1-1.671-1.671A1.671,1.671,0,0,1,1516.305,355.918Z" transform="translate(-1512.963 -354.247)" fill="#414042"/>
    </g>
    <g id="Group_11196" data-name="Group 11196" transform="translate(29.161 19.999)">
      <path id="Path_10651" data-name="Path 10651" d="M1351.976,341.662a1.066,1.066,0,1,1-1.066-1.066A1.067,1.067,0,0,1,1351.976,341.662Z" transform="translate(-1349.843 -340.596)" fill="#414042"/>
    </g>
    <g id="Group_11197" data-name="Group 11197" transform="translate(121.527 26.205)">
      <path id="Path_10652" data-name="Path 10652" d="M1445,347.913a1.066,1.066,0,1,1-1.066-1.066A1.067,1.067,0,0,1,1445,347.913Z" transform="translate(-1442.867 -346.847)" fill="#414042"/>
    </g>
    <g id="Group_11198" data-name="Group 11198" transform="translate(185.506 70.474)">
      <circle id="Ellipse_122" data-name="Ellipse 122" cx="1.066" cy="1.066" r="1.066" fill="#414042"/>
    </g>
    <g id="Group_11199" data-name="Group 11199" transform="translate(67.036 0)">
      <path id="Path_10653" data-name="Path 10653" d="M1390.42,321.671a1.216,1.216,0,1,1-1.215-1.216A1.215,1.215,0,0,1,1390.42,321.671Z" transform="translate(-1387.988 -320.455)" fill="#414042"/>
    </g>
    <g id="Group_11200" data-name="Group 11200" transform="translate(140.831 61.565)" opacity="0.3">
      <path id="Path_10654" data-name="Path 10654" d="M1469.872,413.876l.6-3.66h-3.337V382.459h-.677v.744h-2.027a.6.6,0,0,0-.6.6v28.683l-.262,1.748-.917-.082-.345,3.81h2.756A4.854,4.854,0,0,0,1469.872,413.876Z" transform="translate(-1462.309 -382.459)" fill="#414042"/>
    </g>
    <g id="Group_11201" data-name="Group 11201" transform="translate(60.659 66.256)" opacity="0.3">
      <path id="Path_10655" data-name="Path 10655" d="M1390.4,415.274V393.031a1.069,1.069,0,0,0,.812-1.029v-2.992a1.083,1.083,0,0,0-1.083-1.083h-3.475v-.745h-1.341V410.25h-3.747l.668,4.079a4.339,4.339,0,0,0,3.159,3.493h2.459A2.55,2.55,0,0,0,1390.4,415.274Z" transform="translate(-1381.565 -387.183)" fill="#414042"/>
    </g>
    <g id="Group_11234" data-name="Group 11234" transform="translate(62.645 30.977)">
      <g id="Group_11202" data-name="Group 11202" transform="translate(4.492 7.842)">
        <rect id="Rectangle_5100" data-name="Rectangle 5100" width="75.79" height="54.477" rx="1" fill="#58595b"/>
      </g>
      <g id="Group_11203" data-name="Group 11203" transform="translate(3.747 7.096)">
        <path id="Path_10656" data-name="Path 10656" d="M1461.99,414.766h-72.023a2.63,2.63,0,0,1-2.628-2.627V361.428a2.631,2.631,0,0,1,2.628-2.628h7.97v1.489h-7.97a1.141,1.141,0,0,0-1.139,1.139v50.711a1.14,1.14,0,0,0,1.139,1.138h72.023a1.139,1.139,0,0,0,1.139-1.138V361.428a1.14,1.14,0,0,0-1.139-1.139h-7.976V358.8h7.976a2.631,2.631,0,0,1,2.628,2.628v50.711A2.63,2.63,0,0,1,1461.99,414.766Z" transform="translate(-1387.339 -358.8)" fill="#414042"/>
      </g>
      <g id="Group_11204" data-name="Group 11204" transform="translate(8.173 12.128)">
        <rect id="Rectangle_5101" data-name="Rectangle 5101" width="68.017" height="44.207" fill="#fff"/>
      </g>
      <g id="Group_11205" data-name="Group 11205" transform="translate(0.877 59.09)">
        <path id="Path_10657" data-name="Path 10657" d="M1462.53,417.416h-73.977a3.626,3.626,0,0,1-3.578-3.038l-.526-3.214h34.287l1.312,1.883h9.475l1.418-1.883h36.12l-.458,2.8A4.126,4.126,0,0,1,1462.53,417.416Z" transform="translate(-1384.448 -411.164)" fill="#fff"/>
      </g>
      <g id="Group_11206" data-name="Group 11206" transform="translate(0 58.345)">
        <path id="Path_10658" data-name="Path 10658" d="M1462.522,418.156h-73.976a4.354,4.354,0,0,1-4.313-3.663l-.668-4.079h35.552l1.312,1.884h8.714l1.417-1.884h37.369l-.6,3.66A4.853,4.853,0,0,1,1462.522,418.156Zm-77.2-6.252.384,2.348a2.87,2.87,0,0,0,2.844,2.415h73.976a3.368,3.368,0,0,0,3.336-2.834l.317-1.929H1431.3l-1.418,1.884h-10.234l-1.313-1.884Z" transform="translate(-1383.565 -410.414)" fill="#414042"/>
      </g>
      <g id="Group_11233" data-name="Group 11233" transform="translate(10.336)">
        <g id="Group_11207" data-name="Group 11207" transform="translate(2.11 0.745)">
          <path id="Path_10659" data-name="Path 10659" d="M1396.1,352.4v2.826l3.672,2.82v5.724H1452.2v-5.724l3.672-2.82V352.4Z" transform="translate(-1396.1 -352.403)" fill="#fff"/>
        </g>
        <g id="Group_11208" data-name="Group 11208" transform="translate(1.365)">
          <path id="Path_10660" data-name="Path 10660" d="M1452.94,363.768h-1.489v-6.091l3.672-2.82v-1.714h-58.282v1.714l3.672,2.82v6.091h-1.49v-5.357l-3.672-2.82v-3.938h61.261v3.938l-3.672,2.82Z" transform="translate(-1395.35 -351.653)" fill="#414042"/>
        </g>
        <g id="Group_11209" data-name="Group 11209" transform="translate(40.491 5.685)">
          <rect id="Rectangle_5102" data-name="Rectangle 5102" width="18.243" height="1.489" fill="#414042"/>
        </g>
        <g id="Group_11210" data-name="Group 11210" transform="translate(5.947 13.605)">
          <path id="Rectangle_5103" data-name="Rectangle 5103" d="M1.346,0H50.973a1.346,1.346,0,0,1,1.346,1.346V41.454a0,0,0,0,1,0,0H0a0,0,0,0,1,0,0V1.346A1.346,1.346,0,0,1,1.346,0Z" fill="#fff"/>
        </g>
        <g id="Group_11211" data-name="Group 11211" transform="translate(5.202 12.86)">
          <path id="Path_10661" data-name="Path 10661" d="M1453.023,407.549h-53.809v-40.64a2.468,2.468,0,0,1,2.6-2.3h4.138v1.489h-4.138c-.6,0-1.11.373-1.11.814V406.06h50.83V366.909c0-.441-.508-.814-1.11-.814h-29.8v-1.489h29.8a2.468,2.468,0,0,1,2.6,2.3Z" transform="translate(-1399.214 -364.605)" fill="#414042"/>
        </g>
        <g id="Group_11212" data-name="Group 11212" transform="translate(3.599 52.455)">
          <rect id="Rectangle_5104" data-name="Rectangle 5104" width="57.014" height="3.977" rx="0.965" fill="#58595b"/>
        </g>
        <g id="Group_11213" data-name="Group 11213" transform="translate(2.855 51.711)">
          <path id="Path_10662" data-name="Path 10662" d="M1455.353,408.489h-1.489v-3.054a.215.215,0,0,0-.214-.213h-55.1a.215.215,0,0,0-.215.213v3.054h-1.489v-3.054a1.706,1.706,0,0,1,1.7-1.7h55.1a1.706,1.706,0,0,1,1.7,1.7Z" transform="translate(-1396.85 -403.732)" fill="#414042"/>
        </g>
        <g id="Group_11214" data-name="Group 11214" transform="translate(11.939 31.743)">
          <rect id="Rectangle_5105" data-name="Rectangle 5105" width="12.849" height="24.69" fill="#f4a698"/>
        </g>
        <g id="Group_11215" data-name="Group 11215" transform="translate(11.939 31.743)">
          <path id="Path_10663" data-name="Path 10663" d="M1406,400.27l12.85-12.849v-3.8h-3.166L1406,393.306Z" transform="translate(-1405.999 -383.622)" fill="#ff6846"/>
        </g>
        <g id="Group_11216" data-name="Group 11216" transform="translate(11.939 38.398)">
          <path id="Path_10664" data-name="Path 10664" d="M1406,405.6l12.85-12.849v-2.425L1406,403.174Z" transform="translate(-1405.999 -390.325)" fill="#ff6846"/>
        </g>
        <g id="Group_11217" data-name="Group 11217" transform="translate(11.194 30.998)">
          <path id="Path_10665" data-name="Path 10665" d="M1419.587,406.817h-1.49V384.362h-11.36v22.456h-1.489V382.872h14.339Z" transform="translate(-1405.249 -382.872)" fill="#ff6846"/>
        </g>
        <g id="Group_11218" data-name="Group 11218" transform="translate(11.939 19.681)">
          <rect id="Rectangle_5106" data-name="Rectangle 5106" width="12.849" height="7.928" fill="#ff6846"/>
        </g>
        <g id="Group_11219" data-name="Group 11219" transform="translate(11.194 18.937)">
          <path id="Path_10666" data-name="Path 10666" d="M1419.587,380.142h-14.338v-9.417h14.338Zm-12.848-1.489H1418.1v-6.438h-11.359Z" transform="translate(-1405.249 -370.725)" fill="#414042"/>
        </g>
        <g id="Group_11220" data-name="Group 11220" transform="translate(13.545 42.022)">
          <path id="Path_10667" data-name="Path 10667" d="M1409.9,398.547a2.287,2.287,0,1,1,2.288-2.287A2.289,2.289,0,0,1,1409.9,398.547Zm0-3.084a.8.8,0,1,0,.8.8A.8.8,0,0,0,1409.9,395.463Z" transform="translate(-1407.617 -393.974)" fill="#414042"/>
        </g>
        <g id="Group_11221" data-name="Group 11221" transform="translate(32.942 27.285)">
          <rect id="Rectangle_5107" data-name="Rectangle 5107" width="17.771" height="20.386" fill="#ff6846"/>
        </g>
        <g id="Group_11222" data-name="Group 11222" transform="translate(32.942 27.285)">
          <path id="Path_10668" data-name="Path 10668" d="M1427.152,386.5v9.95l17.315-17.315h-9.95Z" transform="translate(-1427.152 -379.132)" fill="#f4a698"/>
        </g>
        <g id="Group_11223" data-name="Group 11223" transform="translate(34.764 31.722)">
          <path id="Path_10669" data-name="Path 10669" d="M1434.206,399.55l10.73-10.73V383.6l-15.949,15.949Z" transform="translate(-1428.987 -383.601)" fill="#f4a698"/>
        </g>
        <g id="Group_11224" data-name="Group 11224" transform="translate(32.198 26.54)">
          <path id="Path_10670" data-name="Path 10670" d="M1445.662,400.257H1426.4V378.382h19.26Zm-17.77-1.489h16.281v-18.9h-16.281Z" transform="translate(-1426.402 -378.382)" fill="#414042"/>
        </g>
        <g id="Group_11225" data-name="Group 11225" transform="translate(29.3 15.095)">
          <path id="Rectangle_5108" data-name="Rectangle 5108" d="M0,0H24.827a0,0,0,0,1,0,0V14.781a1.866,1.866,0,0,1-1.866,1.866H1.866A1.866,1.866,0,0,1,0,14.781V0A0,0,0,0,1,0,0Z" fill="#ffb936"/>
        </g>
        <g id="Group_11226" data-name="Group 11226" transform="translate(29.299 15.095)">
          <path id="Path_10671" data-name="Path 10671" d="M1427.126,383.5h0a3.643,3.643,0,0,1-3.643-3.643v-13h3.643Z" transform="translate(-1423.483 -366.856)" fill="#fff"/>
        </g>
        <g id="Group_11227" data-name="Group 11227" transform="translate(36.585 15.095)">
          <rect id="Rectangle_5109" data-name="Rectangle 5109" width="3.643" height="16.647" fill="#fff"/>
        </g>
        <g id="Group_11228" data-name="Group 11228" transform="translate(43.871 15.095)">
          <rect id="Rectangle_5110" data-name="Rectangle 5110" width="3.643" height="16.647" fill="#fff"/>
        </g>
        <g id="Group_11229" data-name="Group 11229" transform="translate(50.713 15.095)">
          <path id="Path_10672" data-name="Path 10672" d="M1448.463,380.932V366.856h-3.414V383.5h.842A2.572,2.572,0,0,0,1448.463,380.932Z" transform="translate(-1445.049 -366.856)" fill="#fff"/>
        </g>
        <g id="Group_11230" data-name="Group 11230" transform="translate(28.555 14.351)">
          <path id="Path_10673" data-name="Path 10673" d="M1444.939,384.243h-18.248a3.961,3.961,0,0,1-3.958-3.957v-14.18h26.317v14.026A4.116,4.116,0,0,1,1444.939,384.243ZM1424.222,367.6v12.691a2.471,2.471,0,0,0,2.469,2.467h18.248a2.625,2.625,0,0,0,2.621-2.621V367.6Z" transform="translate(-1422.733 -366.106)" fill="#414042"/>
        </g>
        <g id="Group_11231" data-name="Group 11231" transform="translate(1.117 10.625)">
          <path id="Path_10674" data-name="Path 10674" d="M1454.6,368.313h-57.014l-2.482-5.959h61.482Z" transform="translate(-1395.1 -362.354)" fill="#d1d3d4"/>
        </g>
        <g id="Group_11232" data-name="Group 11232" transform="translate(0 9.881)">
          <path id="Path_10675" data-name="Path 10675" d="M1455.125,369.053h-58.047l-3.1-7.449h63.632Zm-57.054-1.489h55.98l1.49-4.47h-59.331Z" transform="translate(-1393.975 -361.604)" fill="#414042"/>
        </g>
      </g>
    </g>
    <g id="Group_11244" data-name="Group 11244" transform="translate(24.377 44.35)">
      <g id="Group_11235" data-name="Group 11235" transform="translate(8.017 8.761)">
        <rect id="Rectangle_5111" data-name="Rectangle 5111" width="1.489" height="10.108" fill="#414042"/>
      </g>
      <g id="Group_11236" data-name="Group 11236" transform="translate(7.536 19.056)">
        <path id="Path_10676" data-name="Path 10676" d="M1354.146,384.313h-.613l-.919,1.3v17.51h2.451v-17.51Z" transform="translate(-1352.615 -384.313)" fill="#58595b"/>
      </g>
      <g id="Group_11237" data-name="Group 11237" transform="translate(6.791 18.311)">
        <path id="Path_10677" data-name="Path 10677" d="M1355.8,403.117h-1.489V385.844l-.481-.68-.481.68v17.273h-1.49V385.37l1.279-1.808h1.384l1.278,1.808Z" transform="translate(-1351.864 -383.563)" fill="#414042"/>
      </g>
      <g id="Group_11238" data-name="Group 11238" transform="translate(0.745 0.744)">
        <circle id="Ellipse_123" data-name="Ellipse 123" cx="8.016" cy="8.016" r="8.016" fill="#ff6846"/>
      </g>
      <g id="Group_11239" data-name="Group 11239" transform="translate(2.801 0.745)">
        <path id="Path_10678" data-name="Path 10678" d="M1353.589,365.871a7.986,7.986,0,0,0-5.743,2.43,8.009,8.009,0,0,1,9.954,12.4,8.01,8.01,0,0,0-4.211-14.827Z" transform="translate(-1347.846 -365.871)" fill="#f4a698"/>
      </g>
      <g id="Group_11240" data-name="Group 11240">
        <path id="Path_10679" data-name="Path 10679" d="M1353.787,382.642a8.761,8.761,0,1,1,8.761-8.761A8.771,8.771,0,0,1,1353.787,382.642Zm0-16.032a7.271,7.271,0,1,0,7.271,7.271A7.28,7.28,0,0,0,1353.787,366.61Z" transform="translate(-1345.025 -365.121)" fill="#414042"/>
      </g>
      <g id="Group_11241" data-name="Group 11241" transform="translate(6.662 37.753)">
        <rect id="Rectangle_5112" data-name="Rectangle 5112" width="4.199" height="14.217" fill="#58595b"/>
      </g>
      <g id="Group_11242" data-name="Group 11242" transform="translate(6.662 37.753)">
        <rect id="Rectangle_5113" data-name="Rectangle 5113" width="1.623" height="14.217" fill="#808285"/>
      </g>
      <g id="Group_11243" data-name="Group 11243" transform="translate(5.917 37.008)">
        <path id="Path_10680" data-name="Path 10680" d="M1356.673,418.1h-5.688V402.393h5.688Zm-4.2-1.489h2.71V403.882h-2.71Z" transform="translate(-1350.984 -402.393)" fill="#414042"/>
      </g>
    </g>
    <g id="Group_11254" data-name="Group 11254" transform="translate(169.841 44.35)">
      <g id="Group_11245" data-name="Group 11245" transform="translate(8.017 8.761)">
        <rect id="Rectangle_5114" data-name="Rectangle 5114" width="1.489" height="10.108" fill="#414042"/>
      </g>
      <g id="Group_11246" data-name="Group 11246" transform="translate(7.536 19.056)">
        <path id="Path_10681" data-name="Path 10681" d="M1500.646,384.313h-.613l-.919,1.3v17.51h2.451v-17.51Z" transform="translate(-1499.114 -384.313)" fill="#58595b"/>
      </g>
      <g id="Group_11247" data-name="Group 11247" transform="translate(6.791 18.311)">
        <path id="Path_10682" data-name="Path 10682" d="M1502.305,403.117h-1.489V385.844l-.481-.68-.481.68v17.273h-1.489V385.37l1.278-1.808h1.384l1.278,1.808Z" transform="translate(-1498.364 -383.563)" fill="#414042"/>
      </g>
      <g id="Group_11248" data-name="Group 11248" transform="translate(0.745 0.744)">
        <circle id="Ellipse_124" data-name="Ellipse 124" cx="8.016" cy="8.016" r="8.016" fill="#f4a698"/>
      </g>
      <g id="Group_11249" data-name="Group 11249" transform="translate(2.801 0.745)">
        <path id="Path_10683" data-name="Path 10683" d="M1500.089,365.871a7.984,7.984,0,0,0-5.743,2.43,8.009,8.009,0,0,1,9.954,12.4,8.01,8.01,0,0,0-4.211-14.827Z" transform="translate(-1494.346 -365.871)" fill="#ff6846"/>
      </g>
      <g id="Group_11250" data-name="Group 11250">
        <path id="Path_10684" data-name="Path 10684" d="M1500.287,382.642a8.761,8.761,0,1,1,8.76-8.761A8.771,8.771,0,0,1,1500.287,382.642Zm0-16.032a7.271,7.271,0,1,0,7.271,7.271A7.28,7.28,0,0,0,1500.287,366.61Z" transform="translate(-1491.525 -365.121)" fill="#414042"/>
      </g>
      <g id="Group_11251" data-name="Group 11251" transform="translate(6.662 37.753)">
        <rect id="Rectangle_5115" data-name="Rectangle 5115" width="4.199" height="14.217" fill="#58595b"/>
      </g>
      <g id="Group_11252" data-name="Group 11252" transform="translate(6.662 37.753)">
        <rect id="Rectangle_5116" data-name="Rectangle 5116" width="1.623" height="14.217" fill="#808285"/>
      </g>
      <g id="Group_11253" data-name="Group 11253" transform="translate(5.917 37.008)">
        <path id="Path_10685" data-name="Path 10685" d="M1503.173,418.1h-5.689V402.393h5.689Zm-4.2-1.489h2.71V403.882h-2.71Z" transform="translate(-1497.484 -402.393)" fill="#414042"/>
      </g>
    </g>
    <g id="Group_11258" data-name="Group 11258" transform="translate(19.379 95.575)">
      <g id="Group_11255" data-name="Group 11255">
        <rect id="Rectangle_5117" data-name="Rectangle 5117" width="2.72" height="1.489" fill="#414042"/>
      </g>
      <g id="Group_11256" data-name="Group 11256" transform="translate(168.744)">
        <rect id="Rectangle_5118" data-name="Rectangle 5118" width="6.007" height="1.489" fill="#414042"/>
      </g>
      <g id="Group_11257" data-name="Group 11257" transform="translate(4.53)">
        <rect id="Rectangle_5119" data-name="Rectangle 5119" width="162.663" height="1.489" fill="#414042"/>
      </g>
    </g>
  </g>
</svg>