<svg xmlns="http://www.w3.org/2000/svg" width="19.395" height="19.395" viewBox="0 0 19.395 19.395">
  <path id="Path_257" data-name="Path 257" d="M19.395,9.448A9.538,9.538,0,0,1,5.271,17.721L0,19.395l1.718-5.07A9.351,9.351,0,0,1,.353,9.447a9.521,9.521,0,0,1,19.042,0ZM9.872,1.506a7.982,7.982,0,0,0-8,7.943,7.857,7.857,0,0,0,1.525,4.656l-1,2.949,3.075-.977a8.014,8.014,0,0,0,12.409-6.63A7.982,7.982,0,0,0,9.872,1.506Zm4.809,10.118c-.059-.1-.215-.154-.448-.27s-1.381-.676-1.594-.752-.371-.117-.526.115-.6.753-.739.909-.272.175-.505.06a6.434,6.434,0,0,1-1.878-1.149,6.967,6.967,0,0,1-1.3-1.6c-.137-.231-.014-.357.1-.472s.233-.271.35-.407a1.544,1.544,0,0,0,.233-.385.431.431,0,0,0-.02-.407c-.058-.116-.524-1.255-.72-1.718s-.388-.386-.525-.386-.292-.019-.447-.019a.854.854,0,0,0-.622.288A2.592,2.592,0,0,0,5.23,7.359a4.477,4.477,0,0,0,.952,2.395,9.558,9.558,0,0,0,3.987,3.5c2.373.927,2.373.617,2.8.578a2.354,2.354,0,0,0,1.575-1.1A1.924,1.924,0,0,0,14.681,11.624Z" fill="#1d293f"/>
</svg>
